<svg width="430" height="367" viewBox="0 0 430 367" fill="none" xmlns="http://www.w3.org/2000/svg">
<rect width="1440" height="367" fill="#1760CD"/>
<mask id="mask0_546_322" style="mask-type:alpha" maskUnits="userSpaceOnUse" x="-21" y="0" width="1440" height="367">
<rect x="-21" width="1440" height="367" fill="#0057BE"/>
</mask>
<g mask="url(#mask0_546_322)">
<g filter="url(#filter0_f_546_322)">
<ellipse cx="463" cy="110" rx="340" ry="257" fill="#00AAFF" fill-opacity="0.68"/>
</g>
<mask id="mask1_546_322" style="mask-type:luminance" maskUnits="userSpaceOnUse" x="-676" y="-289" width="1499" height="800">
<path d="M823 -289H-676V511H823V-289Z" fill="white"/>
</mask>
<g mask="url(#mask1_546_322)">
<path d="M-263.9 610.2C-258.279 516.1 -192.823 427.4 -92.8895 377.7C-42.2983 352.5 16.2877 337.7 75.873 334.5C143.578 330.8 198.291 349.7 263.123 359.3C313.589 366.8 366.054 368.6 415.771 357.3C467.237 345.7 513.706 320.2 545.809 286C599.524 228.9 590.655 156.8 625.631 93.5C657.235 36.2 724.066 -7.79999 800.39 -21.6C876.714 -35.4 960.658 -18.6 1019.99 22.3" stroke="#00AAFF" stroke-miterlimit="10"/>
<path d="M-272.52 610.4C-267.273 517.2 -202.941 429.2 -104.507 379.4C-53.6655 353.5 5.54492 338.4 65.6298 335.2C83.4929 334.2 100.482 334.9 117.096 336.5C163.69 341 206.536 353.5 254.629 361C264.122 362.5 273.741 363.7 283.235 364.8C325.207 369.3 367.928 368.9 408.776 359.6C431.261 354.5 452.622 346.7 472.359 336.5C498.091 323.2 520.701 306.1 538.939 286.4C541.562 283.5 544.186 280.6 546.559 277.7C586.532 228.9 591.279 173.6 615.388 123.5C619.136 115.8 623.258 108.1 628.005 100.7C647.742 70.1002 678.346 44.1002 715.571 25.1002C743.053 11.1002 774.157 0.900163 806.885 -4.39984C829.245 -7.99984 852.23 -9.29984 874.965 -8.49984C930.928 -6.59984 986.016 7.30017 1025.99 32.3002" stroke="#00AAFF" stroke-miterlimit="10"/>
<path d="M-281.139 610.5C-276.267 518.2 -212.809 431.1 -115.999 381.1C-64.783 354.7 -5.07285 339.1 55.6366 336C73.6246 335.1 90.8633 335.7 107.602 337.3C154.696 342 197.917 354.8 246.384 362.6C256.003 364.1 265.622 365.5 275.24 366.6C317.587 371.4 360.933 371.3 402.031 361.8C424.641 356.6 446.251 348.6 465.988 338C491.721 324.3 513.956 306.7 532.319 286.7C534.942 283.8 537.565 280.8 539.939 277.9C580.537 228.4 589.78 175.5 616.887 128.9C621.01 121.7 625.631 114.6 630.753 107.8C651.989 79.6001 683.468 56.0001 721.193 39.0001C749.049 26.4001 780.528 17.4001 813.631 12.7001C836.241 9.50008 859.475 8.30006 882.46 8.90006C939.047 10.2001 994.51 21.2001 1032.49 42.3001" stroke="#00AAFF" stroke-miterlimit="10"/>
<path d="M-289.758 610.6C-285.261 519.2 -222.927 432.8 -127.491 382.8C-76.0255 355.8 -15.6907 339.8 45.6434 336.7C63.7563 335.8 81.2447 336.4 98.2334 338.1C145.827 342.9 189.547 356 238.265 364.2C247.884 365.8 257.627 367.3 267.37 368.4C310.217 373.6 353.938 373.6 395.41 363.9C418.145 358.6 439.88 350.4 459.742 339.4C485.475 325.3 507.46 307.2 525.823 287C528.571 284 531.07 281.1 533.568 278.1C574.79 228 588.406 177.3 618.511 134.3C623.133 127.7 628.13 121.2 633.626 114.8C656.486 89.0001 688.714 67.9001 727.064 52.8001C755.42 41.7001 787.149 33.8001 820.626 29.7001C843.486 26.9001 866.846 25.9001 890.205 26.2001C947.417 27.0001 1003.25 35.0001 1039.11 52.1001" stroke="#00AAFF" stroke-miterlimit="10"/>
<path d="M-298.377 610.7C-294.255 520.2 -233.046 434.5 -139.108 384.4C-87.3927 356.9 -26.5583 340.5 35.5253 337.4C53.888 336.5 71.3763 337.1 88.6148 338.9C136.583 343.8 180.928 357.3 229.896 365.8C239.639 367.5 249.383 369 259.251 370.3C302.472 375.8 346.818 376 388.54 366.2C411.524 360.8 433.26 352.4 453.122 341.1C478.855 326.6 500.465 308 519.078 287.5C521.826 284.5 524.324 281.5 526.823 278.5C568.67 227.7 586.658 179.4 619.761 139.9C624.882 133.8 630.254 127.9 636.125 122.1C660.483 98.7 693.586 80.1 732.435 67C761.166 57.3 793.395 50.6 827.122 47.1C850.232 44.7 873.841 43.8 897.45 43.9C955.162 44.2 1011.5 49.2 1045.35 62.3" stroke="#00AAFF" stroke-miterlimit="10"/>
<path d="M-307.121 610.8C-303.374 521.2 -243.289 436.2 -150.725 386.1C-98.885 358 -37.3011 341.2 25.4071 338.1C43.8948 337.2 61.633 337.9 78.9964 339.7C127.464 344.8 172.309 358.5 221.526 367.4C231.395 369.2 241.263 370.8 251.131 372.1C294.852 378 339.698 378.3 381.794 368.3C404.904 362.8 426.889 354.2 446.751 342.5C472.484 327.6 493.845 308.5 512.457 287.7C515.205 284.7 517.829 281.6 520.327 278.6C562.799 227.2 585.159 181.2 621.385 145.1C627.006 139.6 632.752 134.2 638.998 129C664.855 107.9 698.833 91.9 738.306 80.7C767.412 72.4 800.015 66.9 834.118 63.9C857.477 61.9 881.336 61.1 905.195 61C963.531 60.8 1020.37 62.8 1051.97 71.9" stroke="#00AAFF" stroke-miterlimit="10"/>
<path d="M-315.74 610.9C-312.367 522.2 -253.282 437.9 -162.218 387.8C-110.127 359.1 -47.9189 341.9 15.4138 338.9C34.0264 338 52.0144 338.7 69.5028 340.6C118.47 345.8 163.69 359.9 213.282 369.1C223.15 371 233.144 372.6 243.137 374C287.233 380.2 332.577 380.8 375.049 370.6C398.283 365 420.394 356.2 440.38 344.1C465.988 328.7 487.099 309.1 505.837 288.1C508.585 285 511.208 282 513.706 278.9C556.803 226.9 583.535 183.1 622.759 150.6C628.755 145.6 635.001 140.8 641.621 136.2C668.978 117.5 703.705 103.9 743.803 94.7C773.408 87.9 806.261 83.5 840.738 81.1C864.347 79.5 888.456 78.8 912.44 78.5C971.276 77.7 1028.61 76.8 1058.09 82" stroke="#00AAFF" stroke-miterlimit="10"/>
<path d="M-324.359 611C-321.361 523.2 -263.4 439.6 -173.835 389.4C-121.495 360.1 -58.6616 342.5 5.17079 339.5C23.9083 338.6 42.0212 339.3 59.8843 341.2C109.351 346.5 155.071 360.9 204.913 370.6C214.906 372.5 224.899 374.3 235.018 375.8C279.613 382.4 325.457 383.1 368.179 372.7C391.538 367 413.773 358 433.885 345.5C459.493 329.7 480.354 309.6 499.091 288.3C501.839 285.2 504.463 282.1 507.086 279C550.932 226.3 581.911 184.9 624.133 155.9C630.629 151.5 637.249 147.2 644.245 143.2C673.225 126.9 708.701 115.8 749.424 108.5C779.404 103.1 812.757 99.9001 847.484 98.1001C871.343 96.9001 895.702 96.4001 919.936 95.8001C979.396 94.5001 1037.11 90.6001 1064.59 91.8001" stroke="#00AAFF" stroke-miterlimit="10"/>
<path d="M-332.979 611.2C-330.355 524.3 -273.518 441.4 -185.327 391.2C-132.737 361.3 -69.4043 343.3 -4.8224 340.4C14.04 339.5 32.4028 340.3 50.3908 342.2C100.357 347.7 146.577 362.4 196.668 372.4C206.786 374.4 216.905 376.3 227.023 377.8C271.993 384.7 318.337 385.6 361.433 375C385.043 369.2 407.278 360 427.514 347.2C453.122 330.9 473.609 310.4 492.471 288.8C495.219 285.7 497.842 282.5 500.466 279.4C544.936 226.1 580.162 186.9 625.632 161.5C632.502 157.6 639.623 153.9 646.993 150.5C677.472 136.6 713.823 128 755.046 122.7C785.525 118.8 819.128 116.7 854.23 115.5C878.338 114.7 902.947 114.3 927.431 113.5C987.516 111.7 1045.6 104.9 1070.96 102" stroke="#00AAFF" stroke-miterlimit="10"/>
<path d="M-341.724 611.3C-339.475 525.4 -283.762 443 -196.945 392.8C-144.105 362.2 -80.1481 343.9 -14.9416 341C4.04576 340.2 22.6583 340.9 40.7712 342.9C91.2376 348.5 137.832 363.5 188.298 373.9C198.416 376 208.659 377.9 218.902 379.5C264.372 386.8 311.216 387.8 354.562 377.1C378.296 371.2 400.781 361.8 420.893 348.6C446.501 331.9 466.737 310.9 485.6 289C488.348 285.8 491.096 282.6 493.719 279.5C538.814 225.5 578.413 188.7 626.88 166.8C634.25 163.5 641.745 160.3 649.49 157.5C681.469 145.9 718.694 139.8 760.541 136.5C791.396 134 825.498 133.1 860.849 132.5C885.208 132.1 910.066 131.8 934.8 130.9C995.384 128.6 1053.97 118.8 1077.2 111.9" stroke="#00AAFF" stroke-miterlimit="10"/>
<path d="M-350.343 611.4C-348.469 526.4 -293.88 444.7 -208.562 394.5C-155.473 363.3 -90.8909 344.6 -25.0598 341.8C-5.82264 341 12.9149 341.7 31.2777 343.8C82.2437 349.5 129.337 364.9 180.053 375.6C190.297 377.8 200.54 379.8 210.908 381.5C256.752 389.1 304.221 390.4 347.816 379.4C371.676 373.4 394.285 363.8 414.522 350.2C440.13 333.1 459.992 311.6 478.979 289.4C481.727 286.2 484.475 283 487.099 279.8C532.818 225.2 576.664 190.6 628.254 172.2C636.124 169.4 643.994 166.8 652.113 164.6C685.716 155.4 723.691 151.8 766.162 150.4C797.392 149.3 831.869 149.6 867.595 149.5C892.203 149.5 917.187 149.3 942.17 148.2C1003.38 145.4 1062.46 132.6 1083.58 121.8" stroke="#00AAFF" stroke-miterlimit="10"/>
<path d="M-358.962 611.5C-357.463 527.4 -304.123 446.3 -220.055 396.2C-166.84 364.4 -101.634 345.3 -35.053 342.5C-15.6909 341.7 3.17147 342.4 21.7841 344.6C73.1248 350.4 120.843 366.1 171.809 377.2C182.052 379.5 192.42 381.5 202.913 383.3C249.132 391.3 297.1 392.7 341.196 381.6C365.305 375.5 387.915 365.7 408.276 351.8C433.759 334.3 453.496 312.3 472.483 289.8C475.232 286.5 477.98 283.3 480.728 280.1C527.072 224.8 575.165 192.5 630.003 177.7C638.248 175.5 646.617 173.5 655.112 171.8C690.213 165 729.062 163.9 772.033 164.4C803.762 164.8 838.489 166.2 874.59 166.7C899.449 167.1 924.682 167.1 949.915 165.7C1011.62 162.3 1071.21 146.6 1090.2 131.8" stroke="#00AAFF" stroke-miterlimit="10"/>
<path d="M-367.581 611.6C-366.457 528.4 -314.242 448 -231.547 397.8C-178.083 365.4 -112.251 345.9 -45.0463 343.2C-25.5593 342.4 -6.44702 343.2 12.2905 345.3C64.1309 351.3 112.349 367.3 163.689 378.7C174.057 381 184.551 383.2 195.044 385C241.762 393.3 290.23 394.9 334.575 383.6C358.809 377.4 381.544 367.4 402.03 353.1C427.513 335.2 446.875 312.6 465.988 289.9C468.736 286.6 471.484 283.3 474.232 280.1C521.201 224.2 573.666 194.2 631.502 182.9C640.246 181.2 648.991 179.8 657.86 178.7C694.46 174.3 734.059 175.6 777.78 178.2C809.883 180 845.11 182.6 881.461 183.7C906.569 184.5 932.052 184.6 957.535 183C1019.87 179.1 1079.83 160.4 1096.82 141.6" stroke="#00AAFF" stroke-miterlimit="10"/>
<path d="M-376.2 611.7C-375.451 529.4 -324.36 449.6 -243.164 399.5C-189.45 366.4 -122.994 346.7 -55.2893 343.9C-35.6773 343.1 -16.3153 343.9 2.54714 346.1C54.8872 352.2 103.48 368.5 155.195 380.4C165.688 382.8 176.181 385 186.799 387C233.893 395.7 282.86 397.4 327.58 386C351.939 379.7 374.924 369.5 395.41 354.8C420.893 336.5 440.005 313.4 459.117 290.4C461.866 287.1 464.614 283.7 467.487 280.5C515.205 223.9 571.792 196.2 632.752 188.5C641.871 187.3 651.114 186.5 660.358 186C698.583 183.9 738.931 187.8 783.151 192.3C815.63 195.6 851.231 199.3 887.956 201C913.19 202.2 939.047 202.4 964.78 200.6C1027.74 196.2 1088.07 174.5 1102.94 151.7" stroke="#00AAFF" stroke-miterlimit="10"/>
<path d="M-384.944 611.8C-384.57 530.4 -334.728 451.2 -254.781 401.1C-200.942 367.4 -133.737 347.3 -65.4075 344.6C-45.6707 343.8 -26.1837 344.6 -6.94655 346.9C45.8932 353.1 94.9855 369.8 146.951 382C157.444 384.5 168.062 386.8 178.805 388.8C226.398 397.8 275.865 399.8 320.835 388.1C345.443 381.8 368.428 371.4 388.914 356.2C414.397 337.5 433.135 313.9 452.372 290.6C455.12 287.2 457.993 283.9 460.741 280.5C509.084 223.3 569.919 197.8 634.001 193.7C643.619 193.1 653.238 192.8 662.857 192.9C702.58 193.2 743.803 199.6 788.648 206C821.626 210.7 857.477 215.6 894.577 217.8C920.06 219.4 946.168 219.7 972.15 217.7C1035.61 212.8 1096.44 188.1 1109.18 161.4" stroke="#00AAFF" stroke-miterlimit="10"/>
<path d="M-393.563 612C-393.563 531.5 -344.846 452.9 -266.273 402.9C-212.184 368.5 -144.48 348.1 -75.4007 345.4C-55.5389 344.6 -35.8021 345.5 -16.44 347.8C36.8994 354.2 86.4913 371.1 138.706 383.7C149.324 386.3 160.067 388.7 170.81 390.7C218.778 400.1 268.87 402.2 314.089 390.4C338.823 384 362.058 373.4 382.544 357.9C408.027 338.8 426.514 314.7 445.877 291.1C448.625 287.7 451.498 284.3 454.371 280.9C503.338 223.1 568.545 199.7 635.75 199.2C645.868 199.1 655.861 199.4 665.855 200C707.077 202.7 749.174 211.6 794.519 219.9C827.872 226 864.223 232.1 901.573 234.9C927.305 236.9 953.663 237.4 979.77 235.1C1043.85 229.6 1105.06 202 1115.8 171.3" stroke="#00AAFF" stroke-miterlimit="10"/>
<path d="M-402.182 612.1C-402.557 532.5 -355.089 454.5 -277.89 404.6C-223.676 369.6 -155.222 348.8 -85.5186 346.2C-65.532 345.4 -45.5453 346.3 -26.0583 348.7C27.7808 355.2 77.7474 372.5 130.337 385.4C141.08 388 151.823 390.5 162.691 392.7C211.158 402.4 261.625 404.7 307.344 392.7C332.203 386.2 355.562 375.4 376.173 359.5C401.656 339.9 419.769 315.4 439.256 291.5C442.129 288.1 444.877 284.6 447.751 281.2C497.342 222.7 566.796 201.6 637.124 204.7C647.617 205.2 658.11 206 668.478 207.2C711.325 212.3 754.171 223.6 800.14 234C833.993 241.6 870.594 248.7 908.318 252.2C934.301 254.6 960.908 255.2 987.266 252.7C1051.85 246.7 1113.68 216.2 1122.18 181.4" stroke="#00AAFF" stroke-miterlimit="10"/>
<path d="M-410.802 612.2C-411.551 533.5 -365.207 456.1 -289.383 406.2C-235.044 370.5 -165.84 349.4 -95.5119 346.8C-75.2754 346.1 -55.2887 346.9 -35.427 349.3C18.7869 355.9 69.3781 373.5 122.218 386.8C132.961 389.5 143.828 392.1 154.821 394.3C203.664 404.4 254.754 406.9 300.724 394.7C325.832 388.1 349.191 377.1 369.928 360.8C395.411 340.8 413.274 315.7 432.761 291.6C435.634 288.1 438.382 284.7 441.38 281.2C491.596 222.1 565.422 203.2 638.748 209.9C649.741 210.9 660.609 212.3 671.351 214.1C715.697 221.5 759.418 235.4 805.887 247.7C840.114 256.7 877.089 265 915.189 269.1C941.421 271.9 968.278 272.6 994.886 269.9C1060.09 263.4 1122.3 229.9 1128.8 191.1" stroke="#00AAFF" stroke-miterlimit="10"/>
<path d="M-419.546 612.3C-420.67 534.5 -375.575 457.6 -301 407.9C-246.411 371.5 -176.583 350.1 -105.63 347.6C-85.2689 346.9 -65.0324 347.7 -45.0457 350.2C9.66781 357 60.7588 374.9 113.848 388.6C124.716 391.4 135.584 394 146.701 396.4C196.043 406.8 247.509 409.5 293.853 397.1C319.086 390.4 342.696 379.2 363.432 362.6C388.915 342.2 406.403 316.6 426.015 292.3C428.888 288.8 431.761 285.3 434.634 281.8C485.475 222 563.548 205.4 640.122 215.7C651.49 217.2 662.857 219.2 673.975 221.6C719.819 231.4 764.414 247.8 811.508 262C846.11 272.5 883.585 281.9 921.934 286.5C948.417 289.7 975.399 290.5 1002.38 287.7C1068.09 280.7 1130.79 244.2 1135.17 201.5" stroke="#00AAFF" stroke-miterlimit="10"/>
<path d="M-428.165 612.4C-429.664 535.5 -385.818 459.2 -312.617 409.6C-257.903 372.5 -187.45 350.8 -115.873 348.3C-95.3869 347.6 -74.9006 348.5 -54.789 351C0.424156 357.9 52.0148 376.1 105.354 390.2C116.347 393.1 127.34 395.8 138.457 398.2C188.174 409 240.264 411.8 286.858 399.3C312.216 392.5 335.95 381.1 356.686 364.1C382.169 343.3 399.408 317.2 419.02 292.6C421.893 289 424.766 285.5 427.764 282C479.355 221.6 561.675 207 641.247 221.1C653.114 223.2 664.856 225.7 676.348 228.7C723.692 240.9 769.036 259.7 816.755 275.9C851.856 287.8 889.581 298.4 928.305 303.6C955.037 307.2 982.269 308.2 1009.38 305.1C1075.71 297.5 1138.79 258.1 1141.04 211.4" stroke="#00AAFF" stroke-miterlimit="10"/>
<path d="M-436.784 612.5C-438.658 536.5 -396.186 460.7 -324.109 411.2C-269.396 373.4 -198.068 351.4 -125.867 349C-105.255 348.3 -84.6442 349.2 -64.2827 351.8C-8.56992 358.8 43.3954 377.4 97.1096 391.8C108.102 394.8 119.22 397.5 130.462 400C180.679 411.1 233.269 414.1 280.113 401.4C305.596 394.5 329.455 382.9 350.316 365.5C375.799 344.3 392.662 317.7 412.399 292.8C415.272 289.2 418.145 285.6 421.143 282.1C473.359 221 560.051 208.8 642.621 226.3C654.987 228.9 667.104 232.1 678.971 235.6C727.939 250.2 774.033 271.5 822.376 289.7C857.852 303 895.952 314.8 935.05 320.6C962.032 324.6 989.514 325.7 1016.87 322.4C1083.83 314.3 1147.28 271.9 1147.53 221.2" stroke="#00AAFF" stroke-miterlimit="10"/>
<path d="M-445.404 612.6C-447.652 537.5 -406.305 462.3 -335.602 412.9C-264.899 363.5 -166.34 340.8 -73.652 352.6C-5.82221 361.2 56.5111 386.9 122.467 401.9C200.665 419.6 284.734 417.6 343.944 367.1C373.05 342.3 390.538 310.5 414.647 282.4C467.487 220.7 558.551 210.7 644.244 231.8C709.576 247.9 767.412 278.7 828.121 303.7C888.956 328.7 957.035 348.5 1024.49 339.9C1091.95 331.3 1156.03 285.9 1154.03 231.2" stroke="#00AAFF" stroke-miterlimit="10"/>
<path d="M-428.165 612.5C-427.416 539.1 -384.194 467.2 -313.492 419C-305.372 413.5 -297.003 408.3 -288.258 403.4C-220.803 365.8 -136.11 347.9 -56.2882 355.6C-19.063 359.2 16.4133 367.9 51.7647 377.1C78.9965 384.2 106.228 391.5 134.21 396.8C209.909 411.4 291.355 407.2 349.691 357.2C378.422 332.6 396.285 301.3 420.519 273.7C473.234 213.5 563.049 203.2 647.492 223.8C663.482 227.7 679.096 232.5 694.461 237.9C740.68 254.3 783.901 276.2 828.996 294.8C839.239 299.1 849.857 303.2 860.475 307C911.941 325.5 967.654 337.5 1022.74 330.6C1089.32 322.2 1152.66 278.3 1152.53 225" stroke="#00AAFF" stroke-miterlimit="10"/>
<path d="M-410.927 612.4C-407.304 540.8 -362.084 472.2 -291.381 425.2C-283.262 419.8 -274.893 414.7 -266.148 409.9C-199.068 372.9 -116.373 353.8 -38.6751 358.8C-2.44924 361.1 31.9028 368.3 66.13 375.9C92.6123 381.7 118.97 387.8 145.952 391.9C219.278 403.4 297.975 397 355.312 347.5C383.668 323 401.906 292.3 426.265 265.3C478.98 206.8 567.421 196.1 650.74 216C666.604 219.8 681.969 224.5 697.084 229.8C742.679 245.9 785.275 267.7 829.621 286.2C839.739 290.4 850.107 294.5 860.6 298.3C911.316 316.6 966.28 328.3 1020.74 321.6C1086.45 313.5 1149.03 271 1150.78 219" stroke="#00AAFF" stroke-miterlimit="10"/>
<path d="M-393.688 612.3C-387.068 542.4 -339.974 477.1 -269.272 431.4C-261.152 426.2 -252.782 421.2 -244.163 416.5C-177.458 380.1 -96.6367 359.7 -21.3119 362C13.9146 363 47.2673 368.6 80.3703 374.6C105.978 379.2 131.461 383.9 157.569 387C228.397 395.3 304.471 386.8 360.933 337.7C388.914 313.3 407.527 283.2 432.011 256.7C484.725 199.8 571.792 188.8 653.863 208C669.477 211.7 684.717 216.3 699.707 221.5C744.802 237.3 786.649 259 830.37 277.3C840.363 281.5 850.606 285.5 860.974 289.3C911.066 307.4 965.28 318.8 1018.99 312.3C1083.95 304.5 1145.66 263.4 1149.28 212.7" stroke="#00AAFF" stroke-miterlimit="10"/>
<path d="M-376.45 612.2C-366.957 544.1 -317.864 482.1 -247.161 437.5C-239.042 432.4 -230.672 427.5 -222.053 422.9C-155.722 387.2 -77.0249 365.5 -3.82378 365.1C30.2785 364.9 62.6319 368.9 94.7355 373.3C119.469 376.7 144.203 380.1 169.436 382C237.89 387.1 311.216 376.6 366.679 327.9C394.286 303.6 413.148 274.1 437.882 248.2C490.596 192.9 576.289 181.5 657.235 200.2C672.725 203.8 687.715 208.2 702.455 213.4C746.925 229 788.148 250.5 831.119 268.7C840.988 272.9 850.981 276.9 861.224 280.6C910.566 298.5 964.156 309.6 1017.12 303.3C1081.2 295.7 1142.16 256.1 1147.66 206.8" stroke="#00AAFF" stroke-miterlimit="10"/>
<path d="M-359.212 612.1C-346.72 545.7 -295.754 487 -225.051 443.7C-216.932 438.7 -208.562 434 -200.068 429.4C-134.112 394.3 -57.2883 371.4 13.6644 368.2C46.7673 366.7 78.1214 369.1 108.976 372C132.835 374.2 156.694 376.3 181.053 377.1C247.009 379.1 317.836 366.4 372.175 318.2C399.407 294.1 418.644 265.2 443.503 239.7C496.093 186 580.536 174.3 660.233 192.3C675.473 195.7 690.338 200.1 704.953 205.2C748.799 220.5 789.397 241.9 831.744 260C841.487 264.1 851.356 268.1 861.474 271.8C910.066 289.5 962.906 300.3 1015.25 294.3C1078.45 287 1138.66 248.8 1146.03 200.8" stroke="#00AAFF" stroke-miterlimit="10"/>
<path d="M-341.973 612C-326.483 547.3 -273.643 491.9 -202.94 449.9C-194.821 445.1 -186.451 440.4 -177.957 436C-112.376 401.5 -37.5508 377.3 31.2783 371.4C63.3819 368.6 93.6117 369.5 123.467 370.8C146.576 371.8 169.436 372.6 192.92 372.2C256.378 371.1 324.583 356.2 378.047 308.5C404.779 284.5 424.391 256.2 449.499 231.2C502.089 179 585.159 167 663.731 184.5C678.846 187.8 693.462 192.1 707.827 197.1C751.173 212.1 791.021 233.4 832.744 251.3C842.237 255.4 851.981 259.3 861.974 263C909.817 280.6 962.032 291 1013.62 285.2C1075.96 278.2 1135.42 241.4 1144.66 194.8" stroke="#00AAFF" stroke-miterlimit="10"/>
<path d="M-324.734 611.9C-306.372 549 -251.533 496.9 -180.83 456C-172.711 451.3 -164.466 446.8 -155.972 442.4C-90.7655 408.5 -17.9391 383.1 48.6415 374.5C79.7458 370.4 108.976 369.7 137.707 369.5C159.942 369.3 182.053 368.8 204.662 367.2C265.747 362.9 331.203 345.9 383.668 298.6C410.026 274.7 430.012 247 455.37 222.6C507.835 172 589.781 159.7 666.979 176.5C681.844 179.7 696.334 183.9 710.575 188.8C753.296 203.6 792.395 224.7 833.493 242.5C842.862 246.6 852.48 250.5 862.224 254.1C909.317 271.5 960.783 281.6 1011.75 276C1073.21 269.2 1131.92 233.9 1143.04 188.6" stroke="#00AAFF" stroke-miterlimit="10"/>
<path d="M-307.496 611.7C-286.135 550.5 -229.423 501.7 -158.72 462.1C-150.601 457.6 -142.356 453.1 -133.862 448.8C-69.0302 415.6 1.7975 388.9 66.2545 377.5C96.3594 372.1 124.466 369.9 152.072 368C173.433 366.5 194.669 364.8 216.404 362.1C274.99 354.7 337.823 335.5 389.414 288.7C415.397 265 435.633 237.8 461.241 213.9C513.581 164.9 594.277 152.3 670.352 168.5C684.967 171.6 699.332 175.6 713.323 180.4C755.545 194.9 793.894 215.9 834.367 233.6C843.611 237.6 853.105 241.5 862.723 245.1C909.067 262.3 959.908 272.1 1010.12 266.7C1070.71 260.2 1128.67 226.3 1141.66 182.3" stroke="#00AAFF" stroke-miterlimit="10"/>
<path d="M-290.133 611.6C-265.899 552.1 -207.188 506.6 -136.485 468.2C-128.366 463.8 -120.121 459.5 -111.752 455.3C-47.2948 422.7 21.5342 394.7 83.7427 380.6C112.723 374 139.955 370.1 166.438 366.7C186.924 364 207.285 361 228.146 357.1C284.234 346.6 344.444 325.2 395.035 278.9C420.643 255.3 441.254 228.7 466.987 205.4C519.202 158 598.649 145 673.474 160.6C687.965 163.6 702.08 167.5 715.946 172.2C757.543 186.4 795.268 207.3 834.991 224.8C844.11 228.8 853.354 232.6 862.848 236.2C908.443 253.2 958.659 262.7 1008.13 257.5C1067.84 251.2 1125.17 218.7 1139.91 176.2" stroke="#00AAFF" stroke-miterlimit="10"/>
<path d="M-272.895 611.5C-245.663 553.8 -185.078 511.6 -114.375 474.4C-106.256 470.1 -98.0112 465.9 -89.7667 461.8C-25.6845 429.8 41.2708 400.6 101.231 383.8C129.212 375.9 155.32 370.5 180.678 365.5C200.415 361.6 219.777 357.3 239.888 352.3C293.478 338.7 351.189 315.1 400.781 269.2C426.014 245.7 446.875 219.7 472.858 196.9C524.948 151 603.146 137.8 676.847 152.7C691.087 155.6 705.078 159.4 718.694 164C759.792 177.9 796.767 198.7 835.866 216.1C844.86 220.1 853.979 223.9 863.348 227.4C908.318 244.2 957.66 253.4 1006.5 248.5C1065.34 242.5 1121.92 211.4 1138.54 170.2" stroke="#00AAFF" stroke-miterlimit="10"/>
<path d="M-255.655 611.4C-225.55 555.4 -162.967 516.5 -92.2643 480.6C-84.1447 476.5 -75.9002 472.4 -67.6557 468.3C-3.94818 436.9 61.0084 406.5 118.72 386.9C145.702 377.7 170.81 370.7 195.044 364.2C213.907 359.1 232.519 353.6 251.631 347.3C302.722 330.6 357.811 304.9 406.403 259.4C431.262 236.1 452.497 210.6 478.605 188.4C530.57 144.1 607.519 130.5 679.971 144.9C694.086 147.7 707.827 151.4 721.193 155.9C761.666 169.6 798.017 190.3 836.491 207.5C845.36 211.4 854.229 215.2 863.473 218.7C907.694 235.3 956.411 244.2 1004.5 239.5C1062.47 233.8 1118.3 204.1 1136.79 164.3" stroke="#00AAFF" stroke-miterlimit="10"/>
<path d="M-238.417 611.3C-205.314 557 -140.857 521.4 -70.1542 486.7C-62.0347 482.7 -53.7902 478.8 -45.6706 474.8C17.6621 444.1 80.6201 412.3 136.208 390.1C162.191 379.6 186.3 371.1 209.409 362.9C227.397 356.6 245.135 349.8 263.373 342.4C312.091 322.6 364.431 294.7 412.024 249.7C436.508 226.5 457.993 201.6 484.351 179.9C536.191 137.1 611.891 123.3 683.218 137C697.084 139.7 710.7 143.2 723.941 147.7C763.914 161.1 799.516 181.7 837.24 198.7C845.86 202.6 854.729 206.3 863.723 209.8C907.194 226.3 955.287 234.9 1002.63 230.3C1059.72 224.8 1114.81 196.6 1135.17 158.1" stroke="#00AAFF" stroke-miterlimit="10"/>
<path d="M-221.179 611.2C-185.203 558.7 -118.747 526.4 -48.0442 492.9C-39.9246 489.1 -31.805 485.2 -23.5605 481.3C39.5224 451.2 100.357 418.2 153.696 393.2C178.68 381.5 201.664 371.3 223.65 361.6C240.888 354 257.627 346 275.115 337.4C321.334 314.6 371.051 284.4 417.77 239.9C441.879 216.8 463.739 192.5 490.222 171.3C541.937 130.1 616.388 116 686.466 129.1C700.207 131.6 713.573 135.1 726.564 139.5C765.913 152.6 800.89 173.1 837.99 190C846.484 193.9 855.228 197.6 864.097 201C906.819 217.3 954.162 225.6 1000.88 221.2C1057.22 216 1111.43 189.2 1133.67 152" stroke="#00AAFF" stroke-miterlimit="10"/>
<path d="M-203.94 611.1C-164.966 560.3 -96.637 531.3 -25.9342 499.1C-17.8146 495.4 -9.695 491.7 -1.57542 487.8C61.1328 458.3 119.968 424.1 171.184 396.3C195.043 383.3 217.154 371.6 238.015 360.3C254.379 351.5 270.243 342.2 286.857 332.4C330.578 306.5 377.672 274.1 423.391 230C447.125 207 469.236 183.3 496.093 162.7C547.683 123 620.884 108.6 689.713 121.1C703.204 123.5 716.446 126.9 729.312 131.2C768.161 144.1 802.388 164.4 838.864 181.1C847.233 184.9 855.728 188.6 864.472 192C906.444 208.1 953.163 216.1 999.132 211.9C1054.6 206.9 1108.06 181.6 1132.17 145.8" stroke="#00AAFF" stroke-miterlimit="10"/>
<path d="M-186.701 610.9C-144.729 561.8 -74.526 536.1 -3.82321 505.1C4.29637 501.5 12.416 497.9 20.5355 494.2C82.869 465.3 139.706 429.8 188.673 399.4C211.533 385.1 232.519 371.8 252.381 359C267.871 349 282.985 338.5 298.6 327.5C339.947 298.6 384.418 263.9 429.138 220.3C452.497 197.5 474.858 174.3 501.964 154.2C553.43 116 625.382 101.4 693.087 113.2C706.328 115.5 719.444 118.8 732.061 123C770.285 135.6 803.763 155.8 839.614 172.4C847.859 176.2 856.228 179.8 864.847 183.2C906.07 199.1 952.164 206.8 997.384 202.9C1051.97 198.2 1104.69 174.3 1130.67 139.8" stroke="#00AAFF" stroke-miterlimit="10"/>
<path d="M-169.463 610.8C-124.618 563.5 -52.4159 541.1 18.4118 511.3C26.5314 507.9 34.6509 504.4 42.6456 500.7C104.604 472.5 159.443 435.7 206.161 402.5C228.022 386.9 248.009 372 266.621 357.6C281.236 346.3 295.477 334.6 310.342 322.4C349.191 290.4 391.038 253.5 434.759 210.4C457.619 187.7 480.354 165.1 507.71 145.6C558.926 108.9 629.879 94 696.21 105.3C709.326 107.5 722.192 110.6 734.684 114.7C772.284 127 805.137 147.1 840.364 163.6C848.483 167.4 856.603 171 865.097 174.3C905.57 190 950.915 197.4 995.51 193.7C1049.22 189.3 1101.19 166.8 1129.05 133.7" stroke="#00AAFF" stroke-miterlimit="10"/>
<path d="M-152.225 610.7C-104.382 565.1 -30.4309 546 40.5218 517.4C48.6414 514.1 56.761 510.7 64.7556 507.1C126.34 479.5 179.304 441.5 223.775 405.5C244.636 388.6 263.498 372.2 281.111 356.2C294.852 343.7 308.343 330.7 322.209 317.4C358.685 282.4 397.783 243.2 440.63 200.5C463.115 177.9 486.1 155.9 513.706 136.9C564.797 101.8 634.501 86.6002 699.707 97.2002C712.574 99.3002 725.315 102.3 737.557 106.3C774.657 118.4 806.761 138.3 841.238 154.6C849.107 158.4 857.227 161.9 865.471 165.2C905.32 180.7 949.915 187.8 993.761 184.3C1046.6 180.1 1097.82 159.1 1127.55 127.3" stroke="#00AAFF" stroke-miterlimit="10"/>
<path d="M-134.986 610.6C-84.2702 566.8 -8.32074 551 62.6319 523.6C70.7515 520.5 78.871 517.2 86.7407 513.7C147.95 486.7 198.916 447.4 241.138 408.8C260.999 390.7 278.738 372.6 295.352 355.1C308.218 341.4 320.835 327.1 333.826 312.6C367.928 274.5 404.279 233.2 446.126 190.9C468.236 168.5 491.596 146.9 519.327 128.5C570.168 94.8 638.747 79.4999 702.705 89.4999C715.446 91.4999 727.938 94.4 740.055 98.3C776.531 110.1 808.01 129.9 841.862 146.1C849.607 149.8 857.601 153.4 865.721 156.6C904.82 172 948.666 178.7 991.887 175.4C1043.85 171.5 1094.32 151.9 1125.92 121.4" stroke="#00AAFF" stroke-miterlimit="10"/>
<path d="M-117.747 610.5C-64.0329 568.4 13.7901 555.9 84.7428 529.8C92.8624 526.8 100.857 523.6 108.727 520.2C169.561 493.8 218.528 453.3 258.627 411.9C277.364 392.5 294.228 372.8 309.593 353.8C321.71 338.8 333.452 323.4 345.444 307.7C377.048 266.6 410.775 223 451.623 181.2C473.358 158.9 496.968 137.9 524.949 120.1C575.665 87.9002 642.995 72.3002 705.828 81.7002C718.32 83.6002 730.562 86.4002 742.554 90.2002C778.53 101.7 809.259 121.4 842.487 137.5C850.107 141.2 857.852 144.7 865.847 147.8C904.196 163 947.417 169.4 989.889 166.3C1040.98 162.6 1090.82 144.5 1124.17 115.4" stroke="#00AAFF" stroke-miterlimit="10"/>
<path d="M-100.509 610.4C-43.9215 570 35.9001 560.8 106.853 535.9C114.972 533 122.967 530 130.837 526.6C191.297 500.9 238.265 459.1 276.115 415C293.853 394.3 309.593 373.1 323.958 352.5C335.201 336.3 346.068 319.6 357.311 302.7C386.666 258.5 417.646 212.7 457.494 171.4C478.855 149.2 502.714 128.8 530.945 111.5C581.411 80.8 647.617 65 709.201 73.8C721.568 75.5 733.56 78.3 745.427 82C780.778 93.3 810.883 112.8 843.362 128.7C850.857 132.4 858.476 135.8 866.346 138.9C903.946 153.9 946.543 160 988.265 157.2C1038.48 153.8 1087.57 137.1 1122.8 109.3" stroke="#00AAFF" stroke-miterlimit="10"/>
<path d="M-83.2705 610.3C-16.8148 567.2 77.1225 564.8 152.822 533.2C241.013 496.3 296.851 420.7 338.198 351.2C390.413 263.7 434.759 162.2 536.691 102.9C597.026 67.8 678.596 51.8 748.05 73.7C790.896 87.2 825.498 113.5 866.596 130C947.792 162.6 1053.22 151.5 1121.18 103.2" stroke="#00AAFF" stroke-miterlimit="10"/>
</g>
</g>
<defs>
<filter id="filter0_f_546_322" x="-377" y="-647" width="1680" height="1514" filterUnits="userSpaceOnUse" color-interpolation-filters="sRGB">
<feFlood flood-opacity="0" result="BackgroundImageFix"/>
<feBlend mode="normal" in="SourceGraphic" in2="BackgroundImageFix" result="shape"/>
<feGaussianBlur stdDeviation="250" result="effect1_foregroundBlur_546_322"/>
</filter>
</defs>
</svg>
