<svg width="1440" height="841" viewBox="0 0 1440 841" fill="none" xmlns="http://www.w3.org/2000/svg">
<g clip-path="url(#clip0_547_331)">
<rect width="1440" height="841" fill="white"/>
<rect width="1440" height="841" fill="#0057BE"/>
<mask id="mask0_547_331" style="mask-type:alpha" maskUnits="userSpaceOnUse" x="0" y="0" width="1440" height="841">
<rect width="1440" height="841" fill="#0057BE"/>
</mask>
<g mask="url(#mask0_547_331)">
<g filter="url(#filter0_f_547_331)">
<ellipse cx="897" cy="72" rx="543" ry="411" fill="#00AAFF" fill-opacity="0.68"/>
</g>
<mask id="mask1_547_331" style="mask-type:luminance" maskUnits="userSpaceOnUse" x="-10" y="102" width="1499" height="800">
<path d="M-9.99988 102H1489V902H-9.99988V102Z" fill="white"/>
</mask>
<g mask="url(#mask1_547_331)">
<path d="M1076.9 1001.2C1071.28 907.1 1005.82 818.4 905.89 768.7C855.298 743.5 796.712 728.7 737.127 725.5C669.422 721.8 614.709 740.7 549.877 750.3C499.411 757.8 446.946 759.6 397.229 748.3C345.763 736.7 299.294 711.2 267.191 677C213.476 619.9 222.345 547.8 187.369 484.5C155.765 427.2 88.9344 383.2 12.6103 369.4C-63.7137 355.6 -147.658 372.4 -206.993 413.3" stroke="#00AAFF" stroke-miterlimit="10"/>
<path d="M1085.52 1001.4C1080.27 908.2 1015.94 820.2 917.507 770.4C866.666 744.5 807.455 729.4 747.37 726.2C729.507 725.2 712.518 725.9 695.904 727.5C649.31 732 606.464 744.5 558.371 752C548.878 753.5 539.259 754.7 529.765 755.8C487.793 760.3 445.072 759.9 404.224 750.6C381.739 745.5 360.378 737.7 340.641 727.5C314.909 714.2 292.299 697.1 274.061 677.4C271.438 674.5 268.814 671.6 266.441 668.7C226.468 619.9 221.721 564.6 197.612 514.5C193.864 506.8 189.742 499.1 184.995 491.7C165.258 461.1 134.654 435.1 97.4287 416.1C69.947 402.1 38.8428 391.9 6.11459 386.6C-16.2455 383 -39.2302 381.7 -61.965 382.5C-117.928 384.4 -173.016 398.3 -212.989 423.3" stroke="#00AAFF" stroke-miterlimit="10"/>
<path d="M1094.14 1001.5C1089.27 909.2 1025.81 822.1 928.999 772.1C877.783 745.7 818.073 730.1 757.363 727C739.375 726.1 722.137 726.7 705.398 728.3C658.304 733 615.083 745.8 566.616 753.6C556.997 755.1 547.378 756.5 537.76 757.6C495.413 762.4 452.067 762.3 410.969 752.8C388.359 747.6 366.749 739.6 347.012 729C321.279 715.3 299.044 697.7 280.681 677.7C278.058 674.8 275.435 671.8 273.061 668.9C232.463 619.4 223.22 566.5 196.113 519.9C191.99 512.7 187.369 505.6 182.247 498.8C161.011 470.6 129.532 447 91.8073 430C63.9508 417.4 32.4718 408.4 -0.631078 403.7C-23.241 400.5 -46.4755 399.3 -69.4601 399.9C-126.047 401.2 -181.51 412.2 -219.485 433.3" stroke="#00AAFF" stroke-miterlimit="10"/>
<path d="M1102.76 1001.6C1098.26 910.2 1035.93 823.8 940.491 773.8C889.025 746.8 828.691 730.8 767.357 727.7C749.244 726.8 731.755 727.4 714.767 729.1C667.173 733.9 623.453 747 574.735 755.2C565.116 756.8 555.373 758.3 545.63 759.4C502.783 764.6 459.062 764.6 417.59 754.9C394.855 749.6 373.12 741.4 353.258 730.4C327.525 716.3 305.54 698.2 287.177 678C284.429 675 281.93 672.1 279.432 669.1C238.21 619 224.594 568.3 194.489 525.3C189.867 518.7 184.87 512.2 179.374 505.8C156.514 480 124.286 458.9 85.9363 443.8C57.5802 432.7 25.8513 424.8 -7.62634 420.7C-30.4861 417.9 -53.8456 416.9 -77.205 417.2C-134.417 418 -190.255 426 -226.106 443.1" stroke="#00AAFF" stroke-miterlimit="10"/>
<path d="M1111.38 1001.7C1107.25 911.2 1046.05 825.5 952.108 775.4C900.393 747.9 839.558 731.5 777.475 728.4C759.112 727.5 741.624 728.1 724.385 729.9C676.417 734.8 632.072 748.3 583.104 756.8C573.361 758.5 563.617 760 553.749 761.3C510.528 766.8 466.182 767 424.46 757.2C401.476 751.8 379.74 743.4 359.878 732.1C334.145 717.6 312.535 699 293.922 678.5C291.174 675.5 288.676 672.5 286.177 669.5C244.33 618.7 226.342 570.4 193.239 530.9C188.118 524.8 182.746 518.9 176.875 513.1C152.517 489.7 119.414 471.1 80.5647 458C51.8338 448.3 19.6053 441.6 -14.1222 438.1C-37.2318 435.7 -60.841 434.8 -84.4502 434.9C-142.162 435.2 -198.499 440.2 -232.352 453.3" stroke="#00AAFF" stroke-miterlimit="10"/>
<path d="M1120.12 1001.8C1116.37 912.2 1056.29 827.2 963.725 777.1C911.885 749 850.301 732.2 787.593 729.1C769.105 728.2 751.367 728.9 734.004 730.7C685.536 735.8 640.691 749.5 591.474 758.4C581.605 760.2 571.737 761.8 561.869 763.1C518.148 769 473.302 769.3 431.206 759.3C408.096 753.8 386.111 745.2 366.249 733.5C340.516 718.6 319.155 699.5 300.543 678.7C297.795 675.7 295.171 672.6 292.673 669.6C250.201 618.2 227.841 572.2 191.615 536.1C185.994 530.6 180.248 525.2 174.002 520C148.145 498.9 114.167 482.9 74.6935 471.7C45.5879 463.4 12.9846 457.9 -21.1177 454.9C-44.4771 452.9 -68.3362 452.1 -92.1953 452C-150.531 451.8 -207.368 453.8 -238.972 462.9" stroke="#00AAFF" stroke-miterlimit="10"/>
<path d="M1128.74 1001.9C1125.37 913.2 1066.28 828.9 975.218 778.8C923.127 750.1 860.919 732.9 797.586 729.9C778.974 729 760.986 729.7 743.497 731.6C694.53 736.8 649.31 750.9 599.718 760.1C589.85 762 579.856 763.6 569.863 765C525.767 771.2 480.423 771.8 437.951 761.6C414.717 756 392.606 747.2 372.62 735.1C347.012 719.7 325.901 700.1 307.163 679.1C304.415 676 301.792 673 299.294 669.9C256.197 617.9 229.465 574.1 190.241 541.6C184.245 536.6 177.999 531.8 171.379 527.2C144.022 508.5 109.295 494.9 69.1972 485.7C39.5919 478.9 6.73888 474.5 -27.7381 472.1C-51.3474 470.5 -75.4563 469.8 -99.4403 469.5C-158.276 468.7 -215.613 467.8 -245.093 473" stroke="#00AAFF" stroke-miterlimit="10"/>
<path d="M1137.36 1002C1134.36 914.2 1076.4 830.6 986.835 780.4C934.495 751.1 871.662 733.5 807.829 730.5C789.092 729.6 770.979 730.3 753.116 732.2C703.649 737.5 657.929 751.9 608.087 761.6C598.094 763.5 588.101 765.3 577.982 766.8C533.387 773.4 487.543 774.1 444.821 763.7C421.462 758 399.227 749 379.115 736.5C353.507 720.7 332.646 700.6 313.909 679.3C311.161 676.2 308.537 673.1 305.914 670C262.068 617.3 231.089 575.9 188.867 546.9C182.371 542.5 175.751 538.2 168.755 534.2C139.775 517.9 104.299 506.8 63.5757 499.5C33.5957 494.1 0.242933 490.9 -34.4839 489.1C-58.343 487.9 -82.7017 487.4 -106.936 486.8C-166.396 485.5 -224.107 481.6 -251.589 482.8" stroke="#00AAFF" stroke-miterlimit="10"/>
<path d="M1145.98 1002.2C1143.36 915.3 1086.52 832.4 998.327 782.2C945.737 752.3 882.404 734.3 817.822 731.4C798.96 730.5 780.597 731.3 762.609 733.2C712.643 738.7 666.423 753.4 616.332 763.4C606.214 765.4 596.095 767.3 585.977 768.8C541.007 775.7 494.663 776.6 451.567 766C427.957 760.2 405.722 751 385.486 738.2C359.878 721.9 339.391 701.4 320.529 679.8C317.781 676.7 315.158 673.5 312.534 670.4C268.064 617.1 232.838 577.9 187.368 552.5C180.498 548.6 173.377 544.9 166.007 541.5C135.528 527.6 99.1768 519 57.9543 513.7C27.4746 509.8 -6.12799 507.7 -41.2296 506.5C-65.3385 505.7 -89.947 505.3 -114.431 504.5C-174.516 502.7 -232.602 495.9 -257.96 493" stroke="#00AAFF" stroke-miterlimit="10"/>
<path d="M1154.72 1002.3C1152.48 916.4 1096.76 834 1009.95 783.8C957.105 753.2 893.148 734.9 827.942 732C808.954 731.2 790.342 731.9 772.229 733.9C721.762 739.5 675.168 754.5 624.702 764.9C614.584 767 604.341 768.9 594.098 770.5C548.628 777.8 501.784 778.8 458.438 768.1C434.704 762.2 412.219 752.8 392.107 739.6C366.499 722.9 346.263 701.9 327.4 680C324.652 676.8 321.904 673.6 319.281 670.5C274.186 616.5 234.587 579.7 186.12 557.8C178.75 554.5 171.255 551.3 163.51 548.5C131.531 536.9 94.306 530.8 52.4589 527.5C21.6045 525 -12.4978 524.1 -47.8493 523.5C-72.208 523.1 -97.0664 522.8 -121.8 521.9C-182.384 519.6 -240.97 509.8 -264.205 502.9" stroke="#00AAFF" stroke-miterlimit="10"/>
<path d="M1163.34 1002.4C1161.47 917.4 1106.88 835.7 1021.56 785.5C968.473 754.3 903.891 735.6 838.06 732.8C818.823 732 800.085 732.7 781.722 734.8C730.756 740.5 683.663 755.9 632.947 766.6C622.703 768.8 612.46 770.8 602.092 772.5C556.248 780.1 508.779 781.4 465.184 770.4C441.324 764.4 418.715 754.8 398.478 741.2C372.87 724.1 353.008 702.6 334.021 680.4C331.273 677.2 328.525 674 325.901 670.8C280.182 616.2 236.336 581.6 184.746 563.2C176.876 560.4 169.006 557.8 160.887 555.6C127.284 546.4 89.3092 542.8 46.8376 541.4C15.6084 540.3 -18.8685 540.6 -54.5947 540.5C-79.2033 540.5 -104.187 540.3 -129.17 539.2C-190.379 536.4 -249.465 523.6 -270.576 512.8" stroke="#00AAFF" stroke-miterlimit="10"/>
<path d="M1171.96 1002.5C1170.46 918.4 1117.12 837.3 1033.05 787.2C979.84 755.4 914.634 736.3 848.053 733.5C828.691 732.7 809.829 733.4 791.216 735.6C739.875 741.4 692.157 757.1 641.191 768.2C630.948 770.5 620.58 772.5 610.087 774.3C563.868 782.3 515.9 783.7 471.804 772.6C447.695 766.5 425.085 756.7 404.724 742.8C379.241 725.3 359.504 703.3 340.517 680.8C337.768 677.5 335.02 674.3 332.272 671.1C285.928 615.8 237.835 583.5 182.997 568.7C174.752 566.5 166.383 564.5 157.888 562.8C122.787 556 83.9378 554.9 40.9665 555.4C9.23768 555.8 -25.4893 557.2 -61.5902 557.7C-86.4486 558.1 -111.682 558.1 -136.915 556.7C-198.624 553.3 -258.209 537.6 -277.196 522.8" stroke="#00AAFF" stroke-miterlimit="10"/>
<path d="M1180.58 1002.6C1179.46 919.4 1127.24 839 1044.55 788.8C991.083 756.4 925.251 736.9 858.046 734.2C838.559 733.4 819.447 734.2 800.71 736.3C748.869 742.3 700.651 758.3 649.311 769.7C638.943 772 628.449 774.2 617.956 776C571.238 784.3 522.77 785.9 478.425 774.6C454.191 768.4 431.456 758.4 410.97 744.1C385.487 726.2 366.125 703.6 347.012 680.9C344.264 677.6 341.516 674.3 338.768 671.1C291.799 615.2 239.334 585.2 181.498 573.9C172.754 572.2 164.009 570.8 155.14 569.7C118.54 565.3 78.941 566.6 35.2202 569.2C3.11658 571 -32.1099 573.6 -68.4607 574.7C-93.5689 575.5 -119.052 575.6 -144.535 574C-206.868 570.1 -266.828 551.4 -283.817 532.6" stroke="#00AAFF" stroke-miterlimit="10"/>
<path d="M1189.2 1002.7C1188.45 920.4 1137.36 840.6 1056.16 790.5C1002.45 757.4 935.994 737.7 868.289 734.9C848.677 734.1 829.315 734.9 810.453 737.1C758.113 743.2 709.52 759.5 657.805 771.4C647.312 773.8 636.819 776 626.201 778C579.107 786.7 530.14 788.4 485.42 777C461.061 770.7 438.076 760.5 417.59 745.8C392.107 727.5 372.995 704.4 353.883 681.4C351.134 678.1 348.386 674.7 345.513 671.5C297.795 614.9 241.208 587.2 180.248 579.5C171.129 578.3 161.886 577.5 152.642 577C114.417 574.9 74.0692 578.8 29.8487 583.3C-2.62963 586.6 -38.2309 590.3 -74.9564 592C-100.19 593.2 -126.047 593.4 -151.78 591.6C-214.738 587.2 -275.073 565.5 -289.938 542.7" stroke="#00AAFF" stroke-miterlimit="10"/>
<path d="M1197.94 1002.8C1197.57 921.4 1147.73 842.2 1067.78 792.1C1013.94 758.4 946.737 738.3 878.408 735.6C858.671 734.8 839.184 735.6 819.947 737.9C767.107 744.1 718.014 760.8 666.049 773C655.556 775.5 644.938 777.8 634.195 779.8C586.602 788.8 537.135 790.8 492.165 779.1C467.557 772.8 444.572 762.4 424.086 747.2C398.603 728.5 379.865 704.9 360.628 681.6C357.88 678.2 355.007 674.9 352.259 671.5C303.916 614.3 243.081 588.8 178.999 584.7C169.381 584.1 159.762 583.8 150.143 583.9C110.42 584.2 69.1974 590.6 24.3523 597C-8.62569 601.7 -44.4768 606.6 -81.5771 608.8C-107.06 610.4 -133.168 610.7 -159.15 608.7C-222.608 603.8 -283.442 579.1 -296.184 552.4" stroke="#00AAFF" stroke-miterlimit="10"/>
<path d="M1206.56 1003C1206.56 922.5 1157.85 843.9 1079.27 793.9C1025.18 759.5 957.48 739.1 888.401 736.4C868.539 735.6 848.802 736.5 829.44 738.8C776.101 745.2 726.509 762.1 674.294 774.7C663.676 777.3 652.933 779.7 642.19 781.7C594.222 791.1 544.13 793.2 498.911 781.4C474.177 775 450.942 764.4 430.456 748.9C404.973 729.8 386.486 705.7 367.123 682.1C364.375 678.7 361.502 675.3 358.629 671.9C309.662 614.1 244.455 590.7 177.25 590.2C167.132 590.1 157.139 590.4 147.145 591C105.923 593.7 63.8258 602.6 18.481 610.9C-14.8717 617 -51.2226 623.1 -88.5726 625.9C-114.305 627.9 -140.663 628.4 -166.77 626.1C-230.853 620.6 -292.062 593 -302.805 562.3" stroke="#00AAFF" stroke-miterlimit="10"/>
<path d="M1215.18 1003.1C1215.56 923.5 1168.09 845.5 1090.89 795.6C1036.68 760.6 968.222 739.8 898.519 737.2C878.532 736.4 858.545 737.3 839.058 739.7C785.219 746.2 735.253 763.5 682.663 776.4C671.92 779 661.177 781.5 650.309 783.7C601.842 793.4 551.375 795.7 505.656 783.7C480.797 777.2 457.438 766.4 436.827 750.5C411.344 730.9 393.231 706.4 373.744 682.5C370.871 679.1 368.123 675.6 365.249 672.2C315.658 613.7 246.204 592.6 175.876 595.7C165.383 596.2 154.89 597 144.522 598.2C101.675 603.3 58.8289 614.6 12.8596 625C-20.9928 632.6 -57.5935 639.7 -95.3184 643.2C-121.301 645.6 -147.908 646.2 -174.266 643.7C-238.848 637.7 -300.681 607.2 -309.176 572.4" stroke="#00AAFF" stroke-miterlimit="10"/>
<path d="M1223.8 1003.2C1224.55 924.5 1178.21 847.1 1102.38 797.2C1048.04 761.5 978.84 740.4 908.512 737.8C888.275 737.1 868.289 737.9 848.427 740.3C794.213 746.9 743.622 764.5 690.782 777.8C680.039 780.5 669.172 783.1 658.179 785.3C609.336 795.4 558.246 797.9 512.276 785.7C487.168 779.1 463.809 768.1 443.072 751.8C417.589 731.8 399.726 706.7 380.239 682.6C377.366 679.1 374.618 675.7 371.62 672.2C321.404 613.1 247.578 594.2 174.252 600.9C163.259 601.9 152.391 603.3 141.649 605.1C97.3031 612.5 53.5822 626.4 7.11316 638.7C-27.114 647.7 -64.0893 656 -102.189 660.1C-128.421 662.9 -155.278 663.6 -181.886 660.9C-247.092 654.4 -309.301 620.9 -315.796 582.1" stroke="#00AAFF" stroke-miterlimit="10"/>
<path d="M1232.55 1003.3C1233.67 925.5 1188.58 848.6 1114 798.9C1059.41 762.5 989.583 741.1 918.63 738.6C898.269 737.9 878.032 738.7 858.046 741.2C803.332 748 752.241 765.9 699.152 779.6C688.284 782.4 677.416 785 666.299 787.4C616.957 797.8 565.491 800.5 519.147 788.1C493.914 781.4 470.304 770.2 449.568 753.6C424.085 733.2 406.597 707.6 386.985 683.3C384.112 679.8 381.239 676.3 378.366 672.8C327.525 613 249.452 596.4 172.878 606.7C161.51 608.2 150.143 610.2 139.025 612.6C93.181 622.4 48.5856 638.8 1.49201 653C-33.1099 663.5 -70.5848 672.9 -108.934 677.5C-135.417 680.7 -162.399 681.5 -189.381 678.7C-255.087 671.7 -317.795 635.2 -322.167 592.5" stroke="#00AAFF" stroke-miterlimit="10"/>
<path d="M1241.16 1003.4C1242.66 926.5 1198.82 850.2 1125.62 800.6C1070.9 763.5 1000.45 741.8 928.873 739.3C908.387 738.6 887.901 739.5 867.789 742C812.576 748.9 760.985 767.1 707.646 781.2C696.653 784.1 685.66 786.8 674.543 789.2C624.826 800 572.736 802.8 526.142 790.3C500.784 783.5 477.05 772.1 456.314 755.1C430.831 734.3 413.592 708.2 393.98 683.6C391.107 680 388.234 676.5 385.236 673C333.645 612.6 251.325 598 171.753 612.1C159.886 614.2 148.144 616.7 136.652 619.7C89.3084 631.9 43.9636 650.7 -3.75459 666.9C-38.8562 678.8 -76.5811 689.4 -115.305 694.6C-142.037 698.2 -169.269 699.2 -196.376 696.1C-262.707 688.5 -325.79 649.1 -328.038 602.4" stroke="#00AAFF" stroke-miterlimit="10"/>
<path d="M1249.78 1003.5C1251.66 927.5 1209.19 851.7 1137.11 802.2C1082.4 764.4 1011.07 742.4 938.867 740C918.255 739.3 897.644 740.2 877.283 742.8C821.57 749.8 769.605 768.4 715.89 782.8C704.898 785.8 693.78 788.5 682.538 791C632.321 802.1 579.731 805.1 532.887 792.4C507.404 785.5 483.545 773.9 462.684 756.5C437.201 735.3 420.338 708.7 400.601 683.8C397.728 680.2 394.855 676.6 391.857 673.1C339.641 612 252.949 599.8 170.379 617.3C158.013 619.9 145.896 623.1 134.029 626.6C85.0613 641.2 38.967 662.5 -9.37574 680.7C-44.8521 694 -82.9515 705.8 -122.05 711.6C-149.032 715.6 -176.514 716.7 -203.871 713.4C-270.826 705.3 -334.284 662.9 -334.534 612.2" stroke="#00AAFF" stroke-miterlimit="10"/>
<path d="M1258.4 1003.6C1260.65 928.5 1219.31 853.3 1148.6 803.9C1077.9 754.5 979.34 731.8 886.652 743.6C818.822 752.2 756.489 777.9 690.533 792.9C612.335 810.6 528.266 808.6 469.056 758.1C439.95 733.3 422.462 701.5 398.353 673.4C345.513 611.7 254.449 601.7 168.756 622.8C103.424 638.9 45.5881 669.7 -15.1214 694.7C-75.9558 719.7 -144.035 739.5 -211.49 730.9C-278.945 722.3 -343.028 676.9 -341.029 622.2" stroke="#00AAFF" stroke-miterlimit="10"/>
<path d="M1241.17 1003.5C1240.42 930.1 1197.19 858.2 1126.49 810C1118.37 804.5 1110 799.3 1101.26 794.4C1033.8 756.8 949.11 738.9 869.288 746.6C832.063 750.2 796.587 758.9 761.235 768.1C734.003 775.2 706.772 782.5 678.79 787.8C603.091 802.4 521.645 798.2 463.309 748.2C434.578 723.6 416.715 692.3 392.481 664.7C339.766 604.5 249.951 594.2 165.508 614.8C149.518 618.7 133.904 623.5 118.539 628.9C72.3199 645.3 29.0986 667.2 -15.9963 685.8C-26.2394 690.1 -36.8573 694.2 -47.4752 698C-98.9409 716.5 -154.654 728.5 -209.742 721.6C-276.323 713.2 -339.655 669.3 -339.53 616" stroke="#00AAFF" stroke-miterlimit="10"/>
<path d="M1223.93 1003.4C1220.3 931.8 1175.08 863.2 1104.38 816.2C1096.26 810.8 1087.89 805.7 1079.15 800.9C1012.07 763.9 929.373 744.8 851.675 749.8C815.449 752.1 781.097 759.3 746.87 766.9C720.388 772.7 694.03 778.8 667.048 782.9C593.722 794.4 515.025 788 457.688 738.5C429.332 714 411.094 683.3 386.735 656.3C334.02 597.8 245.579 587.1 162.26 607C146.396 610.8 131.031 615.5 115.916 620.8C70.3214 636.9 27.7247 658.7 -16.6208 677.2C-26.739 681.4 -37.107 685.5 -47.6 689.3C-98.3162 707.6 -153.28 719.3 -207.743 712.6C-273.45 704.5 -336.033 662 -337.781 610" stroke="#00AAFF" stroke-miterlimit="10"/>
<path d="M1206.69 1003.3C1200.07 933.4 1152.97 868.1 1082.27 822.4C1074.15 817.2 1065.78 812.2 1057.16 807.5C990.458 771.1 909.637 750.7 834.312 753C799.085 754 765.733 759.6 732.63 765.6C707.022 770.2 681.539 774.9 655.431 778C584.603 786.3 508.529 777.8 452.067 728.7C424.086 704.3 405.473 674.2 380.989 647.7C328.275 590.8 241.208 579.8 159.137 599C143.523 602.7 128.283 607.3 113.293 612.5C68.198 628.3 26.3509 650 -17.3699 668.3C-27.3632 672.5 -37.6064 676.5 -47.9745 680.3C-98.0661 698.4 -152.28 709.8 -205.994 703.3C-270.951 695.5 -332.659 654.4 -336.282 603.7" stroke="#00AAFF" stroke-miterlimit="10"/>
<path d="M1189.45 1003.2C1179.96 935.1 1130.86 873.1 1060.16 828.5C1052.04 823.4 1043.67 818.5 1035.05 813.9C968.722 778.2 890.025 756.5 816.824 756.1C782.722 755.9 750.368 759.9 718.264 764.3C693.531 767.7 668.797 771.1 643.564 773C575.11 778.1 501.784 767.6 446.321 718.9C418.714 694.6 399.852 665.1 375.118 639.2C322.404 583.9 236.711 572.5 155.765 591.2C140.275 594.8 125.285 599.2 110.545 604.4C66.0745 620 24.852 641.5 -18.1193 659.7C-27.9877 663.9 -37.981 667.9 -48.2242 671.6C-97.5663 689.5 -151.156 700.6 -204.12 694.3C-268.203 686.7 -329.162 647.1 -334.658 597.8" stroke="#00AAFF" stroke-miterlimit="10"/>
<path d="M1172.21 1003.1C1159.72 936.7 1108.75 878 1038.05 834.7C1029.93 829.7 1021.56 825 1013.07 820.4C947.112 785.3 870.288 762.4 799.336 759.2C766.233 757.7 734.879 760.1 704.024 763C680.165 765.2 656.306 767.3 631.947 768.1C565.991 770.1 495.164 757.4 440.825 709.2C413.593 685.1 394.356 656.2 369.497 630.7C316.907 577 232.464 565.3 152.767 583.3C137.527 586.7 122.662 591.1 108.047 596.2C64.201 611.5 23.6031 632.9 -18.7437 651C-28.4872 655.1 -38.3557 659.1 -48.4739 662.8C-97.0665 680.5 -149.906 691.3 -202.246 685.3C-265.454 678 -325.664 639.8 -333.034 591.8" stroke="#00AAFF" stroke-miterlimit="10"/>
<path d="M1154.97 1003C1139.48 938.3 1086.64 882.9 1015.94 840.9C1007.82 836.1 999.451 831.4 990.957 827C925.376 792.5 850.551 768.3 781.722 762.4C749.618 759.6 719.388 760.5 689.533 761.8C666.424 762.8 643.564 763.6 620.08 763.2C556.622 762.1 488.417 747.2 434.953 699.5C408.221 675.5 388.609 647.2 363.501 622.2C310.911 570 227.841 558 149.269 575.5C134.154 578.8 119.538 583.1 105.173 588.1C61.8269 603.1 21.9785 624.4 -19.7437 642.3C-29.2373 646.4 -38.9807 650.3 -48.974 654C-96.8171 671.6 -149.032 682 -200.623 676.2C-262.956 669.2 -322.417 632.4 -331.66 585.8" stroke="#00AAFF" stroke-miterlimit="10"/>
<path d="M1137.73 1002.9C1119.37 940 1064.53 887.9 993.83 847C985.711 842.3 977.466 837.8 968.972 833.4C903.765 799.5 830.939 774.1 764.358 765.5C733.254 761.4 704.024 760.7 675.293 760.5C653.058 760.3 630.947 759.8 608.338 758.2C547.253 753.9 481.797 736.9 429.332 689.6C402.974 665.7 382.988 638 357.63 613.6C305.165 563 223.219 550.7 146.021 567.5C131.156 570.7 116.666 574.9 102.425 579.8C59.7035 594.6 20.6046 615.7 -20.493 633.5C-29.8618 637.6 -39.4804 641.5 -49.2239 645.1C-96.3175 662.5 -147.783 672.6 -198.749 667C-260.208 660.2 -318.919 624.9 -330.037 579.6" stroke="#00AAFF" stroke-miterlimit="10"/>
<path d="M1120.5 1002.7C1099.14 941.5 1042.42 892.7 971.72 853.1C963.601 848.6 955.356 844.1 946.862 839.8C882.03 806.6 811.203 779.9 746.746 768.5C716.641 763.1 688.534 760.9 660.928 759C639.567 757.5 618.331 755.8 596.596 753.1C538.01 745.7 475.177 726.5 423.586 679.7C397.603 656 377.367 628.8 351.759 604.9C299.419 555.9 218.723 543.3 142.648 559.5C128.033 562.6 113.668 566.6 99.6772 571.4C57.4554 585.9 19.1059 606.9 -21.3671 624.6C-30.6109 628.6 -40.1047 632.5 -49.7232 636.1C-96.0673 653.3 -146.908 663.1 -197.125 657.7C-257.709 651.2 -315.671 617.3 -328.662 573.3" stroke="#00AAFF" stroke-miterlimit="10"/>
<path d="M1103.13 1002.6C1078.9 943.1 1020.19 897.6 949.485 859.2C941.366 854.8 933.121 850.5 924.752 846.3C860.295 813.7 791.466 785.7 729.257 771.6C700.277 765 673.045 761.1 646.562 757.7C626.076 755 605.715 752 584.854 748.1C528.766 737.6 468.556 716.2 417.965 669.9C392.357 646.3 371.746 619.7 346.013 596.4C293.798 549 214.351 536 139.526 551.6C125.035 554.6 110.92 558.5 97.054 563.2C55.4567 577.4 17.732 598.3 -21.9915 615.8C-31.1104 619.8 -40.3543 623.6 -49.848 627.2C-95.4425 644.2 -145.659 653.7 -195.126 648.5C-254.836 642.2 -312.173 609.7 -326.913 567.2" stroke="#00AAFF" stroke-miterlimit="10"/>
<path d="M1085.89 1002.5C1058.66 944.8 998.078 902.6 927.375 865.4C919.256 861.1 911.011 856.9 902.767 852.8C838.684 820.8 771.729 791.6 711.769 774.8C683.788 766.9 657.68 761.5 632.322 756.5C612.585 752.6 593.223 748.3 573.112 743.3C519.522 729.7 461.811 706.1 412.219 660.2C386.986 636.7 366.125 610.7 340.142 587.9C288.052 542 209.854 528.8 136.153 543.7C121.913 546.6 107.922 550.4 94.306 555C53.2084 568.9 16.233 589.7 -22.8659 607.1C-31.8599 611.1 -40.9788 614.9 -50.3476 618.4C-95.3176 635.2 -144.66 644.4 -193.502 639.5C-252.338 633.5 -308.925 602.4 -325.539 561.2" stroke="#00AAFF" stroke-miterlimit="10"/>
<path d="M1068.66 1002.4C1038.55 946.4 975.967 907.5 905.264 871.6C897.145 867.5 888.9 863.4 880.656 859.3C816.948 827.9 751.992 797.5 694.28 777.9C667.298 768.7 642.19 761.7 617.956 755.2C599.093 750.1 580.481 744.6 561.369 738.3C510.278 721.6 455.189 695.9 406.597 650.4C381.738 627.1 360.503 601.6 334.395 579.4C282.43 535.1 205.481 521.5 133.029 535.9C118.914 538.7 105.173 542.4 91.8069 546.9C51.3339 560.6 14.9831 581.3 -23.4913 598.5C-32.3603 602.4 -41.2294 606.2 -50.4732 609.7C-94.6937 626.3 -143.411 635.2 -191.504 630.5C-249.466 624.8 -305.303 595.1 -323.791 555.3" stroke="#00AAFF" stroke-miterlimit="10"/>
<path d="M1051.42 1002.3C1018.31 948 953.857 912.4 883.154 877.7C875.035 873.7 866.79 869.8 858.671 865.8C795.338 835.1 732.38 803.3 676.792 781.1C650.809 770.6 626.7 762.1 603.591 753.9C585.603 747.6 567.865 740.8 549.627 733.4C500.909 713.6 448.569 685.7 400.976 640.7C376.492 617.5 355.007 592.6 328.649 570.9C276.809 528.1 201.109 514.3 129.782 528C115.916 530.7 102.3 534.2 89.0591 538.7C49.0858 552.1 13.4844 572.7 -24.2404 589.7C-32.8597 593.6 -41.7287 597.3 -50.7227 600.8C-94.1937 617.3 -142.287 625.9 -189.63 621.3C-246.717 615.8 -301.805 587.6 -322.167 549.1" stroke="#00AAFF" stroke-miterlimit="10"/>
<path d="M1034.18 1002.2C998.203 949.7 931.747 917.4 861.044 883.9C852.925 880.1 844.805 876.2 836.561 872.3C773.478 842.2 712.643 809.2 659.304 784.2C634.32 772.5 611.336 762.3 589.35 752.6C572.112 745 555.373 737 537.885 728.4C491.666 705.6 441.949 675.4 395.23 630.9C371.121 607.8 349.261 583.5 322.778 562.3C271.063 521.1 196.612 507 126.534 520.1C112.793 522.6 99.4272 526.1 86.4358 530.5C47.0871 543.6 12.1105 564.1 -24.9898 581C-33.4841 584.9 -42.2283 588.6 -51.0974 592C-93.8189 608.3 -141.162 616.6 -187.881 612.2C-244.219 607 -298.432 580.2 -320.667 543" stroke="#00AAFF" stroke-miterlimit="10"/>
<path d="M1016.94 1002.1C977.966 951.3 909.637 922.3 838.934 890.1C830.815 886.4 822.695 882.7 814.575 878.8C751.867 849.3 693.032 815.1 641.816 787.3C617.957 774.3 595.846 762.6 574.985 751.3C558.621 742.5 542.757 733.2 526.143 723.4C482.422 697.5 435.328 665.1 389.609 621C365.875 598 343.764 574.3 316.907 553.7C265.317 514 192.116 499.6 123.287 512.1C109.796 514.5 96.5544 517.9 83.688 522.2C44.8389 535.1 10.6118 555.4 -25.8639 572.1C-34.2333 575.9 -42.7276 579.6 -51.4718 583C-93.4438 599.1 -140.163 607.1 -186.132 602.9C-241.595 597.9 -295.059 572.6 -319.168 536.8" stroke="#00AAFF" stroke-miterlimit="10"/>
<path d="M999.701 1001.9C957.729 952.8 887.526 927.1 816.823 896.1C808.704 892.5 800.584 888.9 792.464 885.2C730.131 856.3 673.294 820.8 624.327 790.4C601.467 776.1 580.481 762.8 560.619 750C545.129 740 530.015 729.5 514.4 718.5C473.053 689.6 428.582 654.9 383.862 611.3C360.503 588.5 338.142 565.3 311.036 545.2C259.57 507 187.618 492.4 119.913 504.2C106.672 506.5 93.5557 509.8 80.9391 514C42.7146 526.6 9.23683 546.8 -26.6143 563.4C-34.8588 567.2 -43.2281 570.8 -51.8474 574.2C-93.0699 590.1 -139.164 597.8 -184.384 593.9C-238.973 589.2 -291.688 565.3 -317.67 530.8" stroke="#00AAFF" stroke-miterlimit="10"/>
<path d="M982.463 1001.8C937.618 954.5 865.416 932.1 794.588 902.3C786.469 898.9 778.349 895.4 770.354 891.7C708.396 863.5 653.557 826.7 606.839 793.5C584.978 777.9 564.991 763 546.379 748.6C531.764 737.3 517.523 725.6 502.658 713.4C463.809 681.4 421.962 644.5 378.241 601.4C355.381 578.7 332.646 556.1 305.29 536.6C254.074 499.9 183.121 485 116.79 496.3C103.674 498.5 90.8076 501.6 78.316 505.7C40.716 518 7.86298 538.1 -27.3635 554.6C-35.4831 558.4 -43.6026 562 -52.0969 565.3C-92.5699 581 -137.915 588.4 -182.51 584.7C-236.224 580.3 -288.19 557.8 -316.046 524.7" stroke="#00AAFF" stroke-miterlimit="10"/>
<path d="M965.225 1001.7C917.382 956.1 843.431 937 772.478 908.4C764.359 905.1 756.239 901.7 748.244 898.1C686.66 870.5 633.696 832.5 589.225 796.5C568.364 779.6 549.502 763.2 531.889 747.2C518.148 734.7 504.657 721.7 490.791 708.4C454.315 673.4 415.217 634.2 372.37 591.5C349.885 568.9 326.9 546.9 299.294 527.9C248.203 492.8 178.499 477.6 113.293 488.2C100.426 490.3 87.6851 493.3 75.4432 497.3C38.343 509.4 6.23942 529.3 -28.2376 545.6C-36.1073 549.4 -44.2269 552.9 -52.4714 556.2C-92.3199 571.7 -136.915 578.8 -180.761 575.3C-233.601 571.1 -284.816 550.1 -314.547 518.3" stroke="#00AAFF" stroke-miterlimit="10"/>
<path d="M947.986 1001.6C897.27 957.8 821.321 942 750.368 914.6C742.248 911.5 734.129 908.2 726.259 904.7C665.05 877.7 614.084 838.4 571.862 799.8C552.001 781.7 534.262 763.6 517.648 746.1C504.782 732.4 492.165 718.1 479.174 703.6C445.072 665.5 408.721 624.2 366.874 581.9C344.764 559.5 321.404 537.9 293.673 519.5C242.832 485.8 174.253 470.5 110.295 480.5C97.5537 482.5 85.062 485.4 72.9451 489.3C36.4695 501.1 4.99046 520.9 -28.862 537.1C-36.6068 540.8 -44.6014 544.4 -52.721 547.6C-91.8199 563 -135.666 569.7 -178.887 566.4C-230.852 562.5 -281.319 542.9 -312.922 512.4" stroke="#00AAFF" stroke-miterlimit="10"/>
<path d="M930.747 1001.5C877.033 959.4 799.21 946.9 728.257 920.8C720.138 917.8 712.143 914.6 704.273 911.2C643.439 884.8 594.472 844.3 554.373 802.9C535.636 783.5 518.772 763.8 503.407 744.8C491.29 729.8 479.548 714.4 467.556 698.7C435.952 657.6 402.225 614 361.377 572.2C339.642 549.9 316.032 528.9 288.051 511.1C237.335 478.9 170.005 463.3 107.172 472.7C94.68 474.6 82.4381 477.4 70.4461 481.2C34.4701 492.7 3.74059 512.4 -29.4872 528.5C-37.1072 532.2 -44.8521 535.7 -52.8467 538.8C-91.1962 554 -134.417 560.4 -176.889 557.3C-227.98 553.6 -277.822 535.5 -311.174 506.4" stroke="#00AAFF" stroke-miterlimit="10"/>
<path d="M913.509 1001.4C856.922 961 777.1 951.8 706.147 926.9C698.028 924 690.033 921 682.163 917.6C621.703 891.9 574.735 850.1 536.885 806C519.147 785.3 503.407 764.1 489.042 743.5C477.799 727.3 466.932 710.6 455.689 693.7C426.334 649.5 395.354 603.7 355.506 562.4C334.145 540.2 310.286 519.8 282.055 502.5C231.589 471.8 165.383 456 103.799 464.8C91.4322 466.5 79.4402 469.3 67.5731 473C32.2216 484.3 2.1167 503.8 -30.3616 519.7C-37.8566 523.4 -45.4764 526.8 -53.3462 529.9C-90.9461 544.9 -133.543 551 -175.265 548.2C-225.481 544.8 -274.574 528.1 -309.8 500.3" stroke="#00AAFF" stroke-miterlimit="10"/>
<path d="M896.271 1001.3C829.815 958.2 735.878 955.8 660.178 924.2C571.987 887.3 516.149 811.7 474.802 742.2C422.587 654.7 378.241 553.2 276.309 493.9C215.974 458.8 134.404 442.8 64.9501 464.7C22.1037 478.2 -12.4982 504.5 -53.5958 521C-134.792 553.6 -240.221 542.5 -308.176 494.2" stroke="#00AAFF" stroke-miterlimit="10"/>
</g>
</g>
</g>
<defs>
<filter id="filter0_f_547_331" x="-146" y="-839" width="2086" height="1822" filterUnits="userSpaceOnUse" color-interpolation-filters="sRGB">
<feFlood flood-opacity="0" result="BackgroundImageFix"/>
<feBlend mode="normal" in="SourceGraphic" in2="BackgroundImageFix" result="shape"/>
<feGaussianBlur stdDeviation="250" result="effect1_foregroundBlur_547_331"/>
</filter>
<clipPath id="clip0_547_331">
<rect width="1440" height="841" fill="white"/>
</clipPath>
</defs>
</svg>
