<svg width="1440" height="365" viewBox="0 0 1440 365" fill="none" xmlns="http://www.w3.org/2000/svg">
<line opacity="0.16" x1="40" y1="101.5" x2="1400" y2="101.5" stroke="white"/>
<rect width="1440" height="365" fill="#1762D3"/>
<mask id="mask0_546_321" style="mask-type:alpha" maskUnits="userSpaceOnUse" x="0" y="0" width="1440" height="365">
<rect width="1440" height="365" fill="#0057BE"/>
</mask>
<g mask="url(#mask0_546_321)">
<mask id="mask1_546_321" style="mask-type:luminance" maskUnits="userSpaceOnUse" x="219" y="-300" width="1499" height="800">
<path d="M1718 -300H219V500H1718V-300Z" fill="white"/>
</mask>
<g mask="url(#mask1_546_321)">
<path d="M631.1 599.2C636.721 505.1 702.177 416.4 802.11 366.7C852.702 341.5 911.288 326.7 970.873 323.5C1038.58 319.8 1093.29 338.7 1158.12 348.3C1208.59 355.8 1261.05 357.6 1310.77 346.3C1362.24 334.7 1408.71 309.2 1440.81 275C1494.52 217.9 1485.65 145.8 1520.63 82.5C1552.24 25.2 1619.07 -18.8 1695.39 -32.6C1771.71 -46.4 1855.66 -29.6 1914.99 11.3" stroke="#00AAFF" stroke-miterlimit="10"/>
<path d="M622.48 599.4C627.727 506.2 692.059 418.2 790.493 368.4C841.334 342.5 900.545 327.4 960.63 324.2C978.493 323.2 995.482 323.9 1012.1 325.5C1058.69 330 1101.54 342.5 1149.63 350C1159.12 351.5 1168.74 352.7 1178.23 353.8C1220.21 358.3 1262.93 357.9 1303.78 348.6C1326.26 343.5 1347.62 335.7 1367.36 325.5C1393.09 312.2 1415.7 295.1 1433.94 275.4C1436.56 272.5 1439.19 269.6 1441.56 266.7C1481.53 217.9 1486.28 162.6 1510.39 112.5C1514.14 104.8 1518.26 97.1002 1523 89.7002C1542.74 59.1002 1573.35 33.1002 1610.57 14.1002C1638.05 0.100163 1669.16 -10.0998 1701.89 -15.3998C1724.25 -18.9998 1747.23 -20.2998 1769.96 -19.4998C1825.93 -17.5998 1881.02 -3.69983 1920.99 21.3002" stroke="#00AAFF" stroke-miterlimit="10"/>
<path d="M613.861 599.5C618.733 507.2 682.191 420.1 779.001 370.1C830.217 343.7 889.927 328.1 950.637 325C968.625 324.1 985.863 324.7 1002.6 326.3C1049.7 331 1092.92 343.8 1141.38 351.6C1151 353.1 1160.62 354.5 1170.24 355.6C1212.59 360.4 1255.93 360.3 1297.03 350.8C1319.64 345.6 1341.25 337.6 1360.99 327C1386.72 313.3 1408.96 295.7 1427.32 275.7C1429.94 272.8 1432.57 269.8 1434.94 266.9C1475.54 217.4 1484.78 164.5 1511.89 117.9C1516.01 110.7 1520.63 103.6 1525.75 96.8001C1546.99 68.6001 1578.47 45.0001 1616.19 28.0001C1644.05 15.4001 1675.53 6.40008 1708.63 1.70008C1731.24 -1.49992 1754.48 -2.69994 1777.46 -2.09994C1834.05 -0.799938 1889.51 10.2001 1927.49 31.3001" stroke="#00AAFF" stroke-miterlimit="10"/>
<path d="M605.242 599.6C609.739 508.2 672.073 421.8 767.509 371.8C818.975 344.8 879.309 328.8 940.643 325.7C958.756 324.8 976.245 325.4 993.233 327.1C1040.83 331.9 1084.55 345 1133.26 353.2C1142.88 354.8 1152.63 356.3 1162.37 357.4C1205.22 362.6 1248.94 362.6 1290.41 352.9C1313.14 347.6 1334.88 339.4 1354.74 328.4C1380.47 314.3 1402.46 296.2 1420.82 276C1423.57 273 1426.07 270.1 1428.57 267.1C1469.79 217 1483.41 166.3 1513.51 123.3C1518.13 116.7 1523.13 110.2 1528.63 103.8C1551.49 78.0001 1583.71 56.9001 1622.06 41.8001C1650.42 30.7001 1682.15 22.8001 1715.63 18.7001C1738.49 15.9001 1761.85 14.9001 1785.21 15.2001C1842.42 16.0001 1898.25 24.0001 1934.11 41.1001" stroke="#00AAFF" stroke-miterlimit="10"/>
<path d="M596.623 599.7C600.745 509.2 661.954 423.5 755.892 373.4C807.607 345.9 868.442 329.5 930.525 326.4C948.888 325.5 966.376 326.1 983.615 327.9C1031.58 332.8 1075.93 346.3 1124.9 354.8C1134.64 356.5 1144.38 358 1154.25 359.3C1197.47 364.8 1241.82 365 1283.54 355.2C1306.52 349.8 1328.26 341.4 1348.12 330.1C1373.85 315.6 1395.47 297 1414.08 276.5C1416.83 273.5 1419.32 270.5 1421.82 267.5C1463.67 216.7 1481.66 168.4 1514.76 128.9C1519.88 122.8 1525.25 116.9 1531.12 111.1C1555.48 87.7 1588.59 69.1 1627.44 56C1656.17 46.3 1688.39 39.6 1722.12 36.1C1745.23 33.7 1768.84 32.8 1792.45 32.9C1850.16 33.2 1906.5 38.2 1940.35 51.3" stroke="#00AAFF" stroke-miterlimit="10"/>
<path d="M587.879 599.8C591.626 510.2 651.711 425.2 744.275 375.1C796.115 347 857.699 330.2 920.407 327.1C938.895 326.2 956.633 326.9 973.996 328.7C1022.46 333.8 1067.31 347.5 1116.53 356.4C1126.39 358.2 1136.26 359.8 1146.13 361.1C1189.85 367 1234.7 367.3 1276.79 357.3C1299.9 351.8 1321.89 343.2 1341.75 331.5C1367.48 316.6 1388.84 297.5 1407.46 276.7C1410.21 273.7 1412.83 270.6 1415.33 267.6C1457.8 216.2 1480.16 170.2 1516.38 134.1C1522.01 128.6 1527.75 123.2 1534 118C1559.86 96.9001 1593.83 80.9 1633.31 69.7C1662.41 61.4 1695.02 55.9 1729.12 52.9C1752.48 50.9 1776.34 50.1 1800.2 50C1858.53 49.8 1915.37 51.8 1946.97 60.9" stroke="#00AAFF" stroke-miterlimit="10"/>
<path d="M579.26 599.9C582.633 511.2 641.718 426.9 732.782 376.8C784.873 348.1 847.081 330.9 910.414 327.9C929.026 327 947.014 327.7 964.503 329.6C1013.47 334.8 1058.69 348.9 1108.28 358.1C1118.15 360 1128.14 361.6 1138.14 363C1182.23 369.2 1227.58 369.8 1270.05 359.6C1293.28 354 1315.39 345.2 1335.38 333.1C1360.99 317.7 1382.1 298.1 1400.84 277.1C1403.58 274 1406.21 271 1408.71 267.9C1451.8 215.9 1478.53 172.1 1517.76 139.6C1523.75 134.6 1530 129.8 1536.62 125.2C1563.98 106.5 1598.7 92.9 1638.8 83.7C1668.41 76.9 1701.26 72.5 1735.74 70.1C1759.35 68.5 1783.46 67.8 1807.44 67.5C1866.28 66.7 1923.61 65.8 1953.09 71" stroke="#00AAFF" stroke-miterlimit="10"/>
<path d="M570.641 600C573.639 512.2 631.6 428.6 721.165 378.4C773.505 349.1 836.338 331.5 900.171 328.5C918.908 327.6 937.021 328.3 954.884 330.2C1004.35 335.5 1050.07 349.9 1099.91 359.6C1109.91 361.5 1119.9 363.3 1130.02 364.8C1174.61 371.4 1220.46 372.1 1263.18 361.7C1286.54 356 1308.77 347 1328.88 334.5C1354.49 318.7 1375.35 298.6 1394.09 277.3C1396.84 274.2 1399.46 271.1 1402.09 268C1445.93 215.3 1476.91 173.9 1519.13 144.9C1525.63 140.5 1532.25 136.2 1539.24 132.2C1568.23 115.9 1603.7 104.8 1644.42 97.5001C1674.4 92.1001 1707.76 88.9001 1742.48 87.1001C1766.34 85.9001 1790.7 85.4001 1814.94 84.8001C1874.4 83.5001 1932.11 79.6001 1959.59 80.8001" stroke="#00AAFF" stroke-miterlimit="10"/>
<path d="M562.021 600.2C564.645 513.3 621.482 430.4 709.673 380.2C762.263 350.3 825.596 332.3 890.178 329.4C909.04 328.5 927.403 329.3 945.391 331.2C995.357 336.7 1041.58 351.4 1091.67 361.4C1101.79 363.4 1111.9 365.3 1122.02 366.8C1166.99 373.7 1213.34 374.6 1256.43 364C1280.04 358.2 1302.28 349 1322.51 336.2C1348.12 319.9 1368.61 299.4 1387.47 277.8C1390.22 274.7 1392.84 271.5 1395.47 268.4C1439.94 215.1 1475.16 175.9 1520.63 150.5C1527.5 146.6 1534.62 142.9 1541.99 139.5C1572.47 125.6 1608.82 117 1650.05 111.7C1680.53 107.8 1714.13 105.7 1749.23 104.5C1773.34 103.7 1797.95 103.3 1822.43 102.5C1882.52 100.7 1940.6 93.9 1965.96 91" stroke="#00AAFF" stroke-miterlimit="10"/>
<path d="M553.276 600.3C555.525 514.4 611.238 432 698.055 381.8C750.895 351.2 814.852 332.9 880.058 330C899.046 329.2 917.658 329.9 935.771 331.9C986.238 337.5 1032.83 352.5 1083.3 362.9C1093.42 365 1103.66 366.9 1113.9 368.5C1159.37 375.8 1206.22 376.8 1249.56 366.1C1273.3 360.2 1295.78 350.8 1315.89 337.6C1341.5 320.9 1361.74 299.9 1380.6 278C1383.35 274.8 1386.1 271.6 1388.72 268.5C1433.81 214.5 1473.41 177.7 1521.88 155.8C1529.25 152.5 1536.75 149.3 1544.49 146.5C1576.47 134.9 1613.69 128.8 1655.54 125.5C1686.4 123 1720.5 122.1 1755.85 121.5C1780.21 121.1 1805.07 120.8 1829.8 119.9C1890.38 117.6 1948.97 107.8 1972.2 100.9" stroke="#00AAFF" stroke-miterlimit="10"/>
<path d="M544.657 600.4C546.531 515.4 601.12 433.7 686.438 383.5C739.527 352.3 804.109 333.6 869.94 330.8C889.177 330 907.915 330.7 926.278 332.8C977.244 338.5 1024.34 353.9 1075.05 364.6C1085.3 366.8 1095.54 368.8 1105.91 370.5C1151.75 378.1 1199.22 379.4 1242.82 368.4C1266.68 362.4 1289.29 352.8 1309.52 339.2C1335.13 322.1 1354.99 300.6 1373.98 278.4C1376.73 275.2 1379.48 272 1382.1 268.8C1427.82 214.2 1471.66 179.6 1523.25 161.2C1531.12 158.4 1538.99 155.8 1547.11 153.6C1580.72 144.4 1618.69 140.8 1661.16 139.4C1692.39 138.3 1726.87 138.6 1762.59 138.5C1787.2 138.5 1812.19 138.3 1837.17 137.2C1898.38 134.4 1957.46 121.6 1978.58 110.8" stroke="#00AAFF" stroke-miterlimit="10"/>
<path d="M536.038 600.5C537.537 516.4 590.877 435.3 674.945 385.2C728.16 353.4 793.366 334.3 859.947 331.5C879.309 330.7 898.171 331.4 916.784 333.6C968.125 339.4 1015.84 355.1 1066.81 366.2C1077.05 368.5 1087.42 370.5 1097.91 372.3C1144.13 380.3 1192.1 381.7 1236.2 370.6C1260.3 364.5 1282.91 354.7 1303.28 340.8C1328.76 323.3 1348.5 301.3 1367.48 278.8C1370.23 275.5 1372.98 272.3 1375.73 269.1C1422.07 213.8 1470.16 181.5 1525 166.7C1533.25 164.5 1541.62 162.5 1550.11 160.8C1585.21 154 1624.06 152.9 1667.03 153.4C1698.76 153.8 1733.49 155.2 1769.59 155.7C1794.45 156.1 1819.68 156.1 1844.91 154.7C1906.62 151.3 1966.21 135.6 1985.2 120.8" stroke="#00AAFF" stroke-miterlimit="10"/>
<path d="M527.419 600.6C528.543 517.4 580.758 437 663.453 386.8C716.917 354.4 782.749 334.9 849.954 332.2C869.441 331.4 888.553 332.2 907.29 334.3C959.131 340.3 1007.35 356.3 1058.69 367.7C1069.06 370 1079.55 372.2 1090.04 374C1136.76 382.3 1185.23 383.9 1229.58 372.6C1253.81 366.4 1276.54 356.4 1297.03 342.1C1322.51 324.2 1341.88 301.6 1360.99 278.9C1363.74 275.6 1366.48 272.3 1369.23 269.1C1416.2 213.2 1468.67 183.2 1526.5 171.9C1535.25 170.2 1543.99 168.8 1552.86 167.7C1589.46 163.3 1629.06 164.6 1672.78 167.2C1704.88 169 1740.11 171.6 1776.46 172.7C1801.57 173.5 1827.05 173.6 1852.53 172C1914.87 168.1 1974.83 149.4 1991.82 130.6" stroke="#00AAFF" stroke-miterlimit="10"/>
<path d="M518.8 600.7C519.549 518.4 570.64 438.6 651.836 388.5C705.55 355.4 772.006 335.7 839.711 332.9C859.323 332.1 878.685 332.9 897.547 335.1C949.887 341.2 998.48 357.5 1050.2 369.4C1060.69 371.8 1071.18 374 1081.8 376C1128.89 384.7 1177.86 386.4 1222.58 375C1246.94 368.7 1269.92 358.5 1290.41 343.8C1315.89 325.5 1335.01 302.4 1354.12 279.4C1356.87 276.1 1359.61 272.7 1362.49 269.5C1410.21 212.9 1466.79 185.2 1527.75 177.5C1536.87 176.3 1546.11 175.5 1555.36 175C1593.58 172.9 1633.93 176.8 1678.15 181.3C1710.63 184.6 1746.23 188.3 1782.96 190C1808.19 191.2 1834.05 191.4 1859.78 189.6C1922.74 185.2 1983.07 163.5 1997.94 140.7" stroke="#00AAFF" stroke-miterlimit="10"/>
<path d="M510.056 600.8C510.43 519.4 560.272 440.2 640.219 390.1C694.058 356.4 761.263 336.3 829.592 333.6C849.329 332.8 868.816 333.6 888.053 335.9C940.893 342.1 989.986 358.8 1041.95 371C1052.44 373.5 1063.06 375.8 1073.8 377.8C1121.4 386.8 1170.86 388.8 1215.83 377.1C1240.44 370.8 1263.43 360.4 1283.91 345.2C1309.4 326.5 1328.13 302.9 1347.37 279.6C1350.12 276.2 1352.99 272.9 1355.74 269.5C1404.08 212.3 1464.92 186.8 1529 182.7C1538.62 182.1 1548.24 181.8 1557.86 181.9C1597.58 182.2 1638.8 188.6 1683.65 195C1716.63 199.7 1752.48 204.6 1789.58 206.8C1815.06 208.4 1841.17 208.7 1867.15 206.7C1930.61 201.8 1991.44 177.1 2004.18 150.4" stroke="#00AAFF" stroke-miterlimit="10"/>
<path d="M501.437 601C501.437 520.5 550.154 441.9 628.727 391.9C682.816 357.5 750.52 337.1 819.599 334.4C839.461 333.6 859.198 334.5 878.56 336.8C931.899 343.2 981.491 360.1 1033.71 372.7C1044.32 375.3 1055.07 377.7 1065.81 379.7C1113.78 389.1 1163.87 391.2 1209.09 379.4C1233.82 373 1257.06 362.4 1277.54 346.9C1303.03 327.8 1321.51 303.7 1340.88 280.1C1343.62 276.7 1346.5 273.3 1349.37 269.9C1398.34 212.1 1463.54 188.7 1530.75 188.2C1540.87 188.1 1550.86 188.4 1560.85 189C1602.08 191.7 1644.17 200.6 1689.52 208.9C1722.87 215 1759.22 221.1 1796.57 223.9C1822.31 225.9 1848.66 226.4 1874.77 224.1C1938.85 218.6 2000.06 191 2010.8 160.3" stroke="#00AAFF" stroke-miterlimit="10"/>
<path d="M492.818 601.1C492.443 521.5 539.911 443.5 617.11 393.6C671.324 358.6 739.778 337.8 809.481 335.2C829.468 334.4 849.455 335.3 868.942 337.7C922.781 344.2 972.747 361.5 1025.34 374.4C1036.08 377 1046.82 379.5 1057.69 381.7C1106.16 391.4 1156.62 393.7 1202.34 381.7C1227.2 375.2 1250.56 364.4 1271.17 348.5C1296.66 328.9 1314.77 304.4 1334.26 280.5C1337.13 277.1 1339.88 273.6 1342.75 270.2C1392.34 211.7 1461.8 190.6 1532.12 193.7C1542.62 194.2 1553.11 195 1563.48 196.2C1606.32 201.3 1649.17 212.6 1695.14 223C1728.99 230.6 1765.59 237.7 1803.32 241.2C1829.3 243.6 1855.91 244.2 1882.27 241.7C1946.85 235.7 2008.68 205.2 2017.18 170.4" stroke="#00AAFF" stroke-miterlimit="10"/>
<path d="M484.198 601.2C483.449 522.5 529.793 445.1 605.617 395.2C659.956 359.5 729.16 338.4 799.488 335.8C819.725 335.1 839.711 335.9 859.573 338.3C913.787 344.9 964.378 362.5 1017.22 375.8C1027.96 378.5 1038.83 381.1 1049.82 383.3C1098.66 393.4 1149.75 395.9 1195.72 383.7C1220.83 377.1 1244.19 366.1 1264.93 349.8C1290.41 329.8 1308.27 304.7 1327.76 280.6C1330.63 277.1 1333.38 273.7 1336.38 270.2C1386.6 211.1 1460.42 192.2 1533.75 198.9C1544.74 199.9 1555.61 201.3 1566.35 203.1C1610.7 210.5 1654.42 224.4 1700.89 236.7C1735.11 245.7 1772.09 254 1810.19 258.1C1836.42 260.9 1863.28 261.6 1889.89 258.9C1955.09 252.4 2017.3 218.9 2023.8 180.1" stroke="#00AAFF" stroke-miterlimit="10"/>
<path d="M475.454 601.3C474.33 523.5 519.425 446.6 594 396.9C648.589 360.5 718.417 339.1 789.37 336.6C809.731 335.9 829.968 336.7 849.954 339.2C904.668 346 955.759 363.9 1008.85 377.6C1019.72 380.4 1030.58 383 1041.7 385.4C1091.04 395.8 1142.51 398.5 1188.85 386.1C1214.09 379.4 1237.7 368.2 1258.43 351.6C1283.91 331.2 1301.4 305.6 1321.02 281.3C1323.89 277.8 1326.76 274.3 1329.63 270.8C1380.48 211 1458.55 194.4 1535.12 204.7C1546.49 206.2 1557.86 208.2 1568.97 210.6C1614.82 220.4 1659.41 236.8 1706.51 251C1741.11 261.5 1778.58 270.9 1816.93 275.5C1843.42 278.7 1870.4 279.5 1897.38 276.7C1963.09 269.7 2025.79 233.2 2030.17 190.5" stroke="#00AAFF" stroke-miterlimit="10"/>
<path d="M466.835 601.4C465.336 524.5 509.182 448.2 582.383 398.6C637.097 361.5 707.55 339.8 779.127 337.3C799.613 336.6 820.099 337.5 840.211 340C895.424 346.9 947.015 365.1 1000.35 379.2C1011.35 382.1 1022.34 384.8 1033.46 387.2C1083.17 398 1135.26 400.8 1181.86 388.3C1207.22 381.5 1230.95 370.1 1251.69 353.1C1277.17 332.3 1294.41 306.2 1314.02 281.6C1316.89 278 1319.77 274.5 1322.76 271C1374.35 210.6 1456.67 196 1536.25 210.1C1548.11 212.2 1559.86 214.7 1571.35 217.7C1618.69 229.9 1664.04 248.7 1711.75 264.9C1746.86 276.8 1784.58 287.4 1823.31 292.6C1850.04 296.2 1877.27 297.2 1904.38 294.1C1970.71 286.5 2033.79 247.1 2036.04 200.4" stroke="#00AAFF" stroke-miterlimit="10"/>
<path d="M458.216 601.5C456.342 525.5 498.814 449.7 570.891 400.2C625.604 362.4 696.932 340.4 769.133 338C789.745 337.3 810.356 338.2 830.717 340.8C886.43 347.8 938.395 366.4 992.11 380.8C1003.1 383.8 1014.22 386.5 1025.46 389C1075.68 400.1 1128.27 403.1 1175.11 390.4C1200.6 383.5 1224.45 371.9 1245.32 354.5C1270.8 333.3 1287.66 306.7 1307.4 281.8C1310.27 278.2 1313.15 274.6 1316.14 271.1C1368.36 210 1455.05 197.8 1537.62 215.3C1549.99 217.9 1562.1 221.1 1573.97 224.6C1622.94 239.2 1669.03 260.5 1717.38 278.7C1752.85 292 1790.95 303.8 1830.05 309.6C1857.03 313.6 1884.51 314.7 1911.87 311.4C1978.83 303.3 2042.28 260.9 2042.53 210.2" stroke="#00AAFF" stroke-miterlimit="10"/>
<path d="M449.596 601.6C447.348 526.5 488.695 451.3 559.398 401.9C630.101 352.5 728.66 329.8 821.348 341.6C889.178 350.2 951.511 375.9 1017.47 390.9C1095.66 408.6 1179.73 406.6 1238.94 356.1C1268.05 331.3 1285.54 299.5 1309.65 271.4C1362.49 209.7 1453.55 199.7 1539.24 220.8C1604.58 236.9 1662.41 267.7 1723.12 292.7C1783.96 317.7 1852.04 337.5 1919.49 328.9C1986.95 320.3 2051.03 274.9 2049.03 220.2" stroke="#00AAFF" stroke-miterlimit="10"/>
<path d="M466.835 601.5C467.584 528.1 510.806 456.2 581.508 408C589.628 402.5 597.997 397.3 606.742 392.4C674.197 354.8 758.89 336.9 838.712 344.6C875.937 348.2 911.413 356.9 946.765 366.1C973.997 373.2 1001.23 380.5 1029.21 385.8C1104.91 400.4 1186.35 396.2 1244.69 346.2C1273.42 321.6 1291.28 290.3 1315.52 262.7C1368.23 202.5 1458.05 192.2 1542.49 212.8C1558.48 216.7 1574.1 221.5 1589.46 226.9C1635.68 243.3 1678.9 265.2 1724 283.8C1734.24 288.1 1744.86 292.2 1755.48 296C1806.94 314.5 1862.65 326.5 1917.74 319.6C1984.32 311.2 2047.66 267.3 2047.53 214" stroke="#00AAFF" stroke-miterlimit="10"/>
<path d="M484.073 601.4C487.696 529.8 532.916 461.2 603.619 414.2C611.738 408.8 620.107 403.7 628.852 398.9C695.932 361.9 778.627 342.8 856.325 347.8C892.551 350.1 926.903 357.3 961.13 364.9C987.612 370.7 1013.97 376.8 1040.95 380.9C1114.28 392.4 1192.98 386 1250.31 336.5C1278.67 312 1296.91 281.3 1321.26 254.3C1373.98 195.8 1462.42 185.1 1545.74 205C1561.6 208.8 1576.97 213.5 1592.08 218.8C1637.68 234.9 1680.28 256.7 1724.62 275.2C1734.74 279.4 1745.11 283.5 1755.6 287.3C1806.32 305.6 1861.28 317.3 1915.74 310.6C1981.45 302.5 2044.03 260 2045.78 208" stroke="#00AAFF" stroke-miterlimit="10"/>
<path d="M501.312 601.3C507.932 531.4 555.026 466.1 625.728 420.4C633.848 415.2 642.218 410.2 650.837 405.5C717.542 369.1 798.363 348.7 873.688 351C908.915 352 942.267 357.6 975.37 363.6C1000.98 368.2 1026.46 372.9 1052.57 376C1123.4 384.3 1199.47 375.8 1255.93 326.7C1283.91 302.3 1302.53 272.2 1327.01 245.7C1379.73 188.8 1466.79 177.8 1548.86 197C1564.48 200.7 1579.72 205.3 1594.71 210.5C1639.8 226.3 1681.65 248 1725.37 266.3C1735.36 270.5 1745.61 274.5 1755.97 278.3C1806.07 296.4 1860.28 307.8 1913.99 301.3C1978.95 293.5 2040.66 252.4 2044.28 201.7" stroke="#00AAFF" stroke-miterlimit="10"/>
<path d="M518.55 601.2C528.043 533.1 577.136 471.1 647.839 426.5C655.958 421.4 664.328 416.5 672.947 411.9C739.278 376.2 817.975 354.5 891.176 354.1C925.278 353.9 957.632 357.9 989.736 362.3C1014.47 365.7 1039.2 369.1 1064.44 371C1132.89 376.1 1206.22 365.6 1261.68 316.9C1289.29 292.6 1308.15 263.1 1332.88 237.2C1385.6 181.9 1471.29 170.5 1552.24 189.2C1567.73 192.8 1582.71 197.2 1597.46 202.4C1641.93 218 1683.15 239.5 1726.12 257.7C1735.99 261.9 1745.98 265.9 1756.22 269.6C1805.57 287.5 1859.16 298.6 1912.12 292.3C1976.2 284.7 2037.16 245.1 2042.66 195.8" stroke="#00AAFF" stroke-miterlimit="10"/>
<path d="M535.788 601.1C548.28 534.7 599.246 476 669.949 432.7C678.068 427.7 686.438 423 694.932 418.4C760.888 383.3 837.712 360.4 908.664 357.2C941.767 355.7 973.121 358.1 1003.98 361C1027.83 363.2 1051.69 365.3 1076.05 366.1C1142.01 368.1 1212.84 355.4 1267.18 307.2C1294.41 283.1 1313.64 254.2 1338.5 228.7C1391.09 175 1475.54 163.3 1555.23 181.3C1570.47 184.7 1585.34 189.1 1599.95 194.2C1643.8 209.5 1684.4 230.9 1726.74 249C1736.49 253.1 1746.36 257.1 1756.47 260.8C1805.07 278.5 1857.91 289.3 1910.25 283.3C1973.45 276 2033.66 237.8 2041.03 189.8" stroke="#00AAFF" stroke-miterlimit="10"/>
<path d="M553.027 601C568.517 536.3 621.357 480.9 692.06 438.9C700.179 434.1 708.549 429.4 717.043 425C782.624 390.5 857.449 366.3 926.278 360.4C958.382 357.6 988.612 358.5 1018.47 359.8C1041.58 360.8 1064.44 361.6 1087.92 361.2C1151.38 360.1 1219.58 345.2 1273.05 297.5C1299.78 273.5 1319.39 245.2 1344.5 220.2C1397.09 168 1480.16 156 1558.73 173.5C1573.85 176.8 1588.46 181.1 1602.83 186.1C1646.17 201.1 1686.02 222.4 1727.74 240.3C1737.24 244.4 1746.98 248.3 1756.97 252C1804.82 269.6 1857.03 280 1908.62 274.2C1970.96 267.2 2030.42 230.4 2039.66 183.8" stroke="#00AAFF" stroke-miterlimit="10"/>
<path d="M570.266 600.9C588.628 538 643.467 485.9 714.17 445C722.289 440.3 730.534 435.8 739.028 431.4C804.235 397.5 877.061 372.1 943.642 363.5C974.746 359.4 1003.98 358.7 1032.71 358.5C1054.94 358.3 1077.05 357.8 1099.66 356.2C1160.75 351.9 1226.2 334.9 1278.67 287.6C1305.03 263.7 1325.01 236 1350.37 211.6C1402.84 161 1484.78 148.7 1561.98 165.5C1576.84 168.7 1591.33 172.9 1605.57 177.8C1648.3 192.6 1687.4 213.7 1728.49 231.5C1737.86 235.6 1747.48 239.5 1757.22 243.1C1804.32 260.5 1855.78 270.6 1906.75 265C1968.21 258.2 2026.92 222.9 2038.04 177.6" stroke="#00AAFF" stroke-miterlimit="10"/>
<path d="M587.504 600.7C608.865 539.5 665.577 490.7 736.28 451.1C744.399 446.6 752.644 442.1 761.138 437.8C825.97 404.6 896.797 377.9 961.254 366.5C991.359 361.1 1019.47 358.9 1047.07 357C1068.43 355.5 1089.67 353.8 1111.4 351.1C1169.99 343.7 1232.82 324.5 1284.41 277.7C1310.4 254 1330.63 226.8 1356.24 202.9C1408.58 153.9 1489.28 141.3 1565.35 157.5C1579.97 160.6 1594.33 164.6 1608.32 169.4C1650.54 183.9 1688.89 204.9 1729.37 222.6C1738.61 226.6 1748.1 230.5 1757.72 234.1C1804.07 251.3 1854.91 261.1 1905.12 255.7C1965.71 249.2 2023.67 215.3 2036.66 171.3" stroke="#00AAFF" stroke-miterlimit="10"/>
<path d="M604.867 600.6C629.101 541.1 687.812 495.6 758.515 457.2C766.634 452.8 774.879 448.5 783.248 444.3C847.705 411.7 916.534 383.7 978.743 369.6C1007.72 363 1034.96 359.1 1061.44 355.7C1081.92 353 1102.29 350 1123.15 346.1C1179.23 335.6 1239.44 314.2 1290.04 267.9C1315.64 244.3 1336.25 217.7 1361.99 194.4C1414.2 147 1493.65 134 1568.47 149.6C1582.96 152.6 1597.08 156.5 1610.95 161.2C1652.54 175.4 1690.27 196.3 1729.99 213.8C1739.11 217.8 1748.35 221.6 1757.85 225.2C1803.44 242.2 1853.66 251.7 1903.13 246.5C1962.84 240.2 2020.17 207.7 2034.91 165.2" stroke="#00AAFF" stroke-miterlimit="10"/>
<path d="M622.105 600.5C649.337 542.8 709.922 500.6 780.625 463.4C788.744 459.1 796.989 454.9 805.233 450.8C869.316 418.8 936.271 389.6 996.231 372.8C1024.21 364.9 1050.32 359.5 1075.68 354.5C1095.41 350.6 1114.78 346.3 1134.89 341.3C1188.48 327.7 1246.19 304.1 1295.78 258.2C1321.01 234.7 1341.88 208.7 1367.86 185.9C1419.95 140 1498.15 126.8 1571.85 141.7C1586.09 144.6 1600.08 148.4 1613.69 153C1654.79 166.9 1691.77 187.7 1730.87 205.1C1739.86 209.1 1748.98 212.9 1758.35 216.4C1803.32 233.2 1852.66 242.4 1901.5 237.5C1960.34 231.5 2016.92 200.4 2033.54 159.2" stroke="#00AAFF" stroke-miterlimit="10"/>
<path d="M639.345 600.4C669.45 544.4 732.033 505.5 802.736 469.6C810.855 465.5 819.1 461.4 827.344 457.3C891.052 425.9 956.008 395.5 1013.72 375.9C1040.7 366.7 1065.81 359.7 1090.04 353.2C1108.91 348.1 1127.52 342.6 1146.63 336.3C1197.72 319.6 1252.81 293.9 1301.4 248.4C1326.26 225.1 1347.5 199.6 1373.6 177.4C1425.57 133.1 1502.52 119.5 1574.97 133.9C1589.09 136.7 1602.83 140.4 1616.19 144.9C1656.67 158.6 1693.02 179.3 1731.49 196.5C1740.36 200.4 1749.23 204.2 1758.47 207.7C1802.69 224.3 1851.41 233.2 1899.5 228.5C1957.47 222.8 2013.3 193.1 2031.79 153.3" stroke="#00AAFF" stroke-miterlimit="10"/>
<path d="M656.583 600.3C689.686 546 754.143 510.4 824.846 475.7C832.965 471.7 841.21 467.8 849.329 463.8C912.662 433.1 975.62 401.3 1031.21 379.1C1057.19 368.6 1081.3 360.1 1104.41 351.9C1122.4 345.6 1140.14 338.8 1158.37 331.4C1207.09 311.6 1259.43 283.7 1307.02 238.7C1331.51 215.5 1352.99 190.6 1379.35 168.9C1431.19 126.1 1506.89 112.3 1578.22 126C1592.08 128.7 1605.7 132.2 1618.94 136.7C1658.91 150.1 1694.52 170.7 1732.24 187.7C1740.86 191.6 1749.73 195.3 1758.72 198.8C1802.19 215.3 1850.29 223.9 1897.63 219.3C1954.72 213.8 2009.81 185.6 2030.17 147.1" stroke="#00AAFF" stroke-miterlimit="10"/>
<path d="M673.821 600.2C709.797 547.7 776.253 515.4 846.956 481.9C855.075 478.1 863.195 474.2 871.439 470.3C934.522 440.2 995.357 407.2 1048.7 382.2C1073.68 370.5 1096.66 360.3 1118.65 350.6C1135.89 343 1152.63 335 1170.12 326.4C1216.33 303.6 1266.05 273.4 1312.77 228.9C1336.88 205.8 1358.74 181.5 1385.22 160.3C1436.94 119.1 1511.39 105 1581.47 118.1C1595.21 120.6 1608.57 124.1 1621.56 128.5C1660.91 141.6 1695.89 162.1 1732.99 179C1741.48 182.9 1750.23 186.6 1759.1 190C1801.82 206.3 1849.16 214.6 1895.88 210.2C1952.22 205 2006.43 178.2 2028.67 141" stroke="#00AAFF" stroke-miterlimit="10"/>
<path d="M691.06 600.1C730.034 549.3 798.363 520.3 869.066 488.1C877.185 484.4 885.305 480.7 893.425 476.8C956.133 447.3 1014.97 413.1 1066.18 385.3C1090.04 372.3 1112.15 360.6 1133.01 349.3C1149.38 340.5 1165.24 331.2 1181.86 321.4C1225.58 295.5 1272.67 263.1 1318.39 219C1342.13 196 1364.24 172.3 1391.09 151.7C1442.68 112 1515.88 97.6001 1584.71 110.1C1598.2 112.5 1611.45 115.9 1624.31 120.2C1663.16 133.1 1697.39 153.4 1733.86 170.1C1742.23 173.9 1750.73 177.6 1759.47 181C1801.44 197.1 1848.16 205.1 1894.13 200.9C1949.6 195.9 2003.06 170.6 2027.17 134.8" stroke="#00AAFF" stroke-miterlimit="10"/>
<path d="M708.299 599.9C750.271 550.8 820.474 525.1 891.177 494.1C899.296 490.5 907.416 486.9 915.536 483.2C977.869 454.3 1034.71 418.8 1083.67 388.4C1106.53 374.1 1127.52 360.8 1147.38 348C1162.87 338 1177.99 327.5 1193.6 316.5C1234.95 287.6 1279.42 252.9 1324.14 209.3C1347.5 186.5 1369.86 163.3 1396.96 143.2C1448.43 105 1520.38 90.3999 1588.09 102.2C1601.33 104.5 1614.44 107.8 1627.06 112C1665.29 124.6 1698.76 144.8 1734.61 161.4C1742.86 165.2 1751.23 168.8 1759.85 172.2C1801.07 188.1 1847.16 195.8 1892.38 191.9C1946.97 187.2 1999.69 163.3 2025.67 128.8" stroke="#00AAFF" stroke-miterlimit="10"/>
<path d="M725.537 599.8C770.382 552.5 842.584 530.1 913.412 500.3C921.531 496.9 929.651 493.4 937.646 489.7C999.604 461.5 1054.44 424.7 1101.16 391.5C1123.02 375.9 1143.01 361 1161.62 346.6C1176.24 335.3 1190.48 323.6 1205.34 311.4C1244.19 279.4 1286.04 242.5 1329.76 199.4C1352.62 176.7 1375.35 154.1 1402.71 134.6C1453.93 97.9 1524.88 83 1591.21 94.3C1604.33 96.5 1617.19 99.6 1629.68 103.7C1667.28 116 1700.14 136.1 1735.36 152.6C1743.48 156.4 1751.6 160 1760.1 163.3C1800.57 179 1845.91 186.4 1890.51 182.7C1944.22 178.3 1996.19 155.8 2024.05 122.7" stroke="#00AAFF" stroke-miterlimit="10"/>
<path d="M742.775 599.7C790.618 554.1 864.569 535 935.522 506.4C943.641 503.1 951.761 499.7 959.756 496.1C1021.34 468.5 1074.3 430.5 1118.77 394.5C1139.64 377.6 1158.5 361.2 1176.11 345.2C1189.85 332.7 1203.34 319.7 1217.21 306.4C1253.68 271.4 1292.78 232.2 1335.63 189.5C1358.11 166.9 1381.1 144.9 1408.71 125.9C1459.8 90.8002 1529.5 75.6002 1594.71 86.2002C1607.57 88.3002 1620.31 91.3002 1632.56 95.3002C1669.66 107.4 1701.76 127.3 1736.24 143.6C1744.11 147.4 1752.23 150.9 1760.47 154.2C1800.32 169.7 1844.92 176.8 1888.76 173.3C1941.6 169.1 1992.82 148.1 2022.55 116.3" stroke="#00AAFF" stroke-miterlimit="10"/>
<path d="M760.014 599.6C810.73 555.8 886.679 540 957.632 512.6C965.752 509.5 973.871 506.2 981.741 502.7C1042.95 475.7 1093.92 436.4 1136.14 397.8C1156 379.7 1173.74 361.6 1190.35 344.1C1203.22 330.4 1215.83 316.1 1228.83 301.6C1262.93 263.5 1299.28 222.2 1341.13 179.9C1363.24 157.5 1386.6 135.9 1414.33 117.5C1465.17 83.8 1533.75 68.4999 1597.7 78.4999C1610.45 80.4999 1622.94 83.4 1635.05 87.3C1671.53 99.1 1703.01 118.9 1736.86 135.1C1744.61 138.8 1752.6 142.4 1760.72 145.6C1799.82 161 1843.67 167.7 1886.89 164.4C1938.85 160.5 1989.32 140.9 2020.92 110.4" stroke="#00AAFF" stroke-miterlimit="10"/>
<path d="M777.253 599.5C830.967 557.4 908.79 544.9 979.743 518.8C987.862 515.8 995.857 512.6 1003.73 509.2C1064.56 482.8 1113.53 442.3 1153.63 400.9C1172.36 381.5 1189.23 361.8 1204.59 342.8C1216.71 327.8 1228.45 312.4 1240.44 296.7C1272.05 255.6 1305.78 212 1346.62 170.2C1368.36 147.9 1391.97 126.9 1419.95 109.1C1470.67 76.9002 1538 61.3002 1600.83 70.7002C1613.32 72.6002 1625.56 75.4002 1637.55 79.2002C1673.53 90.7002 1704.26 110.4 1737.49 126.5C1745.11 130.2 1752.85 133.7 1760.85 136.8C1799.2 152 1842.42 158.4 1884.89 155.3C1935.98 151.6 1985.82 133.5 2019.17 104.4" stroke="#00AAFF" stroke-miterlimit="10"/>
<path d="M794.491 599.4C851.078 559 930.9 549.8 1001.85 524.9C1009.97 522 1017.97 519 1025.84 515.6C1086.3 489.9 1133.27 448.1 1171.11 404C1188.85 383.3 1204.59 362.1 1218.96 341.5C1230.2 325.3 1241.07 308.6 1252.31 291.7C1281.67 247.5 1312.65 201.7 1352.49 160.4C1373.85 138.2 1397.71 117.8 1425.94 100.5C1476.41 69.8 1542.62 54 1604.2 62.8C1616.57 64.5 1628.56 67.3 1640.43 71C1675.78 82.3 1705.88 101.8 1738.36 117.7C1745.86 121.4 1753.48 124.8 1761.35 127.9C1798.95 142.9 1841.54 149 1883.26 146.2C1933.48 142.8 1982.57 126.1 2017.8 98.3" stroke="#00AAFF" stroke-miterlimit="10"/>
<path d="M811.729 599.3C878.185 556.2 972.122 553.8 1047.82 522.2C1136.01 485.3 1191.85 409.7 1233.2 340.2C1285.41 252.7 1329.76 151.2 1431.69 91.9C1492.03 56.8 1573.6 40.8 1643.05 62.7C1685.9 76.2 1720.5 102.5 1761.6 119C1842.79 151.6 1948.22 140.5 2016.18 92.2" stroke="#00AAFF" stroke-miterlimit="10"/>
</g>
</g>
</svg>
