<svg width="1440" height="60" viewBox="0 0 1440 60" fill="none" xmlns="http://www.w3.org/2000/svg">
<rect width="1440" height="60" fill="#012A48"/>
<mask id="mask0_197_537" style="mask-type:alpha" maskUnits="userSpaceOnUse" x="0" y="0" width="1440" height="60">
<rect width="1440" height="60" fill="#012A48"/>
</mask>
<g mask="url(#mask0_197_537)">
<g filter="url(#filter0_f_197_537)">
<ellipse cx="397" cy="37.2972" rx="204" ry="124.865" fill="#00AAFF" fill-opacity="0.68"/>
</g>
</g>
<path d="M256.085 23.9091H257.977L262.426 34.7756H262.58L267.028 23.9091H268.92V37H267.438V27.054H267.31L263.219 37H261.787L257.696 27.054H257.568V37H256.085V23.9091ZM274.784 37.2301C274.161 37.2301 273.597 37.1129 273.09 36.8786C272.583 36.6399 272.18 36.2969 271.882 35.8494C271.583 35.3977 271.434 34.8523 271.434 34.2131C271.434 33.6506 271.545 33.1946 271.767 32.8452C271.988 32.4915 272.284 32.2145 272.655 32.0142C273.026 31.8139 273.435 31.6648 273.882 31.5668C274.334 31.4645 274.788 31.3835 275.244 31.3239C275.84 31.2472 276.324 31.1896 276.695 31.1513C277.07 31.1087 277.343 31.0384 277.513 30.9403C277.688 30.8423 277.775 30.6719 277.775 30.429V30.3778C277.775 29.7472 277.602 29.2571 277.257 28.9077C276.916 28.5582 276.399 28.3835 275.704 28.3835C274.984 28.3835 274.419 28.5412 274.01 28.8565C273.601 29.1719 273.313 29.5085 273.147 29.8665L271.715 29.3551C271.971 28.7585 272.312 28.294 272.738 27.9616C273.169 27.625 273.637 27.3906 274.144 27.2585C274.656 27.1222 275.159 27.054 275.653 27.054C275.968 27.054 276.33 27.0923 276.74 27.169C277.153 27.2415 277.551 27.3928 277.935 27.6229C278.323 27.853 278.644 28.2003 278.9 28.6648C279.156 29.1293 279.284 29.7514 279.284 30.5312V37H277.775V35.6705H277.698C277.596 35.8835 277.426 36.1115 277.187 36.3544C276.948 36.5973 276.631 36.804 276.235 36.9744C275.838 37.1449 275.355 37.2301 274.784 37.2301ZM275.014 35.875C275.61 35.875 276.113 35.7578 276.522 35.5234C276.936 35.2891 277.247 34.9865 277.455 34.6158C277.669 34.245 277.775 33.8551 277.775 33.446V32.0653C277.711 32.142 277.57 32.2124 277.353 32.2763C277.14 32.3359 276.893 32.3892 276.612 32.4361C276.335 32.4787 276.064 32.517 275.8 32.5511C275.54 32.581 275.329 32.6065 275.167 32.6278C274.775 32.679 274.409 32.7621 274.068 32.8771C273.731 32.9879 273.458 33.1562 273.249 33.3821C273.045 33.6037 272.943 33.9062 272.943 34.2898C272.943 34.8139 273.137 35.2102 273.524 35.4787C273.916 35.7429 274.413 35.875 275.014 35.875ZM286.307 27.1818V28.4602H281.219V27.1818H286.307ZM282.702 24.8295H284.21V34.1875C284.21 34.6136 284.272 34.9332 284.396 35.1463C284.523 35.3551 284.685 35.4957 284.881 35.5682C285.082 35.6364 285.293 35.6705 285.514 35.6705C285.68 35.6705 285.817 35.6619 285.923 35.6449C286.03 35.6236 286.115 35.6065 286.179 35.5938L286.486 36.9489C286.384 36.9872 286.241 37.0256 286.058 37.0639C285.874 37.1065 285.642 37.1278 285.361 37.1278C284.935 37.1278 284.517 37.0362 284.108 36.853C283.703 36.6697 283.366 36.3906 283.098 36.0156C282.834 35.6406 282.702 35.1676 282.702 34.5966V24.8295ZM292.846 27.1818V28.4602H287.758V27.1818H292.846ZM289.241 24.8295H290.749V34.1875C290.749 34.6136 290.811 34.9332 290.935 35.1463C291.063 35.3551 291.224 35.4957 291.42 35.5682C291.621 35.6364 291.832 35.6705 292.053 35.6705C292.219 35.6705 292.356 35.6619 292.462 35.6449C292.569 35.6236 292.654 35.6065 292.718 35.5938L293.025 36.9489C292.923 36.9872 292.78 37.0256 292.597 37.0639C292.413 37.1065 292.181 37.1278 291.9 37.1278C291.474 37.1278 291.056 37.0362 290.647 36.853C290.242 36.6697 289.906 36.3906 289.637 36.0156C289.373 35.6406 289.241 35.1676 289.241 34.5966V24.8295ZM299.126 37.2045C298.18 37.2045 297.364 36.9957 296.678 36.5781C295.996 36.1562 295.47 35.5682 295.099 34.8139C294.733 34.0554 294.549 33.1733 294.549 32.1676C294.549 31.1619 294.733 30.2756 295.099 29.5085C295.47 28.7372 295.985 28.1364 296.646 27.706C297.311 27.2713 298.086 27.054 298.973 27.054C299.484 27.054 299.989 27.1392 300.488 27.3097C300.986 27.4801 301.44 27.7571 301.849 28.1406C302.258 28.5199 302.584 29.0227 302.827 29.6491C303.07 30.2756 303.191 31.0469 303.191 31.9631V32.6023H295.623V31.2983H301.657C301.657 30.7443 301.547 30.25 301.325 29.8153C301.108 29.3807 300.797 29.0376 300.392 28.7862C299.991 28.5348 299.518 28.4091 298.973 28.4091C298.372 28.4091 297.852 28.5582 297.413 28.8565C296.978 29.1506 296.644 29.5341 296.409 30.0071C296.175 30.4801 296.058 30.9872 296.058 31.5284V32.3977C296.058 33.1392 296.186 33.7678 296.441 34.2834C296.701 34.7947 297.061 35.1847 297.522 35.4531C297.982 35.7173 298.517 35.8494 299.126 35.8494C299.522 35.8494 299.88 35.794 300.2 35.6832C300.524 35.5682 300.803 35.3977 301.037 35.1719C301.272 34.9418 301.453 34.6562 301.581 34.3153L303.038 34.7244C302.885 35.2188 302.627 35.6534 302.265 36.0284C301.902 36.3991 301.455 36.6889 300.922 36.8977C300.39 37.1023 299.791 37.2045 299.126 37.2045ZM305.486 37V27.1818H306.944V28.6648H307.046C307.225 28.179 307.549 27.7848 308.017 27.4822C308.486 27.1797 309.015 27.0284 309.603 27.0284C309.713 27.0284 309.852 27.0305 310.018 27.0348C310.184 27.0391 310.31 27.0455 310.395 27.054V28.5881C310.344 28.5753 310.227 28.5561 310.044 28.5305C309.865 28.5007 309.675 28.4858 309.475 28.4858C308.998 28.4858 308.571 28.5859 308.196 28.7862C307.826 28.9822 307.532 29.255 307.314 29.6044C307.101 29.9496 306.995 30.3437 306.995 30.7869V37H305.486ZM317.45 23.9091H319.343L323.791 34.7756H323.945L328.394 23.9091H330.286V37H328.803V27.054H328.675L324.584 37H323.152L319.061 27.054H318.933V37H317.45V23.9091ZM336.149 37.2301C335.527 37.2301 334.962 37.1129 334.455 36.8786C333.948 36.6399 333.545 36.2969 333.247 35.8494C332.949 35.3977 332.799 34.8523 332.799 34.2131C332.799 33.6506 332.91 33.1946 333.132 32.8452C333.353 32.4915 333.65 32.2145 334.02 32.0142C334.391 31.8139 334.8 31.6648 335.248 31.5668C335.699 31.4645 336.153 31.3835 336.609 31.3239C337.206 31.2472 337.689 31.1896 338.06 31.1513C338.435 31.1087 338.708 31.0384 338.878 30.9403C339.053 30.8423 339.14 30.6719 339.14 30.429V30.3778C339.14 29.7472 338.968 29.2571 338.623 28.9077C338.282 28.5582 337.764 28.3835 337.069 28.3835C336.349 28.3835 335.784 28.5412 335.375 28.8565C334.966 29.1719 334.679 29.5085 334.512 29.8665L333.081 29.3551C333.336 28.7585 333.677 28.294 334.103 27.9616C334.534 27.625 335.002 27.3906 335.51 27.2585C336.021 27.1222 336.524 27.054 337.018 27.054C337.333 27.054 337.696 27.0923 338.105 27.169C338.518 27.2415 338.917 27.3928 339.3 27.6229C339.688 27.853 340.01 28.2003 340.265 28.6648C340.521 29.1293 340.649 29.7514 340.649 30.5312V37H339.14V35.6705H339.064C338.961 35.8835 338.791 36.1115 338.552 36.3544C338.314 36.5973 337.996 36.804 337.6 36.9744C337.203 37.1449 336.72 37.2301 336.149 37.2301ZM336.379 35.875C336.975 35.875 337.478 35.7578 337.887 35.5234C338.301 35.2891 338.612 34.9865 338.821 34.6158C339.034 34.245 339.14 33.8551 339.14 33.446V32.0653C339.076 32.142 338.936 32.2124 338.718 32.2763C338.505 32.3359 338.258 32.3892 337.977 32.4361C337.7 32.4787 337.429 32.517 337.165 32.5511C336.905 32.581 336.694 32.6065 336.532 32.6278C336.14 32.679 335.774 32.7621 335.433 32.8771C335.096 32.9879 334.824 33.1562 334.615 33.3821C334.41 33.6037 334.308 33.9062 334.308 34.2898C334.308 34.8139 334.502 35.2102 334.89 35.4787C335.282 35.7429 335.778 35.875 336.379 35.875ZM344.911 31.0938V37H343.402V27.1818H344.86V28.7159H344.987C345.218 28.2173 345.567 27.8168 346.036 27.5142C346.504 27.2074 347.11 27.054 347.851 27.054C348.516 27.054 349.097 27.1903 349.596 27.4631C350.095 27.7315 350.482 28.1406 350.759 28.6903C351.036 29.2358 351.175 29.9261 351.175 30.7614V37H349.666V30.8636C349.666 30.0923 349.466 29.4915 349.066 29.0611C348.665 28.6264 348.115 28.4091 347.416 28.4091C346.935 28.4091 346.504 28.5135 346.125 28.7223C345.75 28.9311 345.454 29.2358 345.237 29.6364C345.019 30.0369 344.911 30.5227 344.911 31.0938ZM356.821 37.2301C356.199 37.2301 355.634 37.1129 355.127 36.8786C354.62 36.6399 354.217 36.2969 353.919 35.8494C353.62 35.3977 353.471 34.8523 353.471 34.2131C353.471 33.6506 353.582 33.1946 353.804 32.8452C354.025 32.4915 354.321 32.2145 354.692 32.0142C355.063 31.8139 355.472 31.6648 355.919 31.5668C356.371 31.4645 356.825 31.3835 357.281 31.3239C357.877 31.2472 358.361 31.1896 358.732 31.1513C359.107 31.1087 359.38 31.0384 359.55 30.9403C359.725 30.8423 359.812 30.6719 359.812 30.429V30.3778C359.812 29.7472 359.64 29.2571 359.294 28.9077C358.953 28.5582 358.436 28.3835 357.741 28.3835C357.021 28.3835 356.456 28.5412 356.047 28.8565C355.638 29.1719 355.35 29.5085 355.184 29.8665L353.752 29.3551C354.008 28.7585 354.349 28.294 354.775 27.9616C355.206 27.625 355.674 27.3906 356.181 27.2585C356.693 27.1222 357.196 27.054 357.69 27.054C358.005 27.054 358.368 27.0923 358.777 27.169C359.19 27.2415 359.588 27.3928 359.972 27.6229C360.36 27.853 360.681 28.2003 360.937 28.6648C361.193 29.1293 361.321 29.7514 361.321 30.5312V37H359.812V35.6705H359.735C359.633 35.8835 359.463 36.1115 359.224 36.3544C358.985 36.5973 358.668 36.804 358.272 36.9744C357.875 37.1449 357.392 37.2301 356.821 37.2301ZM357.051 35.875C357.647 35.875 358.15 35.7578 358.559 35.5234C358.973 35.2891 359.284 34.9865 359.493 34.6158C359.706 34.245 359.812 33.8551 359.812 33.446V32.0653C359.748 32.142 359.608 32.2124 359.39 32.2763C359.177 32.3359 358.93 32.3892 358.649 32.4361C358.372 32.4787 358.101 32.517 357.837 32.5511C357.577 32.581 357.366 32.6065 357.204 32.6278C356.812 32.679 356.446 32.7621 356.105 32.8771C355.768 32.9879 355.495 33.1562 355.287 33.3821C355.082 33.6037 354.98 33.9062 354.98 34.2898C354.98 34.8139 355.174 35.2102 355.561 35.4787C355.953 35.7429 356.45 35.875 357.051 35.875ZM368.037 40.8864C367.308 40.8864 366.682 40.7926 366.158 40.6051C365.634 40.4219 365.197 40.179 364.847 39.8764C364.502 39.5781 364.227 39.2585 364.023 38.9176L365.225 38.0739C365.361 38.2528 365.534 38.4574 365.742 38.6875C365.951 38.9219 366.237 39.1243 366.599 39.2947C366.965 39.4695 367.445 39.5568 368.037 39.5568C368.83 39.5568 369.484 39.3651 369.999 38.9815C370.515 38.598 370.773 37.9972 370.773 37.179V35.1847H370.645C370.534 35.3636 370.377 35.5852 370.172 35.8494C369.972 36.1094 369.682 36.3416 369.303 36.5462C368.928 36.7464 368.421 36.8466 367.781 36.8466C366.989 36.8466 366.277 36.6591 365.646 36.2841C365.02 35.9091 364.524 35.3636 364.157 34.6477C363.795 33.9318 363.614 33.0625 363.614 32.0398C363.614 31.0341 363.791 30.1584 364.144 29.4126C364.498 28.6626 364.99 28.0831 365.621 27.674C366.252 27.2607 366.98 27.054 367.807 27.054C368.446 27.054 368.953 27.1605 369.328 27.3736C369.708 27.5824 369.997 27.821 370.198 28.0895C370.402 28.3537 370.56 28.571 370.671 28.7415H370.824V27.1818H372.281V37.2812C372.281 38.125 372.09 38.8111 371.706 39.3395C371.327 39.8722 370.816 40.2621 370.172 40.5092C369.533 40.7607 368.821 40.8864 368.037 40.8864ZM367.986 35.4915C368.591 35.4915 369.102 35.353 369.52 35.076C369.938 34.799 370.255 34.4006 370.472 33.8807C370.69 33.3608 370.798 32.7386 370.798 32.0142C370.798 31.3068 370.692 30.6825 370.479 30.1413C370.266 29.6001 369.95 29.1761 369.533 28.8693C369.115 28.5625 368.6 28.4091 367.986 28.4091C367.347 28.4091 366.814 28.571 366.388 28.8949C365.966 29.2187 365.649 29.6534 365.436 30.1989C365.227 30.7443 365.122 31.3494 365.122 32.0142C365.122 32.696 365.229 33.299 365.442 33.8232C365.659 34.343 365.979 34.7521 366.401 35.0504C366.827 35.3445 367.355 35.4915 367.986 35.4915ZM379.159 37.2045C378.213 37.2045 377.397 36.9957 376.711 36.5781C376.029 36.1562 375.503 35.5682 375.132 34.8139C374.766 34.0554 374.583 33.1733 374.583 32.1676C374.583 31.1619 374.766 30.2756 375.132 29.5085C375.503 28.7372 376.019 28.1364 376.679 27.706C377.344 27.2713 378.119 27.054 379.006 27.054C379.517 27.054 380.022 27.1392 380.521 27.3097C381.019 27.4801 381.473 27.7571 381.882 28.1406C382.291 28.5199 382.617 29.0227 382.86 29.6491C383.103 30.2756 383.225 31.0469 383.225 31.9631V32.6023H375.656V31.2983H381.691C381.691 30.7443 381.58 30.25 381.358 29.8153C381.141 29.3807 380.83 29.0376 380.425 28.7862C380.024 28.5348 379.551 28.4091 379.006 28.4091C378.405 28.4091 377.885 28.5582 377.446 28.8565C377.012 29.1506 376.677 29.5341 376.443 30.0071C376.208 30.4801 376.091 30.9872 376.091 31.5284V32.3977C376.091 33.1392 376.219 33.7678 376.475 34.2834C376.735 34.7947 377.095 35.1847 377.555 35.4531C378.015 35.7173 378.55 35.8494 379.159 35.8494C379.556 35.8494 379.914 35.794 380.233 35.6832C380.557 35.5682 380.836 35.3977 381.07 35.1719C381.305 34.9418 381.486 34.6562 381.614 34.3153L383.071 34.7244C382.918 35.2188 382.66 35.6534 382.298 36.0284C381.936 36.3991 381.488 36.6889 380.955 36.8977C380.423 37.1023 379.824 37.2045 379.159 37.2045ZM385.519 37V27.1818H386.977V28.7159H387.105C387.309 28.1918 387.639 27.7848 388.095 27.495C388.551 27.201 389.099 27.054 389.738 27.054C390.386 27.054 390.925 27.201 391.355 27.495C391.79 27.7848 392.129 28.1918 392.372 28.7159H392.474C392.725 28.2088 393.102 27.8061 393.605 27.5078C394.108 27.2053 394.711 27.054 395.414 27.054C396.292 27.054 397.01 27.3288 397.568 27.8786C398.127 28.424 398.406 29.2741 398.406 30.429V37H396.897V30.429C396.897 29.7045 396.699 29.1868 396.303 28.8757C395.906 28.5646 395.44 28.4091 394.903 28.4091C394.213 28.4091 393.678 28.6179 393.298 29.0355C392.919 29.4489 392.73 29.973 392.73 30.608V37H391.195V30.2756C391.195 29.7173 391.014 29.2678 390.652 28.9268C390.29 28.5817 389.823 28.4091 389.252 28.4091C388.86 28.4091 388.494 28.5135 388.153 28.7223C387.816 28.9311 387.544 29.2209 387.335 29.5916C387.13 29.9581 387.028 30.3821 387.028 30.8636V37H385.519ZM405.28 37.2045C404.334 37.2045 403.518 36.9957 402.832 36.5781C402.15 36.1562 401.624 35.5682 401.253 34.8139C400.887 34.0554 400.704 33.1733 400.704 32.1676C400.704 31.1619 400.887 30.2756 401.253 29.5085C401.624 28.7372 402.14 28.1364 402.8 27.706C403.465 27.2713 404.241 27.054 405.127 27.054C405.638 27.054 406.143 27.1392 406.642 27.3097C407.14 27.4801 407.594 27.7571 408.003 28.1406C408.412 28.5199 408.738 29.0227 408.981 29.6491C409.224 30.2756 409.346 31.0469 409.346 31.9631V32.6023H401.778V31.2983H407.812C407.812 30.7443 407.701 30.25 407.479 29.8153C407.262 29.3807 406.951 29.0376 406.546 28.7862C406.145 28.5348 405.672 28.4091 405.127 28.4091C404.526 28.4091 404.006 28.5582 403.567 28.8565C403.133 29.1506 402.798 29.5341 402.564 30.0071C402.329 30.4801 402.212 30.9872 402.212 31.5284V32.3977C402.212 33.1392 402.34 33.7678 402.596 34.2834C402.856 34.7947 403.216 35.1847 403.676 35.4531C404.136 35.7173 404.671 35.8494 405.28 35.8494C405.677 35.8494 406.035 35.794 406.354 35.6832C406.678 35.5682 406.957 35.3977 407.192 35.1719C407.426 34.9418 407.607 34.6562 407.735 34.3153L409.192 34.7244C409.039 35.2188 408.781 35.6534 408.419 36.0284C408.057 36.3991 407.609 36.6889 407.077 36.8977C406.544 37.1023 405.945 37.2045 405.28 37.2045ZM413.149 31.0938V37H411.64V27.1818H413.098V28.7159H413.226C413.456 28.2173 413.805 27.8168 414.274 27.5142C414.743 27.2074 415.348 27.054 416.089 27.054C416.754 27.054 417.336 27.1903 417.834 27.4631C418.333 27.7315 418.721 28.1406 418.998 28.6903C419.275 29.2358 419.413 29.9261 419.413 30.7614V37H417.905V30.8636C417.905 30.0923 417.704 29.4915 417.304 29.0611C416.903 28.6264 416.354 28.4091 415.655 28.4091C415.173 28.4091 414.743 28.5135 414.363 28.7223C413.988 28.9311 413.692 29.2358 413.475 29.6364C413.258 30.0369 413.149 30.5227 413.149 31.0938ZM426.44 27.1818V28.4602H421.352V27.1818H426.44ZM422.835 24.8295H424.343V34.1875C424.343 34.6136 424.405 34.9332 424.528 35.1463C424.656 35.3551 424.818 35.4957 425.014 35.5682C425.214 35.6364 425.425 35.6705 425.647 35.6705C425.813 35.6705 425.95 35.6619 426.056 35.6449C426.163 35.6236 426.248 35.6065 426.312 35.5938L426.619 36.9489C426.516 36.9872 426.374 37.0256 426.19 37.0639C426.007 37.1065 425.775 37.1278 425.494 37.1278C425.067 37.1278 424.65 37.0362 424.241 36.853C423.836 36.6697 423.499 36.3906 423.231 36.0156C422.967 35.6406 422.835 35.1676 422.835 34.5966V24.8295Z" fill="white"/>
<path d="M486.622 37H484.96L489.767 23.9091H491.403L496.21 37H494.548L490.636 25.9801H490.534L486.622 37ZM487.236 31.8864H493.935V33.2926H487.236V31.8864ZM504.232 32.9858V27.1818H505.741V37H504.232V35.3381H504.13C503.9 35.8366 503.542 36.2607 503.056 36.6101C502.57 36.9553 501.957 37.1278 501.215 37.1278C500.602 37.1278 500.056 36.9936 499.579 36.7251C499.102 36.4524 498.727 36.0433 498.454 35.4979C498.181 34.9482 498.045 34.2557 498.045 33.4205V27.1818H499.553V33.3182C499.553 34.0341 499.754 34.6051 500.154 35.0312C500.559 35.4574 501.075 35.6705 501.701 35.6705C502.076 35.6705 502.457 35.5746 502.845 35.3828C503.237 35.1911 503.565 34.897 503.83 34.5007C504.098 34.1044 504.232 33.5994 504.232 32.9858ZM512.774 27.1818V28.4602H507.686V27.1818H512.774ZM509.169 24.8295H510.677V34.1875C510.677 34.6136 510.739 34.9332 510.862 35.1463C510.99 35.3551 511.152 35.4957 511.348 35.5682C511.548 35.6364 511.759 35.6705 511.981 35.6705C512.147 35.6705 512.284 35.6619 512.39 35.6449C512.497 35.6236 512.582 35.6065 512.646 35.5938L512.953 36.9489C512.85 36.9872 512.708 37.0256 512.524 37.0639C512.341 37.1065 512.109 37.1278 511.828 37.1278C511.401 37.1278 510.984 37.0362 510.575 36.853C510.17 36.6697 509.833 36.3906 509.565 36.0156C509.301 35.6406 509.169 35.1676 509.169 34.5966V24.8295ZM518.926 37.2045C518.04 37.2045 517.262 36.9936 516.593 36.5717C515.928 36.1499 515.408 35.5597 515.033 34.8011C514.662 34.0426 514.477 33.1562 514.477 32.142C514.477 31.1193 514.662 30.2266 515.033 29.4638C515.408 28.701 515.928 28.1087 516.593 27.6868C517.262 27.2649 518.04 27.054 518.926 27.054C519.812 27.054 520.588 27.2649 521.253 27.6868C521.922 28.1087 522.442 28.701 522.812 29.4638C523.187 30.2266 523.375 31.1193 523.375 32.142C523.375 33.1562 523.187 34.0426 522.812 34.8011C522.442 35.5597 521.922 36.1499 521.253 36.5717C520.588 36.9936 519.812 37.2045 518.926 37.2045ZM518.926 35.8494C519.599 35.8494 520.153 35.6768 520.588 35.3317C521.023 34.9865 521.344 34.5327 521.553 33.9702C521.762 33.4077 521.866 32.7983 521.866 32.142C521.866 31.4858 521.762 30.8743 521.553 30.3075C521.344 29.7408 521.023 29.2827 520.588 28.9332C520.153 28.5838 519.599 28.4091 518.926 28.4091C518.253 28.4091 517.699 28.5838 517.264 28.9332C516.829 29.2827 516.508 29.7408 516.299 30.3075C516.09 30.8743 515.986 31.4858 515.986 32.142C515.986 32.7983 516.09 33.4077 516.299 33.9702C516.508 34.5327 516.829 34.9865 517.264 35.3317C517.699 35.6768 518.253 35.8494 518.926 35.8494ZM525.678 37V27.1818H527.135V28.7159H527.263C527.467 28.1918 527.798 27.7848 528.254 27.495C528.71 27.201 529.257 27.054 529.896 27.054C530.544 27.054 531.083 27.201 531.513 27.495C531.948 27.7848 532.287 28.1918 532.53 28.7159H532.632C532.884 28.2088 533.261 27.8061 533.763 27.5078C534.266 27.2053 534.869 27.054 535.572 27.054C536.45 27.054 537.168 27.3288 537.727 27.8786C538.285 28.424 538.564 29.2741 538.564 30.429V37H537.055V30.429C537.055 29.7045 536.857 29.1868 536.461 28.8757C536.065 28.5646 535.598 28.4091 535.061 28.4091C534.371 28.4091 533.836 28.6179 533.457 29.0355C533.077 29.4489 532.888 29.973 532.888 30.608V37H531.354V30.2756C531.354 29.7173 531.173 29.2678 530.81 28.9268C530.448 28.5817 529.982 28.4091 529.411 28.4091C529.018 28.4091 528.652 28.5135 528.311 28.7223C527.974 28.9311 527.702 29.2209 527.493 29.5916C527.288 29.9581 527.186 30.3821 527.186 30.8636V37H525.678ZM544.211 37.2301C543.589 37.2301 543.025 37.1129 542.517 36.8786C542.01 36.6399 541.608 36.2969 541.309 35.8494C541.011 35.3977 540.862 34.8523 540.862 34.2131C540.862 33.6506 540.973 33.1946 541.194 32.8452C541.416 32.4915 541.712 32.2145 542.083 32.0142C542.453 31.8139 542.863 31.6648 543.31 31.5668C543.762 31.4645 544.216 31.3835 544.672 31.3239C545.268 31.2472 545.752 31.1896 546.123 31.1513C546.498 31.1087 546.77 31.0384 546.941 30.9403C547.115 30.8423 547.203 30.6719 547.203 30.429V30.3778C547.203 29.7472 547.03 29.2571 546.685 28.9077C546.344 28.5582 545.826 28.3835 545.132 28.3835C544.412 28.3835 543.847 28.5412 543.438 28.8565C543.029 29.1719 542.741 29.5085 542.575 29.8665L541.143 29.3551C541.399 28.7585 541.74 28.294 542.166 27.9616C542.596 27.625 543.065 27.3906 543.572 27.2585C544.083 27.1222 544.586 27.054 545.081 27.054C545.396 27.054 545.758 27.0923 546.167 27.169C546.581 27.2415 546.979 27.3928 547.363 27.6229C547.75 27.853 548.072 28.2003 548.328 28.6648C548.583 29.1293 548.711 29.7514 548.711 30.5312V37H547.203V35.6705H547.126C547.024 35.8835 546.853 36.1115 546.615 36.3544C546.376 36.5973 546.059 36.804 545.662 36.9744C545.266 37.1449 544.782 37.2301 544.211 37.2301ZM544.441 35.875C545.038 35.875 545.541 35.7578 545.95 35.5234C546.363 35.2891 546.674 34.9865 546.883 34.6158C547.096 34.245 547.203 33.8551 547.203 33.446V32.0653C547.139 32.142 546.998 32.2124 546.781 32.2763C546.568 32.3359 546.321 32.3892 546.039 32.4361C545.762 32.4787 545.492 32.517 545.228 32.5511C544.968 32.581 544.757 32.6065 544.595 32.6278C544.203 32.679 543.836 32.7621 543.495 32.8771C543.159 32.9879 542.886 33.1562 542.677 33.3821C542.473 33.6037 542.37 33.9062 542.37 34.2898C542.37 34.8139 542.564 35.2102 542.952 35.4787C543.344 35.7429 543.841 35.875 544.441 35.875ZM555.735 27.1818V28.4602H550.646V27.1818H555.735ZM552.129 24.8295H553.638V34.1875C553.638 34.6136 553.7 34.9332 553.823 35.1463C553.951 35.3551 554.113 35.4957 554.309 35.5682C554.509 35.6364 554.72 35.6705 554.942 35.6705C555.108 35.6705 555.244 35.6619 555.351 35.6449C555.458 35.6236 555.543 35.6065 555.607 35.5938L555.914 36.9489C555.811 36.9872 555.669 37.0256 555.485 37.0639C555.302 37.1065 555.07 37.1278 554.789 37.1278C554.362 37.1278 553.945 37.0362 553.536 36.853C553.131 36.6697 552.794 36.3906 552.526 36.0156C552.262 35.6406 552.129 35.1676 552.129 34.5966V24.8295ZM562.015 37.2045C561.069 37.2045 560.253 36.9957 559.567 36.5781C558.885 36.1562 558.358 35.5682 557.988 34.8139C557.621 34.0554 557.438 33.1733 557.438 32.1676C557.438 31.1619 557.621 30.2756 557.988 29.5085C558.358 28.7372 558.874 28.1364 559.535 27.706C560.199 27.2713 560.975 27.054 561.861 27.054C562.373 27.054 562.878 27.1392 563.376 27.3097C563.875 27.4801 564.329 27.7571 564.738 28.1406C565.147 28.5199 565.473 29.0227 565.716 29.6491C565.959 30.2756 566.08 31.0469 566.08 31.9631V32.6023H558.512V31.2983H564.546C564.546 30.7443 564.435 30.25 564.214 29.8153C563.996 29.3807 563.685 29.0376 563.28 28.7862C562.88 28.5348 562.407 28.4091 561.861 28.4091C561.26 28.4091 560.741 28.5582 560.302 28.8565C559.867 29.1506 559.532 29.5341 559.298 30.0071C559.064 30.4801 558.947 30.9872 558.947 31.5284V32.3977C558.947 33.1392 559.074 33.7678 559.33 34.2834C559.59 34.7947 559.95 35.1847 560.41 35.4531C560.871 35.7173 561.405 35.8494 562.015 35.8494C562.411 35.8494 562.769 35.794 563.089 35.6832C563.412 35.5682 563.692 35.3977 563.926 35.1719C564.16 34.9418 564.341 34.6562 564.469 34.3153L565.927 34.7244C565.773 35.2188 565.515 35.6534 565.153 36.0284C564.791 36.3991 564.344 36.6889 563.811 36.8977C563.278 37.1023 562.68 37.2045 562.015 37.2045ZM572.082 37.2045C571.264 37.2045 570.542 36.9979 569.915 36.5845C569.289 36.1669 568.799 35.5788 568.445 34.8203C568.091 34.0575 567.915 33.1562 567.915 32.1165C567.915 31.0852 568.091 30.1903 568.445 29.4318C568.799 28.6733 569.291 28.0874 569.922 27.674C570.552 27.2607 571.281 27.054 572.108 27.054C572.747 27.054 573.252 27.1605 573.623 27.3736C573.998 27.5824 574.283 27.821 574.479 28.0895C574.68 28.3537 574.835 28.571 574.946 28.7415H575.074V23.9091H576.582V37H575.125V35.4915H574.946C574.835 35.6705 574.677 35.8963 574.473 36.169C574.268 36.4375 573.976 36.6783 573.597 36.8913C573.218 37.1001 572.713 37.2045 572.082 37.2045ZM572.287 35.8494C572.892 35.8494 573.403 35.6918 573.821 35.3764C574.238 35.0568 574.556 34.6158 574.773 34.0533C574.991 33.4865 575.099 32.8324 575.099 32.0909C575.099 31.358 574.993 30.7166 574.78 30.1669C574.567 29.6129 574.251 29.1825 573.834 28.8757C573.416 28.5646 572.9 28.4091 572.287 28.4091C571.648 28.4091 571.115 28.5732 570.689 28.9013C570.267 29.2251 569.949 29.6662 569.736 30.2244C569.528 30.7784 569.423 31.4006 569.423 32.0909C569.423 32.7898 569.53 33.4247 569.743 33.9957C569.96 34.5625 570.28 35.0142 570.702 35.3509C571.128 35.6832 571.656 35.8494 572.287 35.8494ZM587.199 37L583.62 23.9091H585.231L587.966 34.571H588.094L590.881 23.9091H592.671L595.458 34.571H595.586L598.322 23.9091H599.932L596.353 37H594.716L591.827 26.5682H591.725L588.836 37H587.199ZM604.778 37.2045C603.891 37.2045 603.113 36.9936 602.444 36.5717C601.78 36.1499 601.26 35.5597 600.885 34.8011C600.514 34.0426 600.329 33.1562 600.329 32.142C600.329 31.1193 600.514 30.2266 600.885 29.4638C601.26 28.701 601.78 28.1087 602.444 27.6868C603.113 27.2649 603.891 27.054 604.778 27.054C605.664 27.054 606.439 27.2649 607.104 27.6868C607.773 28.1087 608.293 28.701 608.664 29.4638C609.039 30.2266 609.226 31.1193 609.226 32.142C609.226 33.1562 609.039 34.0426 608.664 34.8011C608.293 35.5597 607.773 36.1499 607.104 36.5717C606.439 36.9936 605.664 37.2045 604.778 37.2045ZM604.778 35.8494C605.451 35.8494 606.005 35.6768 606.439 35.3317C606.874 34.9865 607.196 34.5327 607.405 33.9702C607.613 33.4077 607.718 32.7983 607.718 32.142C607.718 31.4858 607.613 30.8743 607.405 30.3075C607.196 29.7408 606.874 29.2827 606.439 28.9332C606.005 28.5838 605.451 28.4091 604.778 28.4091C604.104 28.4091 603.55 28.5838 603.116 28.9332C602.681 29.2827 602.359 29.7408 602.15 30.3075C601.942 30.8743 601.837 31.4858 601.837 32.142C601.837 32.7983 601.942 33.4077 602.15 33.9702C602.359 34.5327 602.681 34.9865 603.116 35.3317C603.55 35.6768 604.104 35.8494 604.778 35.8494ZM611.529 37V27.1818H612.987V28.6648H613.089C613.268 28.179 613.592 27.7848 614.06 27.4822C614.529 27.1797 615.058 27.0284 615.646 27.0284C615.756 27.0284 615.895 27.0305 616.061 27.0348C616.227 27.0391 616.353 27.0455 616.438 27.054V28.5881C616.387 28.5753 616.27 28.5561 616.087 28.5305C615.908 28.5007 615.718 28.4858 615.518 28.4858C615.04 28.4858 614.614 28.5859 614.239 28.7862C613.869 28.9822 613.575 29.255 613.357 29.6044C613.144 29.9496 613.038 30.3437 613.038 30.7869V37H611.529ZM619.633 33.4205L619.607 31.554H619.914L624.209 27.1818H626.076L621.499 31.8097H621.371L619.633 33.4205ZM618.226 37V23.9091H619.735V37H618.226ZM624.465 37L620.63 32.142L621.704 31.0938L626.383 37H624.465ZM632.39 27.1818V28.4602H627.097V27.1818H632.39ZM628.682 37V25.8267C628.682 25.2642 628.814 24.7955 629.078 24.4205C629.343 24.0455 629.686 23.7642 630.108 23.5767C630.529 23.3892 630.975 23.2955 631.444 23.2955C631.814 23.2955 632.117 23.3253 632.351 23.3849C632.586 23.4446 632.76 23.5 632.875 23.5511L632.441 24.8551C632.364 24.8295 632.257 24.7976 632.121 24.7592C631.989 24.7209 631.814 24.7017 631.597 24.7017C631.098 24.7017 630.738 24.8274 630.517 25.0788C630.299 25.3303 630.191 25.6989 630.191 26.1847V37H628.682ZM636.012 23.9091V37H634.504V23.9091H636.012ZM642.764 37.2045C641.877 37.2045 641.1 36.9936 640.431 36.5717C639.766 36.1499 639.246 35.5597 638.871 34.8011C638.5 34.0426 638.315 33.1562 638.315 32.142C638.315 31.1193 638.5 30.2266 638.871 29.4638C639.246 28.701 639.766 28.1087 640.431 27.6868C641.1 27.2649 641.877 27.054 642.764 27.054C643.65 27.054 644.426 27.2649 645.091 27.6868C645.76 28.1087 646.279 28.701 646.65 29.4638C647.025 30.2266 647.213 31.1193 647.213 32.142C647.213 33.1562 647.025 34.0426 646.65 34.8011C646.279 35.5597 645.76 36.1499 645.091 36.5717C644.426 36.9936 643.65 37.2045 642.764 37.2045ZM642.764 35.8494C643.437 35.8494 643.991 35.6768 644.426 35.3317C644.86 34.9865 645.182 34.5327 645.391 33.9702C645.6 33.4077 645.704 32.7983 645.704 32.142C645.704 31.4858 645.6 30.8743 645.391 30.3075C645.182 29.7408 644.86 29.2827 644.426 28.9332C643.991 28.5838 643.437 28.4091 642.764 28.4091C642.091 28.4091 641.537 28.5838 641.102 28.9332C640.667 29.2827 640.346 29.7408 640.137 30.3075C639.928 30.8743 639.824 31.4858 639.824 32.142C639.824 32.7983 639.928 33.4077 640.137 33.9702C640.346 34.5327 640.667 34.9865 641.102 35.3317C641.537 35.6768 642.091 35.8494 642.764 35.8494ZM651.406 37L648.414 27.1818H650L652.122 34.6989H652.224L654.321 27.1818H655.931L658.002 34.6733H658.105L660.227 27.1818H661.812L658.821 37H657.338L655.19 29.4574H655.037L652.889 37H651.406ZM670.761 29.3807L669.406 29.7642C669.321 29.5384 669.195 29.3189 669.029 29.1058C668.867 28.8885 668.645 28.7095 668.364 28.5689C668.083 28.4283 667.723 28.358 667.284 28.358C666.683 28.358 666.182 28.4964 665.782 28.7734C665.385 29.0462 665.187 29.3935 665.187 29.8153C665.187 30.1903 665.324 30.4865 665.596 30.7038C665.869 30.9212 666.295 31.1023 666.875 31.2472L668.332 31.6051C669.21 31.8182 669.864 32.1442 670.294 32.5831C670.725 33.0178 670.94 33.5781 670.94 34.2642C670.94 34.8267 670.778 35.3295 670.454 35.7727C670.135 36.2159 669.687 36.5653 669.112 36.821C668.537 37.0767 667.868 37.2045 667.105 37.2045C666.103 37.2045 665.275 36.9872 664.618 36.5526C663.962 36.1179 663.547 35.483 663.372 34.6477L664.804 34.2898C664.94 34.8182 665.198 35.2145 665.577 35.4787C665.961 35.7429 666.461 35.875 667.079 35.875C667.782 35.875 668.341 35.7259 668.754 35.4276C669.172 35.125 669.38 34.7628 669.38 34.3409C669.38 34 669.261 33.7145 669.022 33.4844C668.784 33.25 668.417 33.0753 667.923 32.9602L666.287 32.5767C665.387 32.3636 664.727 32.0334 664.305 31.5859C663.887 31.1342 663.679 30.5696 663.679 29.892C663.679 29.3381 663.834 28.848 664.145 28.4219C664.461 27.9957 664.889 27.6612 665.43 27.4183C665.975 27.1754 666.593 27.054 667.284 27.054C668.255 27.054 669.018 27.267 669.572 27.6932C670.13 28.1193 670.527 28.6818 670.761 29.3807Z" fill="white"/>
<path d="M738.244 27.1818C738.168 26.5341 737.857 26.0312 737.311 25.6733C736.766 25.3153 736.097 25.1364 735.304 25.1364C734.724 25.1364 734.217 25.2301 733.783 25.4176C733.352 25.6051 733.016 25.8629 732.773 26.1911C732.534 26.5192 732.415 26.892 732.415 27.3097C732.415 27.6591 732.498 27.9595 732.664 28.2109C732.835 28.4581 733.052 28.6648 733.316 28.831C733.58 28.9929 733.857 29.1271 734.147 29.2337C734.437 29.3359 734.703 29.419 734.946 29.483L736.276 29.8409C736.616 29.9304 736.996 30.054 737.413 30.2116C737.835 30.3693 738.238 30.5845 738.621 30.8572C739.009 31.1257 739.329 31.4709 739.58 31.8928C739.832 32.3146 739.957 32.8324 739.957 33.446C739.957 34.1534 739.772 34.7926 739.401 35.3636C739.035 35.9347 738.498 36.3885 737.79 36.7251C737.087 37.0618 736.233 37.2301 735.227 37.2301C734.29 37.2301 733.478 37.0788 732.792 36.7763C732.11 36.4737 731.573 36.0518 731.181 35.5107C730.793 34.9695 730.574 34.3409 730.523 33.625H732.159C732.202 34.1193 732.368 34.5284 732.658 34.8523C732.952 35.1719 733.322 35.4105 733.77 35.5682C734.222 35.7216 734.707 35.7983 735.227 35.7983C735.832 35.7983 736.376 35.7003 736.857 35.5043C737.339 35.304 737.72 35.027 738.001 34.6733C738.283 34.3153 738.423 33.8977 738.423 33.4205C738.423 32.9858 738.302 32.6321 738.059 32.3594C737.816 32.0866 737.496 31.8651 737.1 31.6946C736.704 31.5241 736.276 31.375 735.815 31.2472L734.205 30.7869C733.182 30.4929 732.372 30.0732 731.776 29.5277C731.179 28.9822 730.881 28.2685 730.881 27.3864C730.881 26.6534 731.079 26.0142 731.475 25.4688C731.876 24.919 732.413 24.4929 733.086 24.1903C733.763 23.8835 734.52 23.7301 735.355 23.7301C736.199 23.7301 736.949 23.8814 737.605 24.1839C738.261 24.4822 738.781 24.8913 739.165 25.4112C739.553 25.9311 739.757 26.5213 739.778 27.1818H738.244ZM746.629 27.1818V28.4602H741.541V27.1818H746.629ZM743.024 24.8295H744.532V34.1875C744.532 34.6136 744.594 34.9332 744.718 35.1463C744.846 35.3551 745.008 35.4957 745.204 35.5682C745.404 35.6364 745.615 35.6705 745.836 35.6705C746.003 35.6705 746.139 35.6619 746.246 35.6449C746.352 35.6236 746.437 35.6065 746.501 35.5938L746.808 36.9489C746.706 36.9872 746.563 37.0256 746.38 37.0639C746.197 37.1065 745.964 37.1278 745.683 37.1278C745.257 37.1278 744.839 37.0362 744.43 36.853C744.025 36.6697 743.689 36.3906 743.42 36.0156C743.156 35.6406 743.024 35.1676 743.024 34.5966V24.8295ZM748.898 37V27.1818H750.356V28.6648H750.458C750.637 28.179 750.961 27.7848 751.43 27.4822C751.898 27.1797 752.427 27.0284 753.015 27.0284C753.126 27.0284 753.264 27.0305 753.43 27.0348C753.596 27.0391 753.722 27.0455 753.807 27.054V28.5881C753.756 28.5753 753.639 28.5561 753.456 28.5305C753.277 28.5007 753.087 28.4858 752.887 28.4858C752.41 28.4858 751.983 28.5859 751.608 28.7862C751.238 28.9822 750.944 29.255 750.726 29.6044C750.513 29.9496 750.407 30.3437 750.407 30.7869V37H748.898ZM759.413 37.2045C758.467 37.2045 757.651 36.9957 756.965 36.5781C756.283 36.1562 755.757 35.5682 755.386 34.8139C755.02 34.0554 754.836 33.1733 754.836 32.1676C754.836 31.1619 755.02 30.2756 755.386 29.5085C755.757 28.7372 756.273 28.1364 756.933 27.706C757.598 27.2713 758.373 27.054 759.26 27.054C759.771 27.054 760.276 27.1392 760.775 27.3097C761.273 27.4801 761.727 27.7571 762.136 28.1406C762.545 28.5199 762.871 29.0227 763.114 29.6491C763.357 30.2756 763.479 31.0469 763.479 31.9631V32.6023H755.91V31.2983H761.944C761.944 30.7443 761.834 30.25 761.612 29.8153C761.395 29.3807 761.084 29.0376 760.679 28.7862C760.278 28.5348 759.805 28.4091 759.26 28.4091C758.659 28.4091 758.139 28.5582 757.7 28.8565C757.265 29.1506 756.931 29.5341 756.697 30.0071C756.462 30.4801 756.345 30.9872 756.345 31.5284V32.3977C756.345 33.1392 756.473 33.7678 756.729 34.2834C756.988 34.7947 757.349 35.1847 757.809 35.4531C758.269 35.7173 758.804 35.8494 759.413 35.8494C759.809 35.8494 760.167 35.794 760.487 35.6832C760.811 35.5682 761.09 35.3977 761.324 35.1719C761.559 34.9418 761.74 34.6562 761.868 34.3153L763.325 34.7244C763.172 35.2188 762.914 35.6534 762.552 36.0284C762.189 36.3991 761.742 36.6889 761.209 36.8977C760.677 37.1023 760.078 37.2045 759.413 37.2045ZM768.662 37.2301C768.04 37.2301 767.476 37.1129 766.969 36.8786C766.461 36.6399 766.059 36.2969 765.76 35.8494C765.462 35.3977 765.313 34.8523 765.313 34.2131C765.313 33.6506 765.424 33.1946 765.645 32.8452C765.867 32.4915 766.163 32.2145 766.534 32.0142C766.905 31.8139 767.314 31.6648 767.761 31.5668C768.213 31.4645 768.667 31.3835 769.123 31.3239C769.719 31.2472 770.203 31.1896 770.574 31.1513C770.949 31.1087 771.221 31.0384 771.392 30.9403C771.567 30.8423 771.654 30.6719 771.654 30.429V30.3778C771.654 29.7472 771.481 29.2571 771.136 28.9077C770.795 28.5582 770.278 28.3835 769.583 28.3835C768.863 28.3835 768.298 28.5412 767.889 28.8565C767.48 29.1719 767.192 29.5085 767.026 29.8665L765.594 29.3551C765.85 28.7585 766.191 28.294 766.617 27.9616C767.047 27.625 767.516 27.3906 768.023 27.2585C768.535 27.1222 769.037 27.054 769.532 27.054C769.847 27.054 770.209 27.0923 770.618 27.169C771.032 27.2415 771.43 27.3928 771.814 27.6229C772.202 27.853 772.523 28.2003 772.779 28.6648C773.035 29.1293 773.162 29.7514 773.162 30.5312V37H771.654V35.6705H771.577C771.475 35.8835 771.305 36.1115 771.066 36.3544C770.827 36.5973 770.51 36.804 770.113 36.9744C769.717 37.1449 769.233 37.2301 768.662 37.2301ZM768.893 35.875C769.489 35.875 769.992 35.7578 770.401 35.5234C770.814 35.2891 771.126 34.9865 771.334 34.6158C771.547 34.245 771.654 33.8551 771.654 33.446V32.0653C771.59 32.142 771.449 32.2124 771.232 32.2763C771.019 32.3359 770.772 32.3892 770.491 32.4361C770.214 32.4787 769.943 32.517 769.679 32.5511C769.419 32.581 769.208 32.6065 769.046 32.6278C768.654 32.679 768.287 32.7621 767.947 32.8771C767.61 32.9879 767.337 33.1562 767.128 33.3821C766.924 33.6037 766.822 33.9062 766.822 34.2898C766.822 34.8139 767.015 35.2102 767.403 35.4787C767.795 35.7429 768.292 35.875 768.893 35.875ZM775.916 37V27.1818H777.373V28.7159H777.501C777.706 28.1918 778.036 27.7848 778.492 27.495C778.948 27.201 779.495 27.054 780.135 27.054C780.782 27.054 781.321 27.201 781.752 27.495C782.186 27.7848 782.525 28.1918 782.768 28.7159H782.87C783.122 28.2088 783.499 27.8061 784.002 27.5078C784.505 27.2053 785.108 27.054 785.811 27.054C786.689 27.054 787.407 27.3288 787.965 27.8786C788.523 28.424 788.802 29.2741 788.802 30.429V37H787.294V30.429C787.294 29.7045 787.096 29.1868 786.699 28.8757C786.303 28.5646 785.836 28.4091 785.299 28.4091C784.609 28.4091 784.074 28.6179 783.695 29.0355C783.316 29.4489 783.126 29.973 783.126 30.608V37H781.592V30.2756C781.592 29.7173 781.411 29.2678 781.049 28.9268C780.686 28.5817 780.22 28.4091 779.649 28.4091C779.257 28.4091 778.89 28.5135 778.549 28.7223C778.213 28.9311 777.94 29.2209 777.731 29.5916C777.527 29.9581 777.424 30.3821 777.424 30.8636V37H775.916ZM793.069 23.9091V37H791.56V23.9091H793.069ZM795.832 37V27.1818H797.34V37H795.832ZM796.599 25.5455C796.305 25.5455 796.051 25.4453 795.838 25.245C795.629 25.0447 795.525 24.804 795.525 24.5227C795.525 24.2415 795.629 24.0007 795.838 23.8004C796.051 23.6001 796.305 23.5 796.599 23.5C796.893 23.5 797.144 23.6001 797.353 23.8004C797.566 24.0007 797.673 24.2415 797.673 24.5227C797.673 24.804 797.566 25.0447 797.353 25.245C797.144 25.4453 796.893 25.5455 796.599 25.5455ZM801.612 31.0938V37H800.103V27.1818H801.561V28.7159H801.689C801.919 28.2173 802.268 27.8168 802.737 27.5142C803.206 27.2074 803.811 27.054 804.552 27.054C805.217 27.054 805.799 27.1903 806.297 27.4631C806.796 27.7315 807.184 28.1406 807.461 28.6903C807.738 29.2358 807.876 29.9261 807.876 30.7614V37H806.368V30.8636C806.368 30.0923 806.167 29.4915 805.767 29.0611C805.366 28.6264 804.816 28.4091 804.118 28.4091C803.636 28.4091 803.206 28.5135 802.826 28.7223C802.451 28.9311 802.155 29.2358 801.938 29.6364C801.721 30.0369 801.612 30.5227 801.612 31.0938ZM814.749 37.2045C813.803 37.2045 812.987 36.9957 812.301 36.5781C811.619 36.1562 811.093 35.5682 810.722 34.8139C810.356 34.0554 810.172 33.1733 810.172 32.1676C810.172 31.1619 810.356 30.2756 810.722 29.5085C811.093 28.7372 811.608 28.1364 812.269 27.706C812.934 27.2713 813.709 27.054 814.596 27.054C815.107 27.054 815.612 27.1392 816.111 27.3097C816.609 27.4801 817.063 27.7571 817.472 28.1406C817.881 28.5199 818.207 29.0227 818.45 29.6491C818.693 30.2756 818.814 31.0469 818.814 31.9631V32.6023H811.246V31.2983H817.28C817.28 30.7443 817.17 30.25 816.948 29.8153C816.731 29.3807 816.42 29.0376 816.015 28.7862C815.614 28.5348 815.141 28.4091 814.596 28.4091C813.995 28.4091 813.475 28.5582 813.036 28.8565C812.601 29.1506 812.267 29.5341 812.032 30.0071C811.798 30.4801 811.681 30.9872 811.681 31.5284V32.3977C811.681 33.1392 811.809 33.7678 812.064 34.2834C812.324 34.7947 812.684 35.1847 813.145 35.4531C813.605 35.7173 814.14 35.8494 814.749 35.8494C815.145 35.8494 815.503 35.794 815.823 35.6832C816.147 35.5682 816.426 35.3977 816.66 35.1719C816.895 34.9418 817.076 34.6562 817.204 34.3153L818.661 34.7244C818.508 35.2188 818.25 35.6534 817.888 36.0284C817.525 36.3991 817.078 36.6889 816.545 36.8977C816.013 37.1023 815.414 37.2045 814.749 37.2045ZM836.91 28H835.325C835.231 27.544 835.067 27.1435 834.833 26.7983C834.603 26.4531 834.322 26.1634 833.989 25.929C833.661 25.6903 833.297 25.5114 832.896 25.392C832.496 25.2727 832.078 25.2131 831.643 25.2131C830.851 25.2131 830.133 25.4134 829.489 25.8139C828.85 26.2145 828.341 26.8047 827.961 27.5845C827.586 28.3643 827.399 29.321 827.399 30.4545C827.399 31.5881 827.586 32.5447 827.961 33.3246C828.341 34.1044 828.85 34.6946 829.489 35.0952C830.133 35.4957 830.851 35.696 831.643 35.696C832.078 35.696 832.496 35.6364 832.896 35.517C833.297 35.3977 833.661 35.2209 833.989 34.9865C834.322 34.7479 834.603 34.456 834.833 34.1108C835.067 33.7614 835.231 33.3608 835.325 32.9091H836.91C836.791 33.5781 836.574 34.1768 836.258 34.7053C835.943 35.2337 835.551 35.6832 835.082 36.054C834.613 36.4205 834.087 36.6996 833.503 36.8913C832.924 37.0831 832.304 37.179 831.643 37.179C830.527 37.179 829.534 36.9062 828.665 36.3608C827.795 35.8153 827.111 35.0398 826.613 34.0341C826.114 33.0284 825.865 31.8352 825.865 30.4545C825.865 29.0739 826.114 27.8807 826.613 26.875C827.111 25.8693 827.795 25.0938 828.665 24.5483C829.534 24.0028 830.527 23.7301 831.643 23.7301C832.304 23.7301 832.924 23.826 833.503 24.0178C834.087 24.2095 834.613 24.4908 835.082 24.8615C835.551 25.228 835.943 25.6754 836.258 26.2038C836.574 26.728 836.791 27.3267 836.91 28ZM843.256 37.2045C842.37 37.2045 841.592 36.9936 840.923 36.5717C840.258 36.1499 839.738 35.5597 839.363 34.8011C838.993 34.0426 838.807 33.1562 838.807 32.142C838.807 31.1193 838.993 30.2266 839.363 29.4638C839.738 28.701 840.258 28.1087 840.923 27.6868C841.592 27.2649 842.37 27.054 843.256 27.054C844.142 27.054 844.918 27.2649 845.583 27.6868C846.252 28.1087 846.772 28.701 847.142 29.4638C847.517 30.2266 847.705 31.1193 847.705 32.142C847.705 33.1562 847.517 34.0426 847.142 34.8011C846.772 35.5597 846.252 36.1499 845.583 36.5717C844.918 36.9936 844.142 37.2045 843.256 37.2045ZM843.256 35.8494C843.929 35.8494 844.483 35.6768 844.918 35.3317C845.353 34.9865 845.674 34.5327 845.883 33.9702C846.092 33.4077 846.196 32.7983 846.196 32.142C846.196 31.4858 846.092 30.8743 845.883 30.3075C845.674 29.7408 845.353 29.2827 844.918 28.9332C844.483 28.5838 843.929 28.4091 843.256 28.4091C842.583 28.4091 842.029 28.5838 841.594 28.9332C841.159 29.2827 840.838 29.7408 840.629 30.3075C840.42 30.8743 840.316 31.4858 840.316 32.142C840.316 32.7983 840.42 33.4077 840.629 33.9702C840.838 34.5327 841.159 34.9865 841.594 35.3317C842.029 35.6768 842.583 35.8494 843.256 35.8494ZM850.008 37V27.1818H851.465V28.7159H851.593C851.797 28.1918 852.128 27.7848 852.584 27.495C853.04 27.201 853.587 27.054 854.226 27.054C854.874 27.054 855.413 27.201 855.844 27.495C856.278 27.7848 856.617 28.1918 856.86 28.7159H856.962C857.214 28.2088 857.591 27.8061 858.094 27.5078C858.596 27.2053 859.199 27.054 859.903 27.054C860.78 27.054 861.498 27.3288 862.057 27.8786C862.615 28.424 862.894 29.2741 862.894 30.429V37H861.385V30.429C861.385 29.7045 861.187 29.1868 860.791 28.8757C860.395 28.5646 859.928 28.4091 859.391 28.4091C858.701 28.4091 858.166 28.6179 857.787 29.0355C857.407 29.4489 857.218 29.973 857.218 30.608V37H855.684V30.2756C855.684 29.7173 855.503 29.2678 855.14 28.9268C854.778 28.5817 854.312 28.4091 853.741 28.4091C853.349 28.4091 852.982 28.5135 852.641 28.7223C852.305 28.9311 852.032 29.2209 851.823 29.5916C851.618 29.9581 851.516 30.3821 851.516 30.8636V37H850.008ZM865.652 37V27.1818H867.11V28.7159H867.237C867.442 28.1918 867.772 27.7848 868.228 27.495C868.684 27.201 869.232 27.054 869.871 27.054C870.519 27.054 871.058 27.201 871.488 27.495C871.923 27.7848 872.262 28.1918 872.504 28.7159H872.607C872.858 28.2088 873.235 27.8061 873.738 27.5078C874.241 27.2053 874.844 27.054 875.547 27.054C876.425 27.054 877.143 27.3288 877.701 27.8786C878.259 28.424 878.539 29.2741 878.539 30.429V37H877.03V30.429C877.03 29.7045 876.832 29.1868 876.436 28.8757C876.039 28.5646 875.573 28.4091 875.036 28.4091C874.345 28.4091 873.811 28.6179 873.431 29.0355C873.052 29.4489 872.862 29.973 872.862 30.608V37H871.328V30.2756C871.328 29.7173 871.147 29.2678 870.785 28.9268C870.423 28.5817 869.956 28.4091 869.385 28.4091C868.993 28.4091 868.627 28.5135 868.286 28.7223C867.949 28.9311 867.676 29.2209 867.468 29.5916C867.263 29.9581 867.161 30.3821 867.161 30.8636V37H865.652ZM887.484 32.9858V27.1818H888.993V37H887.484V35.3381H887.382C887.152 35.8366 886.794 36.2607 886.308 36.6101C885.822 36.9553 885.209 37.1278 884.467 37.1278C883.854 37.1278 883.308 36.9936 882.831 36.7251C882.354 36.4524 881.979 36.0433 881.706 35.4979C881.433 34.9482 881.297 34.2557 881.297 33.4205V27.1818H882.805V33.3182C882.805 34.0341 883.006 34.6051 883.406 35.0312C883.811 35.4574 884.327 35.6705 884.953 35.6705C885.328 35.6705 885.709 35.5746 886.097 35.3828C886.489 35.1911 886.817 34.897 887.081 34.5007C887.35 34.1044 887.484 33.5994 887.484 32.9858ZM893.264 31.0938V37H891.756V27.1818H893.213V28.7159H893.341C893.571 28.2173 893.92 27.8168 894.389 27.5142C894.858 27.2074 895.463 27.054 896.205 27.054C896.869 27.054 897.451 27.1903 897.95 27.4631C898.448 27.7315 898.836 28.1406 899.113 28.6903C899.39 29.2358 899.528 29.9261 899.528 30.7614V37H898.02V30.8636C898.02 30.0923 897.82 29.4915 897.419 29.0611C897.018 28.6264 896.469 28.4091 895.77 28.4091C895.288 28.4091 894.858 28.5135 894.479 28.7223C894.104 28.9311 893.808 29.2358 893.59 29.6364C893.373 30.0369 893.264 30.5227 893.264 31.0938ZM902.285 37V27.1818H903.794V37H902.285ZM903.052 25.5455C902.758 25.5455 902.504 25.4453 902.291 25.245C902.083 25.0447 901.978 24.804 901.978 24.5227C901.978 24.2415 902.083 24.0007 902.291 23.8004C902.504 23.6001 902.758 23.5 903.052 23.5C903.346 23.5 903.597 23.6001 903.806 23.8004C904.019 24.0007 904.126 24.2415 904.126 24.5227C904.126 24.804 904.019 25.0447 903.806 25.245C903.597 25.4453 903.346 25.5455 903.052 25.5455ZM910.545 37.2045C909.625 37.2045 908.832 36.9872 908.167 36.5526C907.502 36.1179 906.991 35.5192 906.633 34.7564C906.275 33.9936 906.096 33.1222 906.096 32.142C906.096 31.1449 906.279 30.2649 906.646 29.5021C907.017 28.7351 907.532 28.1364 908.193 27.706C908.858 27.2713 909.633 27.054 910.52 27.054C911.21 27.054 911.832 27.1818 912.386 27.4375C912.94 27.6932 913.394 28.0511 913.748 28.5114C914.101 28.9716 914.321 29.5085 914.406 30.1222H912.897C912.782 29.6747 912.527 29.2784 912.13 28.9332C911.738 28.5838 911.21 28.4091 910.545 28.4091C909.957 28.4091 909.441 28.5625 908.998 28.8693C908.559 29.1719 908.216 29.6001 907.969 30.1541C907.726 30.7038 907.605 31.3494 907.605 32.0909C907.605 32.8494 907.724 33.5099 907.963 34.0724C908.206 34.6349 908.547 35.0717 908.985 35.3828C909.429 35.6939 909.949 35.8494 910.545 35.8494C910.937 35.8494 911.293 35.7812 911.613 35.6449C911.932 35.5085 912.203 35.3125 912.424 35.0568C912.646 34.8011 912.804 34.4943 912.897 34.1364H914.406C914.321 34.7159 914.11 35.2379 913.773 35.7024C913.441 36.1626 913 36.5291 912.45 36.8018C911.904 37.0703 911.27 37.2045 910.545 37.2045ZM919.5 37.2301C918.878 37.2301 918.314 37.1129 917.806 36.8786C917.299 36.6399 916.897 36.2969 916.598 35.8494C916.3 35.3977 916.151 34.8523 916.151 34.2131C916.151 33.6506 916.262 33.1946 916.483 32.8452C916.705 32.4915 917.001 32.2145 917.372 32.0142C917.743 31.8139 918.152 31.6648 918.599 31.5668C919.051 31.4645 919.505 31.3835 919.961 31.3239C920.557 31.2472 921.041 31.1896 921.412 31.1513C921.787 31.1087 922.059 31.0384 922.23 30.9403C922.404 30.8423 922.492 30.6719 922.492 30.429V30.3778C922.492 29.7472 922.319 29.2571 921.974 28.9077C921.633 28.5582 921.115 28.3835 920.421 28.3835C919.701 28.3835 919.136 28.5412 918.727 28.8565C918.318 29.1719 918.03 29.5085 917.864 29.8665L916.432 29.3551C916.688 28.7585 917.029 28.294 917.455 27.9616C917.885 27.625 918.354 27.3906 918.861 27.2585C919.373 27.1222 919.875 27.054 920.37 27.054C920.685 27.054 921.047 27.0923 921.456 27.169C921.87 27.2415 922.268 27.3928 922.652 27.6229C923.039 27.853 923.361 28.2003 923.617 28.6648C923.873 29.1293 924 29.7514 924 30.5312V37H922.492V35.6705H922.415C922.313 35.8835 922.142 36.1115 921.904 36.3544C921.665 36.5973 921.348 36.804 920.951 36.9744C920.555 37.1449 920.071 37.2301 919.5 37.2301ZM919.73 35.875C920.327 35.875 920.83 35.7578 921.239 35.5234C921.652 35.2891 921.963 34.9865 922.172 34.6158C922.385 34.245 922.492 33.8551 922.492 33.446V32.0653C922.428 32.142 922.287 32.2124 922.07 32.2763C921.857 32.3359 921.61 32.3892 921.328 32.4361C921.051 32.4787 920.781 32.517 920.517 32.5511C920.257 32.581 920.046 32.6065 919.884 32.6278C919.492 32.679 919.125 32.7621 918.784 32.8771C918.448 32.9879 918.175 33.1562 917.966 33.3821C917.762 33.6037 917.659 33.9062 917.659 34.2898C917.659 34.8139 917.853 35.2102 918.241 35.4787C918.633 35.7429 919.13 35.875 919.73 35.875ZM931.024 27.1818V28.4602H925.936V27.1818H931.024ZM927.419 24.8295H928.927V34.1875C928.927 34.6136 928.989 34.9332 929.112 35.1463C929.24 35.3551 929.402 35.4957 929.598 35.5682C929.798 35.6364 930.009 35.6705 930.231 35.6705C930.397 35.6705 930.534 35.6619 930.64 35.6449C930.747 35.6236 930.832 35.6065 930.896 35.5938L931.203 36.9489C931.1 36.9872 930.958 37.0256 930.774 37.0639C930.591 37.1065 930.359 37.1278 930.078 37.1278C929.651 37.1278 929.234 37.0362 928.825 36.853C928.42 36.6697 928.083 36.3906 927.815 36.0156C927.551 35.6406 927.419 35.1676 927.419 34.5966V24.8295ZM933.293 37V27.1818H934.801V37H933.293ZM934.06 25.5455C933.766 25.5455 933.512 25.4453 933.299 25.245C933.09 25.0447 932.986 24.804 932.986 24.5227C932.986 24.2415 933.09 24.0007 933.299 23.8004C933.512 23.6001 933.766 23.5 934.06 23.5C934.354 23.5 934.605 23.6001 934.814 23.8004C935.027 24.0007 935.134 24.2415 935.134 24.5227C935.134 24.804 935.027 25.0447 934.814 25.245C934.605 25.4453 934.354 25.5455 934.06 25.5455ZM941.553 37.2045C940.667 37.2045 939.889 36.9936 939.22 36.5717C938.555 36.1499 938.035 35.5597 937.66 34.8011C937.289 34.0426 937.104 33.1562 937.104 32.142C937.104 31.1193 937.289 30.2266 937.66 29.4638C938.035 28.701 938.555 28.1087 939.22 27.6868C939.889 27.2649 940.667 27.054 941.553 27.054C942.439 27.054 943.215 27.2649 943.88 27.6868C944.549 28.1087 945.069 28.701 945.439 29.4638C945.814 30.2266 946.002 31.1193 946.002 32.142C946.002 33.1562 945.814 34.0426 945.439 34.8011C945.069 35.5597 944.549 36.1499 943.88 36.5717C943.215 36.9936 942.439 37.2045 941.553 37.2045ZM941.553 35.8494C942.226 35.8494 942.78 35.6768 943.215 35.3317C943.65 34.9865 943.971 34.5327 944.18 33.9702C944.389 33.4077 944.493 32.7983 944.493 32.142C944.493 31.4858 944.389 30.8743 944.18 30.3075C943.971 29.7408 943.65 29.2827 943.215 28.9332C942.78 28.5838 942.226 28.4091 941.553 28.4091C940.88 28.4091 940.326 28.5838 939.891 28.9332C939.456 29.2827 939.135 29.7408 938.926 30.3075C938.717 30.8743 938.613 31.4858 938.613 32.142C938.613 32.7983 938.717 33.4077 938.926 33.9702C939.135 34.5327 939.456 34.9865 939.891 35.3317C940.326 35.6768 940.88 35.8494 941.553 35.8494ZM949.813 31.0938V37H948.305V27.1818H949.762V28.7159H949.89C950.12 28.2173 950.469 27.8168 950.938 27.5142C951.407 27.2074 952.012 27.054 952.753 27.054C953.418 27.054 954 27.1903 954.498 27.4631C954.997 27.7315 955.385 28.1406 955.662 28.6903C955.939 29.2358 956.077 29.9261 956.077 30.7614V37H954.569V30.8636C954.569 30.0923 954.368 29.4915 953.968 29.0611C953.567 28.6264 953.018 28.4091 952.319 28.4091C951.837 28.4091 951.407 28.5135 951.028 28.7223C950.653 28.9311 950.356 29.2358 950.139 29.6364C949.922 30.0369 949.813 30.5227 949.813 31.0938Z" fill="white"/>
<path d="M1020.12 37H1016.09V23.9091H1020.3C1021.57 23.9091 1022.66 24.1712 1023.56 24.6953C1024.47 25.2152 1025.16 25.9631 1025.64 26.9389C1026.12 27.9105 1026.36 29.0739 1026.36 30.429C1026.36 31.7926 1026.12 32.9666 1025.63 33.951C1025.15 34.9311 1024.44 35.6854 1023.51 36.2138C1022.58 36.7379 1021.45 37 1020.12 37ZM1017.67 35.5938H1020.02C1021.11 35.5938 1022 35.3849 1022.71 34.9673C1023.43 34.5497 1023.96 33.9553 1024.31 33.1839C1024.65 32.4126 1024.83 31.4943 1024.83 30.429C1024.83 29.3722 1024.66 28.4624 1024.31 27.6996C1023.97 26.9325 1023.45 26.3445 1022.76 25.9354C1022.08 25.522 1021.22 25.3153 1020.2 25.3153H1017.67V35.5938ZM1032.81 37.2045C1031.92 37.2045 1031.14 36.9936 1030.47 36.5717C1029.81 36.1499 1029.29 35.5597 1028.91 34.8011C1028.54 34.0426 1028.36 33.1562 1028.36 32.142C1028.36 31.1193 1028.54 30.2266 1028.91 29.4638C1029.29 28.701 1029.81 28.1087 1030.47 27.6868C1031.14 27.2649 1031.92 27.054 1032.81 27.054C1033.69 27.054 1034.47 27.2649 1035.13 27.6868C1035.8 28.1087 1036.32 28.701 1036.69 29.4638C1037.07 30.2266 1037.26 31.1193 1037.26 32.142C1037.26 33.1562 1037.07 34.0426 1036.69 34.8011C1036.32 35.5597 1035.8 36.1499 1035.13 36.5717C1034.47 36.9936 1033.69 37.2045 1032.81 37.2045ZM1032.81 35.8494C1033.48 35.8494 1034.03 35.6768 1034.47 35.3317C1034.9 34.9865 1035.23 34.5327 1035.43 33.9702C1035.64 33.4077 1035.75 32.7983 1035.75 32.142C1035.75 31.4858 1035.64 30.8743 1035.43 30.3075C1035.23 29.7408 1034.9 29.2827 1034.47 28.9332C1034.03 28.5838 1033.48 28.4091 1032.81 28.4091C1032.13 28.4091 1031.58 28.5838 1031.14 28.9332C1030.71 29.2827 1030.39 29.7408 1030.18 30.3075C1029.97 30.8743 1029.87 31.4858 1029.87 32.142C1029.87 32.7983 1029.97 33.4077 1030.18 33.9702C1030.39 34.5327 1030.71 34.9865 1031.14 35.3317C1031.58 35.6768 1032.13 35.8494 1032.81 35.8494ZM1043.55 37.2045C1042.63 37.2045 1041.83 36.9872 1041.17 36.5526C1040.5 36.1179 1039.99 35.5192 1039.64 34.7564C1039.28 33.9936 1039.1 33.1222 1039.1 32.142C1039.1 31.1449 1039.28 30.2649 1039.65 29.5021C1040.02 28.7351 1040.53 28.1364 1041.19 27.706C1041.86 27.2713 1042.64 27.054 1043.52 27.054C1044.21 27.054 1044.83 27.1818 1045.39 27.4375C1045.94 27.6932 1046.4 28.0511 1046.75 28.5114C1047.1 28.9716 1047.32 29.5085 1047.41 30.1222H1045.9C1045.78 29.6747 1045.53 29.2784 1045.13 28.9332C1044.74 28.5838 1044.21 28.4091 1043.55 28.4091C1042.96 28.4091 1042.44 28.5625 1042 28.8693C1041.56 29.1719 1041.22 29.6001 1040.97 30.1541C1040.73 30.7038 1040.61 31.3494 1040.61 32.0909C1040.61 32.8494 1040.73 33.5099 1040.96 34.0724C1041.21 34.6349 1041.55 35.0717 1041.99 35.3828C1042.43 35.6939 1042.95 35.8494 1043.55 35.8494C1043.94 35.8494 1044.29 35.7812 1044.61 35.6449C1044.93 35.5085 1045.2 35.3125 1045.43 35.0568C1045.65 34.8011 1045.81 34.4943 1045.9 34.1364H1047.41C1047.32 34.7159 1047.11 35.2379 1046.78 35.7024C1046.44 36.1626 1046 36.5291 1045.45 36.8018C1044.91 37.0703 1044.27 37.2045 1043.55 37.2045ZM1055.8 32.9858V27.1818H1057.31V37H1055.8V35.3381H1055.7C1055.47 35.8366 1055.11 36.2607 1054.62 36.6101C1054.14 36.9553 1053.53 37.1278 1052.78 37.1278C1052.17 37.1278 1051.62 36.9936 1051.15 36.7251C1050.67 36.4524 1050.29 36.0433 1050.02 35.4979C1049.75 34.9482 1049.61 34.2557 1049.61 33.4205V27.1818H1051.12V33.3182C1051.12 34.0341 1051.32 34.6051 1051.72 35.0312C1052.13 35.4574 1052.64 35.6705 1053.27 35.6705C1053.64 35.6705 1054.03 35.5746 1054.41 35.3828C1054.81 35.1911 1055.13 34.897 1055.4 34.5007C1055.67 34.1044 1055.8 33.5994 1055.8 32.9858ZM1060.07 37V27.1818H1061.53V28.7159H1061.66C1061.86 28.1918 1062.19 27.7848 1062.65 27.495C1063.1 27.201 1063.65 27.054 1064.29 27.054C1064.94 27.054 1065.48 27.201 1065.91 27.495C1066.34 27.7848 1066.68 28.1918 1066.92 28.7159H1067.03C1067.28 28.2088 1067.66 27.8061 1068.16 27.5078C1068.66 27.2053 1069.26 27.054 1069.97 27.054C1070.84 27.054 1071.56 27.3288 1072.12 27.8786C1072.68 28.424 1072.96 29.2741 1072.96 30.429V37H1071.45V30.429C1071.45 29.7045 1071.25 29.1868 1070.86 28.8757C1070.46 28.5646 1069.99 28.4091 1069.46 28.4091C1068.77 28.4091 1068.23 28.6179 1067.85 29.0355C1067.47 29.4489 1067.28 29.973 1067.28 30.608V37H1065.75V30.2756C1065.75 29.7173 1065.57 29.2678 1065.2 28.9268C1064.84 28.5817 1064.38 28.4091 1063.81 28.4091C1063.41 28.4091 1063.05 28.5135 1062.71 28.7223C1062.37 28.9311 1062.1 29.2209 1061.89 29.5916C1061.68 29.9581 1061.58 30.3821 1061.58 30.8636V37H1060.07ZM1079.83 37.2045C1078.89 37.2045 1078.07 36.9957 1077.38 36.5781C1076.7 36.1562 1076.18 35.5682 1075.81 34.8139C1075.44 34.0554 1075.26 33.1733 1075.26 32.1676C1075.26 31.1619 1075.44 30.2756 1075.81 29.5085C1076.18 28.7372 1076.69 28.1364 1077.35 27.706C1078.02 27.2713 1078.79 27.054 1079.68 27.054C1080.19 27.054 1080.7 27.1392 1081.19 27.3097C1081.69 27.4801 1082.15 27.7571 1082.56 28.1406C1082.97 28.5199 1083.29 29.0227 1083.53 29.6491C1083.78 30.2756 1083.9 31.0469 1083.9 31.9631V32.6023H1076.33V31.2983H1082.36C1082.36 30.7443 1082.25 30.25 1082.03 29.8153C1081.81 29.3807 1081.5 29.0376 1081.1 28.7862C1080.7 28.5348 1080.23 28.4091 1079.68 28.4091C1079.08 28.4091 1078.56 28.5582 1078.12 28.8565C1077.69 29.1506 1077.35 29.5341 1077.12 30.0071C1076.88 30.4801 1076.76 30.9872 1076.76 31.5284V32.3977C1076.76 33.1392 1076.89 33.7678 1077.15 34.2834C1077.41 34.7947 1077.77 35.1847 1078.23 35.4531C1078.69 35.7173 1079.22 35.8494 1079.83 35.8494C1080.23 35.8494 1080.59 35.794 1080.91 35.6832C1081.23 35.5682 1081.51 35.3977 1081.74 35.1719C1081.98 34.9418 1082.16 34.6562 1082.29 34.3153L1083.75 34.7244C1083.59 35.2188 1083.33 35.6534 1082.97 36.0284C1082.61 36.3991 1082.16 36.6889 1081.63 36.8977C1081.1 37.1023 1080.5 37.2045 1079.83 37.2045ZM1087.7 31.0938V37H1086.19V27.1818H1087.65V28.7159H1087.78C1088.01 28.2173 1088.36 27.8168 1088.83 27.5142C1089.3 27.2074 1089.9 27.054 1090.64 27.054C1091.31 27.054 1091.89 27.1903 1092.39 27.4631C1092.89 27.7315 1093.27 28.1406 1093.55 28.6903C1093.83 29.2358 1093.97 29.9261 1093.97 30.7614V37H1092.46V30.8636C1092.46 30.0923 1092.26 29.4915 1091.86 29.0611C1091.46 28.6264 1090.91 28.4091 1090.21 28.4091C1089.73 28.4091 1089.3 28.5135 1088.92 28.7223C1088.54 28.9311 1088.25 29.2358 1088.03 29.6364C1087.81 30.0369 1087.7 30.5227 1087.7 31.0938ZM1100.99 27.1818V28.4602H1095.9V27.1818H1100.99ZM1097.39 24.8295H1098.9V34.1875C1098.9 34.6136 1098.96 34.9332 1099.08 35.1463C1099.21 35.3551 1099.37 35.4957 1099.57 35.5682C1099.77 35.6364 1099.98 35.6705 1100.2 35.6705C1100.37 35.6705 1100.5 35.6619 1100.61 35.6449C1100.72 35.6236 1100.8 35.6065 1100.86 35.5938L1101.17 36.9489C1101.07 36.9872 1100.93 37.0256 1100.74 37.0639C1100.56 37.1065 1100.33 37.1278 1100.05 37.1278C1099.62 37.1278 1099.2 37.0362 1098.79 36.853C1098.39 36.6697 1098.05 36.3906 1097.78 36.0156C1097.52 35.6406 1097.39 35.1676 1097.39 34.5966V24.8295ZM1115.69 27.1818C1115.61 26.5341 1115.3 26.0312 1114.75 25.6733C1114.21 25.3153 1113.54 25.1364 1112.75 25.1364C1112.17 25.1364 1111.66 25.2301 1111.23 25.4176C1110.8 25.6051 1110.46 25.8629 1110.22 26.1911C1109.98 26.5192 1109.86 26.892 1109.86 27.3097C1109.86 27.6591 1109.94 27.9595 1110.11 28.2109C1110.28 28.4581 1110.5 28.6648 1110.76 28.831C1111.02 28.9929 1111.3 29.1271 1111.59 29.2337C1111.88 29.3359 1112.15 29.419 1112.39 29.483L1113.72 29.8409C1114.06 29.9304 1114.44 30.054 1114.86 30.2116C1115.28 30.3693 1115.68 30.5845 1116.06 30.8572C1116.45 31.1257 1116.77 31.4709 1117.02 31.8928C1117.28 32.3146 1117.4 32.8324 1117.4 33.446C1117.4 34.1534 1117.22 34.7926 1116.84 35.3636C1116.48 35.9347 1115.94 36.3885 1115.23 36.7251C1114.53 37.0618 1113.68 37.2301 1112.67 37.2301C1111.73 37.2301 1110.92 37.0788 1110.24 36.7763C1109.55 36.4737 1109.02 36.0518 1108.62 35.5107C1108.24 34.9695 1108.02 34.3409 1107.97 33.625H1109.6C1109.65 34.1193 1109.81 34.5284 1110.1 34.8523C1110.4 35.1719 1110.77 35.4105 1111.21 35.5682C1111.66 35.7216 1112.15 35.7983 1112.67 35.7983C1113.28 35.7983 1113.82 35.7003 1114.3 35.5043C1114.78 35.304 1115.16 35.027 1115.44 34.6733C1115.73 34.3153 1115.87 33.8977 1115.87 33.4205C1115.87 32.9858 1115.75 32.6321 1115.5 32.3594C1115.26 32.0866 1114.94 31.8651 1114.54 31.6946C1114.15 31.5241 1113.72 31.375 1113.26 31.2472L1111.65 30.7869C1110.63 30.4929 1109.82 30.0732 1109.22 29.5277C1108.62 28.9822 1108.32 28.2685 1108.32 27.3864C1108.32 26.6534 1108.52 26.0142 1108.92 25.4688C1109.32 24.919 1109.86 24.4929 1110.53 24.1903C1111.21 23.8835 1111.96 23.7301 1112.8 23.7301C1113.64 23.7301 1114.39 23.8814 1115.05 24.1839C1115.7 24.4822 1116.22 24.8913 1116.61 25.4112C1117 25.9311 1117.2 26.5213 1117.22 27.1818H1115.69ZM1123.79 37.2045C1122.9 37.2045 1122.13 36.9936 1121.46 36.5717C1120.79 36.1499 1120.27 35.5597 1119.9 34.8011C1119.53 34.0426 1119.34 33.1562 1119.34 32.142C1119.34 31.1193 1119.53 30.2266 1119.9 29.4638C1120.27 28.701 1120.79 28.1087 1121.46 27.6868C1122.13 27.2649 1122.9 27.054 1123.79 27.054C1124.68 27.054 1125.45 27.2649 1126.12 27.6868C1126.79 28.1087 1127.31 28.701 1127.68 29.4638C1128.05 30.2266 1128.24 31.1193 1128.24 32.142C1128.24 33.1562 1128.05 34.0426 1127.68 34.8011C1127.31 35.5597 1126.79 36.1499 1126.12 36.5717C1125.45 36.9936 1124.68 37.2045 1123.79 37.2045ZM1123.79 35.8494C1124.46 35.8494 1125.02 35.6768 1125.45 35.3317C1125.89 34.9865 1126.21 34.5327 1126.42 33.9702C1126.63 33.4077 1126.73 32.7983 1126.73 32.142C1126.73 31.4858 1126.63 30.8743 1126.42 30.3075C1126.21 29.7408 1125.89 29.2827 1125.45 28.9332C1125.02 28.5838 1124.46 28.4091 1123.79 28.4091C1123.12 28.4091 1122.56 28.5838 1122.13 28.9332C1121.69 29.2827 1121.37 29.7408 1121.16 30.3075C1120.96 30.8743 1120.85 31.4858 1120.85 32.142C1120.85 32.7983 1120.96 33.4077 1121.16 33.9702C1121.37 34.5327 1121.69 34.9865 1122.13 35.3317C1122.56 35.6768 1123.12 35.8494 1123.79 35.8494ZM1132.05 23.9091V37H1130.54V23.9091H1132.05ZM1141 32.9858V27.1818H1142.51V37H1141V35.3381H1140.9C1140.67 35.8366 1140.31 36.2607 1139.83 36.6101C1139.34 36.9553 1138.73 37.1278 1137.98 37.1278C1137.37 37.1278 1136.83 36.9936 1136.35 36.7251C1135.87 36.4524 1135.5 36.0433 1135.22 35.4979C1134.95 34.9482 1134.81 34.2557 1134.81 33.4205V27.1818H1136.32V33.3182C1136.32 34.0341 1136.52 34.6051 1136.92 35.0312C1137.33 35.4574 1137.84 35.6705 1138.47 35.6705C1138.85 35.6705 1139.23 35.5746 1139.61 35.3828C1140.01 35.1911 1140.33 34.897 1140.6 34.5007C1140.87 34.1044 1141 33.5994 1141 32.9858ZM1149.54 27.1818V28.4602H1144.46V27.1818H1149.54ZM1145.94 24.8295H1147.45V34.1875C1147.45 34.6136 1147.51 34.9332 1147.63 35.1463C1147.76 35.3551 1147.92 35.4957 1148.12 35.5682C1148.32 35.6364 1148.53 35.6705 1148.75 35.6705C1148.92 35.6705 1149.05 35.6619 1149.16 35.6449C1149.27 35.6236 1149.35 35.6065 1149.42 35.5938L1149.72 36.9489C1149.62 36.9872 1149.48 37.0256 1149.29 37.0639C1149.11 37.1065 1148.88 37.1278 1148.6 37.1278C1148.17 37.1278 1147.75 37.0362 1147.34 36.853C1146.94 36.6697 1146.6 36.3906 1146.33 36.0156C1146.07 35.6406 1145.94 35.1676 1145.94 34.5966V24.8295ZM1151.81 37V27.1818H1153.32V37H1151.81ZM1152.58 25.5455C1152.29 25.5455 1152.03 25.4453 1151.82 25.245C1151.61 25.0447 1151.51 24.804 1151.51 24.5227C1151.51 24.2415 1151.61 24.0007 1151.82 23.8004C1152.03 23.6001 1152.29 23.5 1152.58 23.5C1152.87 23.5 1153.12 23.6001 1153.33 23.8004C1153.55 24.0007 1153.65 24.2415 1153.65 24.5227C1153.65 24.804 1153.55 25.0447 1153.33 25.245C1153.12 25.4453 1152.87 25.5455 1152.58 25.5455ZM1160.07 37.2045C1159.19 37.2045 1158.41 36.9936 1157.74 36.5717C1157.07 36.1499 1156.55 35.5597 1156.18 34.8011C1155.81 34.0426 1155.62 33.1562 1155.62 32.142C1155.62 31.1193 1155.81 30.2266 1156.18 29.4638C1156.55 28.701 1157.07 28.1087 1157.74 27.6868C1158.41 27.2649 1159.19 27.054 1160.07 27.054C1160.96 27.054 1161.73 27.2649 1162.4 27.6868C1163.07 28.1087 1163.59 28.701 1163.96 29.4638C1164.33 30.2266 1164.52 31.1193 1164.52 32.142C1164.52 33.1562 1164.33 34.0426 1163.96 34.8011C1163.59 35.5597 1163.07 36.1499 1162.4 36.5717C1161.73 36.9936 1160.96 37.2045 1160.07 37.2045ZM1160.07 35.8494C1160.75 35.8494 1161.3 35.6768 1161.73 35.3317C1162.17 34.9865 1162.49 34.5327 1162.7 33.9702C1162.91 33.4077 1163.01 32.7983 1163.01 32.142C1163.01 31.4858 1162.91 30.8743 1162.7 30.3075C1162.49 29.7408 1162.17 29.2827 1161.73 28.9332C1161.3 28.5838 1160.75 28.4091 1160.07 28.4091C1159.4 28.4091 1158.85 28.5838 1158.41 28.9332C1157.98 29.2827 1157.65 29.7408 1157.45 30.3075C1157.24 30.8743 1157.13 31.4858 1157.13 32.142C1157.13 32.7983 1157.24 33.4077 1157.45 33.9702C1157.65 34.5327 1157.98 34.9865 1158.41 35.3317C1158.85 35.6768 1159.4 35.8494 1160.07 35.8494ZM1168.33 31.0938V37H1166.82V27.1818H1168.28V28.7159H1168.41C1168.64 28.2173 1168.99 27.8168 1169.46 27.5142C1169.93 27.2074 1170.53 27.054 1171.27 27.054C1171.94 27.054 1172.52 27.1903 1173.02 27.4631C1173.52 27.7315 1173.9 28.1406 1174.18 28.6903C1174.46 29.2358 1174.6 29.9261 1174.6 30.7614V37H1173.09V30.8636C1173.09 30.0923 1172.89 29.4915 1172.49 29.0611C1172.09 28.6264 1171.54 28.4091 1170.84 28.4091C1170.36 28.4091 1169.93 28.5135 1169.55 28.7223C1169.17 28.9311 1168.88 29.2358 1168.66 29.6364C1168.44 30.0369 1168.33 30.5227 1168.33 31.0938ZM1184.31 29.3807L1182.95 29.7642C1182.87 29.5384 1182.74 29.3189 1182.58 29.1058C1182.41 28.8885 1182.19 28.7095 1181.91 28.5689C1181.63 28.4283 1181.27 28.358 1180.83 28.358C1180.23 28.358 1179.73 28.4964 1179.33 28.7734C1178.93 29.0462 1178.73 29.3935 1178.73 29.8153C1178.73 30.1903 1178.87 30.4865 1179.14 30.7038C1179.42 30.9212 1179.84 31.1023 1180.42 31.2472L1181.88 31.6051C1182.76 31.8182 1183.41 32.1442 1183.84 32.5831C1184.27 33.0178 1184.49 33.5781 1184.49 34.2642C1184.49 34.8267 1184.32 35.3295 1184 35.7727C1183.68 36.2159 1183.23 36.5653 1182.66 36.821C1182.08 37.0767 1181.41 37.2045 1180.65 37.2045C1179.65 37.2045 1178.82 36.9872 1178.17 36.5526C1177.51 36.1179 1177.09 35.483 1176.92 34.6477L1178.35 34.2898C1178.49 34.8182 1178.74 35.2145 1179.12 35.4787C1179.51 35.7429 1180.01 35.875 1180.63 35.875C1181.33 35.875 1181.89 35.7259 1182.3 35.4276C1182.72 35.125 1182.93 34.7628 1182.93 34.3409C1182.93 34 1182.81 33.7145 1182.57 33.4844C1182.33 33.25 1181.96 33.0753 1181.47 32.9602L1179.83 32.5767C1178.93 32.3636 1178.27 32.0334 1177.85 31.5859C1177.43 31.1342 1177.23 30.5696 1177.23 29.892C1177.23 29.3381 1177.38 28.848 1177.69 28.4219C1178.01 27.9957 1178.44 27.6612 1178.98 27.4183C1179.52 27.1754 1180.14 27.054 1180.83 27.054C1181.8 27.054 1182.56 27.267 1183.12 27.6932C1183.68 28.1193 1184.07 28.6818 1184.31 29.3807Z" fill="white"/>
<defs>
<filter id="filter0_f_197_537" x="-107" y="-387.568" width="1008" height="849.73" filterUnits="userSpaceOnUse" color-interpolation-filters="sRGB">
<feFlood flood-opacity="0" result="BackgroundImageFix"/>
<feBlend mode="normal" in="SourceGraphic" in2="BackgroundImageFix" result="shape"/>
<feGaussianBlur stdDeviation="150" result="effect1_foregroundBlur_197_537"/>
</filter>
</defs>
</svg>
