<svg width="1440" height="60" viewBox="0 0 1440 60" fill="none" xmlns="http://www.w3.org/2000/svg">
<rect width="1440" height="60" fill="#1B2C4B"/>
<mask id="mask0_547_335" style="mask-type:alpha" maskUnits="userSpaceOnUse" x="0" y="0" width="1440" height="60">
<rect width="1440" height="60" fill="#012A48"/>
</mask>
<g mask="url(#mask0_547_335)">
<g filter="url(#filter0_f_547_335)">
<ellipse cx="256" cy="46" rx="204" ry="154" fill="#00AAFF"/>
</g>
</g>
<path d="M349.17 23.9091V37H347.585V23.9091H349.17ZM353.653 31.0938V37H352.144V27.1818H353.602V28.7159H353.73C353.96 28.2173 354.309 27.8168 354.778 27.5142C355.247 27.2074 355.852 27.054 356.593 27.054C357.258 27.054 357.84 27.1903 358.338 27.4631C358.837 27.7315 359.225 28.1406 359.502 28.6903C359.779 29.2358 359.917 29.9261 359.917 30.7614V37H358.409V30.8636C358.409 30.0923 358.208 29.4915 357.808 29.0611C357.407 28.6264 356.857 28.4091 356.159 28.4091C355.677 28.4091 355.247 28.5135 354.867 28.7223C354.492 28.9311 354.196 29.2358 353.979 29.6364C353.762 30.0369 353.653 30.5227 353.653 31.0938ZM366.944 27.1818V28.4602H361.855V27.1818H366.944ZM363.338 24.8295H364.847V34.1875C364.847 34.6136 364.909 34.9332 365.032 35.1463C365.16 35.3551 365.322 35.4957 365.518 35.5682C365.718 35.6364 365.929 35.6705 366.151 35.6705C366.317 35.6705 366.453 35.6619 366.56 35.6449C366.667 35.6236 366.752 35.6065 366.816 35.5938L367.123 36.9489C367.02 36.9872 366.877 37.0256 366.694 37.0639C366.511 37.1065 366.279 37.1278 365.998 37.1278C365.571 37.1278 365.154 37.0362 364.745 36.853C364.34 36.6697 364.003 36.3906 363.735 36.0156C363.471 35.6406 363.338 35.1676 363.338 34.5966V24.8295ZM372.102 37.2301C371.48 37.2301 370.915 37.1129 370.408 36.8786C369.901 36.6399 369.498 36.2969 369.2 35.8494C368.902 35.3977 368.752 34.8523 368.752 34.2131C368.752 33.6506 368.863 33.1946 369.085 32.8452C369.306 32.4915 369.603 32.2145 369.973 32.0142C370.344 31.8139 370.753 31.6648 371.201 31.5668C371.652 31.4645 372.106 31.3835 372.562 31.3239C373.159 31.2472 373.642 31.1896 374.013 31.1513C374.388 31.1087 374.661 31.0384 374.831 30.9403C375.006 30.8423 375.093 30.6719 375.093 30.429V30.3778C375.093 29.7472 374.921 29.2571 374.576 28.9077C374.235 28.5582 373.717 28.3835 373.022 28.3835C372.302 28.3835 371.738 28.5412 371.328 28.8565C370.919 29.1719 370.632 29.5085 370.466 29.8665L369.034 29.3551C369.289 28.7585 369.63 28.294 370.056 27.9616C370.487 27.625 370.956 27.3906 371.463 27.2585C371.974 27.1222 372.477 27.054 372.971 27.054C373.287 27.054 373.649 27.0923 374.058 27.169C374.471 27.2415 374.87 27.3928 375.253 27.6229C375.641 27.853 375.963 28.2003 376.218 28.6648C376.474 29.1293 376.602 29.7514 376.602 30.5312V37H375.093V35.6705H375.017C374.914 35.8835 374.744 36.1115 374.505 36.3544C374.267 36.5973 373.949 36.804 373.553 36.9744C373.157 37.1449 372.673 37.2301 372.102 37.2301ZM372.332 35.875C372.929 35.875 373.431 35.7578 373.841 35.5234C374.254 35.2891 374.565 34.9865 374.774 34.6158C374.987 34.245 375.093 33.8551 375.093 33.446V32.0653C375.029 32.142 374.889 32.2124 374.672 32.2763C374.458 32.3359 374.211 32.3892 373.93 32.4361C373.653 32.4787 373.382 32.517 373.118 32.5511C372.858 32.581 372.647 32.6065 372.485 32.6278C372.093 32.679 371.727 32.7621 371.386 32.8771C371.049 32.9879 370.777 33.1562 370.568 33.3821C370.363 33.6037 370.261 33.9062 370.261 34.2898C370.261 34.8139 370.455 35.2102 370.843 35.4787C371.235 35.7429 371.731 35.875 372.332 35.875ZM380.762 33.4205L380.736 31.554H381.043L385.338 27.1818H387.205L382.628 31.8097H382.5L380.762 33.4205ZM379.355 37V23.9091H380.864V37H379.355ZM385.594 37L381.759 32.142L382.833 31.0938L387.512 37H385.594ZM392.858 37.2045C391.912 37.2045 391.096 36.9957 390.41 36.5781C389.729 36.1562 389.202 35.5682 388.831 34.8139C388.465 34.0554 388.282 33.1733 388.282 32.1676C388.282 31.1619 388.465 30.2756 388.831 29.5085C389.202 28.7372 389.718 28.1364 390.378 27.706C391.043 27.2713 391.819 27.054 392.705 27.054C393.216 27.054 393.721 27.1392 394.22 27.3097C394.719 27.4801 395.172 27.7571 395.581 28.1406C395.991 28.5199 396.317 29.0227 396.559 29.6491C396.802 30.2756 396.924 31.0469 396.924 31.9631V32.6023H389.356V31.2983H395.39C395.39 30.7443 395.279 30.25 395.057 29.8153C394.84 29.3807 394.529 29.0376 394.124 28.7862C393.724 28.5348 393.251 28.4091 392.705 28.4091C392.104 28.4091 391.584 28.5582 391.145 28.8565C390.711 29.1506 390.376 29.5341 390.142 30.0071C389.907 30.4801 389.79 30.9872 389.79 31.5284V32.3977C389.79 33.1392 389.918 33.7678 390.174 34.2834C390.434 34.7947 390.794 35.1847 391.254 35.4531C391.714 35.7173 392.249 35.8494 392.858 35.8494C393.255 35.8494 393.613 35.794 393.932 35.6832C394.256 35.5682 394.535 35.3977 394.77 35.1719C395.004 34.9418 395.185 34.6562 395.313 34.3153L396.77 34.7244C396.617 35.2188 396.359 35.6534 395.997 36.0284C395.635 36.3991 395.187 36.6889 394.655 36.8977C394.122 37.1023 393.523 37.2045 392.858 37.2045ZM405.023 37H403.361L408.167 23.9091H409.804L414.611 37H412.949L409.037 25.9801H408.934L405.023 37ZM405.636 31.8864H412.335V33.2926H405.636V31.8864ZM422.633 32.9858V27.1818H424.141V37H422.633V35.3381H422.53C422.3 35.8366 421.942 36.2607 421.456 36.6101C420.971 36.9553 420.357 37.1278 419.616 37.1278C419.002 37.1278 418.456 36.9936 417.979 36.7251C417.502 36.4524 417.127 36.0433 416.854 35.4979C416.581 34.9482 416.445 34.2557 416.445 33.4205V27.1818H417.954V33.3182C417.954 34.0341 418.154 34.6051 418.555 35.0312C418.959 35.4574 419.475 35.6705 420.101 35.6705C420.476 35.6705 420.858 35.5746 421.246 35.3828C421.638 35.1911 421.966 34.897 422.23 34.5007C422.498 34.1044 422.633 33.5994 422.633 32.9858ZM431.174 27.1818V28.4602H426.086V27.1818H431.174ZM427.569 24.8295H429.077V34.1875C429.077 34.6136 429.139 34.9332 429.263 35.1463C429.391 35.3551 429.553 35.4957 429.749 35.5682C429.949 35.6364 430.16 35.6705 430.381 35.6705C430.548 35.6705 430.684 35.6619 430.79 35.6449C430.897 35.6236 430.982 35.6065 431.046 35.5938L431.353 36.9489C431.251 36.9872 431.108 37.0256 430.925 37.0639C430.741 37.1065 430.509 37.1278 430.228 37.1278C429.802 37.1278 429.384 37.0362 428.975 36.853C428.57 36.6697 428.234 36.3906 427.965 36.0156C427.701 35.6406 427.569 35.1676 427.569 34.5966V24.8295ZM437.326 37.2045C436.44 37.2045 435.662 36.9936 434.993 36.5717C434.328 36.1499 433.809 35.5597 433.434 34.8011C433.063 34.0426 432.877 33.1562 432.877 32.142C432.877 31.1193 433.063 30.2266 433.434 29.4638C433.809 28.701 434.328 28.1087 434.993 27.6868C435.662 27.2649 436.44 27.054 437.326 27.054C438.213 27.054 438.988 27.2649 439.653 27.6868C440.322 28.1087 440.842 28.701 441.213 29.4638C441.588 30.2266 441.775 31.1193 441.775 32.142C441.775 33.1562 441.588 34.0426 441.213 34.8011C440.842 35.5597 440.322 36.1499 439.653 36.5717C438.988 36.9936 438.213 37.2045 437.326 37.2045ZM437.326 35.8494C438 35.8494 438.554 35.6768 438.988 35.3317C439.423 34.9865 439.745 34.5327 439.953 33.9702C440.162 33.4077 440.267 32.7983 440.267 32.142C440.267 31.4858 440.162 30.8743 439.953 30.3075C439.745 29.7408 439.423 29.2827 438.988 28.9332C438.554 28.5838 438 28.4091 437.326 28.4091C436.653 28.4091 436.099 28.5838 435.664 28.9332C435.23 29.2827 434.908 29.7408 434.699 30.3075C434.49 30.8743 434.386 31.4858 434.386 32.142C434.386 32.7983 434.49 33.4077 434.699 33.9702C434.908 34.5327 435.23 34.9865 435.664 35.3317C436.099 35.6768 436.653 35.8494 437.326 35.8494ZM444.078 37V27.1818H445.535V28.7159H445.663C445.868 28.1918 446.198 27.7848 446.654 27.495C447.11 27.201 447.657 27.054 448.297 27.054C448.944 27.054 449.483 27.201 449.914 27.495C450.349 27.7848 450.687 28.1918 450.93 28.7159H451.032C451.284 28.2088 451.661 27.8061 452.164 27.5078C452.667 27.2053 453.27 27.054 453.973 27.054C454.851 27.054 455.569 27.3288 456.127 27.8786C456.685 28.424 456.964 29.2741 456.964 30.429V37H455.456V30.429C455.456 29.7045 455.258 29.1868 454.861 28.8757C454.465 28.5646 453.998 28.4091 453.461 28.4091C452.771 28.4091 452.236 28.6179 451.857 29.0355C451.478 29.4489 451.288 29.973 451.288 30.608V37H449.754V30.2756C449.754 29.7173 449.573 29.2678 449.211 28.9268C448.849 28.5817 448.382 28.4091 447.811 28.4091C447.419 28.4091 447.052 28.5135 446.711 28.7223C446.375 28.9311 446.102 29.2209 445.893 29.5916C445.689 29.9581 445.586 30.3821 445.586 30.8636V37H444.078ZM462.612 37.2301C461.99 37.2301 461.425 37.1129 460.918 36.8786C460.411 36.6399 460.008 36.2969 459.71 35.8494C459.411 35.3977 459.262 34.8523 459.262 34.2131C459.262 33.6506 459.373 33.1946 459.595 32.8452C459.816 32.4915 460.112 32.2145 460.483 32.0142C460.854 31.8139 461.263 31.6648 461.71 31.5668C462.162 31.4645 462.616 31.3835 463.072 31.3239C463.669 31.2472 464.152 31.1896 464.523 31.1513C464.898 31.1087 465.171 31.0384 465.341 30.9403C465.516 30.8423 465.603 30.6719 465.603 30.429V30.3778C465.603 29.7472 465.431 29.2571 465.085 28.9077C464.744 28.5582 464.227 28.3835 463.532 28.3835C462.812 28.3835 462.247 28.5412 461.838 28.8565C461.429 29.1719 461.142 29.5085 460.975 29.8665L459.544 29.3551C459.799 28.7585 460.14 28.294 460.566 27.9616C460.997 27.625 461.465 27.3906 461.972 27.2585C462.484 27.1222 462.987 27.054 463.481 27.054C463.796 27.054 464.159 27.0923 464.568 27.169C464.981 27.2415 465.379 27.3928 465.763 27.6229C466.151 27.853 466.472 28.2003 466.728 28.6648C466.984 29.1293 467.112 29.7514 467.112 30.5312V37H465.603V35.6705H465.526C465.424 35.8835 465.254 36.1115 465.015 36.3544C464.776 36.5973 464.459 36.804 464.063 36.9744C463.666 37.1449 463.183 37.2301 462.612 37.2301ZM462.842 35.875C463.438 35.875 463.941 35.7578 464.35 35.5234C464.764 35.2891 465.075 34.9865 465.284 34.6158C465.497 34.245 465.603 33.8551 465.603 33.446V32.0653C465.539 32.142 465.399 32.2124 465.181 32.2763C464.968 32.3359 464.721 32.3892 464.44 32.4361C464.163 32.4787 463.892 32.517 463.628 32.5511C463.368 32.581 463.157 32.6065 462.995 32.6278C462.603 32.679 462.237 32.7621 461.896 32.8771C461.559 32.9879 461.286 33.1562 461.078 33.3821C460.873 33.6037 460.771 33.9062 460.771 34.2898C460.771 34.8139 460.965 35.2102 461.352 35.4787C461.744 35.7429 462.241 35.875 462.842 35.875ZM474.135 27.1818V28.4602H469.047V27.1818H474.135ZM470.53 24.8295H472.038V34.1875C472.038 34.6136 472.1 34.9332 472.224 35.1463C472.352 35.3551 472.513 35.4957 472.71 35.5682C472.91 35.6364 473.121 35.6705 473.342 35.6705C473.509 35.6705 473.645 35.6619 473.751 35.6449C473.858 35.6236 473.943 35.6065 474.007 35.5938L474.314 36.9489C474.212 36.9872 474.069 37.0256 473.886 37.0639C473.702 37.1065 473.47 37.1278 473.189 37.1278C472.763 37.1278 472.345 37.0362 471.936 36.853C471.531 36.6697 471.195 36.3906 470.926 36.0156C470.662 35.6406 470.53 35.1676 470.53 34.5966V24.8295ZM476.404 37V27.1818H477.913V37H476.404ZM477.171 25.5455C476.877 25.5455 476.624 25.4453 476.411 25.245C476.202 25.0447 476.097 24.804 476.097 24.5227C476.097 24.2415 476.202 24.0007 476.411 23.8004C476.624 23.6001 476.877 23.5 477.171 23.5C477.465 23.5 477.717 23.6001 477.925 23.8004C478.138 24.0007 478.245 24.2415 478.245 24.5227C478.245 24.804 478.138 25.0447 477.925 25.245C477.717 25.4453 477.465 25.5455 477.171 25.5455ZM484.664 37.2045C483.778 37.2045 483 36.9936 482.331 36.5717C481.666 36.1499 481.146 35.5597 480.771 34.8011C480.401 34.0426 480.215 33.1562 480.215 32.142C480.215 31.1193 480.401 30.2266 480.771 29.4638C481.146 28.701 481.666 28.1087 482.331 27.6868C483 27.2649 483.778 27.054 484.664 27.054C485.551 27.054 486.326 27.2649 486.991 27.6868C487.66 28.1087 488.18 28.701 488.551 29.4638C488.926 30.2266 489.113 31.1193 489.113 32.142C489.113 33.1562 488.926 34.0426 488.551 34.8011C488.18 35.5597 487.66 36.1499 486.991 36.5717C486.326 36.9936 485.551 37.2045 484.664 37.2045ZM484.664 35.8494C485.338 35.8494 485.892 35.6768 486.326 35.3317C486.761 34.9865 487.083 34.5327 487.291 33.9702C487.5 33.4077 487.605 32.7983 487.605 32.142C487.605 31.4858 487.5 30.8743 487.291 30.3075C487.083 29.7408 486.761 29.2827 486.326 28.9332C485.892 28.5838 485.338 28.4091 484.664 28.4091C483.991 28.4091 483.437 28.5838 483.002 28.9332C482.568 29.2827 482.246 29.7408 482.037 30.3075C481.828 30.8743 481.724 31.4858 481.724 32.142C481.724 32.7983 481.828 33.4077 482.037 33.9702C482.246 34.5327 482.568 34.9865 483.002 35.3317C483.437 35.6768 483.991 35.8494 484.664 35.8494ZM492.924 31.0938V37H491.416V27.1818H492.873V28.7159H493.001C493.231 28.2173 493.581 27.8168 494.049 27.5142C494.518 27.2074 495.123 27.054 495.865 27.054C496.529 27.054 497.111 27.1903 497.61 27.4631C498.108 27.7315 498.496 28.1406 498.773 28.6903C499.05 29.2358 499.189 29.9261 499.189 30.7614V37H497.68V30.8636C497.68 30.0923 497.48 29.4915 497.079 29.0611C496.679 28.6264 496.129 28.4091 495.43 28.4091C494.949 28.4091 494.518 28.5135 494.139 28.7223C493.764 28.9311 493.468 29.2358 493.25 29.6364C493.033 30.0369 492.924 30.5227 492.924 31.0938Z" fill="white"/>
<path d="M559.585 37V23.9091H564.009C565.036 23.9091 565.875 24.0945 566.527 24.4652C567.183 24.8317 567.669 25.3281 567.984 25.9545C568.3 26.581 568.457 27.2798 568.457 28.0511C568.457 28.8224 568.3 29.5234 567.984 30.1541C567.673 30.7848 567.192 31.2876 566.54 31.6626C565.888 32.0334 565.053 32.2188 564.034 32.2188H560.864V30.8125H563.983C564.686 30.8125 565.251 30.6911 565.677 30.4482C566.103 30.2053 566.412 29.8771 566.604 29.4638C566.8 29.0462 566.898 28.5753 566.898 28.0511C566.898 27.527 566.8 27.0582 566.604 26.6449C566.412 26.2315 566.101 25.9077 565.67 25.6733C565.24 25.4347 564.669 25.3153 563.957 25.3153H561.17V37H559.585ZM570.806 37V27.1818H572.264V28.6648H572.366C572.545 28.179 572.869 27.7848 573.338 27.4822C573.806 27.1797 574.335 27.0284 574.923 27.0284C575.034 27.0284 575.172 27.0305 575.338 27.0348C575.505 27.0391 575.63 27.0455 575.716 27.054V28.5881C575.664 28.5753 575.547 28.5561 575.364 28.5305C575.185 28.5007 574.995 28.4858 574.795 28.4858C574.318 28.4858 573.892 28.5859 573.517 28.7862C573.146 28.9822 572.852 29.255 572.635 29.6044C572.422 29.9496 572.315 30.3437 572.315 30.7869V37H570.806ZM581.194 37.2045C580.307 37.2045 579.529 36.9936 578.86 36.5717C578.196 36.1499 577.676 35.5597 577.301 34.8011C576.93 34.0426 576.745 33.1562 576.745 32.142C576.745 31.1193 576.93 30.2266 577.301 29.4638C577.676 28.701 578.196 28.1087 578.86 27.6868C579.529 27.2649 580.307 27.054 581.194 27.054C582.08 27.054 582.855 27.2649 583.52 27.6868C584.189 28.1087 584.709 28.701 585.08 29.4638C585.455 30.2266 585.642 31.1193 585.642 32.142C585.642 33.1562 585.455 34.0426 585.08 34.8011C584.709 35.5597 584.189 36.1499 583.52 36.5717C582.855 36.9936 582.08 37.2045 581.194 37.2045ZM581.194 35.8494C581.867 35.8494 582.421 35.6768 582.855 35.3317C583.29 34.9865 583.612 34.5327 583.821 33.9702C584.029 33.4077 584.134 32.7983 584.134 32.142C584.134 31.4858 584.029 30.8743 583.821 30.3075C583.612 29.7408 583.29 29.2827 582.855 28.9332C582.421 28.5838 581.867 28.4091 581.194 28.4091C580.52 28.4091 579.966 28.5838 579.532 28.9332C579.097 29.2827 578.775 29.7408 578.566 30.3075C578.358 30.8743 578.253 31.4858 578.253 32.142C578.253 32.7983 578.358 33.4077 578.566 33.9702C578.775 34.5327 579.097 34.9865 579.532 35.3317C579.966 35.6768 580.52 35.8494 581.194 35.8494ZM594.9 29.3807L593.545 29.7642C593.459 29.5384 593.334 29.3189 593.167 29.1058C593.006 28.8885 592.784 28.7095 592.503 28.5689C592.221 28.4283 591.861 28.358 591.422 28.358C590.822 28.358 590.321 28.4964 589.92 28.7734C589.524 29.0462 589.326 29.3935 589.326 29.8153C589.326 30.1903 589.462 30.4865 589.735 30.7038C590.008 30.9212 590.434 31.1023 591.013 31.2472L592.471 31.6051C593.349 31.8182 594.003 32.1442 594.433 32.5831C594.863 33.0178 595.079 33.5781 595.079 34.2642C595.079 34.8267 594.917 35.3295 594.593 35.7727C594.273 36.2159 593.826 36.5653 593.251 36.821C592.675 37.0767 592.006 37.2045 591.243 37.2045C590.242 37.2045 589.413 36.9872 588.757 36.5526C588.101 36.1179 587.685 35.483 587.51 34.6477L588.942 34.2898C589.079 34.8182 589.336 35.2145 589.716 35.4787C590.099 35.7429 590.6 35.875 591.218 35.875C591.921 35.875 592.479 35.7259 592.893 35.4276C593.31 35.125 593.519 34.7628 593.519 34.3409C593.519 34 593.4 33.7145 593.161 33.4844C592.922 33.25 592.556 33.0753 592.062 32.9602L590.425 32.5767C589.526 32.3636 588.866 32.0334 588.444 31.5859C588.026 31.1342 587.817 30.5696 587.817 29.892C587.817 29.3381 587.973 28.848 588.284 28.4219C588.599 27.9957 589.028 27.6612 589.569 27.4183C590.114 27.1754 590.732 27.054 591.422 27.054C592.394 27.054 593.157 27.267 593.711 27.6932C594.269 28.1193 594.665 28.6818 594.9 29.3807ZM597.349 40.6818V27.1818H598.807V28.7415H598.986C599.097 28.571 599.25 28.3537 599.446 28.0895C599.646 27.821 599.932 27.5824 600.303 27.3736C600.678 27.1605 601.185 27.054 601.824 27.054C602.651 27.054 603.379 27.2607 604.01 27.674C604.641 28.0874 605.133 28.6733 605.487 29.4318C605.84 30.1903 606.017 31.0852 606.017 32.1165C606.017 33.1562 605.84 34.0575 605.487 34.8203C605.133 35.5788 604.643 36.1669 604.016 36.5845C603.39 36.9979 602.668 37.2045 601.849 37.2045C601.219 37.2045 600.714 37.1001 600.335 36.8913C599.955 36.6783 599.663 36.4375 599.459 36.169C599.254 35.8963 599.097 35.6705 598.986 35.4915H598.858V40.6818H597.349ZM598.832 32.0909C598.832 32.8324 598.941 33.4865 599.158 34.0533C599.376 34.6158 599.693 35.0568 600.111 35.3764C600.528 35.6918 601.04 35.8494 601.645 35.8494C602.276 35.8494 602.802 35.6832 603.224 35.3509C603.65 35.0142 603.969 34.5625 604.183 33.9957C604.4 33.4247 604.509 32.7898 604.509 32.0909C604.509 31.4006 604.402 30.7784 604.189 30.2244C603.98 29.6662 603.663 29.2251 603.237 28.9013C602.815 28.5732 602.284 28.4091 601.645 28.4091C601.031 28.4091 600.516 28.5646 600.098 28.8757C599.68 29.1825 599.365 29.6129 599.152 30.1669C598.939 30.7166 598.832 31.358 598.832 32.0909ZM612.435 37.2045C611.489 37.2045 610.673 36.9957 609.987 36.5781C609.305 36.1562 608.778 35.5682 608.408 34.8139C608.041 34.0554 607.858 33.1733 607.858 32.1676C607.858 31.1619 608.041 30.2756 608.408 29.5085C608.778 28.7372 609.294 28.1364 609.955 27.706C610.619 27.2713 611.395 27.054 612.281 27.054C612.793 27.054 613.298 27.1392 613.796 27.3097C614.295 27.4801 614.749 27.7571 615.158 28.1406C615.567 28.5199 615.893 29.0227 616.136 29.6491C616.379 30.2756 616.5 31.0469 616.5 31.9631V32.6023H608.932V31.2983H614.966C614.966 30.7443 614.855 30.25 614.634 29.8153C614.416 29.3807 614.105 29.0376 613.7 28.7862C613.3 28.5348 612.827 28.4091 612.281 28.4091C611.68 28.4091 611.161 28.5582 610.722 28.8565C610.287 29.1506 609.952 29.5341 609.718 30.0071C609.484 30.4801 609.366 30.9872 609.366 31.5284V32.3977C609.366 33.1392 609.494 33.7678 609.75 34.2834C610.01 34.7947 610.37 35.1847 610.83 35.4531C611.29 35.7173 611.825 35.8494 612.435 35.8494C612.831 35.8494 613.189 35.794 613.509 35.6832C613.832 35.5682 614.112 35.3977 614.346 35.1719C614.58 34.9418 614.761 34.6562 614.889 34.3153L616.347 34.7244C616.193 35.2188 615.935 35.6534 615.573 36.0284C615.211 36.3991 614.763 36.6889 614.231 36.8977C613.698 37.1023 613.099 37.2045 612.435 37.2045ZM622.783 37.2045C621.863 37.2045 621.07 36.9872 620.406 36.5526C619.741 36.1179 619.229 35.5192 618.871 34.7564C618.513 33.9936 618.335 33.1222 618.335 32.142C618.335 31.1449 618.518 30.2649 618.884 29.5021C619.255 28.7351 619.771 28.1364 620.431 27.706C621.096 27.2713 621.871 27.054 622.758 27.054C623.448 27.054 624.07 27.1818 624.624 27.4375C625.178 27.6932 625.632 28.0511 625.986 28.5114C626.339 28.9716 626.559 29.5085 626.644 30.1222H625.136C625.021 29.6747 624.765 29.2784 624.369 28.9332C623.977 28.5838 623.448 28.4091 622.783 28.4091C622.195 28.4091 621.68 28.5625 621.237 28.8693C620.798 29.1719 620.455 29.6001 620.207 30.1541C619.964 30.7038 619.843 31.3494 619.843 32.0909C619.843 32.8494 619.962 33.5099 620.201 34.0724C620.444 34.6349 620.785 35.0717 621.224 35.3828C621.667 35.6939 622.187 35.8494 622.783 35.8494C623.175 35.8494 623.531 35.7812 623.851 35.6449C624.17 35.5085 624.441 35.3125 624.663 35.0568C624.884 34.8011 625.042 34.4943 625.136 34.1364H626.644C626.559 34.7159 626.348 35.2379 626.011 35.7024C625.679 36.1626 625.238 36.5291 624.688 36.8018C624.143 37.0703 623.508 37.2045 622.783 37.2045ZM633.119 27.1818V28.4602H628.031V27.1818H633.119ZM629.514 24.8295H631.023V34.1875C631.023 34.6136 631.085 34.9332 631.208 35.1463C631.336 35.3551 631.498 35.4957 631.694 35.5682C631.894 35.6364 632.105 35.6705 632.327 35.6705C632.493 35.6705 632.629 35.6619 632.736 35.6449C632.842 35.6236 632.928 35.6065 632.991 35.5938L633.298 36.9489C633.196 36.9872 633.053 37.0256 632.87 37.0639C632.687 37.1065 632.455 37.1278 632.173 37.1278C631.747 37.1278 631.33 37.0362 630.92 36.853C630.516 36.6697 630.179 36.3906 629.911 36.0156C629.646 35.6406 629.514 35.1676 629.514 34.5966V24.8295ZM640.656 23.9091H642.548L646.996 34.7756H647.15L651.599 23.9091H653.491V37H652.008V27.054H651.88L647.789 37H646.357L642.266 27.054H642.138V37H640.656V23.9091ZM659.354 37.2301C658.732 37.2301 658.167 37.1129 657.66 36.8786C657.153 36.6399 656.75 36.2969 656.452 35.8494C656.154 35.3977 656.004 34.8523 656.004 34.2131C656.004 33.6506 656.115 33.1946 656.337 32.8452C656.558 32.4915 656.855 32.2145 657.225 32.0142C657.596 31.8139 658.005 31.6648 658.453 31.5668C658.904 31.4645 659.358 31.3835 659.814 31.3239C660.411 31.2472 660.894 31.1896 661.265 31.1513C661.64 31.1087 661.913 31.0384 662.083 30.9403C662.258 30.8423 662.345 30.6719 662.345 30.429V30.3778C662.345 29.7472 662.173 29.2571 661.828 28.9077C661.487 28.5582 660.969 28.3835 660.274 28.3835C659.554 28.3835 658.99 28.5412 658.58 28.8565C658.171 29.1719 657.884 29.5085 657.718 29.8665L656.286 29.3551C656.541 28.7585 656.882 28.294 657.308 27.9616C657.739 27.625 658.208 27.3906 658.715 27.2585C659.226 27.1222 659.729 27.054 660.223 27.054C660.539 27.054 660.901 27.0923 661.31 27.169C661.723 27.2415 662.122 27.3928 662.505 27.6229C662.893 27.853 663.215 28.2003 663.47 28.6648C663.726 29.1293 663.854 29.7514 663.854 30.5312V37H662.345V35.6705H662.269C662.166 35.8835 661.996 36.1115 661.757 36.3544C661.519 36.5973 661.201 36.804 660.805 36.9744C660.409 37.1449 659.925 37.2301 659.354 37.2301ZM659.584 35.875C660.181 35.875 660.683 35.7578 661.093 35.5234C661.506 35.2891 661.817 34.9865 662.026 34.6158C662.239 34.245 662.345 33.8551 662.345 33.446V32.0653C662.281 32.142 662.141 32.2124 661.923 32.2763C661.71 32.3359 661.463 32.3892 661.182 32.4361C660.905 32.4787 660.634 32.517 660.37 32.5511C660.11 32.581 659.899 32.6065 659.737 32.6278C659.345 32.679 658.979 32.7621 658.638 32.8771C658.301 32.9879 658.029 33.1562 657.82 33.3821C657.615 33.6037 657.513 33.9062 657.513 34.2898C657.513 34.8139 657.707 35.2102 658.095 35.4787C658.487 35.7429 658.983 35.875 659.584 35.875ZM668.116 31.0938V37H666.607V27.1818H668.065V28.7159H668.192C668.423 28.2173 668.772 27.8168 669.241 27.5142C669.71 27.2074 670.315 27.054 671.056 27.054C671.721 27.054 672.303 27.1903 672.801 27.4631C673.3 27.7315 673.688 28.1406 673.964 28.6903C674.241 29.2358 674.38 29.9261 674.38 30.7614V37H672.871V30.8636C672.871 30.0923 672.671 29.4915 672.271 29.0611C671.87 28.6264 671.32 28.4091 670.621 28.4091C670.14 28.4091 669.71 28.5135 669.33 28.7223C668.955 28.9311 668.659 29.2358 668.442 29.6364C668.224 30.0369 668.116 30.5227 668.116 31.0938ZM680.026 37.2301C679.404 37.2301 678.839 37.1129 678.332 36.8786C677.825 36.6399 677.422 36.2969 677.124 35.8494C676.825 35.3977 676.676 34.8523 676.676 34.2131C676.676 33.6506 676.787 33.1946 677.009 32.8452C677.23 32.4915 677.526 32.2145 677.897 32.0142C678.268 31.8139 678.677 31.6648 679.124 31.5668C679.576 31.4645 680.03 31.3835 680.486 31.3239C681.083 31.2472 681.566 31.1896 681.937 31.1513C682.312 31.1087 682.585 31.0384 682.755 30.9403C682.93 30.8423 683.017 30.6719 683.017 30.429V30.3778C683.017 29.7472 682.845 29.2571 682.499 28.9077C682.159 28.5582 681.641 28.3835 680.946 28.3835C680.226 28.3835 679.661 28.5412 679.252 28.8565C678.843 29.1719 678.556 29.5085 678.389 29.8665L676.958 29.3551C677.213 28.7585 677.554 28.294 677.98 27.9616C678.411 27.625 678.879 27.3906 679.387 27.2585C679.898 27.1222 680.401 27.054 680.895 27.054C681.21 27.054 681.573 27.0923 681.982 27.169C682.395 27.2415 682.794 27.3928 683.177 27.6229C683.565 27.853 683.887 28.2003 684.142 28.6648C684.398 29.1293 684.526 29.7514 684.526 30.5312V37H683.017V35.6705H682.941C682.838 35.8835 682.668 36.1115 682.429 36.3544C682.191 36.5973 681.873 36.804 681.477 36.9744C681.08 37.1449 680.597 37.2301 680.026 37.2301ZM680.256 35.875C680.852 35.875 681.355 35.7578 681.764 35.5234C682.178 35.2891 682.489 34.9865 682.698 34.6158C682.911 34.245 683.017 33.8551 683.017 33.446V32.0653C682.953 32.142 682.813 32.2124 682.595 32.2763C682.382 32.3359 682.135 32.3892 681.854 32.4361C681.577 32.4787 681.306 32.517 681.042 32.5511C680.782 32.581 680.571 32.6065 680.409 32.6278C680.017 32.679 679.651 32.7621 679.31 32.8771C678.973 32.9879 678.7 33.1562 678.492 33.3821C678.287 33.6037 678.185 33.9062 678.185 34.2898C678.185 34.8139 678.379 35.2102 678.767 35.4787C679.159 35.7429 679.655 35.875 680.256 35.875ZM691.242 40.8864C690.513 40.8864 689.887 40.7926 689.363 40.6051C688.839 40.4219 688.402 40.179 688.053 39.8764C687.707 39.5781 687.433 39.2585 687.228 38.9176L688.43 38.0739C688.566 38.2528 688.739 38.4574 688.947 38.6875C689.156 38.9219 689.442 39.1243 689.804 39.2947C690.17 39.4695 690.65 39.5568 691.242 39.5568C692.035 39.5568 692.689 39.3651 693.205 38.9815C693.72 38.598 693.978 37.9972 693.978 37.179V35.1847H693.85C693.739 35.3636 693.582 35.5852 693.377 35.8494C693.177 36.1094 692.887 36.3416 692.508 36.5462C692.133 36.7464 691.626 36.8466 690.987 36.8466C690.194 36.8466 689.482 36.6591 688.852 36.2841C688.225 35.9091 687.729 35.3636 687.362 34.6477C687 33.9318 686.819 33.0625 686.819 32.0398C686.819 31.0341 686.996 30.1584 687.349 29.4126C687.703 28.6626 688.195 28.0831 688.826 27.674C689.457 27.2607 690.185 27.054 691.012 27.054C691.651 27.054 692.158 27.1605 692.533 27.3736C692.913 27.5824 693.202 27.821 693.403 28.0895C693.607 28.3537 693.765 28.571 693.876 28.7415H694.029V27.1818H695.487V37.2812C695.487 38.125 695.295 38.8111 694.911 39.3395C694.532 39.8722 694.021 40.2621 693.377 40.5092C692.738 40.7607 692.026 40.8864 691.242 40.8864ZM691.191 35.4915C691.796 35.4915 692.308 35.353 692.725 35.076C693.143 34.799 693.46 34.4006 693.678 33.8807C693.895 33.3608 694.004 32.7386 694.004 32.0142C694.004 31.3068 693.897 30.6825 693.684 30.1413C693.471 29.6001 693.156 29.1761 692.738 28.8693C692.32 28.5625 691.805 28.4091 691.191 28.4091C690.552 28.4091 690.019 28.571 689.593 28.8949C689.171 29.2187 688.854 29.6534 688.641 30.1989C688.432 30.7443 688.327 31.3494 688.327 32.0142C688.327 32.696 688.434 33.299 688.647 33.8232C688.864 34.343 689.184 34.7521 689.606 35.0504C690.032 35.3445 690.56 35.4915 691.191 35.4915ZM702.364 37.2045C701.418 37.2045 700.602 36.9957 699.916 36.5781C699.234 36.1562 698.708 35.5682 698.337 34.8139C697.971 34.0554 697.788 33.1733 697.788 32.1676C697.788 31.1619 697.971 30.2756 698.337 29.5085C698.708 28.7372 699.224 28.1364 699.884 27.706C700.549 27.2713 701.325 27.054 702.211 27.054C702.722 27.054 703.227 27.1392 703.726 27.3097C704.224 27.4801 704.678 27.7571 705.087 28.1406C705.496 28.5199 705.822 29.0227 706.065 29.6491C706.308 30.2756 706.43 31.0469 706.43 31.9631V32.6023H698.862V31.2983H704.896C704.896 30.7443 704.785 30.25 704.563 29.8153C704.346 29.3807 704.035 29.0376 703.63 28.7862C703.229 28.5348 702.756 28.4091 702.211 28.4091C701.61 28.4091 701.09 28.5582 700.651 28.8565C700.217 29.1506 699.882 29.5341 699.648 30.0071C699.413 30.4801 699.296 30.9872 699.296 31.5284V32.3977C699.296 33.1392 699.424 33.7678 699.68 34.2834C699.94 34.7947 700.3 35.1847 700.76 35.4531C701.22 35.7173 701.755 35.8494 702.364 35.8494C702.761 35.8494 703.119 35.794 703.438 35.6832C703.762 35.5682 704.041 35.3977 704.276 35.1719C704.51 34.9418 704.691 34.6562 704.819 34.3153L706.276 34.7244C706.123 35.2188 705.865 35.6534 705.503 36.0284C705.141 36.3991 704.693 36.6889 704.161 36.8977C703.628 37.1023 703.029 37.2045 702.364 37.2045ZM708.724 37V27.1818H710.182V28.7159H710.31C710.514 28.1918 710.844 27.7848 711.3 27.495C711.756 27.201 712.304 27.054 712.943 27.054C713.591 27.054 714.13 27.201 714.56 27.495C714.995 27.7848 715.334 28.1918 715.577 28.7159H715.679C715.93 28.2088 716.308 27.8061 716.81 27.5078C717.313 27.2053 717.916 27.054 718.619 27.054C719.497 27.054 720.215 27.3288 720.773 27.8786C721.332 28.424 721.611 29.2741 721.611 30.429V37H720.102V30.429C720.102 29.7045 719.904 29.1868 719.508 28.8757C719.112 28.5646 718.645 28.4091 718.108 28.4091C717.418 28.4091 716.883 28.6179 716.504 29.0355C716.124 29.4489 715.935 29.973 715.935 30.608V37H714.401V30.2756C714.401 29.7173 714.219 29.2678 713.857 28.9268C713.495 28.5817 713.028 28.4091 712.457 28.4091C712.065 28.4091 711.699 28.5135 711.358 28.7223C711.021 28.9311 710.749 29.2209 710.54 29.5916C710.335 29.9581 710.233 30.3821 710.233 30.8636V37H708.724ZM728.485 37.2045C727.539 37.2045 726.723 36.9957 726.037 36.5781C725.355 36.1562 724.829 35.5682 724.458 34.8139C724.092 34.0554 723.909 33.1733 723.909 32.1676C723.909 31.1619 724.092 30.2756 724.458 29.5085C724.829 28.7372 725.345 28.1364 726.005 27.706C726.67 27.2713 727.446 27.054 728.332 27.054C728.843 27.054 729.348 27.1392 729.847 27.3097C730.346 27.4801 730.799 27.7571 731.208 28.1406C731.618 28.5199 731.944 29.0227 732.186 29.6491C732.429 30.2756 732.551 31.0469 732.551 31.9631V32.6023H724.983V31.2983H731.017C731.017 30.7443 730.906 30.25 730.684 29.8153C730.467 29.3807 730.156 29.0376 729.751 28.7862C729.35 28.5348 728.877 28.4091 728.332 28.4091C727.731 28.4091 727.211 28.5582 726.772 28.8565C726.338 29.1506 726.003 29.5341 725.769 30.0071C725.534 30.4801 725.417 30.9872 725.417 31.5284V32.3977C725.417 33.1392 725.545 33.7678 725.801 34.2834C726.061 34.7947 726.421 35.1847 726.881 35.4531C727.341 35.7173 727.876 35.8494 728.485 35.8494C728.882 35.8494 729.24 35.794 729.559 35.6832C729.883 35.5682 730.162 35.3977 730.397 35.1719C730.631 34.9418 730.812 34.6562 730.94 34.3153L732.397 34.7244C732.244 35.2188 731.986 35.6534 731.624 36.0284C731.262 36.3991 730.814 36.6889 730.282 36.8977C729.749 37.1023 729.15 37.2045 728.485 37.2045ZM736.354 31.0938V37H734.846V27.1818H736.303V28.7159H736.431C736.661 28.2173 737.01 27.8168 737.479 27.5142C737.948 27.2074 738.553 27.054 739.294 27.054C739.959 27.054 740.541 27.1903 741.039 27.4631C741.538 27.7315 741.926 28.1406 742.203 28.6903C742.48 29.2358 742.618 29.9261 742.618 30.7614V37H741.11V30.8636C741.11 30.0923 740.909 29.4915 740.509 29.0611C740.108 28.6264 739.559 28.4091 738.86 28.4091C738.378 28.4091 737.948 28.5135 737.569 28.7223C737.194 28.9311 736.897 29.2358 736.68 29.6364C736.463 30.0369 736.354 30.5227 736.354 31.0938ZM749.645 27.1818V28.4602H744.557V27.1818H749.645ZM746.04 24.8295H747.548V34.1875C747.548 34.6136 747.61 34.9332 747.733 35.1463C747.861 35.3551 748.023 35.4957 748.219 35.5682C748.42 35.6364 748.631 35.6705 748.852 35.6705C749.018 35.6705 749.155 35.6619 749.261 35.6449C749.368 35.6236 749.453 35.6065 749.517 35.5938L749.824 36.9489C749.721 36.9872 749.579 37.0256 749.395 37.0639C749.212 37.1065 748.98 37.1278 748.699 37.1278C748.273 37.1278 747.855 37.0362 747.446 36.853C747.041 36.6697 746.704 36.3906 746.436 36.0156C746.172 35.6406 746.04 35.1676 746.04 34.5966V24.8295Z" fill="white"/>
<path d="M809.585 37V23.9091H814.009C815.031 23.9091 815.871 24.0838 816.527 24.4332C817.183 24.7784 817.669 25.2536 817.984 25.8587C818.3 26.4638 818.457 27.152 818.457 27.9233C818.457 28.6946 818.3 29.3786 817.984 29.9751C817.669 30.5717 817.185 31.0405 816.533 31.3814C815.881 31.718 815.048 31.8864 814.034 31.8864H810.455V30.4545H813.983C814.682 30.4545 815.244 30.3523 815.67 30.1477C816.101 29.9432 816.412 29.6534 816.604 29.2784C816.8 28.8991 816.898 28.4474 816.898 27.9233C816.898 27.3991 816.8 26.9411 816.604 26.549C816.408 26.157 816.094 25.8544 815.664 25.6413C815.234 25.424 814.665 25.3153 813.957 25.3153H811.17V37H809.585ZM815.747 31.1193L818.969 37H817.128L813.957 31.1193H815.747ZM824.905 37.2045C823.959 37.2045 823.143 36.9957 822.457 36.5781C821.775 36.1562 821.249 35.5682 820.878 34.8139C820.512 34.0554 820.329 33.1733 820.329 32.1676C820.329 31.1619 820.512 30.2756 820.878 29.5085C821.249 28.7372 821.765 28.1364 822.425 27.706C823.09 27.2713 823.866 27.054 824.752 27.054C825.263 27.054 825.768 27.1392 826.267 27.3097C826.765 27.4801 827.219 27.7571 827.628 28.1406C828.037 28.5199 828.363 29.0227 828.606 29.6491C828.849 30.2756 828.971 31.0469 828.971 31.9631V32.6023H821.403V31.2983H827.437C827.437 30.7443 827.326 30.25 827.104 29.8153C826.887 29.3807 826.576 29.0376 826.171 28.7862C825.77 28.5348 825.297 28.4091 824.752 28.4091C824.151 28.4091 823.631 28.5582 823.192 28.8565C822.758 29.1506 822.423 29.5341 822.189 30.0071C821.954 30.4801 821.837 30.9872 821.837 31.5284V32.3977C821.837 33.1392 821.965 33.7678 822.221 34.2834C822.481 34.7947 822.841 35.1847 823.301 35.4531C823.761 35.7173 824.296 35.8494 824.905 35.8494C825.302 35.8494 825.66 35.794 825.979 35.6832C826.303 35.5682 826.582 35.3977 826.817 35.1719C827.051 34.9418 827.232 34.6562 827.36 34.3153L828.817 34.7244C828.664 35.2188 828.406 35.6534 828.044 36.0284C827.682 36.3991 827.234 36.6889 826.702 36.8977C826.169 37.1023 825.57 37.2045 824.905 37.2045ZM835.638 27.1818V28.4602H830.345V27.1818H835.638ZM831.93 37V25.8267C831.93 25.2642 832.062 24.7955 832.327 24.4205C832.591 24.0455 832.934 23.7642 833.356 23.5767C833.778 23.3892 834.223 23.2955 834.692 23.2955C835.062 23.2955 835.365 23.3253 835.599 23.3849C835.834 23.4446 836.008 23.5 836.123 23.5511L835.689 24.8551C835.612 24.8295 835.506 24.7976 835.369 24.7592C835.237 24.7209 835.062 24.7017 834.845 24.7017C834.346 24.7017 833.986 24.8274 833.765 25.0788C833.547 25.3303 833.439 25.6989 833.439 26.1847V37H831.93ZM841.464 37.2045C840.518 37.2045 839.702 36.9957 839.016 36.5781C838.334 36.1562 837.808 35.5682 837.437 34.8139C837.07 34.0554 836.887 33.1733 836.887 32.1676C836.887 31.1619 837.07 30.2756 837.437 29.5085C837.808 28.7372 838.323 28.1364 838.984 27.706C839.649 27.2713 840.424 27.054 841.311 27.054C841.822 27.054 842.327 27.1392 842.825 27.3097C843.324 27.4801 843.778 27.7571 844.187 28.1406C844.596 28.5199 844.922 29.0227 845.165 29.6491C845.408 30.2756 845.529 31.0469 845.529 31.9631V32.6023H837.961V31.2983H843.995C843.995 30.7443 843.884 30.25 843.663 29.8153C843.445 29.3807 843.134 29.0376 842.73 28.7862C842.329 28.5348 841.856 28.4091 841.311 28.4091C840.71 28.4091 840.19 28.5582 839.751 28.8565C839.316 29.1506 838.982 29.5341 838.747 30.0071C838.513 30.4801 838.396 30.9872 838.396 31.5284V32.3977C838.396 33.1392 838.524 33.7678 838.779 34.2834C839.039 34.7947 839.399 35.1847 839.86 35.4531C840.32 35.7173 840.855 35.8494 841.464 35.8494C841.86 35.8494 842.218 35.794 842.538 35.6832C842.862 35.5682 843.141 35.3977 843.375 35.1719C843.61 34.9418 843.791 34.6562 843.919 34.3153L845.376 34.7244C845.222 35.2188 844.965 35.6534 844.602 36.0284C844.24 36.3991 843.793 36.6889 843.26 36.8977C842.727 37.1023 842.129 37.2045 841.464 37.2045ZM847.824 37V27.1818H849.281V28.6648H849.384C849.563 28.179 849.887 27.7848 850.355 27.4822C850.824 27.1797 851.352 27.0284 851.941 27.0284C852.051 27.0284 852.19 27.0305 852.356 27.0348C852.522 27.0391 852.648 27.0455 852.733 27.054V28.5881C852.682 28.5753 852.565 28.5561 852.382 28.5305C852.203 28.5007 852.013 28.4858 851.813 28.4858C851.335 28.4858 850.909 28.5859 850.534 28.7862C850.164 28.9822 849.869 29.255 849.652 29.6044C849.439 29.9496 849.333 30.3437 849.333 30.7869V37H847.824ZM854.521 37V27.1818H855.979V28.6648H856.081C856.26 28.179 856.584 27.7848 857.053 27.4822C857.521 27.1797 858.05 27.0284 858.638 27.0284C858.749 27.0284 858.887 27.0305 859.053 27.0348C859.219 27.0391 859.345 27.0455 859.43 27.054V28.5881C859.379 28.5753 859.262 28.5561 859.079 28.5305C858.9 28.5007 858.71 28.4858 858.51 28.4858C858.033 28.4858 857.607 28.5859 857.232 28.7862C856.861 28.9822 856.567 29.255 856.349 29.6044C856.136 29.9496 856.03 30.3437 856.03 30.7869V37H854.521ZM864.108 37.2301C863.486 37.2301 862.921 37.1129 862.414 36.8786C861.907 36.6399 861.504 36.2969 861.206 35.8494C860.907 35.3977 860.758 34.8523 860.758 34.2131C860.758 33.6506 860.869 33.1946 861.091 32.8452C861.312 32.4915 861.608 32.2145 861.979 32.0142C862.35 31.8139 862.759 31.6648 863.206 31.5668C863.658 31.4645 864.112 31.3835 864.568 31.3239C865.165 31.2472 865.648 31.1896 866.019 31.1513C866.394 31.1087 866.667 31.0384 866.837 30.9403C867.012 30.8423 867.099 30.6719 867.099 30.429V30.3778C867.099 29.7472 866.927 29.2571 866.581 28.9077C866.241 28.5582 865.723 28.3835 865.028 28.3835C864.308 28.3835 863.743 28.5412 863.334 28.8565C862.925 29.1719 862.638 29.5085 862.471 29.8665L861.04 29.3551C861.295 28.7585 861.636 28.294 862.062 27.9616C862.493 27.625 862.961 27.3906 863.469 27.2585C863.98 27.1222 864.483 27.054 864.977 27.054C865.292 27.054 865.655 27.0923 866.064 27.169C866.477 27.2415 866.876 27.3928 867.259 27.6229C867.647 27.853 867.969 28.2003 868.224 28.6648C868.48 29.1293 868.608 29.7514 868.608 30.5312V37H867.099V35.6705H867.023C866.92 35.8835 866.75 36.1115 866.511 36.3544C866.273 36.5973 865.955 36.804 865.559 36.9744C865.162 37.1449 864.679 37.2301 864.108 37.2301ZM864.338 35.875C864.934 35.875 865.437 35.7578 865.846 35.5234C866.26 35.2891 866.571 34.9865 866.78 34.6158C866.993 34.245 867.099 33.8551 867.099 33.446V32.0653C867.035 32.142 866.895 32.2124 866.677 32.2763C866.464 32.3359 866.217 32.3892 865.936 32.4361C865.659 32.4787 865.388 32.517 865.124 32.5511C864.864 32.581 864.653 32.6065 864.491 32.6278C864.099 32.679 863.733 32.7621 863.392 32.8771C863.055 32.9879 862.782 33.1562 862.574 33.3821C862.369 33.6037 862.267 33.9062 862.267 34.2898C862.267 34.8139 862.461 35.2102 862.849 35.4787C863.241 35.7429 863.737 35.875 864.338 35.875ZM872.87 23.9091V37H871.361V23.9091H872.87ZM880.184 25.3153V23.9091H890.002V25.3153H885.885V37H884.3V25.3153H880.184ZM891.224 37V27.1818H892.682V28.6648H892.784C892.963 28.179 893.287 27.7848 893.756 27.4822C894.224 27.1797 894.753 27.0284 895.341 27.0284C895.452 27.0284 895.59 27.0305 895.756 27.0348C895.923 27.0391 896.048 27.0455 896.134 27.054V28.5881C896.082 28.5753 895.965 28.5561 895.782 28.5305C895.603 28.5007 895.413 28.4858 895.213 28.4858C894.736 28.4858 894.31 28.5859 893.935 28.7862C893.564 28.9822 893.27 29.255 893.053 29.6044C892.839 29.9496 892.733 30.3437 892.733 30.7869V37H891.224ZM900.811 37.2301C900.189 37.2301 899.624 37.1129 899.117 36.8786C898.61 36.6399 898.207 36.2969 897.909 35.8494C897.611 35.3977 897.461 34.8523 897.461 34.2131C897.461 33.6506 897.572 33.1946 897.794 32.8452C898.015 32.4915 898.312 32.2145 898.682 32.0142C899.053 31.8139 899.462 31.6648 899.91 31.5668C900.361 31.4645 900.815 31.3835 901.271 31.3239C901.868 31.2472 902.351 31.1896 902.722 31.1513C903.097 31.1087 903.37 31.0384 903.54 30.9403C903.715 30.8423 903.802 30.6719 903.802 30.429V30.3778C903.802 29.7472 903.63 29.2571 903.285 28.9077C902.944 28.5582 902.426 28.3835 901.731 28.3835C901.011 28.3835 900.447 28.5412 900.037 28.8565C899.628 29.1719 899.341 29.5085 899.175 29.8665L897.743 29.3551C897.998 28.7585 898.339 28.294 898.765 27.9616C899.196 27.625 899.665 27.3906 900.172 27.2585C900.683 27.1222 901.186 27.054 901.68 27.054C901.996 27.054 902.358 27.0923 902.767 27.169C903.18 27.2415 903.579 27.3928 903.962 27.6229C904.35 27.853 904.672 28.2003 904.927 28.6648C905.183 29.1293 905.311 29.7514 905.311 30.5312V37H903.802V35.6705H903.726C903.623 35.8835 903.453 36.1115 903.214 36.3544C902.976 36.5973 902.658 36.804 902.262 36.9744C901.866 37.1449 901.382 37.2301 900.811 37.2301ZM901.041 35.875C901.638 35.875 902.14 35.7578 902.55 35.5234C902.963 35.2891 903.274 34.9865 903.483 34.6158C903.696 34.245 903.802 33.8551 903.802 33.446V32.0653C903.738 32.142 903.598 32.2124 903.381 32.2763C903.167 32.3359 902.92 32.3892 902.639 32.4361C902.362 32.4787 902.091 32.517 901.827 32.5511C901.567 32.581 901.356 32.6065 901.194 32.6278C900.802 32.679 900.436 32.7621 900.095 32.8771C899.758 32.9879 899.486 33.1562 899.277 33.3821C899.072 33.6037 898.97 33.9062 898.97 34.2898C898.97 34.8139 899.164 35.2102 899.552 35.4787C899.944 35.7429 900.44 35.875 901.041 35.875ZM912.053 37.2045C911.132 37.2045 910.34 36.9872 909.675 36.5526C909.01 36.1179 908.499 35.5192 908.141 34.7564C907.783 33.9936 907.604 33.1222 907.604 32.142C907.604 31.1449 907.787 30.2649 908.154 29.5021C908.525 28.7351 909.04 28.1364 909.701 27.706C910.365 27.2713 911.141 27.054 912.027 27.054C912.718 27.054 913.34 27.1818 913.894 27.4375C914.448 27.6932 914.902 28.0511 915.255 28.5114C915.609 28.9716 915.828 29.5085 915.914 30.1222H914.405C914.29 29.6747 914.034 29.2784 913.638 28.9332C913.246 28.5838 912.718 28.4091 912.053 28.4091C911.465 28.4091 910.949 28.5625 910.506 28.8693C910.067 29.1719 909.724 29.6001 909.477 30.1541C909.234 30.7038 909.113 31.3494 909.113 32.0909C909.113 32.8494 909.232 33.5099 909.471 34.0724C909.713 34.6349 910.054 35.0717 910.493 35.3828C910.936 35.6939 911.456 35.8494 912.053 35.8494C912.445 35.8494 912.801 35.7812 913.12 35.6449C913.44 35.5085 913.711 35.3125 913.932 35.0568C914.154 34.8011 914.311 34.4943 914.405 34.1364H915.914C915.828 34.7159 915.618 35.2379 915.281 35.7024C914.949 36.1626 914.507 36.5291 913.958 36.8018C913.412 37.0703 912.777 37.2045 912.053 37.2045ZM919.525 33.4205L919.5 31.554H919.806L924.102 27.1818H925.968L921.392 31.8097H921.264L919.525 33.4205ZM918.119 37V23.9091H919.627V37H918.119ZM924.358 37L920.522 32.142L921.596 31.0938L926.275 37H924.358ZM927.91 37V27.1818H929.419V37H927.91ZM928.677 25.5455C928.383 25.5455 928.129 25.4453 927.916 25.245C927.708 25.0447 927.603 24.804 927.603 24.5227C927.603 24.2415 927.708 24.0007 927.916 23.8004C928.129 23.6001 928.383 23.5 928.677 23.5C928.971 23.5 929.222 23.6001 929.431 23.8004C929.644 24.0007 929.751 24.2415 929.751 24.5227C929.751 24.804 929.644 25.0447 929.431 25.245C929.222 25.4453 928.971 25.5455 928.677 25.5455ZM933.69 31.0938V37H932.181V27.1818H933.639V28.7159H933.767C933.997 28.2173 934.346 27.8168 934.815 27.5142C935.284 27.2074 935.889 27.054 936.63 27.054C937.295 27.054 937.877 27.1903 938.375 27.4631C938.874 27.7315 939.262 28.1406 939.539 28.6903C939.816 29.2358 939.954 29.9261 939.954 30.7614V37H938.446V30.8636C938.446 30.0923 938.245 29.4915 937.845 29.0611C937.444 28.6264 936.895 28.4091 936.196 28.4091C935.714 28.4091 935.284 28.5135 934.904 28.7223C934.529 28.9311 934.233 29.2358 934.016 29.6364C933.799 30.0369 933.69 30.5227 933.69 31.0938ZM946.674 40.8864C945.945 40.8864 945.319 40.7926 944.795 40.6051C944.27 40.4219 943.834 40.179 943.484 39.8764C943.139 39.5781 942.864 39.2585 942.66 38.9176L943.861 38.0739C943.998 38.2528 944.17 38.4574 944.379 38.6875C944.588 38.9219 944.873 39.1243 945.236 39.2947C945.602 39.4695 946.081 39.5568 946.674 39.5568C947.466 39.5568 948.121 39.3651 948.636 38.9815C949.152 38.598 949.41 37.9972 949.41 37.179V35.1847H949.282C949.171 35.3636 949.013 35.5852 948.809 35.8494C948.608 36.1094 948.319 36.3416 947.939 36.5462C947.564 36.7464 947.057 36.8466 946.418 36.8466C945.626 36.8466 944.914 36.6591 944.283 36.2841C943.657 35.9091 943.16 35.3636 942.794 34.6477C942.432 33.9318 942.251 33.0625 942.251 32.0398C942.251 31.0341 942.427 30.1584 942.781 29.4126C943.135 28.6626 943.627 28.0831 944.258 27.674C944.888 27.2607 945.617 27.054 946.444 27.054C947.083 27.054 947.59 27.1605 947.965 27.3736C948.344 27.5824 948.634 27.821 948.834 28.0895C949.039 28.3537 949.197 28.571 949.307 28.7415H949.461V27.1818H950.918V37.2812C950.918 38.125 950.726 38.8111 950.343 39.3395C949.964 39.8722 949.452 40.2621 948.809 40.5092C948.17 40.7607 947.458 40.8864 946.674 40.8864ZM946.623 35.4915C947.228 35.4915 947.739 35.353 948.157 35.076C948.574 34.799 948.892 34.4006 949.109 33.8807C949.327 33.3608 949.435 32.7386 949.435 32.0142C949.435 31.3068 949.329 30.6825 949.116 30.1413C948.903 29.6001 948.587 29.1761 948.17 28.8693C947.752 28.5625 947.236 28.4091 946.623 28.4091C945.983 28.4091 945.451 28.571 945.025 28.8949C944.603 29.2187 944.285 29.6534 944.072 30.1989C943.863 30.7443 943.759 31.3494 943.759 32.0142C943.759 32.696 943.866 33.299 944.079 33.8232C944.296 34.343 944.616 34.7521 945.037 35.0504C945.464 35.3445 945.992 35.4915 946.623 35.4915Z" fill="white"/>
<path d="M1011.59 37V23.9091H1016.01C1017.03 23.9091 1017.87 24.0838 1018.53 24.4332C1019.18 24.7784 1019.67 25.2536 1019.98 25.8587C1020.3 26.4638 1020.46 27.152 1020.46 27.9233C1020.46 28.6946 1020.3 29.3786 1019.98 29.9751C1019.67 30.5717 1019.19 31.0405 1018.53 31.3814C1017.88 31.718 1017.05 31.8864 1016.03 31.8864H1012.45V30.4545H1015.98C1016.68 30.4545 1017.24 30.3523 1017.67 30.1477C1018.1 29.9432 1018.41 29.6534 1018.6 29.2784C1018.8 28.8991 1018.9 28.4474 1018.9 27.9233C1018.9 27.3991 1018.8 26.9411 1018.6 26.549C1018.41 26.157 1018.09 25.8544 1017.66 25.6413C1017.23 25.424 1016.66 25.3153 1015.96 25.3153H1013.17V37H1011.59ZM1017.75 31.1193L1020.97 37H1019.13L1015.96 31.1193H1017.75ZM1026.91 37.2045C1025.96 37.2045 1025.14 36.9957 1024.46 36.5781C1023.78 36.1562 1023.25 35.5682 1022.88 34.8139C1022.51 34.0554 1022.33 33.1733 1022.33 32.1676C1022.33 31.1619 1022.51 30.2756 1022.88 29.5085C1023.25 28.7372 1023.76 28.1364 1024.43 27.706C1025.09 27.2713 1025.87 27.054 1026.75 27.054C1027.26 27.054 1027.77 27.1392 1028.27 27.3097C1028.77 27.4801 1029.22 27.7571 1029.63 28.1406C1030.04 28.5199 1030.36 29.0227 1030.61 29.6491C1030.85 30.2756 1030.97 31.0469 1030.97 31.9631V32.6023H1023.4V31.2983H1029.44C1029.44 30.7443 1029.33 30.25 1029.1 29.8153C1028.89 29.3807 1028.58 29.0376 1028.17 28.7862C1027.77 28.5348 1027.3 28.4091 1026.75 28.4091C1026.15 28.4091 1025.63 28.5582 1025.19 28.8565C1024.76 29.1506 1024.42 29.5341 1024.19 30.0071C1023.95 30.4801 1023.84 30.9872 1023.84 31.5284V32.3977C1023.84 33.1392 1023.97 33.7678 1024.22 34.2834C1024.48 34.7947 1024.84 35.1847 1025.3 35.4531C1025.76 35.7173 1026.3 35.8494 1026.91 35.8494C1027.3 35.8494 1027.66 35.794 1027.98 35.6832C1028.3 35.5682 1028.58 35.3977 1028.82 35.1719C1029.05 34.9418 1029.23 34.6562 1029.36 34.3153L1030.82 34.7244C1030.66 35.2188 1030.41 35.6534 1030.04 36.0284C1029.68 36.3991 1029.23 36.6889 1028.7 36.8977C1028.17 37.1023 1027.57 37.2045 1026.91 37.2045ZM1033.27 40.6818V27.1818H1034.72V28.7415H1034.9C1035.01 28.571 1035.17 28.3537 1035.36 28.0895C1035.56 27.821 1035.85 27.5824 1036.22 27.3736C1036.59 27.1605 1037.1 27.054 1037.74 27.054C1038.57 27.054 1039.3 27.2607 1039.93 27.674C1040.56 28.0874 1041.05 28.6733 1041.4 29.4318C1041.76 30.1903 1041.93 31.0852 1041.93 32.1165C1041.93 33.1562 1041.76 34.0575 1041.4 34.8203C1041.05 35.5788 1040.56 36.1669 1039.93 36.5845C1039.31 36.9979 1038.58 37.2045 1037.77 37.2045C1037.13 37.2045 1036.63 37.1001 1036.25 36.8913C1035.87 36.6783 1035.58 36.4375 1035.37 36.169C1035.17 35.8963 1035.01 35.6705 1034.9 35.4915H1034.77V40.6818H1033.27ZM1034.75 32.0909C1034.75 32.8324 1034.86 33.4865 1035.07 34.0533C1035.29 34.6158 1035.61 35.0568 1036.03 35.3764C1036.44 35.6918 1036.96 35.8494 1037.56 35.8494C1038.19 35.8494 1038.72 35.6832 1039.14 35.3509C1039.57 35.0142 1039.89 34.5625 1040.1 33.9957C1040.32 33.4247 1040.42 32.7898 1040.42 32.0909C1040.42 31.4006 1040.32 30.7784 1040.1 30.2244C1039.9 29.6662 1039.58 29.2251 1039.15 28.9013C1038.73 28.5732 1038.2 28.4091 1037.56 28.4091C1036.95 28.4091 1036.43 28.5646 1036.01 28.8757C1035.6 29.1825 1035.28 29.6129 1035.07 30.1669C1034.85 30.7166 1034.75 31.358 1034.75 32.0909ZM1048.22 37.2045C1047.34 37.2045 1046.56 36.9936 1045.89 36.5717C1045.22 36.1499 1044.71 35.5597 1044.33 34.8011C1043.96 34.0426 1043.77 33.1562 1043.77 32.142C1043.77 31.1193 1043.96 30.2266 1044.33 29.4638C1044.71 28.701 1045.22 28.1087 1045.89 27.6868C1046.56 27.2649 1047.34 27.054 1048.22 27.054C1049.11 27.054 1049.88 27.2649 1050.55 27.6868C1051.22 28.1087 1051.74 28.701 1052.11 29.4638C1052.48 30.2266 1052.67 31.1193 1052.67 32.142C1052.67 33.1562 1052.48 34.0426 1052.11 34.8011C1051.74 35.5597 1051.22 36.1499 1050.55 36.5717C1049.88 36.9936 1049.11 37.2045 1048.22 37.2045ZM1048.22 35.8494C1048.9 35.8494 1049.45 35.6768 1049.88 35.3317C1050.32 34.9865 1050.64 34.5327 1050.85 33.9702C1051.06 33.4077 1051.16 32.7983 1051.16 32.142C1051.16 31.4858 1051.06 30.8743 1050.85 30.3075C1050.64 29.7408 1050.32 29.2827 1049.88 28.9332C1049.45 28.5838 1048.9 28.4091 1048.22 28.4091C1047.55 28.4091 1047 28.5838 1046.56 28.9332C1046.13 29.2827 1045.8 29.7408 1045.6 30.3075C1045.39 30.8743 1045.28 31.4858 1045.28 32.142C1045.28 32.7983 1045.39 33.4077 1045.6 33.9702C1045.8 34.5327 1046.13 34.9865 1046.56 35.3317C1047 35.6768 1047.55 35.8494 1048.22 35.8494ZM1054.97 37V27.1818H1056.43V28.6648H1056.53C1056.71 28.179 1057.04 27.7848 1057.51 27.4822C1057.97 27.1797 1058.5 27.0284 1059.09 27.0284C1059.2 27.0284 1059.34 27.0305 1059.51 27.0348C1059.67 27.0391 1059.8 27.0455 1059.88 27.054V28.5881C1059.83 28.5753 1059.72 28.5561 1059.53 28.5305C1059.35 28.5007 1059.16 28.4858 1058.96 28.4858C1058.49 28.4858 1058.06 28.5859 1057.68 28.7862C1057.31 28.9822 1057.02 29.255 1056.8 29.6044C1056.59 29.9496 1056.48 30.3437 1056.48 30.7869V37H1054.97ZM1066.56 27.1818V28.4602H1061.47V27.1818H1066.56ZM1062.95 24.8295H1064.46V34.1875C1064.46 34.6136 1064.52 34.9332 1064.65 35.1463C1064.77 35.3551 1064.94 35.4957 1065.13 35.5682C1065.33 35.6364 1065.54 35.6705 1065.76 35.6705C1065.93 35.6705 1066.07 35.6619 1066.17 35.6449C1066.28 35.6236 1066.37 35.6065 1066.43 35.5938L1066.74 36.9489C1066.63 36.9872 1066.49 37.0256 1066.31 37.0639C1066.12 37.1065 1065.89 37.1278 1065.61 37.1278C1065.18 37.1278 1064.77 37.0362 1064.36 36.853C1063.95 36.6697 1063.62 36.3906 1063.35 36.0156C1063.08 35.6406 1062.95 35.1676 1062.95 34.5966V24.8295ZM1068.83 37V27.1818H1070.33V37H1068.83ZM1069.59 25.5455C1069.3 25.5455 1069.05 25.4453 1068.83 25.245C1068.62 25.0447 1068.52 24.804 1068.52 24.5227C1068.52 24.2415 1068.62 24.0007 1068.83 23.8004C1069.05 23.6001 1069.3 23.5 1069.59 23.5C1069.89 23.5 1070.14 23.6001 1070.35 23.8004C1070.56 24.0007 1070.67 24.2415 1070.67 24.5227C1070.67 24.804 1070.56 25.0447 1070.35 25.245C1070.14 25.4453 1069.89 25.5455 1069.59 25.5455ZM1074.61 31.0938V37H1073.1V27.1818H1074.55V28.7159H1074.68C1074.91 28.2173 1075.26 27.8168 1075.73 27.5142C1076.2 27.2074 1076.8 27.054 1077.55 27.054C1078.21 27.054 1078.79 27.1903 1079.29 27.4631C1079.79 27.7315 1080.18 28.1406 1080.45 28.6903C1080.73 29.2358 1080.87 29.9261 1080.87 30.7614V37H1079.36V30.8636C1079.36 30.0923 1079.16 29.4915 1078.76 29.0611C1078.36 28.6264 1077.81 28.4091 1077.11 28.4091C1076.63 28.4091 1076.2 28.5135 1075.82 28.7223C1075.45 28.9311 1075.15 29.2358 1074.93 29.6364C1074.71 30.0369 1074.61 30.5227 1074.61 31.0938ZM1087.59 40.8864C1086.86 40.8864 1086.23 40.7926 1085.71 40.6051C1085.19 40.4219 1084.75 40.179 1084.4 39.8764C1084.06 39.5781 1083.78 39.2585 1083.58 38.9176L1084.78 38.0739C1084.91 38.2528 1085.09 38.4574 1085.3 38.6875C1085.5 38.9219 1085.79 39.1243 1086.15 39.2947C1086.52 39.4695 1087 39.5568 1087.59 39.5568C1088.38 39.5568 1089.04 39.3651 1089.55 38.9815C1090.07 38.598 1090.33 37.9972 1090.33 37.179V35.1847H1090.2C1090.09 35.3636 1089.93 35.5852 1089.72 35.8494C1089.52 36.1094 1089.23 36.3416 1088.86 36.5462C1088.48 36.7464 1087.97 36.8466 1087.33 36.8466C1086.54 36.8466 1085.83 36.6591 1085.2 36.2841C1084.57 35.9091 1084.08 35.3636 1083.71 34.6477C1083.35 33.9318 1083.17 33.0625 1083.17 32.0398C1083.17 31.0341 1083.34 30.1584 1083.7 29.4126C1084.05 28.6626 1084.54 28.0831 1085.17 27.674C1085.8 27.2607 1086.53 27.054 1087.36 27.054C1088 27.054 1088.51 27.1605 1088.88 27.3736C1089.26 27.5824 1089.55 27.821 1089.75 28.0895C1089.95 28.3537 1090.11 28.571 1090.22 28.7415H1090.38V27.1818H1091.83V37.2812C1091.83 38.125 1091.64 38.8111 1091.26 39.3395C1090.88 39.8722 1090.37 40.2621 1089.72 40.5092C1089.09 40.7607 1088.37 40.8864 1087.59 40.8864ZM1087.54 35.4915C1088.14 35.4915 1088.66 35.353 1089.07 35.076C1089.49 34.799 1089.81 34.4006 1090.03 33.8807C1090.24 33.3608 1090.35 32.7386 1090.35 32.0142C1090.35 31.3068 1090.24 30.6825 1090.03 30.1413C1089.82 29.6001 1089.5 29.1761 1089.09 28.8693C1088.67 28.5625 1088.15 28.4091 1087.54 28.4091C1086.9 28.4091 1086.37 28.571 1085.94 28.8949C1085.52 29.2187 1085.2 29.6534 1084.99 30.1989C1084.78 30.7443 1084.68 31.3494 1084.68 32.0142C1084.68 32.696 1084.78 33.299 1084.99 33.8232C1085.21 34.343 1085.53 34.7521 1085.95 35.0504C1086.38 35.3445 1086.91 35.4915 1087.54 35.4915Z" fill="white"/>
<defs>
<filter id="filter0_f_547_335" x="-248" y="-408" width="1008" height="908" filterUnits="userSpaceOnUse" color-interpolation-filters="sRGB">
<feFlood flood-opacity="0" result="BackgroundImageFix"/>
<feBlend mode="normal" in="SourceGraphic" in2="BackgroundImageFix" result="shape"/>
<feGaussianBlur stdDeviation="150" result="effect1_foregroundBlur_547_335"/>
</filter>
</defs>
</svg>
