<svg width="430" height="60" viewBox="0 0 430 60" fill="none" xmlns="http://www.w3.org/2000/svg">
<rect x="-286" width="1416" height="59.7334" fill="#012A48"/>
<mask id="mask0_541_320" style="mask-type:alpha" maskUnits="userSpaceOnUse" x="-286" y="0" width="1416" height="60">
<rect x="-286" width="1416" height="59.7334" fill="#012A48"/>
</mask>
<g mask="url(#mask0_541_320)">
<g filter="url(#filter0_f_541_320)">
<ellipse cx="104.383" cy="37.1316" rx="200.6" ry="124.31" fill="#00AAFF" fill-opacity="0.68"/>
</g>
</g>
<path d="M44.7126 18.0857V17.1482H51.2581V18.0857H48.5137V25.8755H47.4569V18.0857H44.7126ZM53.7882 26.0289C53.3735 26.0289 52.997 25.9508 52.659 25.7945C52.3209 25.6354 52.0524 25.4067 51.8536 25.1084C51.6547 24.8073 51.5553 24.4437 51.5553 24.0175C51.5553 23.6425 51.6292 23.3386 51.7769 23.1056C51.9246 22.8698 52.122 22.6851 52.3692 22.5516C52.6164 22.4181 52.8891 22.3187 53.1874 22.2533C53.4885 22.1851 53.7911 22.1312 54.0951 22.0914C54.4928 22.0403 54.8152 22.0019 55.0624 21.9763C55.3124 21.9479 55.4942 21.9011 55.6078 21.8357C55.7243 21.7704 55.7826 21.6567 55.7826 21.4948V21.4607C55.7826 21.0403 55.6675 20.7136 55.4374 20.4806C55.2101 20.2476 54.8649 20.1312 54.4019 20.1312C53.9218 20.1312 53.5453 20.2363 53.2726 20.4465C52.9999 20.6567 52.8081 20.8812 52.6973 21.1198L51.7428 20.7789C51.9132 20.3812 52.1405 20.0715 52.4246 19.8499C52.7115 19.6255 53.024 19.4692 53.3621 19.3812C53.703 19.2903 54.0382 19.2448 54.3678 19.2448C54.578 19.2448 54.8195 19.2704 55.0922 19.3215C55.3678 19.3698 55.6334 19.4707 55.8891 19.6241C56.1476 19.7775 56.3621 20.009 56.5326 20.3187C56.703 20.6283 56.7882 21.0431 56.7882 21.563V25.8755H55.7826V24.9891H55.7314C55.6632 25.1312 55.5496 25.2832 55.3905 25.4451C55.2314 25.607 55.0198 25.7448 54.7556 25.8584C54.4914 25.9721 54.1689 26.0289 53.7882 26.0289ZM53.9417 25.1255C54.3394 25.1255 54.6746 25.0474 54.9473 24.8911C55.2229 24.7349 55.4303 24.5332 55.5695 24.286C55.7115 24.0388 55.7826 23.7789 55.7826 23.5062V22.5857C55.7399 22.6369 55.6462 22.6837 55.5013 22.7263C55.3593 22.7661 55.1945 22.8016 55.007 22.8329C54.8223 22.8613 54.6419 22.8869 54.4658 22.9096C54.2925 22.9295 54.1519 22.9465 54.0439 22.9607C53.7826 22.9948 53.5382 23.0502 53.311 23.1269C53.0865 23.2008 52.9047 23.313 52.7655 23.4636C52.6292 23.6113 52.561 23.813 52.561 24.0687C52.561 24.4181 52.6902 24.6823 52.9488 24.8613C53.2101 25.0374 53.5411 25.1255 53.9417 25.1255ZM63.2602 20.7959L62.3568 21.0516C62.3 20.9011 62.2162 20.7547 62.1054 20.6127C61.9974 20.4678 61.8497 20.3485 61.6622 20.2547C61.4747 20.161 61.2346 20.1141 60.942 20.1141C60.5414 20.1141 60.2076 20.2065 59.9406 20.3911C59.6764 20.5729 59.5443 20.8045 59.5443 21.0857C59.5443 21.3357 59.6352 21.5332 59.817 21.678C59.9988 21.8229 60.2829 21.9437 60.6693 22.0403L61.6409 22.2789C62.2261 22.4209 62.6622 22.6383 62.9491 22.9309C63.236 23.2207 63.3795 23.5942 63.3795 24.0516C63.3795 24.4266 63.2716 24.7619 63.0556 25.0573C62.8426 25.3528 62.5443 25.5857 62.1608 25.7562C61.7772 25.9266 61.3312 26.0119 60.8227 26.0119C60.1551 26.0119 59.6025 25.867 59.165 25.5772C58.7275 25.2874 58.4505 24.8641 58.3341 24.3073L59.2886 24.0687C59.3795 24.4209 59.5514 24.6851 59.8042 24.8613C60.0599 25.0374 60.3937 25.1255 60.8056 25.1255C61.2744 25.1255 61.6466 25.0261 61.9221 24.8272C62.2005 24.6255 62.3397 24.384 62.3397 24.1028C62.3397 23.8755 62.2602 23.6851 62.1011 23.5317C61.942 23.3755 61.6977 23.259 61.3681 23.1823L60.2772 22.9266C59.6778 22.7846 59.2375 22.5644 58.9562 22.2661C58.6778 21.965 58.5386 21.5886 58.5386 21.1369C58.5386 20.7675 58.6423 20.4408 58.8497 20.1567C59.0599 19.8726 59.3454 19.6496 59.7062 19.4877C60.0698 19.3258 60.4818 19.2448 60.942 19.2448C61.5897 19.2448 62.0983 19.3869 62.4676 19.6709C62.8397 19.955 63.1039 20.33 63.2602 20.7959ZM65.8309 23.4891L65.8138 22.2448H66.0184L68.882 19.33H70.1263L67.0752 22.4153H66.9899L65.8309 23.4891ZM64.8934 25.8755V17.1482H65.899V25.8755H64.8934ZM69.0524 25.8755L66.4956 22.6369L67.2115 21.938L70.3309 25.8755H69.0524ZM21.2192 30.1482H22.4805L25.4464 37.3925H25.5487L28.5146 30.1482H29.776V38.8755H28.7874V32.2448H28.7021L25.9749 38.8755H25.0203L22.293 32.2448H22.2078V38.8755H21.2192V30.1482ZM33.6847 39.0289C33.27 39.0289 32.8935 38.9508 32.5555 38.7945C32.2174 38.6354 31.9489 38.4067 31.7501 38.1084C31.5512 37.8073 31.4518 37.4437 31.4518 37.0175C31.4518 36.6425 31.5256 36.3386 31.6734 36.1056C31.8211 35.8698 32.0185 35.6851 32.2657 35.5516C32.5129 35.4181 32.7856 35.3187 33.0839 35.2533C33.385 35.1851 33.6876 35.1312 33.9915 35.0914C34.3893 35.0403 34.7117 35.0019 34.9589 34.9763C35.2089 34.9479 35.3907 34.9011 35.5043 34.8357C35.6208 34.7704 35.679 34.6567 35.679 34.4948V34.4607C35.679 34.0403 35.564 33.7136 35.3339 33.4806C35.1066 33.2476 34.7614 33.1312 34.2984 33.1312C33.8182 33.1312 33.4418 33.2363 33.1691 33.4465C32.8964 33.6567 32.7046 33.8812 32.5938 34.1198L31.6393 33.7789C31.8097 33.3812 32.037 33.0715 32.3211 32.8499C32.608 32.6255 32.9205 32.4692 33.2586 32.3812C33.5995 32.2903 33.9347 32.2448 34.2643 32.2448C34.4745 32.2448 34.716 32.2704 34.9887 32.3215C35.2643 32.3698 35.5299 32.4707 35.7856 32.6241C36.0441 32.7775 36.2586 33.009 36.429 33.3187C36.5995 33.6283 36.6847 34.0431 36.6847 34.563V38.8755H35.679V37.9891H35.6279C35.5597 38.1312 35.4461 38.2832 35.287 38.4451C35.1279 38.607 34.9163 38.7448 34.6521 38.8584C34.3879 38.9721 34.0654 39.0289 33.6847 39.0289ZM33.8381 38.1255C34.2359 38.1255 34.5711 38.0474 34.8438 37.8911C35.1194 37.7349 35.3268 37.5332 35.466 37.286C35.608 37.0388 35.679 36.7789 35.679 36.5062V35.5857C35.6364 35.6369 35.5427 35.6837 35.3978 35.7263C35.2557 35.7661 35.091 35.8016 34.9035 35.8329C34.7188 35.8613 34.5384 35.8869 34.3623 35.9096C34.189 35.9295 34.0484 35.9465 33.9404 35.9607C33.679 35.9948 33.4347 36.0502 33.2075 36.1269C32.983 36.2008 32.8012 36.313 32.662 36.4636C32.5256 36.6113 32.4575 36.813 32.4575 37.0687C32.4575 37.4181 32.5867 37.6823 32.8452 37.8613C33.1066 38.0374 33.4376 38.1255 33.8381 38.1255ZM39.526 34.938V38.8755H38.5203V32.33H39.4919V33.3528H39.5771C39.7305 33.0204 39.9635 32.7533 40.276 32.5516C40.5885 32.3471 40.9919 32.2448 41.4862 32.2448C41.9294 32.2448 42.3172 32.3357 42.6496 32.5175C42.982 32.6965 43.2405 32.9692 43.4251 33.3357C43.6098 33.6994 43.7021 34.1596 43.7021 34.7164V38.8755H42.6964V34.7846C42.6964 34.2704 42.5629 33.8698 42.2959 33.5829C42.0288 33.2931 41.6624 33.1482 41.1964 33.1482C40.8754 33.1482 40.5885 33.2178 40.3356 33.357C40.0856 33.4962 39.8882 33.6994 39.7433 33.9664C39.5984 34.2334 39.526 34.5573 39.526 34.938ZM47.466 39.0289C47.0512 39.0289 46.6748 38.9508 46.3367 38.7945C45.9986 38.6354 45.7302 38.4067 45.5313 38.1084C45.3325 37.8073 45.233 37.4437 45.233 37.0175C45.233 36.6425 45.3069 36.3386 45.4546 36.1056C45.6023 35.8698 45.7998 35.6851 46.0469 35.5516C46.2941 35.4181 46.5668 35.3187 46.8651 35.2533C47.1663 35.1851 47.4688 35.1312 47.7728 35.0914C48.1705 35.0403 48.493 35.0019 48.7401 34.9763C48.9901 34.9479 49.1719 34.9011 49.2856 34.8357C49.4021 34.7704 49.4603 34.6567 49.4603 34.4948V34.4607C49.4603 34.0403 49.3452 33.7136 49.1151 33.4806C48.8879 33.2476 48.5427 33.1312 48.0796 33.1312C47.5995 33.1312 47.2231 33.2363 46.9504 33.4465C46.6776 33.6567 46.4859 33.8812 46.3751 34.1198L45.4205 33.7789C45.591 33.3812 45.8182 33.0715 46.1023 32.8499C46.3893 32.6255 46.7018 32.4692 47.0398 32.3812C47.3807 32.2903 47.716 32.2448 48.0455 32.2448C48.2557 32.2448 48.4972 32.2704 48.77 32.3215C49.0455 32.3698 49.3111 32.4707 49.5668 32.6241C49.8254 32.7775 50.0398 33.009 50.2103 33.3187C50.3807 33.6283 50.466 34.0431 50.466 34.563V38.8755H49.4603V37.9891H49.4092C49.341 38.1312 49.2273 38.2832 49.0682 38.4451C48.9092 38.607 48.6975 38.7448 48.4333 38.8584C48.1691 38.9721 47.8467 39.0289 47.466 39.0289ZM47.6194 38.1255C48.0171 38.1255 48.3523 38.0474 48.6251 37.8911C48.9006 37.7349 49.108 37.5332 49.2472 37.286C49.3893 37.0388 49.4603 36.7789 49.4603 36.5062V35.5857C49.4177 35.6369 49.3239 35.6837 49.179 35.7263C49.037 35.7661 48.8722 35.8016 48.6847 35.8329C48.5001 35.8613 48.3197 35.8869 48.1435 35.9096C47.9702 35.9295 47.8296 35.9465 47.7217 35.9607C47.4603 35.9948 47.216 36.0502 46.9887 36.1269C46.7643 36.2008 46.5825 36.313 46.4432 36.4636C46.3069 36.6113 46.2387 36.813 46.2387 37.0687C46.2387 37.4181 46.368 37.6823 46.6265 37.8613C46.8879 38.0374 47.2188 38.1255 47.6194 38.1255ZM54.9436 41.4664C54.4578 41.4664 54.0402 41.4039 53.6908 41.2789C53.3413 41.1567 53.0501 40.9948 52.8172 40.7931C52.5871 40.5942 52.4038 40.3812 52.2675 40.1539L53.0686 39.5914C53.1595 39.7107 53.2746 39.8471 53.4138 40.0005C53.553 40.1567 53.7433 40.2917 53.9848 40.4053C54.2291 40.5218 54.5487 40.58 54.9436 40.58C55.472 40.58 55.9081 40.4522 56.2518 40.1965C56.5956 39.9408 56.7675 39.5403 56.7675 38.9948V37.6653H56.6822C56.6084 37.7846 56.5033 37.9323 56.3669 38.1084C56.2334 38.2817 56.0402 38.4366 55.7874 38.5729C55.5374 38.7065 55.1993 38.7732 54.7731 38.7732C54.2447 38.7732 53.7703 38.6482 53.3499 38.3982C52.9322 38.1482 52.6013 37.7846 52.357 37.3073C52.1155 36.83 51.9947 36.2505 51.9947 35.5687C51.9947 34.8982 52.1126 34.3144 52.3484 33.8172C52.5842 33.3172 52.9124 32.9309 53.3328 32.6582C53.7533 32.3826 54.2391 32.2448 54.7902 32.2448C55.2163 32.2448 55.5544 32.3158 55.8044 32.4579C56.0572 32.5971 56.2504 32.7562 56.3839 32.9351C56.5203 33.1113 56.6254 33.2562 56.6993 33.3698H56.8016V32.33H57.7731V39.063C57.7731 39.6255 57.6453 40.0829 57.3896 40.4351C57.1368 40.7903 56.7959 41.0502 56.3669 41.215C55.9408 41.3826 55.4663 41.4664 54.9436 41.4664ZM54.9095 37.8698C55.3129 37.8698 55.6538 37.7775 55.9322 37.5928C56.2106 37.4082 56.4223 37.1425 56.5672 36.7959C56.7121 36.4494 56.7845 36.0346 56.7845 35.5516C56.7845 35.08 56.7135 34.6638 56.5714 34.303C56.4294 33.9422 56.2192 33.6596 55.9408 33.455C55.6624 33.2505 55.3186 33.1482 54.9095 33.1482C54.4834 33.1482 54.1283 33.2562 53.8442 33.4721C53.5629 33.688 53.3513 33.9778 53.2092 34.3414C53.07 34.705 53.0004 35.1084 53.0004 35.5516C53.0004 36.0062 53.0714 36.4082 53.2135 36.7576C53.3584 37.1042 53.5714 37.3769 53.8527 37.5758C54.1368 37.7718 54.4891 37.8698 54.9095 37.8698ZM62.3584 39.0119C61.7277 39.0119 61.1837 38.8726 60.7263 38.5942C60.2717 38.313 59.9209 37.9209 59.6737 37.4181C59.4294 36.9124 59.3072 36.3244 59.3072 35.6539C59.3072 34.9834 59.4294 34.3925 59.6737 33.8812C59.9209 33.367 60.2646 32.9664 60.705 32.6795C61.1481 32.3897 61.6652 32.2448 62.2561 32.2448C62.597 32.2448 62.9337 32.3016 63.266 32.4153C63.5984 32.5289 63.901 32.7136 64.1737 32.9692C64.4464 33.2221 64.6638 33.5573 64.8257 33.9749C64.9876 34.3925 65.0686 34.9067 65.0686 35.5175V35.9437H60.0231V35.0744H64.0459C64.0459 34.705 63.972 34.3755 63.8243 34.0857C63.6794 33.7959 63.472 33.5672 63.2021 33.3996C62.9351 33.232 62.6197 33.1482 62.2561 33.1482C61.8555 33.1482 61.5089 33.2476 61.2163 33.4465C60.9266 33.6425 60.7035 33.8982 60.5473 34.2136C60.391 34.5289 60.3129 34.867 60.3129 35.2278V35.8073C60.3129 36.3016 60.3981 36.7207 60.5686 37.0644C60.7419 37.4053 60.982 37.6653 61.2888 37.8442C61.5956 38.0204 61.9521 38.1084 62.3584 38.1084C62.6226 38.1084 62.8612 38.0715 63.0743 37.9976C63.2902 37.9209 63.4763 37.8073 63.6325 37.6567C63.7888 37.5033 63.9095 37.313 63.9947 37.0857L64.9663 37.3584C64.8641 37.688 64.6922 37.9778 64.4507 38.2278C64.2092 38.4749 63.9109 38.6681 63.5558 38.8073C63.2007 38.9437 62.8016 39.0119 62.3584 39.0119ZM66.5984 38.8755V32.33H67.57V33.3528H67.6553C67.7916 33.0033 68.0118 32.732 68.3158 32.5388C68.6197 32.3428 68.9848 32.2448 69.4109 32.2448C69.8428 32.2448 70.2021 32.3428 70.4891 32.5388C70.7788 32.732 71.0047 33.0033 71.1666 33.3528H71.2348C71.4024 33.0147 71.6538 32.7462 71.9891 32.5474C72.3243 32.3457 72.7263 32.2448 73.195 32.2448C73.7803 32.2448 74.2589 32.428 74.6311 32.7945C75.0033 33.1582 75.1893 33.7249 75.1893 34.4948V38.8755H74.1837V34.4948C74.1837 34.0119 74.0516 33.6667 73.7874 33.4593C73.5231 33.2519 73.2121 33.1482 72.8541 33.1482C72.3939 33.1482 72.0374 33.2874 71.7845 33.5658C71.5317 33.8414 71.4053 34.1908 71.4053 34.6141V38.8755H70.3825V34.3925C70.3825 34.0204 70.2618 33.7207 70.0203 33.4934C69.7788 33.2633 69.4678 33.1482 69.0871 33.1482C68.8257 33.1482 68.5814 33.2178 68.3541 33.357C68.1297 33.4962 67.9479 33.6894 67.8087 33.9366C67.6723 34.1809 67.6041 34.4636 67.6041 34.7846V38.8755H66.5984ZM79.7724 39.0119C79.1418 39.0119 78.5977 38.8726 78.1403 38.5942C77.6858 38.313 77.3349 37.9209 77.0878 37.4181C76.8435 36.9124 76.7213 36.3244 76.7213 35.6539C76.7213 34.9834 76.8435 34.3925 77.0878 33.8812C77.3349 33.367 77.6787 32.9664 78.119 32.6795C78.5622 32.3897 79.0793 32.2448 79.6702 32.2448C80.0111 32.2448 80.3477 32.3016 80.6801 32.4153C81.0125 32.5289 81.3151 32.7136 81.5878 32.9692C81.8605 33.2221 82.0778 33.5573 82.2398 33.9749C82.4017 34.3925 82.4827 34.9067 82.4827 35.5175V35.9437H77.4372V35.0744H81.4599C81.4599 34.705 81.3861 34.3755 81.2383 34.0857C81.0935 33.7959 80.8861 33.5672 80.6162 33.3996C80.3491 33.232 80.0338 33.1482 79.6702 33.1482C79.2696 33.1482 78.923 33.2476 78.6304 33.4465C78.3406 33.6425 78.1176 33.8982 77.9614 34.2136C77.8051 34.5289 77.727 34.867 77.727 35.2278V35.8073C77.727 36.3016 77.8122 36.7207 77.9827 37.0644C78.156 37.4053 78.396 37.6653 78.7028 37.8442C79.0097 38.0204 79.3662 38.1084 79.7724 38.1084C80.0366 38.1084 80.2753 38.0715 80.4883 37.9976C80.7043 37.9209 80.8903 37.8073 81.0466 37.6567C81.2028 37.5033 81.3236 37.313 81.4088 37.0857L82.3804 37.3584C82.2781 37.688 82.1062 37.9778 81.8648 38.2278C81.6233 38.4749 81.325 38.6681 80.9699 38.8073C80.6148 38.9437 80.2156 39.0119 79.7724 39.0119ZM85.0182 34.938V38.8755H84.0125V32.33H84.9841V33.3528H85.0693C85.2227 33.0204 85.4557 32.7533 85.7682 32.5516C86.0807 32.3471 86.4841 32.2448 86.9784 32.2448C87.4216 32.2448 87.8094 32.3357 88.1418 32.5175C88.4741 32.6965 88.7327 32.9692 88.9173 33.3357C89.102 33.6994 89.1943 34.1596 89.1943 34.7164V38.8755H88.1886V34.7846C88.1886 34.2704 88.0551 33.8698 87.7881 33.5829C87.521 33.2931 87.1545 33.1482 86.6886 33.1482C86.3676 33.1482 86.0807 33.2178 85.8278 33.357C85.5778 33.4962 85.3804 33.6994 85.2355 33.9664C85.0906 34.2334 85.0182 34.5573 85.0182 34.938ZM93.8786 32.33V33.1823H90.4866V32.33H93.8786ZM91.4752 30.7619H92.4809V37.0005C92.4809 37.2846 92.5221 37.4976 92.6045 37.6397C92.6897 37.7789 92.7977 37.8726 92.9283 37.9209C93.0619 37.9664 93.2025 37.9891 93.3502 37.9891C93.461 37.9891 93.5519 37.9834 93.6229 37.9721C93.694 37.9579 93.7508 37.9465 93.7934 37.938L93.9979 38.8414C93.9298 38.867 93.8346 38.8925 93.7124 38.9181C93.5903 38.9465 93.4354 38.9607 93.2479 38.9607C92.9638 38.9607 92.6854 38.8996 92.4127 38.7775C92.1428 38.6553 91.9184 38.4692 91.7394 38.2192C91.5633 37.9692 91.4752 37.6539 91.4752 37.2732V30.7619Z" fill="white"/>
<path d="M137.11 25.8755V17.1482H140.059C140.74 17.1482 141.3 17.2647 141.738 17.4976C142.175 17.7278 142.499 18.0445 142.709 18.4479C142.919 18.8513 143.025 19.3101 143.025 19.8244C143.025 20.3386 142.919 20.7945 142.709 21.1922C142.499 21.59 142.177 21.9025 141.742 22.1297C141.307 22.3542 140.752 22.4664 140.076 22.4664H137.689V21.5119H140.042C140.508 21.5119 140.883 21.4437 141.167 21.3073C141.454 21.1709 141.661 20.9778 141.789 20.7278C141.919 20.4749 141.985 20.1738 141.985 19.8244C141.985 19.4749 141.919 19.1695 141.789 18.9082C141.658 18.6468 141.449 18.4451 141.162 18.303C140.875 18.1582 140.496 18.0857 140.025 18.0857H138.167V25.8755H137.11ZM141.218 21.955L143.365 25.8755H142.138L140.025 21.955H141.218ZM147.323 26.0119C146.693 26.0119 146.149 25.8726 145.691 25.5942C145.237 25.313 144.886 24.9209 144.639 24.4181C144.394 23.9124 144.272 23.3244 144.272 22.6539C144.272 21.9834 144.394 21.3925 144.639 20.8812C144.886 20.367 145.229 19.9664 145.67 19.6795C146.113 19.3897 146.63 19.2448 147.221 19.2448C147.562 19.2448 147.899 19.3016 148.231 19.4153C148.563 19.5289 148.866 19.7136 149.139 19.9692C149.411 20.2221 149.629 20.5573 149.791 20.9749C149.952 21.3925 150.033 21.9067 150.033 22.5175V22.9437H144.988V22.0744H149.011C149.011 21.705 148.937 21.3755 148.789 21.0857C148.644 20.7959 148.437 20.5672 148.167 20.3996C147.9 20.232 147.585 20.1482 147.221 20.1482C146.82 20.1482 146.474 20.2476 146.181 20.4465C145.891 20.6425 145.668 20.8982 145.512 21.2136C145.356 21.5289 145.278 21.867 145.278 22.2278V22.8073C145.278 23.3016 145.363 23.7207 145.533 24.0644C145.707 24.4053 145.947 24.6653 146.254 24.8442C146.56 25.0204 146.917 25.1084 147.323 25.1084C147.587 25.1084 147.826 25.0715 148.039 24.9976C148.255 24.9209 148.441 24.8073 148.597 24.6567C148.754 24.5033 148.874 24.313 148.96 24.0857L149.931 24.3584C149.829 24.688 149.657 24.9778 149.416 25.2278C149.174 25.4749 148.876 25.6681 148.521 25.8073C148.166 25.9437 147.766 26.0119 147.323 26.0119ZM151.563 28.33V19.33H152.535V20.3698H152.654C152.728 20.2562 152.83 20.1113 152.961 19.9351C153.095 19.7562 153.285 19.5971 153.532 19.4579C153.782 19.3158 154.12 19.2448 154.546 19.2448C155.097 19.2448 155.583 19.3826 156.004 19.6582C156.424 19.9337 156.752 20.3244 156.988 20.83C157.224 21.3357 157.342 21.9323 157.342 22.6198C157.342 23.313 157.224 23.9138 156.988 24.4224C156.752 24.928 156.425 25.3201 156.008 25.5985C155.59 25.8741 155.109 26.0119 154.563 26.0119C154.143 26.0119 153.806 25.9422 153.553 25.803C153.3 25.661 153.106 25.5005 152.97 25.3215C152.833 25.1397 152.728 24.9891 152.654 24.8698H152.569V28.33H151.563ZM152.552 22.6028C152.552 23.0971 152.624 23.5332 152.769 23.911C152.914 24.286 153.126 24.58 153.404 24.7931C153.683 25.0033 154.024 25.1084 154.427 25.1084C154.847 25.1084 155.198 24.9976 155.479 24.7761C155.764 24.5516 155.977 24.2505 156.119 23.8726C156.264 23.492 156.336 23.0687 156.336 22.6028C156.336 22.1425 156.265 21.7278 156.123 21.3584C155.984 20.9863 155.772 20.6922 155.488 20.4763C155.207 20.2576 154.853 20.1482 154.427 20.1482C154.018 20.1482 153.674 20.2519 153.396 20.4593C153.117 20.6638 152.907 20.9508 152.765 21.3201C152.623 21.6866 152.552 22.1141 152.552 22.6028ZM161.535 26.0119C160.944 26.0119 160.425 25.8712 159.979 25.59C159.536 25.3087 159.19 24.9153 158.94 24.4096C158.693 23.9039 158.569 23.313 158.569 22.6369C158.569 21.955 158.693 21.3599 158.94 20.8513C159.19 20.3428 159.536 19.9479 159.979 19.6667C160.425 19.3854 160.944 19.2448 161.535 19.2448C162.126 19.2448 162.643 19.3854 163.086 19.6667C163.532 19.9479 163.879 20.3428 164.126 20.8513C164.376 21.3599 164.501 21.955 164.501 22.6369C164.501 23.313 164.376 23.9039 164.126 24.4096C163.879 24.9153 163.532 25.3087 163.086 25.59C162.643 25.8712 162.126 26.0119 161.535 26.0119ZM161.535 25.1084C161.984 25.1084 162.353 24.9934 162.643 24.7633C162.933 24.5332 163.147 24.2306 163.286 23.8556C163.425 23.4806 163.495 23.0744 163.495 22.6369C163.495 22.1994 163.425 21.7917 163.286 21.4138C163.147 21.036 162.933 20.7306 162.643 20.4976C162.353 20.2647 161.984 20.1482 161.535 20.1482C161.086 20.1482 160.717 20.2647 160.427 20.4976C160.137 20.7306 159.923 21.036 159.783 21.4138C159.644 21.7917 159.575 22.1994 159.575 22.6369C159.575 23.0744 159.644 23.4806 159.783 23.8556C159.923 24.2306 160.137 24.5332 160.427 24.7633C160.717 24.9934 161.086 25.1084 161.535 25.1084ZM166.036 25.8755V19.33H167.008V20.3187H167.076C167.195 19.9948 167.411 19.732 167.723 19.5303C168.036 19.3286 168.388 19.2278 168.78 19.2278C168.854 19.2278 168.946 19.2292 169.057 19.232C169.168 19.2349 169.252 19.2391 169.309 19.2448V20.2675C169.275 20.259 169.196 20.2462 169.074 20.2292C168.955 20.2093 168.829 20.1994 168.695 20.1994C168.377 20.1994 168.093 20.2661 167.843 20.3996C167.596 20.5303 167.4 20.7121 167.255 20.9451C167.113 21.1752 167.042 21.438 167.042 21.7334V25.8755H166.036ZM173.758 19.33V20.1823H170.365V19.33H173.758ZM171.354 17.7619H172.36V24.0005C172.36 24.2846 172.401 24.4976 172.483 24.6397C172.569 24.7789 172.677 24.8726 172.807 24.9209C172.941 24.9664 173.081 24.9891 173.229 24.9891C173.34 24.9891 173.431 24.9834 173.502 24.9721C173.573 24.9579 173.63 24.9465 173.672 24.938L173.877 25.8414C173.809 25.867 173.713 25.8925 173.591 25.9181C173.469 25.9465 173.314 25.9607 173.127 25.9607C172.843 25.9607 172.564 25.8996 172.292 25.7775C172.022 25.6553 171.797 25.4692 171.618 25.2192C171.442 24.9692 171.354 24.6539 171.354 24.2732V17.7619ZM175.27 25.8755V19.33H176.276V25.8755H175.27ZM175.782 18.2391C175.586 18.2391 175.417 18.1724 175.275 18.0388C175.135 17.9053 175.066 17.7448 175.066 17.5573C175.066 17.3698 175.135 17.2093 175.275 17.0758C175.417 16.9422 175.586 16.8755 175.782 16.8755C175.978 16.8755 176.145 16.9422 176.285 17.0758C176.427 17.2093 176.498 17.3698 176.498 17.5573C176.498 17.7448 176.427 17.9053 176.285 18.0388C176.145 18.1724 175.978 18.2391 175.782 18.2391ZM179.124 21.938V25.8755H178.118V19.33H179.09V20.3528H179.175C179.328 20.0204 179.561 19.7533 179.874 19.5516C180.186 19.3471 180.59 19.2448 181.084 19.2448C181.527 19.2448 181.915 19.3357 182.247 19.5175C182.58 19.6965 182.838 19.9692 183.023 20.3357C183.207 20.6994 183.3 21.1596 183.3 21.7164V25.8755H182.294V21.7846C182.294 21.2704 182.161 20.8698 181.894 20.5829C181.626 20.2931 181.26 20.1482 180.794 20.1482C180.473 20.1482 180.186 20.2178 179.933 20.357C179.683 20.4962 179.486 20.6994 179.341 20.9664C179.196 21.2334 179.124 21.5573 179.124 21.938ZM187.78 28.4664C187.294 28.4664 186.876 28.4039 186.527 28.2789C186.177 28.1567 185.886 27.9948 185.653 27.7931C185.423 27.5942 185.24 27.3812 185.103 27.1539L185.905 26.5914C185.995 26.7107 186.111 26.8471 186.25 27.0005C186.389 27.1567 186.579 27.2917 186.821 27.4053C187.065 27.5218 187.385 27.58 187.78 27.58C188.308 27.58 188.744 27.4522 189.088 27.1965C189.432 26.9408 189.603 26.5403 189.603 25.9948V24.6653H189.518C189.444 24.7846 189.339 24.9323 189.203 25.1084C189.069 25.2817 188.876 25.4366 188.623 25.5729C188.373 25.7065 188.035 25.7732 187.609 25.7732C187.081 25.7732 186.606 25.6482 186.186 25.3982C185.768 25.1482 185.437 24.7846 185.193 24.3073C184.951 23.83 184.831 23.2505 184.831 22.5687C184.831 21.8982 184.949 21.3144 185.184 20.8172C185.42 20.3172 185.748 19.9309 186.169 19.6582C186.589 19.3826 187.075 19.2448 187.626 19.2448C188.052 19.2448 188.39 19.3158 188.64 19.4579C188.893 19.5971 189.086 19.7562 189.22 19.9351C189.356 20.1113 189.461 20.2562 189.535 20.3698H189.637V19.33H190.609V26.063C190.609 26.6255 190.481 27.0829 190.226 27.4351C189.973 27.7903 189.632 28.0502 189.203 28.215C188.777 28.3826 188.302 28.4664 187.78 28.4664ZM187.745 24.8698C188.149 24.8698 188.49 24.7775 188.768 24.5928C189.047 24.4082 189.258 24.1425 189.403 23.7959C189.548 23.4494 189.62 23.0346 189.62 22.5516C189.62 22.08 189.549 21.6638 189.407 21.303C189.265 20.9422 189.055 20.6596 188.777 20.455C188.498 20.2505 188.155 20.1482 187.745 20.1482C187.319 20.1482 186.964 20.2562 186.68 20.4721C186.399 20.688 186.187 20.9778 186.045 21.3414C185.906 21.705 185.836 22.1084 185.836 22.5516C185.836 23.0062 185.907 23.4082 186.049 23.7576C186.194 24.1042 186.407 24.3769 186.689 24.5758C186.973 24.7718 187.325 24.8698 187.745 24.8698ZM198.297 25.9948C197.723 25.9948 197.228 25.8897 196.814 25.6795C196.399 25.4692 196.079 25.1809 195.855 24.8144C195.63 24.4479 195.518 24.0289 195.518 23.5573C195.518 23.1937 195.595 22.8712 195.748 22.59C195.905 22.3059 196.119 22.0431 196.392 21.8016C196.667 21.5573 196.984 21.313 197.342 21.0687L198.603 20.1312C198.851 19.9692 199.048 19.7959 199.196 19.6113C199.346 19.4266 199.422 19.1851 199.422 18.8869C199.422 18.6653 199.324 18.4508 199.128 18.2434C198.934 18.036 198.68 17.9323 198.365 17.9323C198.143 17.9323 197.947 17.9891 197.777 18.1028C197.609 18.2136 197.477 18.3556 197.38 18.5289C197.287 18.6994 197.24 18.8755 197.24 19.0573C197.24 19.2619 197.295 19.4692 197.406 19.6795C197.52 19.8869 197.663 20.0999 197.836 20.3187C198.012 20.5346 198.194 20.7562 198.382 20.9834L202.387 25.8755H201.177L197.87 21.8869C197.564 21.5175 197.285 21.1823 197.035 20.8812C196.785 20.58 196.586 20.2832 196.439 19.9905C196.291 19.6979 196.217 19.3812 196.217 19.0403C196.217 18.6482 196.304 18.3045 196.477 18.009C196.653 17.7107 196.899 17.4792 197.214 17.3144C197.532 17.1468 197.905 17.063 198.331 17.063C198.768 17.063 199.145 17.1482 199.46 17.3187C199.775 17.4863 200.018 17.7093 200.189 17.9877C200.359 18.2633 200.444 18.563 200.444 18.8869C200.444 19.3045 200.341 19.6667 200.133 19.9735C199.926 20.2803 199.643 20.5658 199.285 20.83L197.547 22.1255C197.155 22.4153 196.889 22.6965 196.75 22.9692C196.611 23.242 196.541 23.438 196.541 23.5573C196.541 23.83 196.612 24.0843 196.754 24.3201C196.896 24.5559 197.096 24.7462 197.355 24.8911C197.613 25.036 197.916 25.1084 198.262 25.1084C198.592 25.1084 198.913 25.0388 199.226 24.8996C199.538 24.7576 199.821 24.553 200.074 24.286C200.329 24.019 200.531 23.6979 200.679 23.3229C200.829 22.9479 200.905 22.5261 200.905 22.0573H201.876C201.876 22.6369 201.809 23.1099 201.676 23.4763C201.542 23.8428 201.392 24.1297 201.224 24.3371C201.057 24.5445 200.922 24.6994 200.819 24.8016C200.785 24.8442 200.754 24.8869 200.726 24.9295C200.697 24.9721 200.666 25.0147 200.632 25.0573C200.351 25.3726 199.995 25.6084 199.566 25.7647C199.137 25.9181 198.714 25.9948 198.297 25.9948ZM121.354 38.8755V30.1482H124.405C125.013 30.1482 125.514 30.2533 125.909 30.4636C126.304 30.6709 126.598 30.9508 126.791 31.303C126.985 31.6525 127.081 32.0403 127.081 32.4664C127.081 32.8414 127.014 33.1511 126.881 33.3954C126.75 33.6397 126.577 33.8329 126.361 33.9749C126.148 34.117 125.916 34.2221 125.666 34.2903V34.3755C125.933 34.3925 126.202 34.4863 126.472 34.6567C126.742 34.8272 126.968 35.0715 127.149 35.3897C127.331 35.7079 127.422 36.0971 127.422 36.5573C127.422 36.9948 127.323 37.3883 127.124 37.7377C126.925 38.0871 126.611 38.3641 126.182 38.5687C125.753 38.7732 125.195 38.8755 124.507 38.8755H121.354ZM122.411 37.938H124.507C125.198 37.938 125.688 37.8045 125.978 37.5374C126.27 37.2675 126.416 36.9408 126.416 36.5573C126.416 36.2619 126.341 35.9891 126.191 35.7391C126.04 35.4863 125.826 35.2846 125.547 35.134C125.269 34.9806 124.939 34.9039 124.558 34.9039H122.411V37.938ZM122.411 33.9834H124.371C124.689 33.9834 124.976 33.9209 125.232 33.7959C125.49 33.6709 125.695 33.4948 125.845 33.2675C125.999 33.0403 126.076 32.7732 126.076 32.4664C126.076 32.0829 125.942 31.7576 125.675 31.4905C125.408 31.2207 124.985 31.0857 124.405 31.0857H122.411V33.9834ZM133.147 36.1994V32.33H134.153V38.8755H133.147V37.7675H133.079C132.926 38.0999 132.687 38.3826 132.363 38.6155C132.039 38.8457 131.63 38.9607 131.136 38.9607C130.727 38.9607 130.363 38.8712 130.045 38.6922C129.727 38.5104 129.477 38.2377 129.295 37.8741C129.113 37.5076 129.022 37.0459 129.022 36.4891V32.33H130.028V36.4209C130.028 36.8982 130.161 37.2789 130.429 37.563C130.698 37.8471 131.042 37.9891 131.46 37.9891C131.71 37.9891 131.964 37.9252 132.223 37.7974C132.484 37.6695 132.703 37.4735 132.879 37.2093C133.058 36.9451 133.147 36.6084 133.147 36.1994ZM140.631 33.7959L139.728 34.0516C139.671 33.9011 139.587 33.7547 139.476 33.6127C139.368 33.4678 139.221 33.3485 139.033 33.2547C138.846 33.161 138.606 33.1141 138.313 33.1141C137.913 33.1141 137.579 33.2065 137.312 33.3911C137.047 33.5729 136.915 33.8045 136.915 34.0857C136.915 34.3357 137.006 34.5332 137.188 34.678C137.37 34.8229 137.654 34.9437 138.04 35.0403L139.012 35.2789C139.597 35.4209 140.033 35.6383 140.32 35.9309C140.607 36.2207 140.751 36.5942 140.751 37.0516C140.751 37.4266 140.643 37.7619 140.427 38.0573C140.214 38.3528 139.915 38.5857 139.532 38.7562C139.148 38.9266 138.702 39.0119 138.194 39.0119C137.526 39.0119 136.974 38.867 136.536 38.5772C136.099 38.2874 135.822 37.8641 135.705 37.3073L136.66 37.0687C136.751 37.4209 136.922 37.6851 137.175 37.8613C137.431 38.0374 137.765 38.1255 138.177 38.1255C138.645 38.1255 139.018 38.0261 139.293 37.8272C139.572 37.6255 139.711 37.384 139.711 37.1028C139.711 36.8755 139.631 36.6851 139.472 36.5317C139.313 36.3755 139.069 36.259 138.739 36.1823L137.648 35.9266C137.049 35.7846 136.609 35.5644 136.327 35.2661C136.049 34.965 135.91 34.5886 135.91 34.1369C135.91 33.7675 136.013 33.4408 136.221 33.1567C136.431 32.8726 136.717 32.6496 137.077 32.4877C137.441 32.3258 137.853 32.2448 138.313 32.2448C138.961 32.2448 139.469 32.3869 139.839 32.6709C140.211 32.955 140.475 33.33 140.631 33.7959ZM142.264 38.8755V32.33H143.27V38.8755H142.264ZM142.776 31.2391C142.58 31.2391 142.411 31.1724 142.269 31.0388C142.13 30.9053 142.06 30.7448 142.06 30.5573C142.06 30.3698 142.13 30.2093 142.269 30.0758C142.411 29.9422 142.58 29.8755 142.776 29.8755C142.972 29.8755 143.139 29.9422 143.279 30.0758C143.421 30.2093 143.492 30.3698 143.492 30.5573C143.492 30.7448 143.421 30.9053 143.279 31.0388C143.139 31.1724 142.972 31.2391 142.776 31.2391ZM146.118 34.938V38.8755H145.112V32.33H146.084V33.3528H146.169C146.322 33.0204 146.555 32.7533 146.868 32.5516C147.18 32.3471 147.584 32.2448 148.078 32.2448C148.521 32.2448 148.909 32.3357 149.241 32.5175C149.574 32.6965 149.832 32.9692 150.017 33.3357C150.202 33.6994 150.294 34.1596 150.294 34.7164V38.8755H149.288V34.7846C149.288 34.2704 149.155 33.8698 148.888 33.5829C148.621 33.2931 148.254 33.1482 147.788 33.1482C147.467 33.1482 147.18 33.2178 146.927 33.357C146.677 33.4962 146.48 33.6994 146.335 33.9664C146.19 34.2334 146.118 34.5573 146.118 34.938ZM154.876 39.0119C154.245 39.0119 153.701 38.8726 153.244 38.5942C152.789 38.313 152.438 37.9209 152.191 37.4181C151.947 36.9124 151.825 36.3244 151.825 35.6539C151.825 34.9834 151.947 34.3925 152.191 33.8812C152.438 33.367 152.782 32.9664 153.223 32.6795C153.666 32.3897 154.183 32.2448 154.774 32.2448C155.115 32.2448 155.451 32.3016 155.784 32.4153C156.116 32.5289 156.419 32.7136 156.691 32.9692C156.964 33.2221 157.181 33.5573 157.343 33.9749C157.505 34.3925 157.586 34.9067 157.586 35.5175V35.9437H152.541V35.0744H156.563C156.563 34.705 156.49 34.3755 156.342 34.0857C156.197 33.7959 155.99 33.5672 155.72 33.3996C155.453 33.232 155.137 33.1482 154.774 33.1482C154.373 33.1482 154.027 33.2476 153.734 33.4465C153.444 33.6425 153.221 33.8982 153.065 34.2136C152.909 34.5289 152.83 34.867 152.83 35.2278V35.8073C152.83 36.3016 152.916 36.7207 153.086 37.0644C153.259 37.4053 153.5 37.6653 153.806 37.8442C154.113 38.0204 154.47 38.1084 154.876 38.1084C155.14 38.1084 155.379 38.0715 155.592 37.9976C155.808 37.9209 155.994 37.8073 156.15 37.6567C156.306 37.5033 156.427 37.313 156.512 37.0857L157.484 37.3584C157.382 37.688 157.21 37.9778 156.968 38.2278C156.727 38.4749 156.429 38.6681 156.073 38.8073C155.718 38.9437 155.319 39.0119 154.876 39.0119ZM163.752 33.7959L162.849 34.0516C162.792 33.9011 162.708 33.7547 162.598 33.6127C162.49 33.4678 162.342 33.3485 162.154 33.2547C161.967 33.161 161.727 33.1141 161.434 33.1141C161.034 33.1141 160.7 33.2065 160.433 33.3911C160.169 33.5729 160.036 33.8045 160.036 34.0857C160.036 34.3357 160.127 34.5332 160.309 34.678C160.491 34.8229 160.775 34.9437 161.161 35.0403L162.133 35.2789C162.718 35.4209 163.154 35.6383 163.441 35.9309C163.728 36.2207 163.872 36.5942 163.872 37.0516C163.872 37.4266 163.764 37.7619 163.548 38.0573C163.335 38.3528 163.036 38.5857 162.653 38.7562C162.269 38.9266 161.823 39.0119 161.315 39.0119C160.647 39.0119 160.095 38.867 159.657 38.5772C159.22 38.2874 158.943 37.8641 158.826 37.3073L159.781 37.0687C159.872 37.4209 160.044 37.6851 160.296 37.8613C160.552 38.0374 160.886 38.1255 161.298 38.1255C161.767 38.1255 162.139 38.0261 162.414 37.8272C162.693 37.6255 162.832 37.384 162.832 37.1028C162.832 36.8755 162.752 36.6851 162.593 36.5317C162.434 36.3755 162.19 36.259 161.86 36.1823L160.769 35.9266C160.17 35.7846 159.73 35.5644 159.448 35.2661C159.17 34.965 159.031 34.5886 159.031 34.1369C159.031 33.7675 159.134 33.4408 159.342 33.1567C159.552 32.8726 159.838 32.6496 160.198 32.4877C160.562 32.3258 160.974 32.2448 161.434 32.2448C162.082 32.2448 162.59 32.3869 162.96 32.6709C163.332 32.955 163.596 33.33 163.752 33.7959ZM170.022 33.7959L169.118 34.0516C169.062 33.9011 168.978 33.7547 168.867 33.6127C168.759 33.4678 168.611 33.3485 168.424 33.2547C168.236 33.161 167.996 33.1141 167.704 33.1141C167.303 33.1141 166.969 33.2065 166.702 33.3911C166.438 33.5729 166.306 33.8045 166.306 34.0857C166.306 34.3357 166.397 34.5332 166.579 34.678C166.761 34.8229 167.045 34.9437 167.431 35.0403L168.403 35.2789C168.988 35.4209 169.424 35.6383 169.711 35.9309C169.998 36.2207 170.141 36.5942 170.141 37.0516C170.141 37.4266 170.033 37.7619 169.817 38.0573C169.604 38.3528 169.306 38.5857 168.922 38.7562C168.539 38.9266 168.093 39.0119 167.584 39.0119C166.917 39.0119 166.364 38.867 165.927 38.5772C165.489 38.2874 165.212 37.8641 165.096 37.3073L166.05 37.0687C166.141 37.4209 166.313 37.6851 166.566 37.8613C166.822 38.0374 167.155 38.1255 167.567 38.1255C168.036 38.1255 168.408 38.0261 168.684 37.8272C168.962 37.6255 169.101 37.384 169.101 37.1028C169.101 36.8755 169.022 36.6851 168.863 36.5317C168.704 36.3755 168.459 36.259 168.13 36.1823L167.039 35.9266C166.44 35.7846 165.999 35.5644 165.718 35.2661C165.44 34.965 165.3 34.5886 165.3 34.1369C165.3 33.7675 165.404 33.4408 165.611 33.1567C165.822 32.8726 166.107 32.6496 166.468 32.4877C166.832 32.3258 167.243 32.2448 167.704 32.2448C168.351 32.2448 168.86 32.3869 169.229 32.6709C169.601 32.955 169.866 33.33 170.022 33.7959ZM176.223 30.1482V38.8755H175.166V30.1482H176.223ZM179.212 34.938V38.8755H178.206V32.33H179.177V33.3528H179.263C179.416 33.0204 179.649 32.7533 179.962 32.5516C180.274 32.3471 180.677 32.2448 181.172 32.2448C181.615 32.2448 182.003 32.3357 182.335 32.5175C182.668 32.6965 182.926 32.9692 183.111 33.3357C183.295 33.6994 183.388 34.1596 183.388 34.7164V38.8755H182.382V34.7846C182.382 34.2704 182.248 33.8698 181.981 33.5829C181.714 33.2931 181.348 33.1482 180.882 33.1482C180.561 33.1482 180.274 33.2178 180.021 33.357C179.771 33.4962 179.574 33.6994 179.429 33.9664C179.284 34.2334 179.212 34.5573 179.212 34.938ZM189.862 33.7959L188.958 34.0516C188.902 33.9011 188.818 33.7547 188.707 33.6127C188.599 33.4678 188.451 33.3485 188.264 33.2547C188.076 33.161 187.836 33.1141 187.544 33.1141C187.143 33.1141 186.809 33.2065 186.542 33.3911C186.278 33.5729 186.146 33.8045 186.146 34.0857C186.146 34.3357 186.237 34.5332 186.419 34.678C186.6 34.8229 186.884 34.9437 187.271 35.0403L188.242 35.2789C188.828 35.4209 189.264 35.6383 189.551 35.9309C189.838 36.2207 189.981 36.5942 189.981 37.0516C189.981 37.4266 189.873 37.7619 189.657 38.0573C189.444 38.3528 189.146 38.5857 188.762 38.7562C188.379 38.9266 187.933 39.0119 187.424 39.0119C186.757 39.0119 186.204 38.867 185.767 38.5772C185.329 38.2874 185.052 37.8641 184.936 37.3073L185.89 37.0687C185.981 37.4209 186.153 37.6851 186.406 37.8613C186.661 38.0374 186.995 38.1255 187.407 38.1255C187.876 38.1255 188.248 38.0261 188.524 37.8272C188.802 37.6255 188.941 37.384 188.941 37.1028C188.941 36.8755 188.862 36.6851 188.703 36.5317C188.544 36.3755 188.299 36.259 187.97 36.1823L186.879 35.9266C186.279 35.7846 185.839 35.5644 185.558 35.2661C185.279 34.965 185.14 34.5886 185.14 34.1369C185.14 33.7675 185.244 33.4408 185.451 33.1567C185.661 32.8726 185.947 32.6496 186.308 32.4877C186.671 32.3258 187.083 32.2448 187.544 32.2448C188.191 32.2448 188.7 32.3869 189.069 32.6709C189.441 32.955 189.705 33.33 189.862 33.7959ZM191.495 38.8755V32.33H192.501V38.8755H191.495ZM192.006 31.2391C191.81 31.2391 191.641 31.1724 191.499 31.0388C191.36 30.9053 191.29 30.7448 191.29 30.5573C191.29 30.3698 191.36 30.2093 191.499 30.0758C191.641 29.9422 191.81 29.8755 192.006 29.8755C192.202 29.8755 192.37 29.9422 192.509 30.0758C192.651 30.2093 192.722 30.3698 192.722 30.5573C192.722 30.7448 192.651 30.9053 192.509 31.0388C192.37 31.1724 192.202 31.2391 192.006 31.2391ZM196.985 41.4664C196.499 41.4664 196.081 41.4039 195.732 41.2789C195.382 41.1567 195.091 40.9948 194.858 40.7931C194.628 40.5942 194.445 40.3812 194.308 40.1539L195.11 39.5914C195.201 39.7107 195.316 39.8471 195.455 40.0005C195.594 40.1567 195.784 40.2917 196.026 40.4053C196.27 40.5218 196.59 40.58 196.985 40.58C197.513 40.58 197.949 40.4522 198.293 40.1965C198.637 39.9408 198.808 39.5403 198.808 38.9948V37.6653H198.723C198.649 37.7846 198.544 37.9323 198.408 38.1084C198.274 38.2817 198.081 38.4366 197.828 38.5729C197.578 38.7065 197.24 38.7732 196.814 38.7732C196.286 38.7732 195.811 38.6482 195.391 38.3982C194.973 38.1482 194.642 37.7846 194.398 37.3073C194.156 36.83 194.036 36.2505 194.036 35.5687C194.036 34.8982 194.154 34.3144 194.389 33.8172C194.625 33.3172 194.953 32.9309 195.374 32.6582C195.794 32.3826 196.28 32.2448 196.831 32.2448C197.257 32.2448 197.595 32.3158 197.845 32.4579C198.098 32.5971 198.291 32.7562 198.425 32.9351C198.561 33.1113 198.666 33.2562 198.74 33.3698H198.843V32.33H199.814V39.063C199.814 39.6255 199.686 40.0829 199.431 40.4351C199.178 40.7903 198.837 41.0502 198.408 41.215C197.982 41.3826 197.507 41.4664 196.985 41.4664ZM196.951 37.8698C197.354 37.8698 197.695 37.7775 197.973 37.5928C198.252 37.4082 198.463 37.1425 198.608 36.7959C198.753 36.4494 198.826 36.0346 198.826 35.5516C198.826 35.08 198.755 34.6638 198.612 34.303C198.47 33.9422 198.26 33.6596 197.982 33.455C197.703 33.2505 197.36 33.1482 196.951 33.1482C196.524 33.1482 196.169 33.2562 195.885 33.4721C195.604 33.688 195.392 33.9778 195.25 34.3414C195.111 34.705 195.041 35.1084 195.041 35.5516C195.041 36.0062 195.112 36.4082 195.255 36.7576C195.399 37.1042 195.612 37.3769 195.894 37.5758C196.178 37.7718 196.53 37.8698 196.951 37.8698ZM202.661 34.938V38.8755H201.655V30.1482H202.661V33.3528H202.746C202.899 33.0147 203.13 32.7462 203.436 32.5474C203.746 32.3457 204.158 32.2448 204.672 32.2448C205.118 32.2448 205.509 32.3343 205.844 32.5133C206.179 32.6894 206.439 32.9607 206.624 33.3272C206.811 33.6908 206.905 34.1539 206.905 34.7164V38.8755H205.899V34.7846C205.899 34.2647 205.764 33.8627 205.495 33.5786C205.228 33.2917 204.857 33.1482 204.382 33.1482C204.053 33.1482 203.757 33.2178 203.496 33.357C203.237 33.4962 203.033 33.6994 202.882 33.9664C202.735 34.2334 202.661 34.5573 202.661 34.938ZM211.592 32.33V33.1823H208.199V32.33H211.592ZM209.188 30.7619H210.194V37.0005C210.194 37.2846 210.235 37.4976 210.317 37.6397C210.403 37.7789 210.511 37.8726 210.641 37.9209C210.775 37.9664 210.915 37.9891 211.063 37.9891C211.174 37.9891 211.265 37.9834 211.336 37.9721C211.407 37.9579 211.464 37.9465 211.506 37.938L211.711 38.8414C211.643 38.867 211.547 38.8925 211.425 38.9181C211.303 38.9465 211.148 38.9607 210.961 38.9607C210.677 38.9607 210.398 38.8996 210.126 38.7775C209.856 38.6553 209.631 38.4692 209.452 38.2192C209.276 37.9692 209.188 37.6539 209.188 37.2732V30.7619ZM217.623 33.7959L216.72 34.0516C216.663 33.9011 216.579 33.7547 216.469 33.6127C216.361 33.4678 216.213 33.3485 216.025 33.2547C215.838 33.161 215.598 33.1141 215.305 33.1141C214.905 33.1141 214.571 33.2065 214.304 33.3911C214.04 33.5729 213.908 33.8045 213.908 34.0857C213.908 34.3357 213.998 34.5332 214.18 34.678C214.362 34.8229 214.646 34.9437 215.033 35.0403L216.004 35.2789C216.589 35.4209 217.025 35.6383 217.312 35.9309C217.599 36.2207 217.743 36.5942 217.743 37.0516C217.743 37.4266 217.635 37.7619 217.419 38.0573C217.206 38.3528 216.908 38.5857 216.524 38.7562C216.141 38.9266 215.694 39.0119 215.186 39.0119C214.518 39.0119 213.966 38.867 213.528 38.5772C213.091 38.2874 212.814 37.8641 212.697 37.3073L213.652 37.0687C213.743 37.4209 213.915 37.6851 214.168 37.8613C214.423 38.0374 214.757 38.1255 215.169 38.1255C215.638 38.1255 216.01 38.0261 216.285 37.8272C216.564 37.6255 216.703 37.384 216.703 37.1028C216.703 36.8755 216.623 36.6851 216.464 36.5317C216.305 36.3755 216.061 36.259 215.731 36.1823L214.641 35.9266C214.041 35.7846 213.601 35.5644 213.319 35.2661C213.041 34.965 212.902 34.5886 212.902 34.1369C212.902 33.7675 213.006 33.4408 213.213 33.1567C213.423 32.8726 213.709 32.6496 214.069 32.4877C214.433 32.3258 214.845 32.2448 215.305 32.2448C215.953 32.2448 216.462 32.3869 216.831 32.6709C217.203 32.955 217.467 33.33 217.623 33.7959Z" fill="white"/>
<path d="M251.896 26.3755H250.839C250.777 26.0715 250.668 25.8045 250.511 25.5744C250.358 25.3442 250.17 25.1511 249.949 24.9948C249.73 24.8357 249.487 24.7164 249.22 24.6369C248.953 24.5573 248.675 24.5175 248.385 24.5175C247.856 24.5175 247.378 24.6511 246.949 24.9181C246.523 25.1851 246.183 25.5786 245.93 26.0985C245.68 26.6184 245.555 27.2562 245.555 28.0119C245.555 28.7675 245.68 29.4053 245.93 29.9252C246.183 30.4451 246.523 30.8386 246.949 31.1056C247.378 31.3726 247.856 31.5062 248.385 31.5062C248.675 31.5062 248.953 31.4664 249.22 31.3869C249.487 31.3073 249.73 31.1894 249.949 31.0332C250.17 30.8741 250.358 30.6795 250.511 30.4494C250.668 30.2164 250.777 29.9494 250.839 29.6482H251.896C251.817 30.0942 251.672 30.4934 251.462 30.8457C251.251 31.1979 250.99 31.4976 250.677 31.7448C250.365 31.9891 250.014 32.1752 249.625 32.303C249.239 32.4309 248.825 32.4948 248.385 32.4948C247.641 32.4948 246.979 32.313 246.399 31.9494C245.819 31.5857 245.364 31.0687 245.031 30.3982C244.699 29.7278 244.533 28.9323 244.533 28.0119C244.533 27.0914 244.699 26.2959 245.031 25.6255C245.364 24.955 245.819 24.438 246.399 24.0744C246.979 23.7107 247.641 23.5289 248.385 23.5289C248.825 23.5289 249.239 23.5928 249.625 23.7207C250.014 23.8485 250.365 24.036 250.677 24.2832C250.99 24.5275 251.251 24.8258 251.462 25.178C251.672 25.5275 251.817 25.9266 251.896 26.3755ZM255.394 32.5289C254.979 32.5289 254.603 32.4508 254.264 32.2945C253.926 32.1354 253.658 31.9067 253.459 31.6084C253.26 31.3073 253.161 30.9437 253.161 30.5175C253.161 30.1425 253.235 29.8386 253.382 29.6056C253.53 29.3698 253.728 29.1851 253.975 29.0516C254.222 28.9181 254.495 28.8187 254.793 28.7533C255.094 28.6851 255.397 28.6312 255.701 28.5914C256.098 28.5403 256.421 28.5019 256.668 28.4763C256.918 28.4479 257.1 28.4011 257.213 28.3357C257.33 28.2704 257.388 28.1567 257.388 27.9948V27.9607C257.388 27.5403 257.273 27.2136 257.043 26.9806C256.816 26.7476 256.47 26.6312 256.007 26.6312C255.527 26.6312 255.151 26.7363 254.878 26.9465C254.605 27.1567 254.414 27.3812 254.303 27.6198L253.348 27.2789C253.519 26.8812 253.746 26.5715 254.03 26.3499C254.317 26.1255 254.63 25.9692 254.968 25.8812C255.308 25.7903 255.644 25.7448 255.973 25.7448C256.183 25.7448 256.425 25.7704 256.698 25.8215C256.973 25.8698 257.239 25.9707 257.495 26.1241C257.753 26.2775 257.968 26.509 258.138 26.8187C258.308 27.1283 258.394 27.5431 258.394 28.063V32.3755H257.388V31.4891H257.337C257.269 31.6312 257.155 31.7832 256.996 31.9451C256.837 32.107 256.625 32.2448 256.361 32.3584C256.097 32.4721 255.774 32.5289 255.394 32.5289ZM255.547 31.6255C255.945 31.6255 256.28 31.5474 256.553 31.3911C256.828 31.2349 257.036 31.0332 257.175 30.786C257.317 30.5388 257.388 30.2789 257.388 30.0062V29.0857C257.345 29.1369 257.252 29.1837 257.107 29.2263C256.965 29.2661 256.8 29.3016 256.612 29.3329C256.428 29.3613 256.247 29.3869 256.071 29.4096C255.898 29.4295 255.757 29.4465 255.649 29.4607C255.388 29.4948 255.144 29.5502 254.916 29.6269C254.692 29.7008 254.51 29.813 254.371 29.9636C254.235 30.1113 254.166 30.313 254.166 30.5687C254.166 30.9181 254.296 31.1823 254.554 31.3613C254.816 31.5374 255.147 31.6255 255.547 31.6255ZM261.235 23.6482V32.3755H260.229V23.6482H261.235ZM265.821 32.5119C265.191 32.5119 264.647 32.3726 264.189 32.0942C263.735 31.813 263.384 31.4209 263.137 30.9181C262.892 30.4124 262.77 29.8244 262.77 29.1539C262.77 28.4834 262.892 27.8925 263.137 27.3812C263.384 26.867 263.728 26.4664 264.168 26.1795C264.611 25.8897 265.128 25.7448 265.719 25.7448C266.06 25.7448 266.397 25.8016 266.729 25.9153C267.061 26.0289 267.364 26.2136 267.637 26.4692C267.909 26.7221 268.127 27.0573 268.289 27.4749C268.451 27.8925 268.531 28.4067 268.531 29.0175V29.4437H263.486V28.5744H267.509C267.509 28.205 267.435 27.8755 267.287 27.5857C267.142 27.2959 266.935 27.0672 266.665 26.8996C266.398 26.732 266.083 26.6482 265.719 26.6482C265.318 26.6482 264.972 26.7476 264.679 26.9465C264.389 27.1425 264.166 27.3982 264.01 27.7136C263.854 28.0289 263.776 28.367 263.776 28.7278V29.3073C263.776 29.8016 263.861 30.2207 264.031 30.5644C264.205 30.9053 264.445 31.1653 264.752 31.3442C265.058 31.5204 265.415 31.6084 265.821 31.6084C266.085 31.6084 266.324 31.5715 266.537 31.4976C266.753 31.4209 266.939 31.3073 267.095 31.1567C267.252 31.0033 267.372 30.813 267.458 30.5857L268.429 30.8584C268.327 31.188 268.155 31.4778 267.914 31.7278C267.672 31.9749 267.374 32.1681 267.019 32.3073C266.664 32.4437 266.264 32.5119 265.821 32.5119ZM271.067 28.438V32.3755H270.061V25.83H271.033V26.8528H271.118C271.272 26.5204 271.505 26.2533 271.817 26.0516C272.13 25.8471 272.533 25.7448 273.027 25.7448C273.47 25.7448 273.858 25.8357 274.191 26.0175C274.523 26.1965 274.781 26.4692 274.966 26.8357C275.151 27.1994 275.243 27.6596 275.243 28.2164V32.3755H274.237V28.2846C274.237 27.7704 274.104 27.3698 273.837 27.0829C273.57 26.7931 273.203 26.6482 272.737 26.6482C272.416 26.6482 272.13 26.7178 271.877 26.857C271.627 26.9962 271.429 27.1994 271.284 27.4664C271.139 27.7334 271.067 28.0573 271.067 28.438ZM279.552 32.5119C279.007 32.5119 278.525 32.3741 278.108 32.0985C277.69 31.8201 277.364 31.428 277.128 30.9224C276.892 30.4138 276.774 29.813 276.774 29.1198C276.774 28.4323 276.892 27.8357 277.128 27.33C277.364 26.8244 277.692 26.4337 278.112 26.1582C278.533 25.8826 279.018 25.7448 279.569 25.7448C279.996 25.7448 280.332 25.8158 280.579 25.9579C280.829 26.0971 281.02 26.2562 281.15 26.4351C281.284 26.6113 281.388 26.7562 281.462 26.8698H281.547V23.6482H282.552V32.3755H281.581V31.3698H281.462C281.388 31.4891 281.283 31.6397 281.146 31.8215C281.01 32.0005 280.815 32.161 280.562 32.303C280.31 32.4422 279.973 32.5119 279.552 32.5119ZM279.689 31.6084C280.092 31.6084 280.433 31.5033 280.712 31.2931C280.99 31.08 281.202 30.786 281.346 30.411C281.491 30.0332 281.564 29.5971 281.564 29.1028C281.564 28.6141 281.493 28.1866 281.351 27.8201C281.209 27.4508 280.998 27.1638 280.72 26.9593C280.442 26.7519 280.098 26.6482 279.689 26.6482C279.263 26.6482 278.908 26.7576 278.623 26.9763C278.342 27.1922 278.131 27.4863 277.989 27.8584C277.849 28.2278 277.78 28.6425 277.78 29.1028C277.78 29.5687 277.851 29.992 277.993 30.3726C278.138 30.7505 278.351 31.0516 278.632 31.2761C278.916 31.4976 279.268 31.6084 279.689 31.6084ZM286.46 32.5289C286.045 32.5289 285.669 32.4508 285.331 32.2945C284.993 32.1354 284.724 31.9067 284.525 31.6084C284.327 31.3073 284.227 30.9437 284.227 30.5175C284.227 30.1425 284.301 29.8386 284.449 29.6056C284.596 29.3698 284.794 29.1851 285.041 29.0516C285.288 28.9181 285.561 28.8187 285.859 28.7533C286.16 28.6851 286.463 28.6312 286.767 28.5914C287.165 28.5403 287.487 28.5019 287.734 28.4763C287.984 28.4479 288.166 28.4011 288.28 28.3357C288.396 28.2704 288.454 28.1567 288.454 27.9948V27.9607C288.454 27.5403 288.339 27.2136 288.109 26.9806C287.882 26.7476 287.537 26.6312 287.074 26.6312C286.594 26.6312 286.217 26.7363 285.944 26.9465C285.672 27.1567 285.48 27.3812 285.369 27.6198L284.415 27.2789C284.585 26.8812 284.812 26.5715 285.096 26.3499C285.383 26.1255 285.696 25.9692 286.034 25.8812C286.375 25.7903 286.71 25.7448 287.04 25.7448C287.25 25.7448 287.491 25.7704 287.764 25.8215C288.04 25.8698 288.305 25.9707 288.561 26.1241C288.819 26.2775 289.034 26.509 289.204 26.8187C289.375 27.1283 289.46 27.5431 289.46 28.063V32.3755H288.454V31.4891H288.403C288.335 31.6312 288.221 31.7832 288.062 31.9451C287.903 32.107 287.692 32.2448 287.427 32.3584C287.163 32.4721 286.841 32.5289 286.46 32.5289ZM286.614 31.6255C287.011 31.6255 287.346 31.5474 287.619 31.3911C287.895 31.2349 288.102 31.0332 288.241 30.786C288.383 30.5388 288.454 30.2789 288.454 30.0062V29.0857C288.412 29.1369 288.318 29.1837 288.173 29.2263C288.031 29.2661 287.866 29.3016 287.679 29.3329C287.494 29.3613 287.314 29.3869 287.138 29.4096C286.964 29.4295 286.824 29.4465 286.716 29.4607C286.454 29.4948 286.21 29.5502 285.983 29.6269C285.758 29.7008 285.577 29.813 285.437 29.9636C285.301 30.1113 285.233 30.313 285.233 30.5687C285.233 30.9181 285.362 31.1823 285.621 31.3613C285.882 31.5374 286.213 31.6255 286.614 31.6255ZM291.296 32.3755V25.83H292.267V26.8187H292.335C292.455 26.4948 292.671 26.232 292.983 26.0303C293.296 25.8286 293.648 25.7278 294.04 25.7278C294.114 25.7278 294.206 25.7292 294.317 25.732C294.428 25.7349 294.512 25.7391 294.568 25.7448V26.7675C294.534 26.759 294.456 26.7462 294.334 26.7292C294.215 26.7093 294.088 26.6994 293.955 26.6994C293.637 26.6994 293.353 26.7661 293.103 26.8996C292.855 27.0303 292.659 27.2121 292.514 27.4451C292.372 27.6752 292.301 27.938 292.301 28.2334V32.3755H291.296ZM295.761 32.3755V25.83H296.766V32.3755H295.761ZM296.272 24.7391C296.076 24.7391 295.907 24.6724 295.765 24.5388C295.626 24.4053 295.556 24.2448 295.556 24.0573C295.556 23.8698 295.626 23.7093 295.765 23.5758C295.907 23.4422 296.076 23.3755 296.272 23.3755C296.468 23.3755 296.636 23.4422 296.775 23.5758C296.917 23.7093 296.988 23.8698 296.988 24.0573C296.988 24.2448 296.917 24.4053 296.775 24.5388C296.636 24.6724 296.468 24.7391 296.272 24.7391ZM299.614 28.438V32.3755H298.608V25.83H299.58V26.8528H299.665C299.818 26.5204 300.051 26.2533 300.364 26.0516C300.676 25.8471 301.08 25.7448 301.574 25.7448C302.017 25.7448 302.405 25.8357 302.737 26.0175C303.07 26.1965 303.328 26.4692 303.513 26.8357C303.698 27.1994 303.79 27.6596 303.79 28.2164V32.3755H302.784V28.2846C302.784 27.7704 302.651 27.3698 302.384 27.0829C302.117 26.7931 301.75 26.6482 301.284 26.6482C300.963 26.6482 300.676 26.7178 300.424 26.857C300.174 26.9962 299.976 27.1994 299.831 27.4664C299.686 27.7334 299.614 28.0573 299.614 28.438ZM308.27 34.9664C307.784 34.9664 307.366 34.9039 307.017 34.7789C306.668 34.6567 306.376 34.4948 306.143 34.2931C305.913 34.0942 305.73 33.8812 305.594 33.6539L306.395 33.0914C306.486 33.2107 306.601 33.3471 306.74 33.5005C306.879 33.6567 307.069 33.7917 307.311 33.9053C307.555 34.0218 307.875 34.08 308.27 34.08C308.798 34.08 309.234 33.9522 309.578 33.6965C309.922 33.4408 310.094 33.0403 310.094 32.4948V31.1653H310.008C309.935 31.2846 309.829 31.4323 309.693 31.6084C309.56 31.7817 309.366 31.9366 309.114 32.0729C308.864 32.2065 308.525 32.2732 308.099 32.2732C307.571 32.2732 307.096 32.1482 306.676 31.8982C306.258 31.6482 305.927 31.2846 305.683 30.8073C305.442 30.33 305.321 29.7505 305.321 29.0687C305.321 28.3982 305.439 27.8144 305.675 27.3172C305.91 26.8172 306.239 26.4309 306.659 26.1582C307.079 25.8826 307.565 25.7448 308.116 25.7448C308.543 25.7448 308.881 25.8158 309.131 25.9579C309.383 26.0971 309.577 26.2562 309.71 26.4351C309.846 26.6113 309.952 26.7562 310.025 26.8698H310.128V25.83H311.099V32.563C311.099 33.1255 310.971 33.5829 310.716 33.9351C310.463 34.2903 310.122 34.5502 309.693 34.715C309.267 34.8826 308.793 34.9664 308.27 34.9664ZM308.236 31.3698C308.639 31.3698 308.98 31.2775 309.258 31.0928C309.537 30.9082 309.748 30.6425 309.893 30.2959C310.038 29.9494 310.111 29.5346 310.111 29.0516C310.111 28.58 310.04 28.1638 309.898 27.803C309.756 27.4422 309.545 27.1596 309.267 26.955C308.989 26.7505 308.645 26.6482 308.236 26.6482C307.81 26.6482 307.454 26.7562 307.17 26.9721C306.889 27.188 306.677 27.4778 306.535 27.8414C306.396 28.205 306.327 28.6084 306.327 29.0516C306.327 29.5062 306.398 29.9082 306.54 30.2576C306.685 30.6042 306.898 30.8769 307.179 31.0758C307.463 31.2718 307.815 31.3698 308.236 31.3698Z" fill="white"/>
<path d="M345.896 26.3755H344.839C344.777 26.0715 344.668 25.8045 344.511 25.5744C344.358 25.3442 344.17 25.1511 343.949 24.9948C343.73 24.8357 343.487 24.7164 343.22 24.6369C342.953 24.5573 342.675 24.5175 342.385 24.5175C341.856 24.5175 341.378 24.6511 340.949 24.9181C340.523 25.1851 340.183 25.5786 339.93 26.0985C339.68 26.6184 339.555 27.2562 339.555 28.0119C339.555 28.7675 339.68 29.4053 339.93 29.9252C340.183 30.4451 340.523 30.8386 340.949 31.1056C341.378 31.3726 341.856 31.5062 342.385 31.5062C342.675 31.5062 342.953 31.4664 343.22 31.3869C343.487 31.3073 343.73 31.1894 343.949 31.0332C344.17 30.8741 344.358 30.6795 344.511 30.4494C344.668 30.2164 344.777 29.9494 344.839 29.6482H345.896C345.817 30.0942 345.672 30.4934 345.462 30.8457C345.251 31.1979 344.99 31.4976 344.677 31.7448C344.365 31.9891 344.014 32.1752 343.625 32.303C343.239 32.4309 342.825 32.4948 342.385 32.4948C341.641 32.4948 340.979 32.313 340.399 31.9494C339.819 31.5857 339.364 31.0687 339.031 30.3982C338.699 29.7278 338.533 28.9323 338.533 28.0119C338.533 27.0914 338.699 26.2959 339.031 25.6255C339.364 24.955 339.819 24.438 340.399 24.0744C340.979 23.7107 341.641 23.5289 342.385 23.5289C342.825 23.5289 343.239 23.5928 343.625 23.7207C344.014 23.8485 344.365 24.036 344.677 24.2832C344.99 24.5275 345.251 24.8258 345.462 25.178C345.672 25.5275 345.817 25.9266 345.896 26.3755ZM350.127 32.5119C349.536 32.5119 349.017 32.3712 348.571 32.09C348.128 31.8087 347.781 31.4153 347.531 30.9096C347.284 30.4039 347.161 29.813 347.161 29.1369C347.161 28.455 347.284 27.8599 347.531 27.3513C347.781 26.8428 348.128 26.4479 348.571 26.1667C349.017 25.8854 349.536 25.7448 350.127 25.7448C350.718 25.7448 351.235 25.8854 351.678 26.1667C352.124 26.4479 352.47 26.8428 352.718 27.3513C352.968 27.8599 353.093 28.455 353.093 29.1369C353.093 29.813 352.968 30.4039 352.718 30.9096C352.47 31.4153 352.124 31.8087 351.678 32.09C351.235 32.3712 350.718 32.5119 350.127 32.5119ZM350.127 31.6084C350.576 31.6084 350.945 31.4934 351.235 31.2633C351.524 31.0332 351.739 30.7306 351.878 30.3556C352.017 29.9806 352.087 29.5744 352.087 29.1369C352.087 28.6994 352.017 28.2917 351.878 27.9138C351.739 27.536 351.524 27.2306 351.235 26.9976C350.945 26.7647 350.576 26.6482 350.127 26.6482C349.678 26.6482 349.308 26.7647 349.019 26.9976C348.729 27.2306 348.514 27.536 348.375 27.9138C348.236 28.2917 348.166 28.6994 348.166 29.1369C348.166 29.5744 348.236 29.9806 348.375 30.3556C348.514 30.7306 348.729 31.0332 349.019 31.2633C349.308 31.4934 349.678 31.6084 350.127 31.6084ZM355.633 23.6482V32.3755H354.628V23.6482H355.633ZM358.481 23.6482V32.3755H357.475V23.6482H358.481ZM362.249 32.5289C361.834 32.5289 361.458 32.4508 361.12 32.2945C360.782 32.1354 360.513 31.9067 360.315 31.6084C360.116 31.3073 360.016 30.9437 360.016 30.5175C360.016 30.1425 360.09 29.8386 360.238 29.6056C360.386 29.3698 360.583 29.1851 360.83 29.0516C361.077 28.9181 361.35 28.8187 361.648 28.7533C361.949 28.6851 362.252 28.6312 362.556 28.5914C362.954 28.5403 363.276 28.5019 363.523 28.4763C363.773 28.4479 363.955 28.4011 364.069 28.3357C364.185 28.2704 364.243 28.1567 364.243 27.9948V27.9607C364.243 27.5403 364.128 27.2136 363.898 26.9806C363.671 26.7476 363.326 26.6312 362.863 26.6312C362.383 26.6312 362.006 26.7363 361.734 26.9465C361.461 27.1567 361.269 27.3812 361.158 27.6198L360.204 27.2789C360.374 26.8812 360.601 26.5715 360.886 26.3499C361.172 26.1255 361.485 25.9692 361.823 25.8812C362.164 25.7903 362.499 25.7448 362.829 25.7448C363.039 25.7448 363.28 25.7704 363.553 25.8215C363.829 25.8698 364.094 25.9707 364.35 26.1241C364.609 26.2775 364.823 26.509 364.993 26.8187C365.164 27.1283 365.249 27.5431 365.249 28.063V32.3755H364.243V31.4891H364.192C364.124 31.6312 364.011 31.7832 363.851 31.9451C363.692 32.107 363.481 32.2448 363.217 32.3584C362.952 32.4721 362.63 32.5289 362.249 32.5289ZM362.403 31.6255C362.8 31.6255 363.136 31.5474 363.408 31.3911C363.684 31.2349 363.891 31.0332 364.03 30.786C364.172 30.5388 364.243 30.2789 364.243 30.0062V29.0857C364.201 29.1369 364.107 29.1837 363.962 29.2263C363.82 29.2661 363.655 29.3016 363.468 29.3329C363.283 29.3613 363.103 29.3869 362.927 29.4096C362.753 29.4295 362.613 29.4465 362.505 29.4607C362.243 29.4948 361.999 29.5502 361.772 29.6269C361.547 29.7008 361.366 29.813 361.226 29.9636C361.09 30.1113 361.022 30.313 361.022 30.5687C361.022 30.9181 361.151 31.1823 361.41 31.3613C361.671 31.5374 362.002 31.6255 362.403 31.6255ZM367.221 32.3755V23.6482H368.227V26.8698H368.312C368.386 26.7562 368.488 26.6113 368.619 26.4351C368.752 26.2562 368.943 26.0971 369.19 25.9579C369.44 25.8158 369.778 25.7448 370.204 25.7448C370.755 25.7448 371.241 25.8826 371.661 26.1582C372.082 26.4337 372.41 26.8244 372.646 27.33C372.882 27.8357 373 28.4323 373 29.1198C373 29.813 372.882 30.4138 372.646 30.9224C372.41 31.428 372.083 31.8201 371.666 32.0985C371.248 32.3741 370.767 32.5119 370.221 32.5119C369.801 32.5119 369.464 32.4422 369.211 32.303C368.958 32.161 368.764 32.0005 368.627 31.8215C368.491 31.6397 368.386 31.4891 368.312 31.3698H368.193V32.3755H367.221ZM368.21 29.1028C368.21 29.5971 368.282 30.0332 368.427 30.411C368.572 30.786 368.784 31.08 369.062 31.2931C369.34 31.5033 369.681 31.6084 370.085 31.6084C370.505 31.6084 370.856 31.4976 371.137 31.2761C371.421 31.0516 371.634 30.7505 371.777 30.3726C371.921 29.992 371.994 29.5687 371.994 29.1028C371.994 28.6425 371.923 28.2278 371.781 27.8584C371.642 27.4863 371.43 27.1922 371.146 26.9763C370.865 26.7576 370.511 26.6482 370.085 26.6482C369.676 26.6482 369.332 26.7519 369.054 26.9593C368.775 27.1638 368.565 27.4508 368.423 27.8201C368.281 28.1866 368.21 28.6141 368.21 29.1028ZM377.197 32.5119C376.606 32.5119 376.088 32.3712 375.642 32.09C375.198 31.8087 374.852 31.4153 374.602 30.9096C374.355 30.4039 374.231 29.813 374.231 29.1369C374.231 28.455 374.355 27.8599 374.602 27.3513C374.852 26.8428 375.198 26.4479 375.642 26.1667C376.088 25.8854 376.606 25.7448 377.197 25.7448C377.788 25.7448 378.305 25.8854 378.748 26.1667C379.194 26.4479 379.541 26.8428 379.788 27.3513C380.038 27.8599 380.163 28.455 380.163 29.1369C380.163 29.813 380.038 30.4039 379.788 30.9096C379.541 31.4153 379.194 31.8087 378.748 32.09C378.305 32.3712 377.788 32.5119 377.197 32.5119ZM377.197 31.6084C377.646 31.6084 378.015 31.4934 378.305 31.2633C378.595 31.0332 378.809 30.7306 378.948 30.3556C379.088 29.9806 379.157 29.5744 379.157 29.1369C379.157 28.6994 379.088 28.2917 378.948 27.9138C378.809 27.536 378.595 27.2306 378.305 26.9976C378.015 26.7647 377.646 26.6482 377.197 26.6482C376.748 26.6482 376.379 26.7647 376.089 26.9976C375.799 27.2306 375.585 27.536 375.446 27.9138C375.306 28.2917 375.237 28.6994 375.237 29.1369C375.237 29.5744 375.306 29.9806 375.446 30.3556C375.585 30.7306 375.799 31.0332 376.089 31.2633C376.379 31.4934 376.748 31.6084 377.197 31.6084ZM381.698 32.3755V25.83H382.67V26.8187H382.738C382.857 26.4948 383.073 26.232 383.386 26.0303C383.698 25.8286 384.05 25.7278 384.442 25.7278C384.516 25.7278 384.609 25.7292 384.719 25.732C384.83 25.7349 384.914 25.7391 384.971 25.7448V26.7675C384.937 26.759 384.859 26.7462 384.736 26.7292C384.617 26.7093 384.491 26.6994 384.357 26.6994C384.039 26.6994 383.755 26.7661 383.505 26.8996C383.258 27.0303 383.062 27.2121 382.917 27.4451C382.775 27.6752 382.704 27.938 382.704 28.2334V32.3755H381.698ZM388.089 32.5289C387.674 32.5289 387.298 32.4508 386.96 32.2945C386.622 32.1354 386.353 31.9067 386.154 31.6084C385.955 31.3073 385.856 30.9437 385.856 30.5175C385.856 30.1425 385.93 29.8386 386.078 29.6056C386.225 29.3698 386.423 29.1851 386.67 29.0516C386.917 28.9181 387.19 28.8187 387.488 28.7533C387.789 28.6851 388.092 28.6312 388.396 28.5914C388.794 28.5403 389.116 28.5019 389.363 28.4763C389.613 28.4479 389.795 28.4011 389.909 28.3357C390.025 28.2704 390.083 28.1567 390.083 27.9948V27.9607C390.083 27.5403 389.968 27.2136 389.738 26.9806C389.511 26.7476 389.166 26.6312 388.703 26.6312C388.223 26.6312 387.846 26.7363 387.573 26.9465C387.301 27.1567 387.109 27.3812 386.998 27.6198L386.044 27.2789C386.214 26.8812 386.441 26.5715 386.725 26.3499C387.012 26.1255 387.325 25.9692 387.663 25.8812C388.004 25.7903 388.339 25.7448 388.669 25.7448C388.879 25.7448 389.12 25.7704 389.393 25.8215C389.669 25.8698 389.934 25.9707 390.19 26.1241C390.448 26.2775 390.663 26.509 390.833 26.8187C391.004 27.1283 391.089 27.5431 391.089 28.063V32.3755H390.083V31.4891H390.032C389.964 31.6312 389.85 31.7832 389.691 31.9451C389.532 32.107 389.321 32.2448 389.056 32.3584C388.792 32.4721 388.47 32.5289 388.089 32.5289ZM388.242 31.6255C388.64 31.6255 388.975 31.5474 389.248 31.3911C389.524 31.2349 389.731 31.0332 389.87 30.786C390.012 30.5388 390.083 30.2789 390.083 30.0062V29.0857C390.041 29.1369 389.947 29.1837 389.802 29.2263C389.66 29.2661 389.495 29.3016 389.308 29.3329C389.123 29.3613 388.943 29.3869 388.767 29.4096C388.593 29.4295 388.453 29.4465 388.345 29.4607C388.083 29.4948 387.839 29.5502 387.612 29.6269C387.387 29.7008 387.205 29.813 387.066 29.9636C386.93 30.1113 386.862 30.313 386.862 30.5687C386.862 30.9181 386.991 31.1823 387.25 31.3613C387.511 31.5374 387.842 31.6255 388.242 31.6255ZM395.771 25.83V26.6823H392.379V25.83H395.771ZM393.368 24.2619H394.373V30.5005C394.373 30.7846 394.415 30.9976 394.497 31.1397C394.582 31.2789 394.69 31.3726 394.821 31.4209C394.954 31.4664 395.095 31.4891 395.243 31.4891C395.354 31.4891 395.444 31.4834 395.516 31.4721C395.587 31.4579 395.643 31.4465 395.686 31.438L395.891 32.3414C395.822 32.367 395.727 32.3925 395.605 32.4181C395.483 32.4465 395.328 32.4607 395.141 32.4607C394.856 32.4607 394.578 32.3996 394.305 32.2775C394.035 32.1553 393.811 31.9692 393.632 31.7192C393.456 31.4692 393.368 31.1539 393.368 30.7732V24.2619ZM397.284 32.3755V25.83H398.29V32.3755H397.284ZM397.795 24.7391C397.599 24.7391 397.43 24.6724 397.288 24.5388C397.149 24.4053 397.079 24.2448 397.079 24.0573C397.079 23.8698 397.149 23.7093 397.288 23.5758C397.43 23.4422 397.599 23.3755 397.795 23.3755C397.991 23.3755 398.159 23.4422 398.298 23.5758C398.44 23.7093 398.511 23.8698 398.511 24.0573C398.511 24.2448 398.44 24.4053 398.298 24.5388C398.159 24.6724 397.991 24.7391 397.795 24.7391ZM402.791 32.5119C402.2 32.5119 401.681 32.3712 401.235 32.09C400.792 31.8087 400.446 31.4153 400.196 30.9096C399.948 30.4039 399.825 29.813 399.825 29.1369C399.825 28.455 399.948 27.8599 400.196 27.3513C400.446 26.8428 400.792 26.4479 401.235 26.1667C401.681 25.8854 402.2 25.7448 402.791 25.7448C403.382 25.7448 403.899 25.8854 404.342 26.1667C404.788 26.4479 405.134 26.8428 405.382 27.3513C405.632 27.8599 405.757 28.455 405.757 29.1369C405.757 29.813 405.632 30.4039 405.382 30.9096C405.134 31.4153 404.788 31.8087 404.342 32.09C403.899 32.3712 403.382 32.5119 402.791 32.5119ZM402.791 31.6084C403.24 31.6084 403.609 31.4934 403.899 31.2633C404.188 31.0332 404.403 30.7306 404.542 30.3556C404.681 29.9806 404.751 29.5744 404.751 29.1369C404.751 28.6994 404.681 28.2917 404.542 27.9138C404.403 27.536 404.188 27.2306 403.899 26.9976C403.609 26.7647 403.24 26.6482 402.791 26.6482C402.342 26.6482 401.973 26.7647 401.683 26.9976C401.393 27.2306 401.179 27.536 401.039 27.9138C400.9 28.2917 400.83 28.6994 400.83 29.1369C400.83 29.5744 400.9 29.9806 401.039 30.3556C401.179 30.7306 401.393 31.0332 401.683 31.2633C401.973 31.4934 402.342 31.6084 402.791 31.6084ZM408.297 28.438V32.3755H407.292V25.83H408.263V26.8528H408.349C408.502 26.5204 408.735 26.2533 409.047 26.0516C409.36 25.8471 409.763 25.7448 410.258 25.7448C410.701 25.7448 411.089 25.8357 411.421 26.0175C411.753 26.1965 412.012 26.4692 412.197 26.8357C412.381 27.1994 412.474 27.6596 412.474 28.2164V32.3755H411.468V28.2846C411.468 27.7704 411.334 27.3698 411.067 27.0829C410.8 26.7931 410.434 26.6482 409.968 26.6482C409.647 26.6482 409.36 26.7178 409.107 26.857C408.857 26.9962 408.66 27.1994 408.515 27.4664C408.37 27.7334 408.297 28.0573 408.297 28.438Z" fill="white"/>
<defs>
<filter id="filter0_f_541_320" x="-396.217" y="-387.178" width="1001.2" height="848.62" filterUnits="userSpaceOnUse" color-interpolation-filters="sRGB">
<feFlood flood-opacity="0" result="BackgroundImageFix"/>
<feBlend mode="normal" in="SourceGraphic" in2="BackgroundImageFix" result="shape"/>
<feGaussianBlur stdDeviation="150" result="effect1_foregroundBlur_541_320"/>
</filter>
</defs>
</svg>
