<svg width="1440" height="60" viewBox="0 0 1440 60" fill="none" xmlns="http://www.w3.org/2000/svg">
<rect width="1440" height="60" fill="#012A48"/>
<mask id="mask0_541_307" style="mask-type:alpha" maskUnits="userSpaceOnUse" x="0" y="0" width="1440" height="60">
<rect width="1440" height="60" fill="#012A48"/>
</mask>
<g mask="url(#mask0_541_307)">
<g filter="url(#filter0_f_541_307)">
<ellipse cx="397" cy="37.2972" rx="204" ry="124.865" fill="#00AAFF" fill-opacity="0.68"/>
</g>
</g>
<path d="M322.369 25.3153V23.9091H332.188V25.3153H328.071V37H326.486V25.3153H322.369ZM335.983 37.2301C335.361 37.2301 334.796 37.1129 334.289 36.8786C333.782 36.6399 333.379 36.2969 333.081 35.8494C332.782 35.3977 332.633 34.8523 332.633 34.2131C332.633 33.6506 332.744 33.1946 332.966 32.8452C333.187 32.4915 333.483 32.2145 333.854 32.0142C334.225 31.8139 334.634 31.6648 335.081 31.5668C335.533 31.4645 335.987 31.3835 336.443 31.3239C337.04 31.2472 337.523 31.1896 337.894 31.1513C338.269 31.1087 338.542 31.0384 338.712 30.9403C338.887 30.8423 338.974 30.6719 338.974 30.429V30.3778C338.974 29.7472 338.802 29.2571 338.456 28.9077C338.116 28.5582 337.598 28.3835 336.903 28.3835C336.183 28.3835 335.618 28.5412 335.209 28.8565C334.8 29.1719 334.513 29.5085 334.346 29.8665L332.915 29.3551C333.17 28.7585 333.511 28.294 333.937 27.9616C334.368 27.625 334.836 27.3906 335.344 27.2585C335.855 27.1222 336.358 27.054 336.852 27.054C337.167 27.054 337.53 27.0923 337.939 27.169C338.352 27.2415 338.751 27.3928 339.134 27.6229C339.522 27.853 339.844 28.2003 340.099 28.6648C340.355 29.1293 340.483 29.7514 340.483 30.5312V37H338.974V35.6705H338.898C338.795 35.8835 338.625 36.1115 338.386 36.3544C338.148 36.5973 337.83 36.804 337.434 36.9744C337.037 37.1449 336.554 37.2301 335.983 37.2301ZM336.213 35.875C336.809 35.875 337.312 35.7578 337.721 35.5234C338.135 35.2891 338.446 34.9865 338.655 34.6158C338.868 34.245 338.974 33.8551 338.974 33.446V32.0653C338.91 32.142 338.77 32.2124 338.552 32.2763C338.339 32.3359 338.092 32.3892 337.811 32.4361C337.534 32.4787 337.263 32.517 336.999 32.5511C336.739 32.581 336.528 32.6065 336.366 32.6278C335.974 32.679 335.608 32.7621 335.267 32.8771C334.93 32.9879 334.657 33.1562 334.449 33.3821C334.244 33.6037 334.142 33.9062 334.142 34.2898C334.142 34.8139 334.336 35.2102 334.724 35.4787C335.116 35.7429 335.612 35.875 336.213 35.875ZM350.191 29.3807L348.836 29.7642C348.75 29.5384 348.625 29.3189 348.458 29.1058C348.297 28.8885 348.075 28.7095 347.794 28.5689C347.512 28.4283 347.152 28.358 346.713 28.358C346.113 28.358 345.612 28.4964 345.211 28.7734C344.815 29.0462 344.617 29.3935 344.617 29.8153C344.617 30.1903 344.753 30.4865 345.026 30.7038C345.299 30.9212 345.725 31.1023 346.304 31.2472L347.762 31.6051C348.64 31.8182 349.294 32.1442 349.724 32.5831C350.154 33.0178 350.37 33.5781 350.37 34.2642C350.37 34.8267 350.208 35.3295 349.884 35.7727C349.564 36.2159 349.117 36.5653 348.542 36.821C347.966 37.0767 347.297 37.2045 346.534 37.2045C345.533 37.2045 344.704 36.9872 344.048 36.5526C343.392 36.1179 342.976 35.483 342.801 34.6477L344.233 34.2898C344.37 34.8182 344.627 35.2145 345.007 35.4787C345.39 35.7429 345.891 35.875 346.509 35.875C347.212 35.875 347.77 35.7259 348.184 35.4276C348.601 35.125 348.81 34.7628 348.81 34.3409C348.81 34 348.691 33.7145 348.452 33.4844C348.213 33.25 347.847 33.0753 347.353 32.9602L345.716 32.5767C344.817 32.3636 344.157 32.0334 343.735 31.5859C343.317 31.1342 343.108 30.5696 343.108 29.892C343.108 29.3381 343.264 28.848 343.575 28.4219C343.89 27.9957 344.319 27.6612 344.86 27.4183C345.405 27.1754 346.023 27.054 346.713 27.054C347.685 27.054 348.448 27.267 349.002 27.6932C349.56 28.1193 349.956 28.6818 350.191 29.3807ZM354.047 33.4205L354.021 31.554H354.328L358.623 27.1818H360.49L355.913 31.8097H355.785L354.047 33.4205ZM352.64 37V23.9091H354.149V37H352.64ZM358.879 37L355.044 32.142L356.118 31.0938L360.797 37H358.879ZM367.699 23.9091H369.591L374.039 34.7756H374.193L378.642 23.9091H380.534V37H379.051V27.054H378.923L374.832 37H373.4L369.309 27.054H369.181V37H367.699V23.9091ZM386.397 37.2301C385.775 37.2301 385.21 37.1129 384.703 36.8786C384.196 36.6399 383.793 36.2969 383.495 35.8494C383.197 35.3977 383.047 34.8523 383.047 34.2131C383.047 33.6506 383.158 33.1946 383.38 32.8452C383.601 32.4915 383.898 32.2145 384.268 32.0142C384.639 31.8139 385.048 31.6648 385.496 31.5668C385.947 31.4645 386.401 31.3835 386.857 31.3239C387.454 31.2472 387.937 31.1896 388.308 31.1513C388.683 31.1087 388.956 31.0384 389.126 30.9403C389.301 30.8423 389.388 30.6719 389.388 30.429V30.3778C389.388 29.7472 389.216 29.2571 388.871 28.9077C388.53 28.5582 388.012 28.3835 387.317 28.3835C386.597 28.3835 386.032 28.5412 385.623 28.8565C385.214 29.1719 384.927 29.5085 384.76 29.8665L383.329 29.3551C383.584 28.7585 383.925 28.294 384.351 27.9616C384.782 27.625 385.251 27.3906 385.758 27.2585C386.269 27.1222 386.772 27.054 387.266 27.054C387.581 27.054 387.944 27.0923 388.353 27.169C388.766 27.2415 389.165 27.3928 389.548 27.6229C389.936 27.853 390.258 28.2003 390.513 28.6648C390.769 29.1293 390.897 29.7514 390.897 30.5312V37H389.388V35.6705H389.312C389.209 35.8835 389.039 36.1115 388.8 36.3544C388.562 36.5973 388.244 36.804 387.848 36.9744C387.452 37.1449 386.968 37.2301 386.397 37.2301ZM386.627 35.875C387.224 35.875 387.726 35.7578 388.135 35.5234C388.549 35.2891 388.86 34.9865 389.069 34.6158C389.282 34.245 389.388 33.8551 389.388 33.446V32.0653C389.324 32.142 389.184 32.2124 388.966 32.2763C388.753 32.3359 388.506 32.3892 388.225 32.4361C387.948 32.4787 387.677 32.517 387.413 32.5511C387.153 32.581 386.942 32.6065 386.78 32.6278C386.388 32.679 386.022 32.7621 385.681 32.8771C385.344 32.9879 385.072 33.1562 384.863 33.3821C384.658 33.6037 384.556 33.9062 384.556 34.2898C384.556 34.8139 384.75 35.2102 385.138 35.4787C385.53 35.7429 386.026 35.875 386.627 35.875ZM395.159 31.0938V37H393.65V27.1818H395.108V28.7159H395.235C395.466 28.2173 395.815 27.8168 396.284 27.5142C396.752 27.2074 397.358 27.054 398.099 27.054C398.764 27.054 399.346 27.1903 399.844 27.4631C400.343 27.7315 400.73 28.1406 401.007 28.6903C401.284 29.2358 401.423 29.9261 401.423 30.7614V37H399.914V30.8636C399.914 30.0923 399.714 29.4915 399.314 29.0611C398.913 28.6264 398.363 28.4091 397.664 28.4091C397.183 28.4091 396.752 28.5135 396.373 28.7223C395.998 28.9311 395.702 29.2358 395.485 29.6364C395.267 30.0369 395.159 30.5227 395.159 31.0938ZM407.069 37.2301C406.447 37.2301 405.882 37.1129 405.375 36.8786C404.868 36.6399 404.465 36.2969 404.167 35.8494C403.868 35.3977 403.719 34.8523 403.719 34.2131C403.719 33.6506 403.83 33.1946 404.052 32.8452C404.273 32.4915 404.569 32.2145 404.94 32.0142C405.311 31.8139 405.72 31.6648 406.167 31.5668C406.619 31.4645 407.073 31.3835 407.529 31.3239C408.126 31.2472 408.609 31.1896 408.98 31.1513C409.355 31.1087 409.628 31.0384 409.798 30.9403C409.973 30.8423 410.06 30.6719 410.06 30.429V30.3778C410.06 29.7472 409.888 29.2571 409.542 28.9077C409.202 28.5582 408.684 28.3835 407.989 28.3835C407.269 28.3835 406.704 28.5412 406.295 28.8565C405.886 29.1719 405.599 29.5085 405.432 29.8665L404.001 29.3551C404.256 28.7585 404.597 28.294 405.023 27.9616C405.454 27.625 405.922 27.3906 406.43 27.2585C406.941 27.1222 407.444 27.054 407.938 27.054C408.253 27.054 408.616 27.0923 409.025 27.169C409.438 27.2415 409.836 27.3928 410.22 27.6229C410.608 27.853 410.93 28.2003 411.185 28.6648C411.441 29.1293 411.569 29.7514 411.569 30.5312V37H410.06V35.6705H409.983C409.881 35.8835 409.711 36.1115 409.472 36.3544C409.233 36.5973 408.916 36.804 408.52 36.9744C408.123 37.1449 407.64 37.2301 407.069 37.2301ZM407.299 35.875C407.895 35.875 408.398 35.7578 408.807 35.5234C409.221 35.2891 409.532 34.9865 409.741 34.6158C409.954 34.245 410.06 33.8551 410.06 33.446V32.0653C409.996 32.142 409.856 32.2124 409.638 32.2763C409.425 32.3359 409.178 32.3892 408.897 32.4361C408.62 32.4787 408.349 32.517 408.085 32.5511C407.825 32.581 407.614 32.6065 407.452 32.6278C407.06 32.679 406.694 32.7621 406.353 32.8771C406.016 32.9879 405.743 33.1562 405.535 33.3821C405.33 33.6037 405.228 33.9062 405.228 34.2898C405.228 34.8139 405.422 35.2102 405.809 35.4787C406.202 35.7429 406.698 35.875 407.299 35.875ZM418.285 40.8864C417.556 40.8864 416.93 40.7926 416.406 40.6051C415.882 40.4219 415.445 40.179 415.096 39.8764C414.75 39.5781 414.475 39.2585 414.271 38.9176L415.473 38.0739C415.609 38.2528 415.782 38.4574 415.99 38.6875C416.199 38.9219 416.485 39.1243 416.847 39.2947C417.213 39.4695 417.693 39.5568 418.285 39.5568C419.078 39.5568 419.732 39.3651 420.248 38.9815C420.763 38.598 421.021 37.9972 421.021 37.179V35.1847H420.893C420.782 35.3636 420.625 35.5852 420.42 35.8494C420.22 36.1094 419.93 36.3416 419.551 36.5462C419.176 36.7464 418.669 36.8466 418.029 36.8466C417.237 36.8466 416.525 36.6591 415.895 36.2841C415.268 35.9091 414.772 35.3636 414.405 34.6477C414.043 33.9318 413.862 33.0625 413.862 32.0398C413.862 31.0341 414.039 30.1584 414.392 29.4126C414.746 28.6626 415.238 28.0831 415.869 27.674C416.5 27.2607 417.228 27.054 418.055 27.054C418.694 27.054 419.201 27.1605 419.576 27.3736C419.956 27.5824 420.245 27.821 420.446 28.0895C420.65 28.3537 420.808 28.571 420.919 28.7415H421.072V27.1818H422.529V37.2812C422.529 38.125 422.338 38.8111 421.954 39.3395C421.575 39.8722 421.064 40.2621 420.42 40.5092C419.781 40.7607 419.069 40.8864 418.285 40.8864ZM418.234 35.4915C418.839 35.4915 419.35 35.353 419.768 35.076C420.186 34.799 420.503 34.4006 420.721 33.8807C420.938 33.3608 421.047 32.7386 421.047 32.0142C421.047 31.3068 420.94 30.6825 420.727 30.1413C420.514 29.6001 420.199 29.1761 419.781 28.8693C419.363 28.5625 418.848 28.4091 418.234 28.4091C417.595 28.4091 417.062 28.571 416.636 28.8949C416.214 29.2187 415.897 29.6534 415.684 30.1989C415.475 30.7443 415.37 31.3494 415.37 32.0142C415.37 32.696 415.477 33.299 415.69 33.8232C415.907 34.343 416.227 34.7521 416.649 35.0504C417.075 35.3445 417.603 35.4915 418.234 35.4915ZM429.407 37.2045C428.461 37.2045 427.645 36.9957 426.959 36.5781C426.277 36.1562 425.751 35.5682 425.38 34.8139C425.014 34.0554 424.831 33.1733 424.831 32.1676C424.831 31.1619 425.014 30.2756 425.38 29.5085C425.751 28.7372 426.267 28.1364 426.927 27.706C427.592 27.2713 428.368 27.054 429.254 27.054C429.765 27.054 430.27 27.1392 430.769 27.3097C431.267 27.4801 431.721 27.7571 432.13 28.1406C432.539 28.5199 432.865 29.0227 433.108 29.6491C433.351 30.2756 433.473 31.0469 433.473 31.9631V32.6023H425.904V31.2983H431.939C431.939 30.7443 431.828 30.25 431.606 29.8153C431.389 29.3807 431.078 29.0376 430.673 28.7862C430.272 28.5348 429.799 28.4091 429.254 28.4091C428.653 28.4091 428.133 28.5582 427.694 28.8565C427.26 29.1506 426.925 29.5341 426.691 30.0071C426.456 30.4801 426.339 30.9872 426.339 31.5284V32.3977C426.339 33.1392 426.467 33.7678 426.723 34.2834C426.983 34.7947 427.343 35.1847 427.803 35.4531C428.263 35.7173 428.798 35.8494 429.407 35.8494C429.804 35.8494 430.162 35.794 430.481 35.6832C430.805 35.5682 431.084 35.3977 431.319 35.1719C431.553 34.9418 431.734 34.6562 431.862 34.3153L433.319 34.7244C433.166 35.2188 432.908 35.6534 432.546 36.0284C432.184 36.3991 431.736 36.6889 431.203 36.8977C430.671 37.1023 430.072 37.2045 429.407 37.2045ZM435.767 37V27.1818H437.225V28.7159H437.353C437.557 28.1918 437.887 27.7848 438.343 27.495C438.799 27.201 439.347 27.054 439.986 27.054C440.634 27.054 441.173 27.201 441.603 27.495C442.038 27.7848 442.377 28.1918 442.62 28.7159H442.722C442.973 28.2088 443.35 27.8061 443.853 27.5078C444.356 27.2053 444.959 27.054 445.662 27.054C446.54 27.054 447.258 27.3288 447.816 27.8786C448.375 28.424 448.654 29.2741 448.654 30.429V37H447.145V30.429C447.145 29.7045 446.947 29.1868 446.551 28.8757C446.154 28.5646 445.688 28.4091 445.151 28.4091C444.461 28.4091 443.926 28.6179 443.547 29.0355C443.167 29.4489 442.978 29.973 442.978 30.608V37H441.444V30.2756C441.444 29.7173 441.262 29.2678 440.9 28.9268C440.538 28.5817 440.071 28.4091 439.5 28.4091C439.108 28.4091 438.742 28.5135 438.401 28.7223C438.064 28.9311 437.792 29.2209 437.583 29.5916C437.378 29.9581 437.276 30.3821 437.276 30.8636V37H435.767ZM455.528 37.2045C454.582 37.2045 453.766 36.9957 453.08 36.5781C452.398 36.1562 451.872 35.5682 451.501 34.8139C451.135 34.0554 450.952 33.1733 450.952 32.1676C450.952 31.1619 451.135 30.2756 451.501 29.5085C451.872 28.7372 452.388 28.1364 453.048 27.706C453.713 27.2713 454.489 27.054 455.375 27.054C455.886 27.054 456.391 27.1392 456.89 27.3097C457.388 27.4801 457.842 27.7571 458.251 28.1406C458.661 28.5199 458.987 29.0227 459.229 29.6491C459.472 30.2756 459.594 31.0469 459.594 31.9631V32.6023H452.026V31.2983H458.06C458.06 30.7443 457.949 30.25 457.727 29.8153C457.51 29.3807 457.199 29.0376 456.794 28.7862C456.393 28.5348 455.92 28.4091 455.375 28.4091C454.774 28.4091 454.254 28.5582 453.815 28.8565C453.381 29.1506 453.046 29.5341 452.812 30.0071C452.577 30.4801 452.46 30.9872 452.46 31.5284V32.3977C452.46 33.1392 452.588 33.7678 452.844 34.2834C453.104 34.7947 453.464 35.1847 453.924 35.4531C454.384 35.7173 454.919 35.8494 455.528 35.8494C455.925 35.8494 456.283 35.794 456.602 35.6832C456.926 35.5682 457.205 35.3977 457.44 35.1719C457.674 34.9418 457.855 34.6562 457.983 34.3153L459.44 34.7244C459.287 35.2188 459.029 35.6534 458.667 36.0284C458.305 36.3991 457.857 36.6889 457.325 36.8977C456.792 37.1023 456.193 37.2045 455.528 37.2045ZM463.397 31.0938V37H461.888V27.1818H463.346V28.7159H463.474C463.704 28.2173 464.053 27.8168 464.522 27.5142C464.991 27.2074 465.596 27.054 466.337 27.054C467.002 27.054 467.584 27.1903 468.082 27.4631C468.581 27.7315 468.969 28.1406 469.246 28.6903C469.523 29.2358 469.661 29.9261 469.661 30.7614V37H468.153V30.8636C468.153 30.0923 467.952 29.4915 467.552 29.0611C467.151 28.6264 466.602 28.4091 465.903 28.4091C465.421 28.4091 464.991 28.5135 464.612 28.7223C464.237 28.9311 463.94 29.2358 463.723 29.6364C463.506 30.0369 463.397 30.5227 463.397 31.0938ZM476.688 27.1818V28.4602H471.6V27.1818H476.688ZM473.083 24.8295H474.591V34.1875C474.591 34.6136 474.653 34.9332 474.776 35.1463C474.904 35.3551 475.066 35.4957 475.262 35.5682C475.463 35.6364 475.673 35.6705 475.895 35.6705C476.061 35.6705 476.198 35.6619 476.304 35.6449C476.411 35.6236 476.496 35.6065 476.56 35.5938L476.867 36.9489C476.764 36.9872 476.622 37.0256 476.438 37.0639C476.255 37.1065 476.023 37.1278 475.742 37.1278C475.316 37.1278 474.898 37.0362 474.489 36.853C474.084 36.6697 473.747 36.3906 473.479 36.0156C473.215 35.6406 473.083 35.1676 473.083 34.5966V24.8295Z" fill="white"/>
<path d="M537.085 37V23.9091H541.509C542.531 23.9091 543.371 24.0838 544.027 24.4332C544.683 24.7784 545.169 25.2536 545.484 25.8587C545.8 26.4638 545.957 27.152 545.957 27.9233C545.957 28.6946 545.8 29.3786 545.484 29.9751C545.169 30.5717 544.685 31.0405 544.033 31.3814C543.381 31.718 542.548 31.8864 541.534 31.8864H537.955V30.4545H541.483C542.182 30.4545 542.744 30.3523 543.17 30.1477C543.601 29.9432 543.912 29.6534 544.104 29.2784C544.3 28.8991 544.398 28.4474 544.398 27.9233C544.398 27.3991 544.3 26.9411 544.104 26.549C543.908 26.157 543.594 25.8544 543.164 25.6413C542.734 25.424 542.165 25.3153 541.457 25.3153H538.67V37H537.085ZM543.247 31.1193L546.469 37H544.628L541.457 31.1193H543.247ZM552.405 37.2045C551.459 37.2045 550.643 36.9957 549.957 36.5781C549.275 36.1562 548.749 35.5682 548.378 34.8139C548.012 34.0554 547.829 33.1733 547.829 32.1676C547.829 31.1619 548.012 30.2756 548.378 29.5085C548.749 28.7372 549.265 28.1364 549.925 27.706C550.59 27.2713 551.366 27.054 552.252 27.054C552.763 27.054 553.268 27.1392 553.767 27.3097C554.265 27.4801 554.719 27.7571 555.128 28.1406C555.537 28.5199 555.863 29.0227 556.106 29.6491C556.349 30.2756 556.471 31.0469 556.471 31.9631V32.6023H548.903V31.2983H554.937C554.937 30.7443 554.826 30.25 554.604 29.8153C554.387 29.3807 554.076 29.0376 553.671 28.7862C553.27 28.5348 552.797 28.4091 552.252 28.4091C551.651 28.4091 551.131 28.5582 550.692 28.8565C550.258 29.1506 549.923 29.5341 549.689 30.0071C549.454 30.4801 549.337 30.9872 549.337 31.5284V32.3977C549.337 33.1392 549.465 33.7678 549.721 34.2834C549.981 34.7947 550.341 35.1847 550.801 35.4531C551.261 35.7173 551.796 35.8494 552.405 35.8494C552.802 35.8494 553.16 35.794 553.479 35.6832C553.803 35.5682 554.082 35.3977 554.317 35.1719C554.551 34.9418 554.732 34.6562 554.86 34.3153L556.317 34.7244C556.164 35.2188 555.906 35.6534 555.544 36.0284C555.182 36.3991 554.734 36.6889 554.202 36.8977C553.669 37.1023 553.07 37.2045 552.405 37.2045ZM558.765 40.6818V27.1818H560.223V28.7415H560.402C560.513 28.571 560.666 28.3537 560.862 28.0895C561.062 27.821 561.348 27.5824 561.719 27.3736C562.094 27.1605 562.601 27.054 563.24 27.054C564.067 27.054 564.795 27.2607 565.426 27.674C566.057 28.0874 566.549 28.6733 566.903 29.4318C567.256 30.1903 567.433 31.0852 567.433 32.1165C567.433 33.1562 567.256 34.0575 566.903 34.8203C566.549 35.5788 566.059 36.1669 565.432 36.5845C564.806 36.9979 564.084 37.2045 563.265 37.2045C562.635 37.2045 562.13 37.1001 561.751 36.8913C561.371 36.6783 561.079 36.4375 560.875 36.169C560.67 35.8963 560.513 35.6705 560.402 35.4915H560.274V40.6818H558.765ZM560.248 32.0909C560.248 32.8324 560.357 33.4865 560.574 34.0533C560.792 34.6158 561.109 35.0568 561.527 35.3764C561.944 35.6918 562.456 35.8494 563.061 35.8494C563.692 35.8494 564.218 35.6832 564.64 35.3509C565.066 35.0142 565.385 34.5625 565.599 33.9957C565.816 33.4247 565.925 32.7898 565.925 32.0909C565.925 31.4006 565.818 30.7784 565.605 30.2244C565.396 29.6662 565.079 29.2251 564.653 28.9013C564.231 28.5732 563.7 28.4091 563.061 28.4091C562.447 28.4091 561.932 28.5646 561.514 28.8757C561.096 29.1825 560.781 29.6129 560.568 30.1669C560.355 30.7166 560.248 31.358 560.248 32.0909ZM573.723 37.2045C572.836 37.2045 572.059 36.9936 571.39 36.5717C570.725 36.1499 570.205 35.5597 569.83 34.8011C569.459 34.0426 569.274 33.1562 569.274 32.142C569.274 31.1193 569.459 30.2266 569.83 29.4638C570.205 28.701 570.725 28.1087 571.39 27.6868C572.059 27.2649 572.836 27.054 573.723 27.054C574.609 27.054 575.385 27.2649 576.05 27.6868C576.719 28.1087 577.238 28.701 577.609 29.4638C577.984 30.2266 578.172 31.1193 578.172 32.142C578.172 33.1562 577.984 34.0426 577.609 34.8011C577.238 35.5597 576.719 36.1499 576.05 36.5717C575.385 36.9936 574.609 37.2045 573.723 37.2045ZM573.723 35.8494C574.396 35.8494 574.95 35.6768 575.385 35.3317C575.819 34.9865 576.141 34.5327 576.35 33.9702C576.559 33.4077 576.663 32.7983 576.663 32.142C576.663 31.4858 576.559 30.8743 576.35 30.3075C576.141 29.7408 575.819 29.2827 575.385 28.9332C574.95 28.5838 574.396 28.4091 573.723 28.4091C573.05 28.4091 572.496 28.5838 572.061 28.9332C571.626 29.2827 571.305 29.7408 571.096 30.3075C570.887 30.8743 570.782 31.4858 570.782 32.142C570.782 32.7983 570.887 33.4077 571.096 33.9702C571.305 34.5327 571.626 34.9865 572.061 35.3317C572.496 35.6768 573.05 35.8494 573.723 35.8494ZM580.474 37V27.1818H581.932V28.6648H582.034C582.213 28.179 582.537 27.7848 583.006 27.4822C583.474 27.1797 584.003 27.0284 584.591 27.0284C584.702 27.0284 584.84 27.0305 585.006 27.0348C585.173 27.0391 585.298 27.0455 585.384 27.054V28.5881C585.332 28.5753 585.215 28.5561 585.032 28.5305C584.853 28.5007 584.663 28.4858 584.463 28.4858C583.986 28.4858 583.56 28.5859 583.185 28.7862C582.814 28.9822 582.52 29.255 582.303 29.6044C582.089 29.9496 581.983 30.3437 581.983 30.7869V37H580.474ZM592.057 27.1818V28.4602H586.969V27.1818H592.057ZM588.452 24.8295H589.96V34.1875C589.96 34.6136 590.022 34.9332 590.146 35.1463C590.273 35.3551 590.435 35.4957 590.631 35.5682C590.832 35.6364 591.043 35.6705 591.264 35.6705C591.43 35.6705 591.567 35.6619 591.673 35.6449C591.78 35.6236 591.865 35.6065 591.929 35.5938L592.236 36.9489C592.134 36.9872 591.991 37.0256 591.808 37.0639C591.624 37.1065 591.392 37.1278 591.111 37.1278C590.685 37.1278 590.267 37.0362 589.858 36.853C589.453 36.6697 589.116 36.3906 588.848 36.0156C588.584 35.6406 588.452 35.1676 588.452 34.5966V24.8295ZM594.326 37V27.1818H595.835V37H594.326ZM595.093 25.5455C594.799 25.5455 594.545 25.4453 594.332 25.245C594.124 25.0447 594.019 24.804 594.019 24.5227C594.019 24.2415 594.124 24.0007 594.332 23.8004C594.545 23.6001 594.799 23.5 595.093 23.5C595.387 23.5 595.638 23.6001 595.847 23.8004C596.06 24.0007 596.167 24.2415 596.167 24.5227C596.167 24.804 596.06 25.0447 595.847 25.245C595.638 25.4453 595.387 25.5455 595.093 25.5455ZM600.106 31.0938V37H598.597V27.1818H600.055V28.7159H600.183C600.413 28.2173 600.762 27.8168 601.231 27.5142C601.7 27.2074 602.305 27.054 603.046 27.054C603.711 27.054 604.293 27.1903 604.791 27.4631C605.29 27.7315 605.678 28.1406 605.955 28.6903C606.232 29.2358 606.37 29.9261 606.37 30.7614V37H604.862V30.8636C604.862 30.0923 604.661 29.4915 604.261 29.0611C603.86 28.6264 603.311 28.4091 602.612 28.4091C602.13 28.4091 601.7 28.5135 601.32 28.7223C600.945 28.9311 600.649 29.2358 600.432 29.6364C600.215 30.0369 600.106 30.5227 600.106 31.0938ZM613.09 40.8864C612.361 40.8864 611.735 40.7926 611.211 40.6051C610.686 40.4219 610.25 40.179 609.9 39.8764C609.555 39.5781 609.28 39.2585 609.076 38.9176L610.277 38.0739C610.414 38.2528 610.586 38.4574 610.795 38.6875C611.004 38.9219 611.289 39.1243 611.652 39.2947C612.018 39.4695 612.498 39.5568 613.09 39.5568C613.882 39.5568 614.537 39.3651 615.052 38.9815C615.568 38.598 615.826 37.9972 615.826 37.179V35.1847H615.698C615.587 35.3636 615.429 35.5852 615.225 35.8494C615.025 36.1094 614.735 36.3416 614.355 36.5462C613.98 36.7464 613.473 36.8466 612.834 36.8466C612.042 36.8466 611.33 36.6591 610.699 36.2841C610.073 35.9091 609.576 35.3636 609.21 34.6477C608.848 33.9318 608.667 33.0625 608.667 32.0398C608.667 31.0341 608.843 30.1584 609.197 29.4126C609.551 28.6626 610.043 28.0831 610.674 27.674C611.304 27.2607 612.033 27.054 612.86 27.054C613.499 27.054 614.006 27.1605 614.381 27.3736C614.76 27.5824 615.05 27.821 615.25 28.0895C615.455 28.3537 615.613 28.571 615.723 28.7415H615.877V27.1818H617.334V37.2812C617.334 38.125 617.142 38.8111 616.759 39.3395C616.38 39.8722 615.868 40.2621 615.225 40.5092C614.586 40.7607 613.874 40.8864 613.09 40.8864ZM613.039 35.4915C613.644 35.4915 614.155 35.353 614.573 35.076C614.99 34.799 615.308 34.4006 615.525 33.8807C615.743 33.3608 615.851 32.7386 615.851 32.0142C615.851 31.3068 615.745 30.6825 615.532 30.1413C615.319 29.6001 615.003 29.1761 614.586 28.8693C614.168 28.5625 613.652 28.4091 613.039 28.4091C612.4 28.4091 611.867 28.571 611.441 28.8949C611.019 29.2187 610.701 29.6534 610.488 30.1989C610.279 30.7443 610.175 31.3494 610.175 32.0142C610.175 32.696 610.282 33.299 610.495 33.8232C610.712 34.343 611.032 34.7521 611.453 35.0504C611.88 35.3445 612.408 35.4915 613.039 35.4915ZM628.865 37.179C628.005 37.179 627.263 37.0213 626.641 36.706C626.019 36.3906 625.539 35.9581 625.203 35.4084C624.866 34.8587 624.698 34.2301 624.698 33.5227C624.698 32.9773 624.813 32.4936 625.043 32.0717C625.277 31.6456 625.599 31.2514 626.008 30.8892C626.422 30.5227 626.897 30.1562 627.434 29.7898L629.326 28.3835C629.696 28.1406 629.993 27.8807 630.214 27.6037C630.44 27.3267 630.553 26.9645 630.553 26.517C630.553 26.1847 630.406 25.8629 630.112 25.5518C629.822 25.2408 629.441 25.0852 628.968 25.0852C628.635 25.0852 628.341 25.1705 628.086 25.3409C627.834 25.5071 627.636 25.7202 627.491 25.9801C627.35 26.2358 627.28 26.5 627.28 26.7727C627.28 27.0795 627.363 27.3906 627.529 27.706C627.7 28.017 627.915 28.3366 628.175 28.6648C628.439 28.9886 628.712 29.321 628.993 29.6619L635.002 37H633.186L628.226 31.017C627.766 30.4631 627.348 29.9602 626.973 29.5085C626.598 29.0568 626.3 28.6115 626.078 28.1726C625.857 27.7337 625.746 27.2585 625.746 26.7472C625.746 26.1591 625.876 25.6435 626.136 25.2003C626.4 24.7528 626.769 24.4055 627.242 24.1584C627.719 23.907 628.277 23.7812 628.917 23.7812C629.573 23.7812 630.137 23.9091 630.61 24.1648C631.083 24.4162 631.448 24.7507 631.703 25.1683C631.959 25.5817 632.087 26.0312 632.087 26.517C632.087 27.1435 631.931 27.6868 631.62 28.147C631.309 28.6072 630.885 29.0355 630.348 29.4318L627.74 31.375C627.152 31.8097 626.754 32.2315 626.545 32.6406C626.336 33.0497 626.232 33.3437 626.232 33.5227C626.232 33.9318 626.338 34.3132 626.551 34.6669C626.765 35.0206 627.065 35.3061 627.453 35.5234C627.841 35.7408 628.294 35.8494 628.814 35.8494C629.309 35.8494 629.79 35.745 630.259 35.5362C630.728 35.3232 631.152 35.0163 631.531 34.6158C631.914 34.2152 632.217 33.7337 632.439 33.1712C632.664 32.6087 632.777 31.9759 632.777 31.2727H634.235C634.235 32.142 634.135 32.8516 633.934 33.4013C633.734 33.951 633.508 34.3814 633.257 34.6925C633.005 35.0036 632.803 35.2358 632.65 35.3892C632.598 35.4531 632.551 35.517 632.509 35.581C632.466 35.6449 632.419 35.7088 632.368 35.7727C631.946 36.2457 631.414 36.5994 630.77 36.8338C630.127 37.0639 629.492 37.179 628.865 37.179ZM641.939 37V23.9091H646.515C647.427 23.9091 648.18 24.0668 648.772 24.3821C649.364 24.6932 649.805 25.1129 650.095 25.6413C650.385 26.1655 650.53 26.7472 650.53 27.3864C650.53 27.9489 650.43 28.4134 650.229 28.7798C650.033 29.1463 649.773 29.4361 649.449 29.6491C649.13 29.8622 648.782 30.0199 648.407 30.1222V30.25C648.808 30.2756 649.211 30.4162 649.616 30.6719C650.02 30.9276 650.359 31.294 650.632 31.7713C650.905 32.2486 651.041 32.8324 651.041 33.5227C651.041 34.179 650.892 34.7692 650.594 35.2933C650.295 35.8175 649.824 36.233 649.181 36.5398C648.537 36.8466 647.7 37 646.669 37H641.939ZM643.524 35.5938H646.669C647.704 35.5938 648.439 35.3935 648.874 34.9929C649.313 34.5881 649.532 34.098 649.532 33.5227C649.532 33.0795 649.42 32.6705 649.194 32.2955C648.968 31.9162 648.646 31.6136 648.229 31.3878C647.811 31.1577 647.317 31.0426 646.746 31.0426H643.524V35.5938ZM643.524 29.6619H646.464C646.942 29.6619 647.372 29.5682 647.756 29.3807C648.143 29.1932 648.45 28.929 648.676 28.5881C648.906 28.2472 649.021 27.8466 649.021 27.3864C649.021 26.8111 648.821 26.3232 648.42 25.9226C648.02 25.5178 647.385 25.3153 646.515 25.3153H643.524V29.6619ZM659.629 32.9858V27.1818H661.137V37H659.629V35.3381H659.526C659.296 35.8366 658.938 36.2607 658.453 36.6101C657.967 36.9553 657.353 37.1278 656.612 37.1278C655.998 37.1278 655.453 36.9936 654.975 36.7251C654.498 36.4524 654.123 36.0433 653.85 35.4979C653.578 34.9482 653.441 34.2557 653.441 33.4205V27.1818H654.95V33.3182C654.95 34.0341 655.15 34.6051 655.551 35.0312C655.955 35.4574 656.471 35.6705 657.097 35.6705C657.472 35.6705 657.854 35.5746 658.242 35.3828C658.634 35.1911 658.962 34.897 659.226 34.5007C659.494 34.1044 659.629 33.5994 659.629 32.9858ZM670.855 29.3807L669.5 29.7642C669.414 29.5384 669.289 29.3189 669.123 29.1058C668.961 28.8885 668.739 28.7095 668.458 28.5689C668.176 28.4283 667.816 28.358 667.377 28.358C666.777 28.358 666.276 28.4964 665.875 28.7734C665.479 29.0462 665.281 29.3935 665.281 29.8153C665.281 30.1903 665.417 30.4865 665.69 30.7038C665.963 30.9212 666.389 31.1023 666.968 31.2472L668.426 31.6051C669.304 31.8182 669.958 32.1442 670.388 32.5831C670.819 33.0178 671.034 33.5781 671.034 34.2642C671.034 34.8267 670.872 35.3295 670.548 35.7727C670.228 36.2159 669.781 36.5653 669.206 36.821C668.63 37.0767 667.961 37.2045 667.199 37.2045C666.197 37.2045 665.368 36.9872 664.712 36.5526C664.056 36.1179 663.64 35.483 663.466 34.6477L664.897 34.2898C665.034 34.8182 665.292 35.2145 665.671 35.4787C666.054 35.7429 666.555 35.875 667.173 35.875C667.876 35.875 668.434 35.7259 668.848 35.4276C669.265 35.125 669.474 34.7628 669.474 34.3409C669.474 34 669.355 33.7145 669.116 33.4844C668.877 33.25 668.511 33.0753 668.017 32.9602L666.38 32.5767C665.481 32.3636 664.821 32.0334 664.399 31.5859C663.981 31.1342 663.772 30.5696 663.772 29.892C663.772 29.3381 663.928 28.848 664.239 28.4219C664.554 27.9957 664.983 27.6612 665.524 27.4183C666.069 27.1754 666.687 27.054 667.377 27.054C668.349 27.054 669.112 27.267 669.666 27.6932C670.224 28.1193 670.62 28.6818 670.855 29.3807ZM673.305 37V27.1818H674.813V37H673.305ZM674.072 25.5455C673.778 25.5455 673.524 25.4453 673.311 25.245C673.102 25.0447 672.998 24.804 672.998 24.5227C672.998 24.2415 673.102 24.0007 673.311 23.8004C673.524 23.6001 673.778 23.5 674.072 23.5C674.366 23.5 674.617 23.6001 674.826 23.8004C675.039 24.0007 675.145 24.2415 675.145 24.5227C675.145 24.804 675.039 25.0447 674.826 25.245C674.617 25.4453 674.366 25.5455 674.072 25.5455ZM679.085 31.0938V37H677.576V27.1818H679.033V28.7159H679.161C679.391 28.2173 679.741 27.8168 680.21 27.5142C680.678 27.2074 681.283 27.054 682.025 27.054C682.69 27.054 683.271 27.1903 683.77 27.4631C684.268 27.7315 684.656 28.1406 684.933 28.6903C685.21 29.2358 685.349 29.9261 685.349 30.7614V37H683.84V30.8636C683.84 30.0923 683.64 29.4915 683.239 29.0611C682.839 28.6264 682.289 28.4091 681.59 28.4091C681.109 28.4091 680.678 28.5135 680.299 28.7223C679.924 28.9311 679.628 29.2358 679.411 29.6364C679.193 30.0369 679.085 30.5227 679.085 31.0938ZM692.222 37.2045C691.276 37.2045 690.46 36.9957 689.774 36.5781C689.092 36.1562 688.566 35.5682 688.195 34.8139C687.828 34.0554 687.645 33.1733 687.645 32.1676C687.645 31.1619 687.828 30.2756 688.195 29.5085C688.566 28.7372 689.081 28.1364 689.742 27.706C690.406 27.2713 691.182 27.054 692.068 27.054C692.58 27.054 693.085 27.1392 693.583 27.3097C694.082 27.4801 694.536 27.7571 694.945 28.1406C695.354 28.5199 695.68 29.0227 695.923 29.6491C696.166 30.2756 696.287 31.0469 696.287 31.9631V32.6023H688.719V31.2983H694.753C694.753 30.7443 694.642 30.25 694.421 29.8153C694.203 29.3807 693.892 29.0376 693.487 28.7862C693.087 28.5348 692.614 28.4091 692.068 28.4091C691.468 28.4091 690.948 28.5582 690.509 28.8565C690.074 29.1506 689.74 29.5341 689.505 30.0071C689.271 30.4801 689.154 30.9872 689.154 31.5284V32.3977C689.154 33.1392 689.281 33.7678 689.537 34.2834C689.797 34.7947 690.157 35.1847 690.617 35.4531C691.078 35.7173 691.612 35.8494 692.222 35.8494C692.618 35.8494 692.976 35.794 693.296 35.6832C693.619 35.5682 693.899 35.3977 694.133 35.1719C694.367 34.9418 694.548 34.6562 694.676 34.3153L696.134 34.7244C695.98 35.2188 695.722 35.6534 695.36 36.0284C694.998 36.3991 694.551 36.6889 694.018 36.8977C693.485 37.1023 692.887 37.2045 692.222 37.2045ZM705.536 29.3807L704.181 29.7642C704.096 29.5384 703.97 29.3189 703.804 29.1058C703.642 28.8885 703.421 28.7095 703.139 28.5689C702.858 28.4283 702.498 28.358 702.059 28.358C701.458 28.358 700.958 28.4964 700.557 28.7734C700.161 29.0462 699.963 29.3935 699.963 29.8153C699.963 30.1903 700.099 30.4865 700.372 30.7038C700.644 30.9212 701.07 31.1023 701.65 31.2472L703.107 31.6051C703.985 31.8182 704.639 32.1442 705.07 32.5831C705.5 33.0178 705.715 33.5781 705.715 34.2642C705.715 34.8267 705.553 35.3295 705.23 35.7727C704.91 36.2159 704.463 36.5653 703.887 36.821C703.312 37.0767 702.643 37.2045 701.88 37.2045C700.879 37.2045 700.05 36.9872 699.394 36.5526C698.737 36.1179 698.322 35.483 698.147 34.6477L699.579 34.2898C699.715 34.8182 699.973 35.2145 700.352 35.4787C700.736 35.7429 701.237 35.875 701.855 35.875C702.558 35.875 703.116 35.7259 703.529 35.4276C703.947 35.125 704.156 34.7628 704.156 34.3409C704.156 34 704.036 33.7145 703.798 33.4844C703.559 33.25 703.193 33.0753 702.698 32.9602L701.062 32.5767C700.163 32.3636 699.502 32.0334 699.08 31.5859C698.663 31.1342 698.454 30.5696 698.454 29.892C698.454 29.3381 698.61 28.848 698.921 28.4219C699.236 27.9957 699.664 27.6612 700.205 27.4183C700.751 27.1754 701.369 27.054 702.059 27.054C703.031 27.054 703.794 27.267 704.347 27.6932C704.906 28.1193 705.302 28.6818 705.536 29.3807ZM714.941 29.3807L713.586 29.7642C713.5 29.5384 713.375 29.3189 713.208 29.1058C713.047 28.8885 712.825 28.7095 712.544 28.5689C712.262 28.4283 711.902 28.358 711.463 28.358C710.863 28.358 710.362 28.4964 709.961 28.7734C709.565 29.0462 709.367 29.3935 709.367 29.8153C709.367 30.1903 709.503 30.4865 709.776 30.7038C710.049 30.9212 710.475 31.1023 711.054 31.2472L712.512 31.6051C713.39 31.8182 714.044 32.1442 714.474 32.5831C714.904 33.0178 715.12 33.5781 715.12 34.2642C715.12 34.8267 714.958 35.3295 714.634 35.7727C714.314 36.2159 713.867 36.5653 713.292 36.821C712.716 37.0767 712.047 37.2045 711.284 37.2045C710.283 37.2045 709.454 36.9872 708.798 36.5526C708.142 36.1179 707.726 35.483 707.551 34.6477L708.983 34.2898C709.12 34.8182 709.377 35.2145 709.757 35.4787C710.14 35.7429 710.641 35.875 711.259 35.875C711.962 35.875 712.52 35.7259 712.934 35.4276C713.351 35.125 713.56 34.7628 713.56 34.3409C713.56 34 713.441 33.7145 713.202 33.4844C712.963 33.25 712.597 33.0753 712.103 32.9602L710.466 32.5767C709.567 32.3636 708.907 32.0334 708.485 31.5859C708.067 31.1342 707.858 30.5696 707.858 29.892C707.858 29.3381 708.014 28.848 708.325 28.4219C708.64 27.9957 709.069 27.6612 709.61 27.4183C710.155 27.1754 710.773 27.054 711.463 27.054C712.435 27.054 713.198 27.267 713.752 27.6932C714.31 28.1193 714.706 28.6818 714.941 29.3807ZM724.243 23.9091V37H722.657V23.9091H724.243ZM728.725 31.0938V37H727.217V27.1818H728.674V28.7159H728.802C729.032 28.2173 729.381 27.8168 729.85 27.5142C730.319 27.2074 730.924 27.054 731.665 27.054C732.33 27.054 732.912 27.1903 733.411 27.4631C733.909 27.7315 734.297 28.1406 734.574 28.6903C734.851 29.2358 734.989 29.9261 734.989 30.7614V37H733.481V30.8636C733.481 30.0923 733.281 29.4915 732.88 29.0611C732.479 28.6264 731.93 28.4091 731.231 28.4091C730.749 28.4091 730.319 28.5135 729.94 28.7223C729.565 28.9311 729.268 29.2358 729.051 29.6364C728.834 30.0369 728.725 30.5227 728.725 31.0938ZM744.7 29.3807L743.345 29.7642C743.26 29.5384 743.134 29.3189 742.968 29.1058C742.806 28.8885 742.585 28.7095 742.303 28.5689C742.022 28.4283 741.662 28.358 741.223 28.358C740.622 28.358 740.122 28.4964 739.721 28.7734C739.325 29.0462 739.127 29.3935 739.127 29.8153C739.127 30.1903 739.263 30.4865 739.536 30.7038C739.808 30.9212 740.235 31.1023 740.814 31.2472L742.271 31.6051C743.149 31.8182 743.803 32.1442 744.234 32.5831C744.664 33.0178 744.879 33.5781 744.879 34.2642C744.879 34.8267 744.718 35.3295 744.394 35.7727C744.074 36.2159 743.627 36.5653 743.051 36.821C742.476 37.0767 741.807 37.2045 741.044 37.2045C740.043 37.2045 739.214 36.9872 738.558 36.5526C737.901 36.1179 737.486 35.483 737.311 34.6477L738.743 34.2898C738.879 34.8182 739.137 35.2145 739.517 35.4787C739.9 35.7429 740.401 35.875 741.019 35.875C741.722 35.875 742.28 35.7259 742.693 35.4276C743.111 35.125 743.32 34.7628 743.32 34.3409C743.32 34 743.2 33.7145 742.962 33.4844C742.723 33.25 742.357 33.0753 741.862 32.9602L740.226 32.5767C739.327 32.3636 738.666 32.0334 738.244 31.5859C737.827 31.1342 737.618 30.5696 737.618 29.892C737.618 29.3381 737.774 28.848 738.085 28.4219C738.4 27.9957 738.828 27.6612 739.369 27.4183C739.915 27.1754 740.533 27.054 741.223 27.054C742.195 27.054 742.958 27.267 743.512 27.6932C744.07 28.1193 744.466 28.6818 744.7 29.3807ZM747.15 37V27.1818H748.659V37H747.15ZM747.917 25.5455C747.623 25.5455 747.37 25.4453 747.157 25.245C746.948 25.0447 746.843 24.804 746.843 24.5227C746.843 24.2415 746.948 24.0007 747.157 23.8004C747.37 23.6001 747.623 23.5 747.917 23.5C748.211 23.5 748.463 23.6001 748.672 23.8004C748.885 24.0007 748.991 24.2415 748.991 24.5227C748.991 24.804 748.885 25.0447 748.672 25.245C748.463 25.4453 748.211 25.5455 747.917 25.5455ZM755.385 40.8864C754.656 40.8864 754.03 40.7926 753.506 40.6051C752.981 40.4219 752.545 40.179 752.195 39.8764C751.85 39.5781 751.575 39.2585 751.371 38.9176L752.572 38.0739C752.709 38.2528 752.881 38.4574 753.09 38.6875C753.299 38.9219 753.584 39.1243 753.947 39.2947C754.313 39.4695 754.792 39.5568 755.385 39.5568C756.177 39.5568 756.831 39.3651 757.347 38.9815C757.863 38.598 758.121 37.9972 758.121 37.179V35.1847H757.993C757.882 35.3636 757.724 35.5852 757.52 35.8494C757.319 36.1094 757.03 36.3416 756.65 36.5462C756.275 36.7464 755.768 36.8466 755.129 36.8466C754.336 36.8466 753.625 36.6591 752.994 36.2841C752.368 35.9091 751.871 35.3636 751.505 34.6477C751.143 33.9318 750.961 33.0625 750.961 32.0398C750.961 31.0341 751.138 30.1584 751.492 29.4126C751.846 28.6626 752.338 28.0831 752.969 27.674C753.599 27.2607 754.328 27.054 755.155 27.054C755.794 27.054 756.301 27.1605 756.676 27.3736C757.055 27.5824 757.345 27.821 757.545 28.0895C757.75 28.3537 757.907 28.571 758.018 28.7415H758.172V27.1818H759.629V37.2812C759.629 38.125 759.437 38.8111 759.054 39.3395C758.675 39.8722 758.163 40.2621 757.52 40.5092C756.881 40.7607 756.169 40.8864 755.385 40.8864ZM755.334 35.4915C755.939 35.4915 756.45 35.353 756.868 35.076C757.285 34.799 757.603 34.4006 757.82 33.8807C758.037 33.3608 758.146 32.7386 758.146 32.0142C758.146 31.3068 758.04 30.6825 757.827 30.1413C757.613 29.6001 757.298 29.1761 756.881 28.8693C756.463 28.5625 755.947 28.4091 755.334 28.4091C754.694 28.4091 754.162 28.571 753.736 28.8949C753.314 29.2187 752.996 29.6534 752.783 30.1989C752.574 30.7443 752.47 31.3494 752.47 32.0142C752.47 32.696 752.577 33.299 752.79 33.8232C753.007 34.343 753.327 34.7521 753.748 35.0504C754.175 35.3445 754.703 35.4915 755.334 35.4915ZM763.899 31.0938V37H762.39V23.9091H763.899V28.7159H764.027C764.257 28.2088 764.602 27.8061 765.062 27.5078C765.527 27.2053 766.145 27.054 766.916 27.054C767.585 27.054 768.171 27.1882 768.674 27.4567C769.177 27.7209 769.567 28.1278 769.844 28.6776C770.125 29.223 770.265 29.9176 770.265 30.7614V37H768.757V30.8636C768.757 30.0838 768.555 29.4808 768.15 29.0547C767.749 28.6243 767.193 28.4091 766.481 28.4091C765.987 28.4091 765.544 28.5135 765.152 28.7223C764.764 28.9311 764.457 29.2358 764.231 29.6364C764.01 30.0369 763.899 30.5227 763.899 31.0938ZM777.295 27.1818V28.4602H772.207V27.1818H777.295ZM773.69 24.8295H775.199V34.1875C775.199 34.6136 775.26 34.9332 775.384 35.1463C775.512 35.3551 775.674 35.4957 775.87 35.5682C776.07 35.6364 776.281 35.6705 776.502 35.6705C776.669 35.6705 776.805 35.6619 776.912 35.6449C777.018 35.6236 777.103 35.6065 777.167 35.5938L777.474 36.9489C777.372 36.9872 777.229 37.0256 777.046 37.0639C776.863 37.1065 776.63 37.1278 776.349 37.1278C775.923 37.1278 775.505 37.0362 775.096 36.853C774.691 36.6697 774.355 36.3906 774.086 36.0156C773.822 35.6406 773.69 35.1676 773.69 34.5966V24.8295ZM786.343 29.3807L784.988 29.7642C784.903 29.5384 784.777 29.3189 784.611 29.1058C784.449 28.8885 784.227 28.7095 783.946 28.5689C783.665 28.4283 783.305 28.358 782.866 28.358C782.265 28.358 781.764 28.4964 781.364 28.7734C780.967 29.0462 780.769 29.3935 780.769 29.8153C780.769 30.1903 780.906 30.4865 781.178 30.7038C781.451 30.9212 781.877 31.1023 782.457 31.2472L783.914 31.6051C784.792 31.8182 785.446 32.1442 785.876 32.5831C786.307 33.0178 786.522 33.5781 786.522 34.2642C786.522 34.8267 786.36 35.3295 786.036 35.7727C785.717 36.2159 785.269 36.5653 784.694 36.821C784.119 37.0767 783.45 37.2045 782.687 37.2045C781.685 37.2045 780.857 36.9872 780.2 36.5526C779.544 36.1179 779.129 35.483 778.954 34.6477L780.386 34.2898C780.522 34.8182 780.78 35.2145 781.159 35.4787C781.543 35.7429 782.043 35.875 782.661 35.875C783.364 35.875 783.923 35.7259 784.336 35.4276C784.754 35.125 784.962 34.7628 784.962 34.3409C784.962 34 784.843 33.7145 784.604 33.4844C784.366 33.25 783.999 33.0753 783.505 32.9602L781.869 32.5767C780.969 32.3636 780.309 32.0334 779.887 31.5859C779.469 31.1342 779.261 30.5696 779.261 29.892C779.261 29.3381 779.416 28.848 779.727 28.4219C780.043 27.9957 780.471 27.6612 781.012 27.4183C781.558 27.1754 782.175 27.054 782.866 27.054C783.837 27.054 784.6 27.267 785.154 27.6932C785.712 28.1193 786.109 28.6818 786.343 29.3807Z" fill="white"/>
<path d="M856.619 28H855.034C854.94 27.544 854.776 27.1435 854.542 26.7983C854.312 26.4531 854.031 26.1634 853.698 25.929C853.37 25.6903 853.006 25.5114 852.605 25.392C852.205 25.2727 851.787 25.2131 851.352 25.2131C850.56 25.2131 849.842 25.4134 849.198 25.8139C848.559 26.2145 848.05 26.8047 847.67 27.5845C847.295 28.3643 847.108 29.321 847.108 30.4545C847.108 31.5881 847.295 32.5447 847.67 33.3246C848.05 34.1044 848.559 34.6946 849.198 35.0952C849.842 35.4957 850.56 35.696 851.352 35.696C851.787 35.696 852.205 35.6364 852.605 35.517C853.006 35.3977 853.37 35.2209 853.698 34.9865C854.031 34.7479 854.312 34.456 854.542 34.1108C854.776 33.7614 854.94 33.3608 855.034 32.9091H856.619C856.5 33.5781 856.283 34.1768 855.967 34.7053C855.652 35.2337 855.26 35.6832 854.791 36.054C854.322 36.4205 853.796 36.6996 853.212 36.8913C852.633 37.0831 852.013 37.179 851.352 37.179C850.236 37.179 849.243 36.9062 848.374 36.3608C847.504 35.8153 846.82 35.0398 846.322 34.0341C845.823 33.0284 845.574 31.8352 845.574 30.4545C845.574 29.0739 845.823 27.8807 846.322 26.875C846.82 25.8693 847.504 25.0938 848.374 24.5483C849.243 24.0028 850.236 23.7301 851.352 23.7301C852.013 23.7301 852.633 23.826 853.212 24.0178C853.796 24.2095 854.322 24.4908 854.791 24.8615C855.26 25.228 855.652 25.6754 855.967 26.2038C856.283 26.728 856.5 27.3267 856.619 28ZM861.866 37.2301C861.243 37.2301 860.679 37.1129 860.172 36.8786C859.665 36.6399 859.262 36.2969 858.964 35.8494C858.665 35.3977 858.516 34.8523 858.516 34.2131C858.516 33.6506 858.627 33.1946 858.849 32.8452C859.07 32.4915 859.366 32.2145 859.737 32.0142C860.108 31.8139 860.517 31.6648 860.964 31.5668C861.416 31.4645 861.87 31.3835 862.326 31.3239C862.922 31.2472 863.406 31.1896 863.777 31.1513C864.152 31.1087 864.425 31.0384 864.595 30.9403C864.77 30.8423 864.857 30.6719 864.857 30.429V30.3778C864.857 29.7472 864.684 29.2571 864.339 28.9077C863.998 28.5582 863.481 28.3835 862.786 28.3835C862.066 28.3835 861.501 28.5412 861.092 28.8565C860.683 29.1719 860.395 29.5085 860.229 29.8665L858.797 29.3551C859.053 28.7585 859.394 28.294 859.82 27.9616C860.251 27.625 860.719 27.3906 861.226 27.2585C861.738 27.1222 862.241 27.054 862.735 27.054C863.05 27.054 863.412 27.0923 863.822 27.169C864.235 27.2415 864.633 27.3928 865.017 27.6229C865.405 27.853 865.726 28.2003 865.982 28.6648C866.238 29.1293 866.366 29.7514 866.366 30.5312V37H864.857V35.6705H864.78C864.678 35.8835 864.508 36.1115 864.269 36.3544C864.03 36.5973 863.713 36.804 863.317 36.9744C862.92 37.1449 862.437 37.2301 861.866 37.2301ZM862.096 35.875C862.692 35.875 863.195 35.7578 863.604 35.5234C864.018 35.2891 864.329 34.9865 864.537 34.6158C864.751 34.245 864.857 33.8551 864.857 33.446V32.0653C864.793 32.142 864.653 32.2124 864.435 32.2763C864.222 32.3359 863.975 32.3892 863.694 32.4361C863.417 32.4787 863.146 32.517 862.882 32.5511C862.622 32.581 862.411 32.6065 862.249 32.6278C861.857 32.679 861.491 32.7621 861.15 32.8771C860.813 32.9879 860.54 33.1562 860.331 33.3821C860.127 33.6037 860.025 33.9062 860.025 34.2898C860.025 34.8139 860.219 35.2102 860.606 35.4787C860.998 35.7429 861.495 35.875 862.096 35.875ZM870.627 23.9091V37H869.119V23.9091H870.627ZM877.507 37.2045C876.561 37.2045 875.745 36.9957 875.059 36.5781C874.377 36.1562 873.851 35.5682 873.48 34.8139C873.113 34.0554 872.93 33.1733 872.93 32.1676C872.93 31.1619 873.113 30.2756 873.48 29.5085C873.851 28.7372 874.366 28.1364 875.027 27.706C875.692 27.2713 876.467 27.054 877.354 27.054C877.865 27.054 878.37 27.1392 878.868 27.3097C879.367 27.4801 879.821 27.7571 880.23 28.1406C880.639 28.5199 880.965 29.0227 881.208 29.6491C881.451 30.2756 881.572 31.0469 881.572 31.9631V32.6023H874.004V31.2983H880.038C880.038 30.7443 879.927 30.25 879.706 29.8153C879.488 29.3807 879.177 29.0376 878.773 28.7862C878.372 28.5348 877.899 28.4091 877.354 28.4091C876.753 28.4091 876.233 28.5582 875.794 28.8565C875.359 29.1506 875.025 29.5341 874.79 30.0071C874.556 30.4801 874.439 30.9872 874.439 31.5284V32.3977C874.439 33.1392 874.567 33.7678 874.822 34.2834C875.082 34.7947 875.442 35.1847 875.903 35.4531C876.363 35.7173 876.898 35.8494 877.507 35.8494C877.903 35.8494 878.261 35.794 878.581 35.6832C878.905 35.5682 879.184 35.3977 879.418 35.1719C879.653 34.9418 879.834 34.6562 879.961 34.3153L881.419 34.7244C881.265 35.2188 881.008 35.6534 880.645 36.0284C880.283 36.3991 879.836 36.6889 879.303 36.8977C878.77 37.1023 878.172 37.2045 877.507 37.2045ZM885.376 31.0938V37H883.867V27.1818H885.324V28.7159H885.452C885.682 28.2173 886.032 27.8168 886.501 27.5142C886.969 27.2074 887.574 27.054 888.316 27.054C888.981 27.054 889.562 27.1903 890.061 27.4631C890.559 27.7315 890.947 28.1406 891.224 28.6903C891.501 29.2358 891.64 29.9261 891.64 30.7614V37H890.131V30.8636C890.131 30.0923 889.931 29.4915 889.53 29.0611C889.13 28.6264 888.58 28.4091 887.881 28.4091C887.4 28.4091 886.969 28.5135 886.59 28.7223C886.215 28.9311 885.919 29.2358 885.702 29.6364C885.484 30.0369 885.376 30.5227 885.376 31.0938ZM898.104 37.2045C897.286 37.2045 896.563 36.9979 895.937 36.5845C895.31 36.1669 894.82 35.5788 894.467 34.8203C894.113 34.0575 893.936 33.1562 893.936 32.1165C893.936 31.0852 894.113 30.1903 894.467 29.4318C894.82 28.6733 895.313 28.0874 895.943 27.674C896.574 27.2607 897.303 27.054 898.129 27.054C898.768 27.054 899.273 27.1605 899.644 27.3736C900.019 27.5824 900.305 27.821 900.501 28.0895C900.701 28.3537 900.857 28.571 900.967 28.7415H901.095V23.9091H902.604V37H901.146V35.4915H900.967C900.857 35.6705 900.699 35.8963 900.494 36.169C900.29 36.4375 899.998 36.6783 899.619 36.8913C899.239 37.1001 898.734 37.2045 898.104 37.2045ZM898.308 35.8494C898.913 35.8494 899.425 35.6918 899.842 35.3764C900.26 35.0568 900.577 34.6158 900.795 34.0533C901.012 33.4865 901.121 32.8324 901.121 32.0909C901.121 31.358 901.014 30.7166 900.801 30.1669C900.588 29.6129 900.273 29.1825 899.855 28.8757C899.438 28.5646 898.922 28.4091 898.308 28.4091C897.669 28.4091 897.136 28.5732 896.71 28.9013C896.288 29.2251 895.971 29.6662 895.758 30.2244C895.549 30.7784 895.445 31.4006 895.445 32.0909C895.445 32.7898 895.551 33.4247 895.764 33.9957C895.982 34.5625 896.301 35.0142 896.723 35.3509C897.149 35.6832 897.678 35.8494 898.308 35.8494ZM908.465 37.2301C907.843 37.2301 907.278 37.1129 906.771 36.8786C906.264 36.6399 905.862 36.2969 905.563 35.8494C905.265 35.3977 905.116 34.8523 905.116 34.2131C905.116 33.6506 905.227 33.1946 905.448 32.8452C905.67 32.4915 905.966 32.2145 906.337 32.0142C906.707 31.8139 907.116 31.6648 907.564 31.5668C908.016 31.4645 908.469 31.3835 908.925 31.3239C909.522 31.2472 910.006 31.1896 910.376 31.1513C910.751 31.1087 911.024 31.0384 911.195 30.9403C911.369 30.8423 911.457 30.6719 911.457 30.429V30.3778C911.457 29.7472 911.284 29.2571 910.939 28.9077C910.598 28.5582 910.08 28.3835 909.386 28.3835C908.665 28.3835 908.101 28.5412 907.692 28.8565C907.283 29.1719 906.995 29.5085 906.829 29.8665L905.397 29.3551C905.653 28.7585 905.994 28.294 906.42 27.9616C906.85 27.625 907.319 27.3906 907.826 27.2585C908.337 27.1222 908.84 27.054 909.335 27.054C909.65 27.054 910.012 27.0923 910.421 27.169C910.835 27.2415 911.233 27.3928 911.616 27.6229C912.004 27.853 912.326 28.2003 912.582 28.6648C912.837 29.1293 912.965 29.7514 912.965 30.5312V37H911.457V35.6705H911.38C911.278 35.8835 911.107 36.1115 910.869 36.3544C910.63 36.5973 910.313 36.804 909.916 36.9744C909.52 37.1449 909.036 37.2301 908.465 37.2301ZM908.695 35.875C909.292 35.875 909.795 35.7578 910.204 35.5234C910.617 35.2891 910.928 34.9865 911.137 34.6158C911.35 34.245 911.457 33.8551 911.457 33.446V32.0653C911.393 32.142 911.252 32.2124 911.035 32.2763C910.822 32.3359 910.575 32.3892 910.293 32.4361C910.016 32.4787 909.746 32.517 909.482 32.5511C909.222 32.581 909.011 32.6065 908.849 32.6278C908.457 32.679 908.09 32.7621 907.749 32.8771C907.413 32.9879 907.14 33.1562 906.931 33.3821C906.727 33.6037 906.624 33.9062 906.624 34.2898C906.624 34.8139 906.818 35.2102 907.206 35.4787C907.598 35.7429 908.094 35.875 908.695 35.875ZM915.719 37V27.1818H917.176V28.6648H917.278C917.457 28.179 917.781 27.7848 918.25 27.4822C918.719 27.1797 919.247 27.0284 919.835 27.0284C919.946 27.0284 920.084 27.0305 920.251 27.0348C920.417 27.0391 920.542 27.0455 920.628 27.054V28.5881C920.577 28.5753 920.459 28.5561 920.276 28.5305C920.097 28.5007 919.907 28.4858 919.707 28.4858C919.23 28.4858 918.804 28.5859 918.429 28.7862C918.058 28.9822 917.764 29.255 917.547 29.6044C917.334 29.9496 917.227 30.3437 917.227 30.7869V37H915.719ZM922.416 37V27.1818H923.924V37H922.416ZM923.183 25.5455C922.889 25.5455 922.635 25.4453 922.422 25.245C922.213 25.0447 922.109 24.804 922.109 24.5227C922.109 24.2415 922.213 24.0007 922.422 23.8004C922.635 23.6001 922.889 23.5 923.183 23.5C923.477 23.5 923.728 23.6001 923.937 23.8004C924.15 24.0007 924.257 24.2415 924.257 24.5227C924.257 24.804 924.15 25.0447 923.937 25.245C923.728 25.4453 923.477 25.5455 923.183 25.5455ZM928.196 31.0938V37H926.687V27.1818H928.145V28.7159H928.273C928.503 28.2173 928.852 27.8168 929.321 27.5142C929.79 27.2074 930.395 27.054 931.136 27.054C931.801 27.054 932.383 27.1903 932.881 27.4631C933.38 27.7315 933.768 28.1406 934.045 28.6903C934.322 29.2358 934.46 29.9261 934.46 30.7614V37H932.952V30.8636C932.952 30.0923 932.751 29.4915 932.351 29.0611C931.95 28.6264 931.4 28.4091 930.702 28.4091C930.22 28.4091 929.79 28.5135 929.41 28.7223C929.035 28.9311 928.739 29.2358 928.522 29.6364C928.305 30.0369 928.196 30.5227 928.196 31.0938ZM941.18 40.8864C940.451 40.8864 939.825 40.7926 939.3 40.6051C938.776 40.4219 938.339 40.179 937.99 39.8764C937.645 39.5781 937.37 39.2585 937.165 38.9176L938.367 38.0739C938.504 38.2528 938.676 38.4574 938.885 38.6875C939.094 38.9219 939.379 39.1243 939.741 39.2947C940.108 39.4695 940.587 39.5568 941.18 39.5568C941.972 39.5568 942.626 39.3651 943.142 38.9815C943.658 38.598 943.915 37.9972 943.915 37.179V35.1847H943.788C943.677 35.3636 943.519 35.5852 943.315 35.8494C943.114 36.1094 942.825 36.3416 942.445 36.5462C942.07 36.7464 941.563 36.8466 940.924 36.8466C940.131 36.8466 939.42 36.6591 938.789 36.2841C938.163 35.9091 937.666 35.3636 937.3 34.6477C936.938 33.9318 936.756 33.0625 936.756 32.0398C936.756 31.0341 936.933 30.1584 937.287 29.4126C937.641 28.6626 938.133 28.0831 938.763 27.674C939.394 27.2607 940.123 27.054 940.95 27.054C941.589 27.054 942.096 27.1605 942.471 27.3736C942.85 27.5824 943.14 27.821 943.34 28.0895C943.545 28.3537 943.702 28.571 943.813 28.7415H943.967V27.1818H945.424V37.2812C945.424 38.125 945.232 38.8111 944.849 39.3395C944.469 39.8722 943.958 40.2621 943.315 40.5092C942.675 40.7607 941.964 40.8864 941.18 40.8864ZM941.129 35.4915C941.734 35.4915 942.245 35.353 942.663 35.076C943.08 34.799 943.398 34.4006 943.615 33.8807C943.832 33.3608 943.941 32.7386 943.941 32.0142C943.941 31.3068 943.835 30.6825 943.621 30.1413C943.408 29.6001 943.093 29.1761 942.675 28.8693C942.258 28.5625 941.742 28.4091 941.129 28.4091C940.489 28.4091 939.957 28.571 939.531 28.8949C939.109 29.2187 938.791 29.6534 938.578 30.1989C938.369 30.7443 938.265 31.3494 938.265 32.0142C938.265 32.696 938.371 33.299 938.585 33.8232C938.802 34.343 939.121 34.7521 939.543 35.0504C939.969 35.3445 940.498 35.4915 941.129 35.4915Z" fill="white"/>
<path d="M1016.62 28H1015.03C1014.94 27.544 1014.78 27.1435 1014.54 26.7983C1014.31 26.4531 1014.03 26.1634 1013.7 25.929C1013.37 25.6903 1013.01 25.5114 1012.61 25.392C1012.2 25.2727 1011.79 25.2131 1011.35 25.2131C1010.56 25.2131 1009.84 25.4134 1009.2 25.8139C1008.56 26.2145 1008.05 26.8047 1007.67 27.5845C1007.3 28.3643 1007.11 29.321 1007.11 30.4545C1007.11 31.5881 1007.3 32.5447 1007.67 33.3246C1008.05 34.1044 1008.56 34.6946 1009.2 35.0952C1009.84 35.4957 1010.56 35.696 1011.35 35.696C1011.79 35.696 1012.2 35.6364 1012.61 35.517C1013.01 35.3977 1013.37 35.2209 1013.7 34.9865C1014.03 34.7479 1014.31 34.456 1014.54 34.1108C1014.78 33.7614 1014.94 33.3608 1015.03 32.9091H1016.62C1016.5 33.5781 1016.28 34.1768 1015.97 34.7053C1015.65 35.2337 1015.26 35.6832 1014.79 36.054C1014.32 36.4205 1013.8 36.6996 1013.21 36.8913C1012.63 37.0831 1012.01 37.179 1011.35 37.179C1010.24 37.179 1009.24 36.9062 1008.37 36.3608C1007.5 35.8153 1006.82 35.0398 1006.32 34.0341C1005.82 33.0284 1005.57 31.8352 1005.57 30.4545C1005.57 29.0739 1005.82 27.8807 1006.32 26.875C1006.82 25.8693 1007.5 25.0938 1008.37 24.5483C1009.24 24.0028 1010.24 23.7301 1011.35 23.7301C1012.01 23.7301 1012.63 23.826 1013.21 24.0178C1013.8 24.2095 1014.32 24.4908 1014.79 24.8615C1015.26 25.228 1015.65 25.6754 1015.97 26.2038C1016.28 26.728 1016.5 27.3267 1016.62 28ZM1022.97 37.2045C1022.08 37.2045 1021.3 36.9936 1020.63 36.5717C1019.97 36.1499 1019.45 35.5597 1019.07 34.8011C1018.7 34.0426 1018.52 33.1562 1018.52 32.142C1018.52 31.1193 1018.7 30.2266 1019.07 29.4638C1019.45 28.701 1019.97 28.1087 1020.63 27.6868C1021.3 27.2649 1022.08 27.054 1022.97 27.054C1023.85 27.054 1024.63 27.2649 1025.29 27.6868C1025.96 28.1087 1026.48 28.701 1026.85 29.4638C1027.23 30.2266 1027.41 31.1193 1027.41 32.142C1027.41 33.1562 1027.23 34.0426 1026.85 34.8011C1026.48 35.5597 1025.96 36.1499 1025.29 36.5717C1024.63 36.9936 1023.85 37.2045 1022.97 37.2045ZM1022.97 35.8494C1023.64 35.8494 1024.19 35.6768 1024.63 35.3317C1025.06 34.9865 1025.38 34.5327 1025.59 33.9702C1025.8 33.4077 1025.91 32.7983 1025.91 32.142C1025.91 31.4858 1025.8 30.8743 1025.59 30.3075C1025.38 29.7408 1025.06 29.2827 1024.63 28.9332C1024.19 28.5838 1023.64 28.4091 1022.97 28.4091C1022.29 28.4091 1021.74 28.5838 1021.3 28.9332C1020.87 29.2827 1020.55 29.7408 1020.34 30.3075C1020.13 30.8743 1020.02 31.4858 1020.02 32.142C1020.02 32.7983 1020.13 33.4077 1020.34 33.9702C1020.55 34.5327 1020.87 34.9865 1021.3 35.3317C1021.74 35.6768 1022.29 35.8494 1022.97 35.8494ZM1031.23 23.9091V37H1029.72V23.9091H1031.23ZM1035.5 23.9091V37H1033.99V23.9091H1035.5ZM1041.15 37.2301C1040.53 37.2301 1039.96 37.1129 1039.45 36.8786C1038.95 36.6399 1038.55 36.2969 1038.25 35.8494C1037.95 35.3977 1037.8 34.8523 1037.8 34.2131C1037.8 33.6506 1037.91 33.1946 1038.13 32.8452C1038.35 32.4915 1038.65 32.2145 1039.02 32.0142C1039.39 31.8139 1039.8 31.6648 1040.25 31.5668C1040.7 31.4645 1041.15 31.3835 1041.61 31.3239C1042.21 31.2472 1042.69 31.1896 1043.06 31.1513C1043.44 31.1087 1043.71 31.0384 1043.88 30.9403C1044.05 30.8423 1044.14 30.6719 1044.14 30.429V30.3778C1044.14 29.7472 1043.97 29.2571 1043.62 28.9077C1043.28 28.5582 1042.76 28.3835 1042.07 28.3835C1041.35 28.3835 1040.78 28.5412 1040.38 28.8565C1039.97 29.1719 1039.68 29.5085 1039.51 29.8665L1038.08 29.3551C1038.34 28.7585 1038.68 28.294 1039.1 27.9616C1039.53 27.625 1040 27.3906 1040.51 27.2585C1041.02 27.1222 1041.52 27.054 1042.02 27.054C1042.33 27.054 1042.7 27.0923 1043.1 27.169C1043.52 27.2415 1043.92 27.3928 1044.3 27.6229C1044.69 27.853 1045.01 28.2003 1045.27 28.6648C1045.52 29.1293 1045.65 29.7514 1045.65 30.5312V37H1044.14V35.6705H1044.06C1043.96 35.8835 1043.79 36.1115 1043.55 36.3544C1043.31 36.5973 1043 36.804 1042.6 36.9744C1042.2 37.1449 1041.72 37.2301 1041.15 37.2301ZM1041.38 35.875C1041.98 35.875 1042.48 35.7578 1042.89 35.5234C1043.3 35.2891 1043.61 34.9865 1043.82 34.6158C1044.03 34.245 1044.14 33.8551 1044.14 33.446V32.0653C1044.08 32.142 1043.94 32.2124 1043.72 32.2763C1043.51 32.3359 1043.26 32.3892 1042.98 32.4361C1042.7 32.4787 1042.43 32.517 1042.17 32.5511C1041.91 32.581 1041.69 32.6065 1041.53 32.6278C1041.14 32.679 1040.77 32.7621 1040.43 32.8771C1040.1 32.9879 1039.82 33.1562 1039.61 33.3821C1039.41 33.6037 1039.31 33.9062 1039.31 34.2898C1039.31 34.8139 1039.5 35.2102 1039.89 35.4787C1040.28 35.7429 1040.78 35.875 1041.38 35.875ZM1048.61 37V23.9091H1050.12V28.7415H1050.24C1050.35 28.571 1050.51 28.3537 1050.7 28.0895C1050.9 27.821 1051.19 27.5824 1051.56 27.3736C1051.93 27.1605 1052.44 27.054 1053.08 27.054C1053.91 27.054 1054.64 27.2607 1055.27 27.674C1055.9 28.0874 1056.39 28.6733 1056.74 29.4318C1057.1 30.1903 1057.27 31.0852 1057.27 32.1165C1057.27 33.1562 1057.1 34.0575 1056.74 34.8203C1056.39 35.5788 1055.9 36.1669 1055.27 36.5845C1054.65 36.9979 1053.92 37.2045 1053.11 37.2045C1052.48 37.2045 1051.97 37.1001 1051.59 36.8913C1051.21 36.6783 1050.92 36.4375 1050.72 36.169C1050.51 35.8963 1050.35 35.6705 1050.24 35.4915H1050.06V37H1048.61ZM1050.09 32.0909C1050.09 32.8324 1050.2 33.4865 1050.42 34.0533C1050.63 34.6158 1050.95 35.0568 1051.37 35.3764C1051.79 35.6918 1052.3 35.8494 1052.9 35.8494C1053.53 35.8494 1054.06 35.6832 1054.48 35.3509C1054.91 35.0142 1055.23 34.5625 1055.44 33.9957C1055.66 33.4247 1055.77 32.7898 1055.77 32.0909C1055.77 31.4006 1055.66 30.7784 1055.45 30.2244C1055.24 29.6662 1054.92 29.2251 1054.49 28.9013C1054.07 28.5732 1053.54 28.4091 1052.9 28.4091C1052.29 28.4091 1051.77 28.5646 1051.36 28.8757C1050.94 29.1825 1050.62 29.6129 1050.41 30.1669C1050.2 30.7166 1050.09 31.358 1050.09 32.0909ZM1063.57 37.2045C1062.68 37.2045 1061.91 36.9936 1061.24 36.5717C1060.57 36.1499 1060.05 35.5597 1059.68 34.8011C1059.31 34.0426 1059.12 33.1562 1059.12 32.142C1059.12 31.1193 1059.31 30.2266 1059.68 29.4638C1060.05 28.701 1060.57 28.1087 1061.24 27.6868C1061.91 27.2649 1062.68 27.054 1063.57 27.054C1064.46 27.054 1065.23 27.2649 1065.9 27.6868C1066.57 28.1087 1067.09 28.701 1067.46 29.4638C1067.83 30.2266 1068.02 31.1193 1068.02 32.142C1068.02 33.1562 1067.83 34.0426 1067.46 34.8011C1067.09 35.5597 1066.57 36.1499 1065.9 36.5717C1065.23 36.9936 1064.46 37.2045 1063.57 37.2045ZM1063.57 35.8494C1064.24 35.8494 1064.8 35.6768 1065.23 35.3317C1065.67 34.9865 1065.99 34.5327 1066.2 33.9702C1066.41 33.4077 1066.51 32.7983 1066.51 32.142C1066.51 31.4858 1066.41 30.8743 1066.2 30.3075C1065.99 29.7408 1065.67 29.2827 1065.23 28.9332C1064.8 28.5838 1064.24 28.4091 1063.57 28.4091C1062.9 28.4091 1062.34 28.5838 1061.91 28.9332C1061.47 29.2827 1061.15 29.7408 1060.94 30.3075C1060.73 30.8743 1060.63 31.4858 1060.63 32.142C1060.63 32.7983 1060.73 33.4077 1060.94 33.9702C1061.15 34.5327 1061.47 34.9865 1061.91 35.3317C1062.34 35.6768 1062.9 35.8494 1063.57 35.8494ZM1070.32 37V27.1818H1071.78V28.6648H1071.88C1072.06 28.179 1072.38 27.7848 1072.85 27.4822C1073.32 27.1797 1073.85 27.0284 1074.44 27.0284C1074.55 27.0284 1074.69 27.0305 1074.85 27.0348C1075.02 27.0391 1075.15 27.0455 1075.23 27.054V28.5881C1075.18 28.5753 1075.06 28.5561 1074.88 28.5305C1074.7 28.5007 1074.51 28.4858 1074.31 28.4858C1073.83 28.4858 1073.41 28.5859 1073.03 28.7862C1072.66 28.9822 1072.37 29.255 1072.15 29.6044C1071.94 29.9496 1071.83 30.3437 1071.83 30.7869V37H1070.32ZM1079.91 37.2301C1079.29 37.2301 1078.72 37.1129 1078.21 36.8786C1077.71 36.6399 1077.3 36.2969 1077.01 35.8494C1076.71 35.3977 1076.56 34.8523 1076.56 34.2131C1076.56 33.6506 1076.67 33.1946 1076.89 32.8452C1077.11 32.4915 1077.41 32.2145 1077.78 32.0142C1078.15 31.8139 1078.56 31.6648 1079.01 31.5668C1079.46 31.4645 1079.91 31.3835 1080.37 31.3239C1080.97 31.2472 1081.45 31.1896 1081.82 31.1513C1082.19 31.1087 1082.47 31.0384 1082.64 30.9403C1082.81 30.8423 1082.9 30.6719 1082.9 30.429V30.3778C1082.9 29.7472 1082.73 29.2571 1082.38 28.9077C1082.04 28.5582 1081.52 28.3835 1080.83 28.3835C1080.11 28.3835 1079.54 28.5412 1079.14 28.8565C1078.73 29.1719 1078.44 29.5085 1078.27 29.8665L1076.84 29.3551C1077.1 28.7585 1077.44 28.294 1077.86 27.9616C1078.29 27.625 1078.76 27.3906 1079.27 27.2585C1079.78 27.1222 1080.28 27.054 1080.78 27.054C1081.09 27.054 1081.46 27.0923 1081.86 27.169C1082.28 27.2415 1082.68 27.3928 1083.06 27.6229C1083.45 27.853 1083.77 28.2003 1084.03 28.6648C1084.28 29.1293 1084.41 29.7514 1084.41 30.5312V37H1082.9V35.6705H1082.82C1082.72 35.8835 1082.55 36.1115 1082.31 36.3544C1082.07 36.5973 1081.76 36.804 1081.36 36.9744C1080.96 37.1449 1080.48 37.2301 1079.91 37.2301ZM1080.14 35.875C1080.74 35.875 1081.24 35.7578 1081.65 35.5234C1082.06 35.2891 1082.37 34.9865 1082.58 34.6158C1082.79 34.245 1082.9 33.8551 1082.9 33.446V32.0653C1082.84 32.142 1082.7 32.2124 1082.48 32.2763C1082.27 32.3359 1082.02 32.3892 1081.74 32.4361C1081.46 32.4787 1081.19 32.517 1080.92 32.5511C1080.66 32.581 1080.45 32.6065 1080.29 32.6278C1079.9 32.679 1079.53 32.7621 1079.19 32.8771C1078.86 32.9879 1078.58 33.1562 1078.37 33.3821C1078.17 33.6037 1078.07 33.9062 1078.07 34.2898C1078.07 34.8139 1078.26 35.2102 1078.65 35.4787C1079.04 35.7429 1079.54 35.875 1080.14 35.875ZM1091.43 27.1818V28.4602H1086.34V27.1818H1091.43ZM1087.83 24.8295H1089.34V34.1875C1089.34 34.6136 1089.4 34.9332 1089.52 35.1463C1089.65 35.3551 1089.81 35.4957 1090.01 35.5682C1090.21 35.6364 1090.42 35.6705 1090.64 35.6705C1090.81 35.6705 1090.94 35.6619 1091.05 35.6449C1091.15 35.6236 1091.24 35.6065 1091.3 35.5938L1091.61 36.9489C1091.51 36.9872 1091.37 37.0256 1091.18 37.0639C1091 37.1065 1090.77 37.1278 1090.49 37.1278C1090.06 37.1278 1089.64 37.0362 1089.23 36.853C1088.83 36.6697 1088.49 36.3906 1088.22 36.0156C1087.96 35.6406 1087.83 35.1676 1087.83 34.5966V24.8295ZM1093.7 37V27.1818H1095.21V37H1093.7ZM1094.47 25.5455C1094.17 25.5455 1093.92 25.4453 1093.71 25.245C1093.5 25.0447 1093.39 24.804 1093.39 24.5227C1093.39 24.2415 1093.5 24.0007 1093.71 23.8004C1093.92 23.6001 1094.17 23.5 1094.47 23.5C1094.76 23.5 1095.01 23.6001 1095.22 23.8004C1095.44 24.0007 1095.54 24.2415 1095.54 24.5227C1095.54 24.804 1095.44 25.0447 1095.22 25.245C1095.01 25.4453 1094.76 25.5455 1094.47 25.5455ZM1101.96 37.2045C1101.07 37.2045 1100.3 36.9936 1099.63 36.5717C1098.96 36.1499 1098.44 35.5597 1098.07 34.8011C1097.7 34.0426 1097.51 33.1562 1097.51 32.142C1097.51 31.1193 1097.7 30.2266 1098.07 29.4638C1098.44 28.701 1098.96 28.1087 1099.63 27.6868C1100.3 27.2649 1101.07 27.054 1101.96 27.054C1102.85 27.054 1103.62 27.2649 1104.29 27.6868C1104.96 28.1087 1105.48 28.701 1105.85 29.4638C1106.22 30.2266 1106.41 31.1193 1106.41 32.142C1106.41 33.1562 1106.22 34.0426 1105.85 34.8011C1105.48 35.5597 1104.96 36.1499 1104.29 36.5717C1103.62 36.9936 1102.85 37.2045 1101.96 37.2045ZM1101.96 35.8494C1102.63 35.8494 1103.19 35.6768 1103.62 35.3317C1104.06 34.9865 1104.38 34.5327 1104.59 33.9702C1104.8 33.4077 1104.9 32.7983 1104.9 32.142C1104.9 31.4858 1104.8 30.8743 1104.59 30.3075C1104.38 29.7408 1104.06 29.2827 1103.62 28.9332C1103.19 28.5838 1102.63 28.4091 1101.96 28.4091C1101.29 28.4091 1100.73 28.5838 1100.3 28.9332C1099.86 29.2827 1099.54 29.7408 1099.33 30.3075C1099.13 30.8743 1099.02 31.4858 1099.02 32.142C1099.02 32.7983 1099.13 33.4077 1099.33 33.9702C1099.54 34.5327 1099.86 34.9865 1100.3 35.3317C1100.73 35.6768 1101.29 35.8494 1101.96 35.8494ZM1110.22 31.0938V37H1108.71V27.1818H1110.17V28.7159H1110.3C1110.53 28.2173 1110.88 27.8168 1111.35 27.5142C1111.81 27.2074 1112.42 27.054 1113.16 27.054C1113.83 27.054 1114.41 27.1903 1114.91 27.4631C1115.41 27.7315 1115.79 28.1406 1116.07 28.6903C1116.35 29.2358 1116.49 29.9261 1116.49 30.7614V37H1114.98V30.8636C1114.98 30.0923 1114.78 29.4915 1114.38 29.0611C1113.98 28.6264 1113.43 28.4091 1112.73 28.4091C1112.25 28.4091 1111.81 28.5135 1111.44 28.7223C1111.06 28.9311 1110.76 29.2358 1110.55 29.6364C1110.33 30.0369 1110.22 30.5227 1110.22 31.0938Z" fill="white"/>
<defs>
<filter id="filter0_f_541_307" x="-107" y="-387.568" width="1008" height="849.73" filterUnits="userSpaceOnUse" color-interpolation-filters="sRGB">
<feFlood flood-opacity="0" result="BackgroundImageFix"/>
<feBlend mode="normal" in="SourceGraphic" in2="BackgroundImageFix" result="shape"/>
<feGaussianBlur stdDeviation="150" result="effect1_foregroundBlur_541_307"/>
</filter>
</defs>
</svg>
