<svg width="1440" height="826" viewBox="0 0 1440 826" fill="none" xmlns="http://www.w3.org/2000/svg">
<g opacity="0.05">
<mask id="mask0_308_1049" style="mask-type:luminance" maskUnits="userSpaceOnUse" x="-47" y="26" width="1499" height="800">
<path d="M1451.5 26.5V825.5H-46.5V26.5H1451.5Z" fill="white" stroke="white"/>
</mask>
<g mask="url(#mask0_308_1049)">
<path d="M-316.82 1054.9C-308.201 910 -207.268 773.5 -53.4957 696.8C24.4523 657.9 114.767 635.2 206.331 630.2C310.511 624.5 394.83 653.6 494.639 668.4C572.337 679.9 653.033 682.7 729.732 665.3C809.054 647.4 880.506 608.2 930.098 555.5C1012.79 467.6 999.177 356.6 1053.02 259C1101.73 170.8 1204.66 103 1322.21 81.8C1439.76 60.6 1569.05 86.4 1660.36 149.4" stroke="black" stroke-miterlimit="10"/>
<path d="M-330.186 1055.1C-322.192 911.6 -223.008 776 -71.3588 699.4C6.96391 659.5 98.1531 636.3 190.716 631.4C218.198 629.9 244.431 630.9 269.914 633.3C341.616 640.3 407.572 659.5 481.772 671C496.387 673.3 511.128 675.2 525.868 676.8C590.45 683.7 656.281 683.2 719.239 668.8C753.841 660.9 786.819 648.9 817.174 633.2C856.772 612.8 891.499 586.4 919.73 556.1C923.852 551.7 927.725 547.2 931.472 542.7C992.931 467.5 1000.43 382.4 1037.53 305.3C1043.27 293.4 1049.64 281.6 1057.01 270.1C1087.37 223 1134.59 182.9 1191.8 153.7C1234.02 132.1 1281.99 116.5 1332.45 108.3C1366.81 102.8 1402.28 100.8 1437.38 101.9C1523.7 104.8 1608.4 126.2 1669.98 164.8" stroke="black" stroke-miterlimit="10"/>
<path d="M-343.427 1055.3C-335.932 913.2 -238.247 779 -89.097 702C-10.2746 661.4 81.6641 637.4 175.227 632.5C202.958 631.1 229.441 632 255.298 634.6C327.75 641.8 394.455 661.5 469.031 673.5C483.771 675.9 498.636 678 513.501 679.7C578.708 687.1 645.413 686.9 708.746 672.2C743.598 664.2 776.825 651.8 807.18 635.5C846.779 614.4 881.006 587.3 909.362 556.6C913.484 552.1 917.482 547.6 921.229 543C983.687 466.8 998.053 385.3 1039.65 313.5C1046.15 302.4 1053.14 291.5 1061.14 280.9C1093.86 237.5 1142.33 201.2 1200.42 175C1243.39 155.6 1291.86 141.7 1342.82 134.5C1377.55 129.6 1413.4 127.8 1448.88 128.6C1536.07 130.7 1621.51 147.5 1679.85 180" stroke="black" stroke-miterlimit="10"/>
<path d="M-356.793 1055.5C-349.923 914.8 -253.862 781.7 -106.96 704.6C-27.7628 663.1 65.1751 638.5 159.737 633.6C187.718 632.2 214.575 633.2 240.683 635.8C313.884 643.2 381.339 663.4 456.414 676C471.279 678.5 486.269 680.7 501.259 682.5C567.215 690.5 634.67 690.5 698.503 675.6C733.604 667.4 766.957 654.8 797.561 637.9C837.16 616.2 871.012 588.3 899.369 557.1C903.491 552.6 907.488 548 911.236 543.4C974.693 466.2 995.679 388.2 1042.02 321.9C1049.14 311.7 1056.76 301.7 1065.38 291.9C1100.48 252.1 1150.2 219.7 1209.29 196.5C1252.88 179.3 1301.85 167.2 1353.32 160.9C1388.42 156.6 1424.52 155 1460.49 155.5C1548.56 156.8 1634.63 169.1 1689.84 195.4" stroke="black" stroke-miterlimit="10"/>
<path d="M-370.16 1055.6C-363.914 916.3 -269.477 784.3 -124.823 707.1C-45.2512 664.7 48.5612 639.4 144.122 634.7C172.354 633.3 199.461 634.3 225.818 637C299.769 644.6 367.973 665.3 443.423 678.4C458.413 681 473.528 683.4 488.768 685.3C555.348 693.8 623.553 694.1 688.01 678.9C723.361 670.6 756.964 657.6 787.568 640.2C827.167 617.8 860.52 589.2 889.001 557.6C893.123 553 897.12 548.4 900.993 543.7C965.45 465.5 993.181 391.1 1044.15 330.2C1052.02 320.8 1060.26 311.7 1069.38 302.8C1106.86 266.7 1157.82 238.1 1217.78 217.9C1262 202.9 1311.59 192.6 1363.56 187.2C1399.16 183.5 1435.51 182.1 1471.86 182.3C1560.8 182.8 1647.62 190.5 1699.58 210.6" stroke="black" stroke-miterlimit="10"/>
<path d="M-383.401 1055.8C-377.654 917.9 -284.966 787 -142.561 709.7C-62.6146 666.4 32.0721 640.5 128.633 635.8C156.989 634.4 184.471 635.4 211.203 638.2C285.903 646 354.857 667.2 430.806 680.9C445.921 683.6 461.161 686.1 476.526 688.2C543.731 697.3 612.81 697.8 677.641 682.4C713.243 673.9 746.97 660.7 777.7 642.6C817.298 619.6 850.151 590.2 878.757 558.2C882.88 553.5 887.002 548.9 890.874 544.1C956.331 464.9 990.808 394 1046.4 338.6C1055.01 330.1 1063.88 321.8 1073.63 313.8C1113.48 281.4 1165.69 256.6 1226.53 239.4C1271.37 226.7 1321.59 218.1 1374.05 213.6C1410.03 210.5 1446.75 209.3 1483.48 209.2C1573.29 208.9 1660.74 212 1709.45 226" stroke="black" stroke-miterlimit="10"/>
<path d="M-396.767 1056C-391.645 919.5 -300.581 789.6 -160.424 712.3C-80.1029 668.1 15.5832 641.6 113.018 637C141.624 635.6 169.356 636.7 196.338 639.6C271.787 647.6 341.491 669.3 417.815 683.6C433.055 686.5 448.42 689 463.909 691.2C531.864 700.8 601.692 701.6 667.024 685.9C702.875 677.3 736.852 663.7 767.582 645.1C807.055 621.4 839.534 591.3 868.389 558.8C872.637 554.1 876.634 549.3 880.506 544.6C946.962 464.4 988.06 397.1 1048.39 347C1057.64 339.3 1067.26 331.9 1077.5 324.9C1119.72 296.1 1173.19 275.2 1234.89 261C1280.49 250.5 1331.21 243.7 1384.17 240.1C1420.52 237.6 1457.62 236.6 1494.6 236.1C1585.29 234.9 1673.48 233.5 1718.95 241.4" stroke="black" stroke-miterlimit="10"/>
<path d="M-410.133 1056.2C-405.511 921.1 -316.32 792.3 -178.288 714.9C-97.5913 669.7 -1.03076 642.7 97.4036 638.1C126.259 636.8 154.241 637.8 181.597 640.8C257.797 649 328.125 671.2 404.948 686C420.313 689 435.803 691.7 451.417 694C519.997 704.1 590.7 705.2 656.531 689.2C692.632 680.4 726.734 666.5 757.713 647.4C797.187 623 829.165 592.2 858.146 559.3C862.393 554.5 866.391 549.7 870.388 544.9C937.843 463.8 985.561 400 1050.64 355.3C1060.64 348.5 1070.75 341.9 1081.62 335.8C1126.22 310.7 1180.93 293.6 1243.64 282.4C1289.86 274.1 1341.07 269.1 1394.66 266.4C1431.39 264.6 1468.86 263.7 1506.21 262.9C1597.78 260.9 1686.72 255 1728.94 256.7" stroke="black" stroke-miterlimit="10"/>
<path d="M-423.374 1056.3C-419.377 922.5 -331.81 794.8 -196.026 717.5C-115.08 671.4 -17.3948 643.7 82.0388 639.2C111.144 637.9 139.376 639 167.107 642C244.056 650.4 315.133 673.1 392.457 688.5C407.946 691.6 423.561 694.4 439.3 696.8C508.504 707.5 579.957 708.8 646.287 692.6C682.638 683.7 716.99 669.5 747.97 649.7C787.318 624.7 818.922 593 848.028 559.7C852.275 554.9 856.397 550 860.395 545.2C928.849 463.1 983.188 402.8 1053.14 363.6C1063.76 357.6 1074.63 351.9 1086.12 346.7C1133.09 325.2 1189.05 312 1252.63 303.8C1299.48 297.7 1351.32 294.5 1405.41 292.7C1442.51 291.5 1480.36 290.8 1518.08 289.7C1610.52 286.9 1700.08 276.4 1739.18 272" stroke="black" stroke-miterlimit="10"/>
<path d="M-436.74 1056.5C-433.242 924.2 -347.549 797.4 -213.764 720.1C-132.443 673 -33.8837 644.8 66.5493 640.4C95.9047 639.1 124.386 640.2 152.367 643.3C230.065 651.9 301.892 675.1 379.59 691C395.205 694.2 410.945 697.2 426.809 699.7C496.762 710.9 568.964 712.6 635.795 696C672.395 686.9 706.872 672.4 737.976 652.1C777.325 626.4 808.429 594 837.66 560.3C841.907 555.4 846.029 550.5 850.152 545.6C919.605 462.5 980.44 405.7 1055.26 372C1066.63 366.9 1078.12 362 1090.12 357.7C1139.46 339.9 1196.67 330.5 1261.13 325.3C1308.6 321.4 1361.06 320 1415.65 319.1C1453.12 318.5 1491.35 318 1529.45 316.6C1622.76 313 1713.08 297.9 1748.8 287.4" stroke="black" stroke-miterlimit="10"/>
<path d="M-449.981 1056.7C-447.108 925.7 -363.039 800 -231.627 722.7C-149.931 674.7 -50.4976 645.9 50.9347 641.5C80.415 640.2 109.396 641.4 137.627 644.5C216.074 653.3 288.651 677 366.849 693.5C382.588 696.9 398.453 699.9 414.442 702.6C485.02 714.3 558.096 716.3 625.426 699.4C662.277 690.2 697.004 675.4 728.233 654.5C767.581 628.2 798.311 595 827.541 560.9C831.789 555.9 835.911 551 840.033 546.1C910.486 462 977.941 408.8 1057.51 380.5C1069.51 376.2 1081.75 372.2 1094.36 368.8C1146.08 354.7 1204.54 349.1 1269.87 347C1317.96 345.4 1371.05 345.7 1426.14 345.7C1463.99 345.7 1502.59 345.4 1541.07 343.7C1635.25 339.3 1726.19 319.7 1758.8 303" stroke="black" stroke-miterlimit="10"/>
<path d="M-463.347 1056.9C-461.099 927.3 -378.779 802.5 -249.49 725.3C-167.42 676.3 -66.9867 647 35.32 642.6C65.0502 641.3 94.2807 642.5 122.762 645.8C201.959 654.8 275.285 679 353.858 696C369.722 699.5 385.711 702.7 401.825 705.4C473.153 717.7 546.854 719.9 614.683 702.8C651.784 693.5 686.636 678.3 717.99 656.8C757.338 629.8 787.568 595.9 816.924 561.3C821.171 556.3 825.418 551.3 829.54 546.3C900.992 461.2 975.068 411.5 1059.39 388.6C1072.13 385.2 1084.87 382.1 1098.11 379.5C1152.2 369 1211.91 367.3 1278.24 368.2C1327.08 368.8 1380.67 370.9 1436.26 371.7C1474.48 372.3 1513.46 372.3 1552.31 370.1C1647.37 364.9 1739.06 340.7 1768.41 317.9" stroke="black" stroke-miterlimit="10"/>
<path d="M-476.713 1057.1C-474.964 928.9 -394.518 805.1 -267.353 727.9C-185.033 677.9 -83.6006 648 19.8304 643.8C49.8104 642.6 79.2907 643.8 108.146 647.1C187.968 656.3 262.169 680.9 341.241 698.6C357.23 702.2 373.345 705.5 389.584 708.4C461.536 721.2 536.111 723.7 604.44 706.3C641.79 696.8 676.892 681.4 708.246 659.3C747.595 631.7 777.325 597 806.805 562C811.053 556.9 815.3 551.9 819.547 546.8C891.998 460.7 972.57 414.5 1061.76 397.1C1075.13 394.5 1088.62 392.3 1102.36 390.6C1158.82 383.8 1219.78 385.9 1286.99 389.8C1336.45 392.6 1390.54 396.5 1446.63 398.2C1485.23 399.4 1524.58 399.6 1563.8 397.1C1659.74 391.1 1752.17 362.3 1778.28 333.4" stroke="black" stroke-miterlimit="10"/>
<path d="M-489.954 1057.2C-488.83 930.4 -410.133 807.5 -284.966 730.4C-202.271 679.5 -99.9646 649 4.46575 644.8C34.6956 643.6 64.4257 644.8 93.6562 648.2C174.227 657.6 249.177 682.7 328.624 701C344.739 704.7 360.978 708.1 377.342 711.1C449.919 724.4 525.368 727.2 594.197 709.5C631.797 699.9 667.024 684.1 698.628 661.5C737.852 633.2 767.207 597.8 796.812 562.3C801.059 557.2 805.307 552.1 809.679 547C883.13 459.9 970.321 417.1 1064.26 405.3C1078.37 403.5 1092.49 402.2 1106.86 401.4C1165.69 398.2 1227.9 404.2 1295.98 411.1C1346.07 416.1 1400.78 421.8 1457.37 424.4C1496.35 426.2 1536.07 426.6 1575.67 423.8C1672.48 417 1765.54 383.6 1788.4 348.5" stroke="black" stroke-miterlimit="10"/>
<path d="M-503.321 1057.4C-502.696 932 -425.872 810 -302.829 733C-219.885 681.1 -116.454 650.1 -11.149 645.9C19.3307 644.7 49.3107 645.9 78.791 649.4C160.112 659 235.811 684.6 315.758 703.4C331.997 707.2 348.361 710.8 364.85 713.9C438.176 727.8 514.375 730.8 583.579 712.9C621.429 703.1 656.905 687.1 688.509 663.8C727.858 635 756.589 598.7 786.319 562.8C790.566 557.6 794.938 552.4 799.185 547.3C873.636 459.2 967.323 419.9 1066.13 413.6C1081 412.7 1095.74 412.2 1110.6 412.3C1171.81 412.8 1235.27 422.6 1304.22 432.5C1354.94 439.7 1410.28 447.2 1467.36 450.7C1506.71 453.2 1546.81 453.7 1586.79 450.6C1684.59 443 1778.28 405.1 1797.89 363.8" stroke="black" stroke-miterlimit="10"/>
<path d="M-516.562 1057.6C-516.562 933.6 -441.612 812.5 -320.568 735.6C-237.373 682.6 -132.943 651.2 -26.6387 647.1C3.96592 645.9 34.3207 647.2 64.1758 650.8C146.246 660.6 222.695 686.7 303.016 706.1C319.381 710.1 335.87 713.7 352.483 717C426.434 731.4 503.383 734.7 573.211 716.5C611.311 706.6 647.037 690.3 678.641 666.4C717.99 636.9 746.221 599.8 776.076 563.6C780.448 558.4 784.695 553.1 789.067 548C864.517 458.9 964.825 423 1068.38 422.2C1083.87 422.1 1099.24 422.5 1114.72 423.5C1178.31 427.6 1243.01 441.3 1312.84 454.2C1364.31 463.6 1420.15 472.9 1477.73 477.3C1517.46 480.4 1557.93 481.1 1598.15 477.6C1696.84 469.2 1791.15 426.7 1807.64 379.3" stroke="black" stroke-miterlimit="10"/>
<path d="M-529.928 1057.8C-530.552 935.2 -457.351 815 -338.431 738.2C-254.986 684.2 -149.432 652.3 -42.1282 648.2C-11.2738 647 19.3308 648.3 49.4358 652C132.256 662 209.329 688.6 290.275 708.5C306.764 712.6 323.378 716.4 340.117 719.7C414.692 734.6 492.515 738.2 562.843 719.8C601.193 709.7 637.169 693.1 668.897 668.7C708.246 638.6 736.103 600.7 765.958 564C770.33 558.7 774.577 553.4 779.074 548.2C855.523 458.1 962.452 425.6 1070.75 430.4C1086.99 431.1 1102.98 432.4 1119.1 434.3C1185.05 442.1 1251.01 459.6 1321.84 475.5C1373.93 487.2 1430.39 498.2 1488.48 503.5C1528.57 507.2 1569.42 508.1 1610.02 504.3C1709.58 495.1 1804.64 448 1817.88 394.5" stroke="black" stroke-miterlimit="10"/>
<path d="M-543.294 1057.9C-544.418 936.7 -473.216 817.4 -356.294 740.7C-272.475 685.7 -166.046 653.2 -57.7429 649.3C-26.6387 648.2 4.34067 649.5 34.6954 653.2C118.265 663.4 196.088 690.5 277.408 711C294.022 715.2 310.761 719.1 327.625 722.6C402.95 738.1 481.522 741.9 552.225 723.2C590.824 713 626.925 696.1 658.779 671C698.003 640.2 725.485 601.6 755.465 564.5C759.837 559.1 764.209 553.8 768.706 548.5C846.029 457.4 959.703 428.4 1072.75 438.7C1089.62 440.2 1106.36 442.4 1122.97 445.2C1191.17 456.7 1258.5 478 1330.21 496.9C1382.92 510.8 1439.88 523.6 1498.59 529.8C1539.07 534.1 1580.29 535.2 1621.26 531.1C1721.69 521.1 1817.51 469.4 1827.37 409.8" stroke="black" stroke-miterlimit="10"/>
<path d="M-556.535 1058.1C-558.284 938.3 -488.83 819.9 -374.032 743.3C-289.963 687.3 -182.535 654.3 -73.2326 650.4C-41.8785 649.3 -10.6493 650.6 20.0802 654.4C104.399 664.8 182.972 692.4 264.667 713.5C281.406 717.8 298.27 721.9 315.258 725.4C391.208 741.4 470.53 745.5 541.857 726.5C580.706 716.1 617.057 698.9 648.911 673.3C688.135 641.9 715.116 602.5 745.221 565C749.593 559.6 753.966 554.2 758.463 548.9C836.785 456.8 957.08 431.2 1074.88 447.1C1092.49 449.5 1109.85 452.5 1126.97 456.2C1197.54 471.3 1266.12 496.5 1338.7 518.4C1392.04 534.5 1449.63 549.1 1508.84 556.2C1549.68 561.1 1591.28 562.4 1632.63 558C1733.94 547.2 1830.37 491 1837.12 425.2" stroke="black" stroke-miterlimit="10"/>
<path d="M-569.901 1058.3C-572.15 939.9 -504.695 822.4 -391.895 745.9C-307.701 688.8 -199.024 655.4 -88.8472 651.5C-57.3682 650.4 -25.7643 651.8 5.21506 655.6C90.2833 666.2 169.605 694.3 251.801 715.9C268.664 720.3 285.653 724.5 302.767 728.2C379.34 744.8 459.537 749.1 531.364 729.9C570.463 719.4 606.939 701.9 638.917 675.7C678.141 643.6 704.624 603.5 734.853 565.5C739.225 560 743.722 554.6 748.219 549.2C827.541 456.1 954.582 433.8 1077 455.4C1095.36 458.6 1113.23 462.6 1131.09 467.1C1204.04 485.9 1273.87 514.9 1347.32 539.8C1401.28 558.1 1459.49 574.5 1519.21 582.5C1560.43 588 1602.4 589.5 1644.12 584.8C1746.3 573.2 1843.49 512.4 1846.99 440.5" stroke="black" stroke-miterlimit="10"/>
<path d="M-583.142 1058.5C-586.015 941.5 -520.559 824.7 -409.633 748.5C-325.314 690.2 -215.513 656.5 -104.337 652.7C-72.6079 651.6 -40.7542 653 -9.4001 657C76.4176 667.8 156.489 696.4 239.059 718.6C256.048 723.2 273.161 727.4 290.4 731.3C367.723 748.4 448.669 753.1 520.871 733.5C560.22 722.9 596.945 705 629.049 678.2C668.273 645.5 694.255 604.6 724.61 566.2C728.982 560.7 733.479 555.2 738.101 549.8C818.423 455.7 952.083 436.9 1079.25 463.9C1098.24 467.9 1116.85 472.8 1135.21 478.2C1210.54 500.6 1281.61 533.5 1356.06 561.4C1410.78 581.9 1469.49 600.1 1529.57 609C1571.17 615.1 1613.52 616.8 1655.61 611.7C1758.67 599.2 1856.48 533.9 1856.73 455.9" stroke="black" stroke-miterlimit="10"/>
<path d="M-596.508 1058.6C-599.881 943 -536.299 827.2 -427.496 751.1C-318.694 675 -166.795 640 -24.1403 658.2C80.29 671.5 176.226 711.1 278.033 734.1C398.453 761.3 527.866 758.3 619.18 680.5C664.026 642.3 691.008 593.3 727.983 550.1C809.304 455.1 949.585 439.7 1081.5 472.2C1182.06 497 1271.12 544.4 1364.68 582.9C1458.25 621.4 1563.18 651.9 1667.11 638.6C1771.04 625.3 1869.6 555.5 1866.6 471.2" stroke="black" stroke-miterlimit="10"/>
<path d="M-569.901 1058.5C-568.777 945.5 -502.196 834.8 -393.394 760.6C-380.902 752.1 -367.911 744.1 -354.42 736.6C-250.489 678.7 -120.076 651.1 2.84175 663.1C60.1785 668.6 114.767 682.1 169.231 696.2C211.203 707.1 253.175 718.3 296.146 726.5C412.818 749 538.11 742.5 627.925 665.5C672.145 627.5 699.627 579.3 736.977 537C818.173 444.3 956.456 428.5 1086.49 460.1C1111.23 466.1 1135.21 473.5 1158.82 481.8C1229.9 507 1296.6 540.7 1365.93 569.4C1381.8 576 1397.91 582.3 1414.4 588.2C1493.72 616.6 1579.41 635.2 1664.36 624.5C1766.91 611.6 1864.35 544 1864.22 461.8" stroke="black" stroke-miterlimit="10"/>
<path d="M-543.419 1058.3C-537.798 948 -468.219 842.4 -359.417 770C-346.925 761.7 -333.934 753.9 -320.568 746.5C-217.261 689.5 -89.8464 660.1 29.6988 667.8C85.4116 671.4 138.501 682.4 191.216 694.1C231.939 703.1 272.537 712.4 314.134 718.8C426.934 736.5 548.228 726.7 636.544 650.4C680.14 612.6 708.246 565.4 745.846 523.8C827.167 433.7 963.201 417.2 1091.49 447.9C1115.85 453.7 1139.58 461 1162.94 469.2C1233.15 494 1298.73 527.5 1367.06 556C1382.67 562.5 1398.66 568.8 1414.9 574.6C1493.1 602.8 1577.67 620.8 1661.61 610.5C1762.92 598 1859.1 532.6 1861.85 452.5" stroke="black" stroke-miterlimit="10"/>
<path d="M-516.812 1058.1C-506.693 950.5 -434.117 849.9 -325.314 779.5C-312.823 771.4 -299.956 763.8 -286.59 756.5C-183.784 700.5 -59.4917 669.1 56.6808 672.6C110.895 674.2 162.235 682.8 213.326 692.1C252.8 699.2 292.024 706.5 332.247 711.2C441.424 723.9 558.471 711 645.413 635.3C688.509 597.7 717.115 551.4 754.84 510.6C836.036 422.9 970.071 406 1096.49 435.7C1120.6 441.3 1144.08 448.4 1167.07 456.5C1236.39 480.9 1300.98 514.2 1368.31 542.5C1383.67 549 1399.41 555.2 1415.4 561C1492.47 588.9 1576.04 606.4 1658.86 596.4C1758.8 584.3 1853.86 521.1 1859.48 443.1" stroke="black" stroke-miterlimit="10"/>
<path d="M-490.204 1057.9C-475.464 953 -400.015 857.5 -291.087 788.9C-278.596 781 -265.729 773.5 -252.488 766.4C-150.306 711.4 -29.012 678 83.7877 677.3C136.378 676.9 186.219 683.1 235.437 690C273.536 695.2 311.511 700.5 350.485 703.4C455.79 711.3 568.839 695 654.282 620.1C696.754 582.7 725.859 537.3 763.959 497.3C845.03 412.1 977.192 394.6 1101.73 423.4C1125.59 428.9 1148.7 435.8 1171.44 443.7C1239.89 467.7 1303.35 500.8 1369.68 528.9C1384.79 535.3 1400.28 541.5 1416.15 547.2C1492.1 574.8 1574.54 591.9 1656.36 582.2C1755.05 570.5 1848.99 509.5 1857.35 433.6" stroke="black" stroke-miterlimit="10"/>
<path d="M-463.722 1057.8C-444.485 955.5 -366.037 865.1 -257.11 798.4C-244.618 790.8 -231.752 783.4 -218.635 776.4C-117.078 722.3 1.2178 687 110.52 682.1C161.486 679.8 209.704 683.5 257.297 687.9C294.147 691.2 330.748 694.6 368.348 695.7C469.905 698.8 578.957 679.2 662.776 605C704.624 567.8 734.354 523.3 772.703 484.1C853.774 401.3 983.812 383.4 1106.48 411.1C1129.96 416.4 1152.82 423.1 1175.31 430.9C1242.89 454.4 1305.35 487.4 1370.55 515.2C1385.54 521.6 1400.78 527.7 1416.27 533.4C1491.1 560.7 1572.54 577.3 1653.12 568C1750.43 556.7 1843.24 497.9 1854.48 424.1" stroke="black" stroke-miterlimit="10"/>
<path d="M-437.115 1057.6C-413.381 958 -331.935 872.7 -223.008 807.9C-210.516 800.5 -197.65 793.3 -184.658 786.4C-83.6007 733.3 31.5725 696.1 137.502 687C186.969 682.7 233.563 684.1 279.407 686C314.883 687.5 350.235 688.8 386.461 688.2C484.27 686.4 589.2 663.5 671.521 590C712.743 553 742.973 509.4 781.697 471C862.643 390.7 990.683 372.2 1111.48 399C1134.71 404.1 1157.32 410.7 1179.43 418.3C1246.14 441.4 1307.47 474.2 1371.68 501.8C1386.42 508.1 1401.41 514.2 1416.65 519.8C1490.35 546.8 1570.67 563 1650.24 554C1746.18 543.1 1837.87 486.5 1851.98 414.7" stroke="black" stroke-miterlimit="10"/>
<path d="M-410.508 1057.4C-382.151 960.5 -297.833 880.2 -188.905 817.3C-176.414 810.1 -163.672 803.1 -150.556 796.4C-50.1229 744.3 61.9273 705.1 164.484 691.8C212.327 685.5 257.422 684.5 301.517 684C335.745 683.6 369.722 683 404.574 680.5C498.636 673.9 599.444 647.7 680.265 574.9C720.863 538.1 751.592 495.4 790.566 457.8C871.387 379.9 997.428 360.9 1116.47 386.8C1139.33 391.8 1161.69 398.1 1183.55 405.7C1249.39 428.4 1309.59 461 1372.93 488.4C1387.42 494.7 1402.16 500.7 1417.27 506.2C1489.85 532.9 1569.17 548.6 1647.62 539.9C1742.31 529.4 1832.75 475 1849.73 405.3" stroke="black" stroke-miterlimit="10"/>
<path d="M-384.025 1057.2C-351.172 962.9 -263.855 887.8 -154.928 826.8C-142.436 819.8 -129.695 813 -116.704 806.4C-16.7702 755.2 92.2821 714.1 191.466 696.6C237.685 688.4 281.156 684.9 323.628 682C356.606 679.8 389.209 677.1 422.687 672.9C512.876 661.5 609.687 632 689.134 559.9C729.232 523.4 760.461 481.5 799.685 444.8C880.381 369.3 1004.55 349.9 1121.6 374.8C1144.21 379.6 1166.19 385.8 1187.8 393.2C1252.76 415.5 1311.97 447.9 1374.18 475.1C1388.42 481.3 1403.03 487.3 1417.77 492.8C1489.23 519.3 1567.42 534.4 1644.87 526.1C1738.18 516 1827.5 463.8 1847.49 396.2" stroke="black" stroke-miterlimit="10"/>
<path d="M-357.418 1057.1C-320.068 965.5 -229.753 895.4 -120.826 836.3C-108.334 829.5 -95.5926 822.9 -82.7262 816.4C16.5826 766.2 122.637 723.1 218.323 701.4C263.043 691.2 304.89 685.3 345.613 680C377.217 675.9 408.571 671.3 440.675 665.3C527.117 649.1 619.805 616.2 697.753 544.8C737.227 508.5 768.956 467.5 808.554 431.6C889.001 358.5 1011.29 338.6 1126.59 362.6C1148.83 367.2 1170.69 373.2 1191.92 380.5C1256.01 402.4 1314.09 434.6 1375.3 461.5C1389.29 467.7 1403.66 473.6 1418.27 479C1488.6 505.2 1565.8 519.9 1642.12 511.9C1734.06 502.2 1822.25 452.2 1845.11 386.7" stroke="black" stroke-miterlimit="10"/>
<path d="M-330.811 1056.9C-288.964 968 -195.651 903 -86.5987 845.8C-74.107 839.2 -61.3655 832.8 -48.624 826.4C50.0602 777.1 152.992 732.1 245.305 706.2C288.401 694 328.749 685.7 367.723 678C398.078 672 428.058 665.4 458.788 657.6C541.357 636.7 630.173 600.4 706.497 529.7C745.346 493.6 777.575 453.5 817.548 418.4C897.87 347.8 1018.16 327.4 1131.59 350.4C1153.57 354.8 1175.06 360.7 1196.05 367.8C1259.25 389.3 1316.34 421.3 1376.55 448C1390.29 454.1 1404.41 460 1418.77 465.4C1487.98 491.3 1564.05 505.5 1639.25 497.8C1729.94 488.5 1816.88 440.7 1842.61 377.3" stroke="black" stroke-miterlimit="10"/>
<path d="M-304.328 1056.7C-257.859 970.5 -161.674 910.6 -52.6212 855.2C-40.1296 848.9 -27.513 842.6 -14.7715 836.3C83.413 788 183.346 741.1 272.287 711C313.884 696.8 352.484 686.1 389.834 676C418.939 668.1 447.42 659.6 477.025 650C555.848 624.3 640.541 584.6 715.367 514.7C753.591 478.8 786.319 439.6 826.542 405.3C906.614 337.1 1025.03 316.2 1136.71 338.3C1158.45 342.6 1179.56 348.3 1200.29 355.2C1262.63 376.3 1318.59 408.1 1377.8 434.6C1391.42 440.7 1405.16 446.5 1419.4 451.8C1487.48 477.4 1562.55 491.1 1636.63 483.8C1725.94 474.9 1811.89 429.3 1840.37 367.9" stroke="black" stroke-miterlimit="10"/>
<path d="M-277.721 1056.5C-226.755 972.9 -127.571 918.1 -18.5191 864.7C-6.02744 858.6 6.58915 852.5 19.2057 846.3C116.891 799 213.701 750.1 299.269 715.8C339.242 699.7 376.343 686.5 411.944 674C439.675 664.2 466.907 653.8 495.138 642.4C570.088 612 650.784 568.9 724.111 499.6C761.835 463.9 794.938 425.6 835.536 392.1C915.483 326.2 1032.03 304.9 1141.71 326.1C1163.07 330.2 1184.05 335.7 1204.42 342.6C1265.87 363.3 1320.84 394.9 1378.92 421.2C1392.29 427.2 1405.91 433 1419.77 438.2C1486.73 463.5 1560.68 476.8 1633.75 469.8C1721.82 461.4 1806.51 417.9 1837.87 358.6" stroke="black" stroke-miterlimit="10"/>
<path d="M-251.239 1056.4C-195.776 975.5 -93.5939 925.8 15.4583 874.2C27.95 868.3 40.5666 862.4 53.1832 856.3C150.243 809.9 244.056 759.1 326.126 720.6C364.475 702.5 400.077 686.9 433.929 672C460.411 660.3 486.269 648 513.126 634.7C584.329 599.6 660.903 553.1 732.73 484.5C769.83 449 803.433 411.5 844.405 378.9C924.102 315.4 1038.78 293.7 1146.58 313.9C1167.69 317.8 1188.3 323.2 1208.41 329.9C1269 350.1 1322.84 381.6 1380.05 407.6C1393.16 413.6 1406.53 419.3 1420.27 424.5C1486.1 449.6 1559.05 462.3 1631.01 455.6C1717.7 447.6 1801.27 406.3 1835.49 349.1" stroke="black" stroke-miterlimit="10"/>
<path d="M-224.632 1056.2C-164.547 978 -59.4918 933.3 49.5605 883.6C62.0521 877.9 74.6688 872.1 87.1604 866.3C183.596 820.9 274.41 768.1 353.108 725.4C389.958 705.3 423.811 687.3 456.039 670C481.148 656.4 505.756 642.2 531.239 627.1C598.569 587.2 671.146 537.3 741.599 469.4C778.075 434.1 812.177 397.5 853.524 365.7C932.971 304.6 1045.77 282.4 1151.82 301.6C1172.56 305.3 1192.92 310.5 1212.78 317.1C1272.49 336.9 1325.21 368.2 1381.42 394C1394.29 399.9 1407.4 405.6 1420.9 410.7C1485.6 435.5 1557.43 447.8 1628.38 441.4C1713.7 433.8 1796.15 394.8 1833.25 339.6" stroke="black" stroke-miterlimit="10"/>
<path d="M-198.024 1056C-133.442 980.5 -25.3895 940.9 83.6627 893.1C96.1544 887.6 108.646 882 121.138 876.3C217.074 831.9 304.765 777.2 380.09 730.2C415.317 708.2 447.67 687.7 478.15 667.9C502.009 652.4 525.243 636.3 549.352 619.4C612.935 574.8 681.389 521.5 750.343 454.3C786.194 419.2 820.796 383.5 862.393 352.5C941.59 293.7 1052.52 271.2 1156.7 289.4C1177.18 293 1197.17 298 1216.78 304.4C1275.62 323.8 1327.33 354.9 1382.42 380.5C1395.04 386.4 1408.03 392 1421.15 397.1C1484.73 421.6 1555.56 433.4 1625.26 427.4C1709.33 420.2 1790.52 383.4 1830.5 330.3" stroke="black" stroke-miterlimit="10"/>
<path d="M-171.542 1055.8C-102.463 982.9 8.58789 948.4 117.765 902.5C130.257 897.2 142.748 891.8 155.115 886.2C250.427 842.7 335.12 786.1 407.072 735C440.8 711 471.404 688.1 500.26 665.9C522.87 648.6 544.73 630.5 567.465 611.7C627.3 562.4 691.757 505.6 759.087 439.2C794.439 404.3 829.29 369.4 871.387 339.3C950.335 282.9 1059.39 259.9 1161.82 277.2C1181.93 280.6 1201.79 285.4 1221.03 291.8C1278.99 310.8 1329.58 341.7 1383.8 367.1C1396.29 372.9 1408.9 378.5 1421.9 383.5C1484.35 407.7 1554.06 419 1622.76 413.3C1705.46 406.5 1785.53 371.9 1828.37 320.8" stroke="black" stroke-miterlimit="10"/>
<path d="M-144.935 1055.7C-71.3588 985.5 42.6901 956.1 151.867 912.1C164.359 907.1 176.851 901.8 189.092 896.3C283.904 853.8 365.475 795.2 433.929 739.9C466.033 713.9 495.138 688.6 522.245 664C543.481 644.8 564.092 624.7 585.453 604.2C641.541 550.2 701.875 490 767.706 424.2C802.433 389.5 837.785 355.5 880.256 326.3C958.954 272.2 1066.26 248.8 1166.69 265.2C1186.55 268.4 1206.04 273.1 1225.03 279.3C1282.11 297.9 1331.71 328.6 1384.79 353.7C1397.04 359.5 1409.4 365 1422.14 370C1483.48 393.9 1552.18 404.8 1619.76 399.4C1701.08 393 1780.03 360.6 1825.75 311.6" stroke="black" stroke-miterlimit="10"/>
<path d="M-118.328 1055.5C-40.1297 988 76.7923 963.6 185.97 921.5C198.461 916.7 210.828 911.6 223.07 906.2C317.257 864.6 395.829 804.1 460.911 744.6C491.391 716.7 518.872 688.8 544.355 661.9C564.217 640.7 583.579 618.8 603.691 596.5C656.156 537.8 712.243 474.2 776.576 409.1C810.678 374.6 846.529 341.4 889.375 313.1C967.698 261.3 1073.25 237.6 1171.81 253C1191.42 256 1210.54 260.6 1229.27 266.6C1285.49 284.8 1333.95 315.3 1386.04 340.2C1398.04 345.9 1410.15 351.4 1422.77 356.3C1482.98 379.9 1550.56 390.3 1617.14 385.3C1697.21 379.3 1775.03 349.1 1823.5 302.2" stroke="black" stroke-miterlimit="10"/>
<path d="M-91.8451 1055.3C-9.15026 990.4 110.77 971.2 219.947 931C232.439 926.4 244.805 921.5 256.922 916.2C350.61 875.6 426.059 813.2 487.768 749.4C516.749 719.5 542.482 689.2 566.341 659.9C584.953 636.8 603.066 613 621.679 588.8C670.396 525.4 722.362 458.3 785.32 394C818.798 359.7 855.023 327.3 898.244 299.9C976.317 250.4 1080 226.3 1176.81 240.8C1196.05 243.7 1215.03 248 1233.4 253.9C1288.73 271.7 1336.08 302 1387.29 326.7C1399.04 332.4 1411.03 337.8 1423.27 342.6C1482.35 366 1548.94 375.8 1614.39 371.2C1693.09 365.6 1769.79 337.6 1821.13 292.8" stroke="black" stroke-miterlimit="10"/>
<path d="M-65.238 1055.1C21.9539 992.9 144.872 978.8 254.049 940.4C266.541 936 278.907 931.3 291.024 926.1C384.087 886.5 456.539 822.1 514.875 754.2C542.232 722.3 566.466 689.6 588.576 657.9C605.814 633 622.678 607.2 639.917 581.2C685.136 513.2 732.73 442.6 794.189 378.9C827.042 344.8 863.767 313.2 907.363 286.7C985.061 239.4 1086.99 215.1 1181.93 228.6C1200.92 231.3 1219.53 235.5 1237.64 241.2C1292.11 258.5 1338.45 288.7 1388.54 313.2C1400.03 318.8 1411.78 324.2 1423.89 329C1481.85 352.1 1547.31 361.5 1611.64 357.1C1689.09 351.9 1764.54 326.1 1818.76 283.4" stroke="black" stroke-miterlimit="10"/>
<path d="M-38.6306 1055C63.6761 988.7 208.33 985 325.002 936.2C460.911 879.4 546.854 762.9 610.561 656C691.008 521.2 759.337 364.9 916.232 273.7C1009.17 219.6 1134.84 195 1241.77 228.7C1307.72 249.5 1360.94 290 1424.27 315.5C1549.31 365.7 1711.7 348.6 1816.26 274.2" stroke="black" stroke-miterlimit="10"/>
</g>
</g>
<mask id="mask1_308_1049" style="mask-type:luminance" maskUnits="userSpaceOnUse" x="-47" y="0" width="1499" height="800">
<path d="M1452 0H-47V800H1452V0Z" fill="white"/>
</mask>
<g mask="url(#mask1_308_1049)">
<path d="M365.1 899.2C370.721 805.1 436.178 716.4 536.111 666.7C586.702 641.5 645.288 626.7 704.873 623.5C772.578 619.8 827.292 638.7 892.124 648.3C942.59 655.8 995.055 657.6 1044.77 646.3C1096.24 634.7 1142.71 609.2 1174.81 575C1228.52 517.9 1219.66 445.8 1254.63 382.5C1286.24 325.2 1353.07 281.2 1429.39 267.4C1505.71 253.6 1589.66 270.4 1648.99 311.3" stroke="#00AAFF" stroke-miterlimit="10"/>
<path d="M356.481 899.4C361.727 806.2 426.059 718.2 524.494 668.4C575.335 642.5 634.545 627.4 694.63 624.2C712.493 623.2 729.482 623.9 746.096 625.5C792.69 630 835.536 642.5 883.629 650C893.123 651.5 902.741 652.7 912.235 653.8C954.207 658.3 996.929 657.9 1037.78 648.6C1060.26 643.5 1081.62 635.7 1101.36 625.5C1127.09 612.2 1149.7 595.1 1167.94 575.4C1170.56 572.5 1173.19 569.6 1175.56 566.7C1215.53 517.9 1220.28 462.6 1244.39 412.5C1248.14 404.8 1252.26 397.1 1257.01 389.7C1276.74 359.1 1307.35 333.1 1344.57 314.1C1372.05 300.1 1403.16 289.9 1435.89 284.6C1458.25 281 1481.23 279.7 1503.97 280.5C1559.93 282.4 1615.02 296.3 1654.99 321.3" stroke="#00AAFF" stroke-miterlimit="10"/>
<path d="M347.862 899.5C352.733 807.2 416.191 720.1 513.001 670.1C564.217 643.7 623.927 628.1 684.637 625C702.625 624.1 719.864 624.7 736.602 626.3C783.696 631 826.917 643.8 875.385 651.6C885.003 653.1 894.622 654.5 904.24 655.6C946.587 660.4 989.933 660.3 1031.03 650.8C1053.64 645.6 1075.25 637.6 1094.99 627C1120.72 613.3 1142.96 595.7 1161.32 575.7C1163.94 572.8 1166.57 569.8 1168.94 566.9C1209.54 517.4 1218.78 464.5 1245.89 417.9C1250.01 410.7 1254.63 403.6 1259.75 396.8C1280.99 368.6 1312.47 345 1350.19 328C1378.05 315.4 1409.53 306.4 1442.63 301.7C1465.24 298.5 1488.48 297.3 1511.46 297.9C1568.05 299.2 1623.51 310.2 1661.49 331.3" stroke="#00AAFF" stroke-miterlimit="10"/>
<path d="M339.242 899.6C343.739 808.2 406.073 721.8 501.509 671.8C552.975 644.8 613.309 628.8 674.644 625.7C692.756 624.8 710.245 625.4 727.234 627.1C774.827 631.9 818.548 645 867.265 653.2C876.884 654.8 886.627 656.3 896.371 657.4C939.217 662.6 982.938 662.6 1024.41 652.9C1047.14 647.6 1068.88 639.4 1088.74 628.4C1114.48 614.3 1136.46 596.2 1154.82 576C1157.57 573 1160.07 570.1 1162.57 567.1C1203.79 517 1217.41 466.3 1247.51 423.3C1252.13 416.7 1257.13 410.2 1262.63 403.8C1285.49 378 1317.71 356.9 1356.06 341.8C1384.42 330.7 1416.15 322.8 1449.63 318.7C1472.49 315.9 1495.85 314.9 1519.21 315.2C1576.42 316 1632.25 324 1668.11 341.1" stroke="#00AAFF" stroke-miterlimit="10"/>
<path d="M330.623 899.7C334.745 809.2 395.955 723.5 489.892 673.4C541.607 645.9 602.442 629.5 664.525 626.4C682.888 625.5 700.376 626.1 717.615 627.9C765.583 632.8 809.928 646.3 858.896 654.8C868.639 656.5 878.383 658 888.251 659.3C931.472 664.8 975.818 665 1017.54 655.2C1040.52 649.8 1062.26 641.4 1082.12 630.1C1107.85 615.6 1129.47 597 1148.08 576.5C1150.83 573.5 1153.32 570.5 1155.82 567.5C1197.67 516.7 1215.66 468.4 1248.76 428.9C1253.88 422.8 1259.25 416.9 1265.12 411.1C1289.48 387.7 1322.59 369.1 1361.44 356C1390.17 346.3 1422.39 339.6 1456.12 336.1C1479.23 333.7 1502.84 332.8 1526.45 332.9C1584.16 333.2 1640.5 338.2 1674.35 351.3" stroke="#00AAFF" stroke-miterlimit="10"/>
<path d="M321.879 899.8C325.627 810.2 385.711 725.2 478.275 675.1C530.115 647 591.699 630.2 654.407 627.1C672.895 626.2 690.633 626.9 707.997 628.7C756.464 633.8 801.309 647.5 850.526 656.4C860.395 658.2 870.263 659.8 880.132 661.1C923.852 667 968.698 667.3 1010.79 657.3C1033.9 651.8 1055.89 643.2 1075.75 631.5C1101.48 616.6 1122.84 597.5 1141.46 576.7C1144.21 573.7 1146.83 570.6 1149.33 567.6C1191.8 516.2 1214.16 470.2 1250.38 434.1C1256.01 428.6 1261.75 423.2 1268 418C1293.86 396.9 1327.83 380.9 1367.31 369.7C1396.41 361.4 1429.02 355.9 1463.12 352.9C1486.48 350.9 1510.34 350.1 1534.2 350C1592.53 349.8 1649.37 351.8 1680.97 360.9" stroke="#00AAFF" stroke-miterlimit="10"/>
<path d="M313.26 899.9C316.633 811.2 375.718 726.9 466.782 676.8C518.873 648.1 581.081 630.9 644.414 627.9C663.026 627 681.014 627.7 698.503 629.6C747.47 634.8 792.69 648.9 842.282 658.1C852.15 660 862.144 661.6 872.137 663C916.233 669.2 961.577 669.8 1004.05 659.6C1027.28 654 1049.39 645.2 1069.38 633.1C1094.99 617.7 1116.1 598.1 1134.84 577.1C1137.58 574 1140.21 571 1142.71 567.9C1185.8 515.9 1212.53 472.1 1251.76 439.6C1257.75 434.6 1264 429.8 1270.62 425.2C1297.98 406.5 1332.7 392.9 1372.8 383.7C1402.41 376.9 1435.26 372.5 1469.74 370.1C1493.35 368.5 1517.46 367.8 1541.44 367.5C1600.28 366.7 1657.61 365.8 1687.09 371" stroke="#00AAFF" stroke-miterlimit="10"/>
<path d="M304.64 900C307.638 812.2 365.6 728.6 455.165 678.4C507.505 649.1 570.338 631.5 634.171 628.5C652.908 627.6 671.021 628.3 688.884 630.2C738.351 635.5 784.071 649.9 833.912 659.6C843.906 661.5 853.899 663.3 864.017 664.8C908.613 671.4 954.457 672.1 997.178 661.7C1020.54 656 1042.77 647 1062.88 634.5C1088.49 618.7 1109.35 598.6 1128.09 577.3C1130.84 574.2 1133.46 571.1 1136.09 568C1179.93 515.3 1210.91 473.9 1253.13 444.9C1259.63 440.5 1266.25 436.2 1273.24 432.2C1302.22 415.9 1337.7 404.8 1378.42 397.5C1408.4 392.1 1441.76 388.9 1476.48 387.1C1500.34 385.9 1524.7 385.4 1548.94 384.8C1608.4 383.5 1666.11 379.6 1693.59 380.8" stroke="#00AAFF" stroke-miterlimit="10"/>
<path d="M296.021 900.2C298.644 813.3 355.481 730.4 443.673 680.2C496.263 650.3 559.595 632.3 624.177 629.4C643.04 628.5 661.402 629.3 679.39 631.2C729.357 636.7 775.576 651.4 825.668 661.4C835.786 663.4 845.904 665.3 856.023 666.8C900.993 673.7 947.337 674.6 990.433 664C1014.04 658.2 1036.28 649 1056.51 636.2C1082.12 619.9 1102.61 599.4 1121.47 577.8C1124.22 574.7 1126.84 571.5 1129.47 568.4C1173.94 515.1 1209.16 475.9 1254.63 450.5C1261.5 446.6 1268.62 442.9 1275.99 439.5C1306.47 425.6 1342.82 417 1384.05 411.7C1414.53 407.8 1448.13 405.7 1483.23 404.5C1507.34 403.7 1531.95 403.3 1556.43 402.5C1616.52 400.7 1674.6 393.9 1699.96 391" stroke="#00AAFF" stroke-miterlimit="10"/>
<path d="M287.277 900.3C289.525 814.4 345.238 732 432.055 681.8C484.895 651.2 548.853 632.9 614.059 630C633.046 629.2 651.659 629.9 669.772 631.9C720.238 637.5 766.832 652.5 817.298 662.9C827.417 665 837.66 666.9 847.903 668.5C893.373 675.8 940.216 676.8 983.563 666.1C1007.3 660.2 1029.78 650.8 1049.89 637.6C1075.5 620.9 1095.74 599.9 1114.6 578C1117.35 574.8 1120.1 571.6 1122.72 568.5C1167.81 514.5 1207.41 477.7 1255.88 455.8C1263.25 452.5 1270.75 449.3 1278.49 446.5C1310.47 434.9 1347.69 428.8 1389.54 425.5C1420.4 423 1454.5 422.1 1489.85 421.5C1514.21 421.1 1539.07 420.8 1563.8 419.9C1624.39 417.6 1682.97 407.8 1706.21 400.9" stroke="#00AAFF" stroke-miterlimit="10"/>
<path d="M278.658 900.4C280.531 815.4 335.12 733.7 420.438 683.5C473.528 652.3 538.11 633.6 603.941 630.8C623.178 630 641.915 630.7 660.278 632.8C711.244 638.5 758.338 653.9 809.054 664.6C819.297 666.8 829.54 668.8 839.908 670.5C885.753 678.1 933.221 679.4 976.817 668.4C1000.68 662.4 1023.29 652.8 1043.52 639.2C1069.13 622.1 1088.99 600.6 1107.98 578.4C1110.73 575.2 1113.48 572 1116.1 568.8C1161.82 514.2 1205.66 479.6 1257.25 461.2C1265.12 458.4 1272.99 455.8 1281.11 453.6C1314.72 444.4 1352.69 440.8 1395.16 439.4C1426.39 438.3 1460.87 438.6 1496.6 438.5C1521.2 438.5 1546.19 438.3 1571.17 437.2C1632.38 434.4 1691.47 421.6 1712.58 410.8" stroke="#00AAFF" stroke-miterlimit="10"/>
<path d="M270.039 900.5C271.538 816.4 324.877 735.3 408.946 685.2C462.16 653.4 527.367 634.3 593.947 631.5C613.31 630.7 632.172 631.4 650.785 633.6C702.125 639.4 749.843 655.1 800.809 666.2C811.053 668.5 821.421 670.5 831.914 672.3C878.133 680.3 926.101 681.7 970.197 670.6C994.305 664.5 1016.92 654.7 1037.28 640.8C1062.76 623.3 1082.5 601.3 1101.48 578.8C1104.23 575.5 1106.98 572.3 1109.73 569.1C1156.07 513.8 1204.17 481.5 1259 466.7C1267.25 464.5 1275.62 462.5 1284.11 460.8C1319.21 454 1358.06 452.9 1401.03 453.4C1432.76 453.8 1467.49 455.2 1503.59 455.7C1528.45 456.1 1553.68 456.1 1578.92 454.7C1640.62 451.3 1700.21 435.6 1719.2 420.8" stroke="#00AAFF" stroke-miterlimit="10"/>
<path d="M261.419 900.6C262.544 817.4 314.759 737 397.454 686.8C450.918 654.4 516.749 634.9 583.954 632.2C603.441 631.4 622.553 632.2 641.291 634.3C693.131 640.3 741.349 656.3 792.69 667.7C803.058 670 813.551 672.2 824.044 674C870.763 682.3 919.23 683.9 963.576 672.6C987.81 666.4 1010.54 656.4 1031.03 642.1C1056.51 624.2 1075.88 601.6 1094.99 578.9C1097.74 575.6 1100.48 572.3 1103.23 569.1C1150.2 513.2 1202.67 483.2 1260.5 471.9C1269.25 470.2 1277.99 468.8 1286.86 467.7C1323.46 463.3 1363.06 464.6 1406.78 467.2C1438.88 469 1474.11 471.6 1510.46 472.7C1535.57 473.5 1561.05 473.6 1586.54 472C1648.87 468.1 1708.83 449.4 1725.82 430.6" stroke="#00AAFF" stroke-miterlimit="10"/>
<path d="M252.8 900.7C253.549 818.4 304.64 738.6 385.836 688.5C439.55 655.4 506.006 635.7 573.711 632.9C593.323 632.1 612.685 632.9 631.547 635.1C683.887 641.2 732.48 657.5 784.195 669.4C794.688 671.8 805.181 674 815.799 676C862.893 684.7 911.86 686.4 956.58 675C980.939 668.7 1003.92 658.5 1024.41 643.8C1049.89 625.5 1069.01 602.4 1088.12 579.4C1090.87 576.1 1093.61 572.7 1096.49 569.5C1144.21 512.9 1200.79 485.2 1261.75 477.5C1270.87 476.3 1280.11 475.5 1289.36 475C1327.58 472.9 1367.93 476.8 1412.15 481.3C1444.63 484.6 1480.23 488.3 1516.96 490C1542.19 491.2 1568.05 491.4 1593.78 489.6C1656.74 485.2 1717.07 463.5 1731.94 440.7" stroke="#00AAFF" stroke-miterlimit="10"/>
<path d="M244.056 900.8C244.431 819.4 294.272 740.2 374.219 690.1C428.058 656.4 495.263 636.3 563.593 633.6C583.329 632.8 602.816 633.6 622.054 635.9C674.893 642.1 723.986 658.8 775.951 671C786.444 673.5 797.062 675.8 807.805 677.8C855.398 686.8 904.865 688.8 949.835 677.1C974.444 670.8 997.428 660.4 1017.91 645.2C1043.4 626.5 1062.14 602.9 1081.37 579.6C1084.12 576.2 1086.99 572.9 1089.74 569.5C1138.08 512.3 1198.92 486.8 1263 482.7C1272.62 482.1 1282.24 481.8 1291.86 481.9C1331.58 482.2 1372.8 488.6 1417.65 495C1450.63 499.7 1486.48 504.6 1523.58 506.8C1549.06 508.4 1575.17 508.7 1601.15 506.7C1664.61 501.8 1725.44 477.1 1738.18 450.4" stroke="#00AAFF" stroke-miterlimit="10"/>
<path d="M235.437 901C235.437 820.5 284.154 741.9 362.727 691.9C416.816 657.5 484.52 637.1 553.599 634.4C573.461 633.6 593.198 634.5 612.56 636.8C665.899 643.2 715.491 660.1 767.706 672.7C778.324 675.3 789.067 677.7 799.81 679.7C847.778 689.1 897.87 691.2 943.089 679.4C967.823 673 991.058 662.4 1011.54 646.9C1037.03 627.8 1055.51 603.7 1074.88 580.1C1077.62 576.7 1080.5 573.3 1083.37 569.9C1132.34 512.1 1197.54 488.7 1264.75 488.2C1274.87 488.1 1284.86 488.4 1294.85 489C1336.08 491.7 1378.17 500.6 1423.52 508.9C1456.87 515 1493.22 521.1 1530.57 523.9C1556.31 525.9 1582.66 526.4 1608.77 524.1C1672.85 518.6 1734.06 491 1744.8 460.3" stroke="#00AAFF" stroke-miterlimit="10"/>
<path d="M226.817 901.1C226.443 821.5 273.911 743.5 351.109 693.6C405.323 658.6 473.778 637.8 543.481 635.2C563.468 634.4 583.454 635.3 602.941 637.7C656.78 644.2 706.747 661.5 759.337 674.4C770.08 677 780.823 679.5 791.69 681.7C840.158 691.4 890.624 693.7 936.344 681.7C961.202 675.2 984.562 664.4 1005.17 648.5C1030.66 628.9 1048.77 604.4 1068.26 580.5C1071.13 577.1 1073.88 573.6 1076.75 570.2C1126.34 511.7 1195.8 490.6 1266.12 493.7C1276.62 494.2 1287.11 495 1297.48 496.2C1340.32 501.3 1383.17 512.6 1429.14 523C1462.99 530.6 1499.59 537.7 1537.32 541.2C1563.3 543.6 1589.91 544.2 1616.27 541.7C1680.85 535.7 1742.68 505.2 1751.18 470.4" stroke="#00AAFF" stroke-miterlimit="10"/>
<path d="M218.198 901.2C217.449 822.5 263.793 745.1 339.617 695.2C393.956 659.5 463.16 638.4 533.488 635.8C553.724 635.1 573.711 635.9 593.573 638.3C647.787 644.9 698.378 662.5 751.218 675.8C761.96 678.5 772.828 681.1 783.821 683.3C832.663 693.4 883.754 695.9 929.723 683.7C954.832 677.1 978.191 666.1 998.927 649.8C1024.41 629.8 1042.27 604.7 1061.76 580.6C1064.63 577.1 1067.38 573.7 1070.38 570.2C1120.6 511.1 1194.42 492.2 1267.75 498.9C1278.74 499.9 1289.61 501.3 1300.35 503.1C1344.7 510.5 1388.42 524.4 1434.89 536.7C1469.11 545.7 1506.09 554 1544.19 558.1C1570.42 560.9 1597.28 561.6 1623.89 558.9C1689.09 552.4 1751.3 518.9 1757.8 480.1" stroke="#00AAFF" stroke-miterlimit="10"/>
<path d="M209.454 901.3C208.33 823.5 253.425 746.6 328 696.9C382.588 660.5 452.417 639.1 523.37 636.6C543.731 635.9 563.967 636.7 583.954 639.2C638.668 646 689.759 663.9 742.848 677.6C753.716 680.4 764.584 683 775.701 685.4C825.043 695.8 876.509 698.5 922.853 686.1C948.086 679.4 971.695 668.2 992.432 651.6C1017.91 631.2 1035.4 605.6 1055.01 581.3C1057.89 577.8 1060.76 574.3 1063.63 570.8C1114.48 511 1192.55 494.4 1269.12 504.7C1280.49 506.2 1291.86 508.2 1302.97 510.6C1348.82 520.4 1393.41 536.8 1440.51 551C1475.11 561.5 1512.58 570.9 1550.93 575.5C1577.42 578.7 1604.4 579.5 1631.38 576.7C1697.09 569.7 1759.79 533.2 1764.17 490.5" stroke="#00AAFF" stroke-miterlimit="10"/>
<path d="M200.835 901.4C199.336 824.5 243.181 748.2 316.383 698.6C371.096 661.5 441.549 639.8 513.126 637.3C533.613 636.6 554.099 637.5 574.211 640C629.424 646.9 681.014 665.1 734.354 679.2C745.346 682.1 756.339 684.8 767.457 687.2C817.174 698 869.264 700.8 915.858 688.3C941.216 681.5 964.95 670.1 985.686 653.1C1011.17 632.3 1028.41 606.2 1048.02 581.6C1050.89 578 1053.77 574.5 1056.76 571C1108.35 510.6 1190.67 496 1270.25 510.1C1282.11 512.2 1293.86 514.7 1305.35 517.7C1352.69 529.9 1398.04 548.7 1445.75 564.9C1480.86 576.8 1518.58 587.4 1557.3 592.6C1584.04 596.2 1611.27 597.2 1638.38 594.1C1704.71 586.5 1767.79 547.1 1770.04 500.4" stroke="#00AAFF" stroke-miterlimit="10"/>
<path d="M192.215 901.5C190.342 825.5 232.813 749.7 304.89 700.2C359.604 662.4 430.931 640.4 503.133 638C523.744 637.3 544.356 638.2 564.717 640.8C620.43 647.8 672.395 666.4 726.109 680.8C737.102 683.8 748.219 686.5 759.462 689C809.678 700.1 862.268 703.1 909.112 690.4C934.595 683.5 958.454 671.9 979.315 654.5C1004.8 633.3 1021.66 606.7 1041.4 581.8C1044.27 578.2 1047.15 574.6 1050.14 571.1C1102.36 510 1189.05 497.8 1271.62 515.3C1283.99 517.9 1296.1 521.1 1307.97 524.6C1356.94 539.2 1403.03 560.5 1451.38 578.7C1486.85 592 1524.95 603.8 1564.05 609.6C1591.03 613.6 1618.51 614.7 1645.87 611.4C1712.83 603.3 1776.28 560.9 1776.53 510.2" stroke="#00AAFF" stroke-miterlimit="10"/>
<path d="M183.596 901.6C181.348 826.5 222.695 751.3 293.398 701.9C364.101 652.5 462.66 629.8 555.348 641.6C623.178 650.2 685.511 675.9 751.467 690.9C829.665 708.6 913.734 706.6 972.945 656.1C1002.05 631.3 1019.54 599.5 1043.65 571.4C1096.49 509.7 1187.55 499.7 1273.24 520.8C1338.58 536.9 1396.41 567.7 1457.12 592.7C1517.96 617.7 1586.04 637.5 1653.49 628.9C1720.95 620.3 1785.03 574.9 1783.03 520.2" stroke="#00AAFF" stroke-miterlimit="10"/>
<path d="M200.835 901.5C201.584 828.1 244.805 756.2 315.508 708C323.628 702.5 331.997 697.3 340.741 692.4C408.196 654.8 492.89 636.9 572.712 644.6C609.937 648.2 645.413 656.9 680.764 666.1C707.996 673.2 735.228 680.5 763.209 685.8C838.909 700.4 920.355 696.2 978.691 646.2C1007.42 621.6 1025.28 590.3 1049.52 562.7C1102.23 502.5 1192.05 492.2 1276.49 512.8C1292.48 516.7 1308.1 521.5 1323.46 526.9C1369.68 543.3 1412.9 565.2 1458 583.8C1468.24 588.1 1478.86 592.2 1489.47 596C1540.94 614.5 1596.65 626.5 1651.74 619.6C1718.32 611.2 1781.66 567.3 1781.53 514" stroke="#00AAFF" stroke-miterlimit="10"/>
<path d="M218.073 901.4C221.696 829.8 266.916 761.2 337.618 714.2C345.738 708.8 354.107 703.7 362.851 698.9C429.932 661.9 512.627 642.8 590.325 647.8C626.551 650.1 660.903 657.3 695.13 664.9C721.612 670.7 747.97 676.8 774.952 680.9C848.278 692.4 926.975 686 984.312 636.5C1012.67 612 1030.91 581.3 1055.26 554.3C1107.98 495.8 1196.42 485.1 1279.74 505C1295.6 508.8 1310.97 513.5 1326.08 518.8C1371.68 534.9 1414.28 556.7 1458.62 575.2C1468.74 579.4 1479.11 583.5 1489.6 587.3C1540.32 605.6 1595.28 617.3 1649.74 610.6C1715.45 602.5 1778.03 560 1779.78 508" stroke="#00AAFF" stroke-miterlimit="10"/>
<path d="M235.312 901.3C241.932 831.4 289.026 766.1 359.729 720.4C367.848 715.2 376.218 710.2 384.837 705.5C451.542 669.1 532.363 648.7 607.688 651C642.915 652 676.267 657.6 709.37 663.6C734.978 668.2 760.461 672.9 786.569 676C857.397 684.3 933.471 675.8 989.933 626.7C1017.91 602.3 1036.53 572.2 1061.01 545.7C1113.73 488.8 1200.79 477.8 1282.86 497C1298.48 500.7 1313.72 505.3 1328.71 510.5C1373.8 526.3 1415.65 548 1459.37 566.3C1469.36 570.5 1479.61 574.5 1489.97 578.3C1540.07 596.4 1594.28 607.8 1647.99 601.3C1712.95 593.5 1774.66 552.4 1778.28 501.7" stroke="#00AAFF" stroke-miterlimit="10"/>
<path d="M252.55 901.2C262.044 833.1 311.136 771.1 381.839 726.5C389.959 721.4 398.328 716.5 406.947 711.9C473.278 676.2 551.975 654.5 625.177 654.1C659.279 653.9 691.632 657.9 723.736 662.3C748.469 665.7 773.203 669.1 798.436 671C866.891 676.1 940.216 665.6 995.679 616.9C1023.29 592.6 1042.15 563.1 1066.88 537.2C1119.6 481.9 1205.29 470.5 1286.24 489.2C1301.73 492.8 1316.72 497.2 1331.46 502.4C1375.93 518 1417.15 539.5 1460.12 557.7C1469.99 561.9 1479.98 565.9 1490.22 569.6C1539.57 587.5 1593.16 598.6 1646.12 592.3C1710.2 584.7 1771.16 545.1 1776.66 495.8" stroke="#00AAFF" stroke-miterlimit="10"/>
<path d="M269.789 901.1C282.28 834.7 333.246 776 403.949 732.7C412.069 727.7 420.438 723 428.933 718.4C494.889 683.3 571.712 660.4 642.665 657.2C675.768 655.7 707.122 658.1 737.976 661C761.835 663.2 785.694 665.3 810.053 666.1C876.009 668.1 946.837 655.4 1001.18 607.2C1028.41 583.1 1047.64 554.2 1072.5 528.7C1125.09 475 1209.54 463.3 1289.23 481.3C1304.47 484.7 1319.34 489.1 1333.95 494.2C1377.8 509.5 1418.4 530.9 1460.74 549C1470.49 553.1 1480.36 557.1 1490.47 560.8C1539.07 578.5 1591.91 589.3 1644.25 583.3C1707.45 576 1767.66 537.8 1775.03 489.8" stroke="#00AAFF" stroke-miterlimit="10"/>
<path d="M287.027 901C302.517 836.3 355.357 780.9 426.059 738.9C434.179 734.1 442.548 729.4 451.043 725C516.624 690.5 591.449 666.3 660.278 660.4C692.382 657.6 722.612 658.5 752.467 659.8C775.576 660.8 798.436 661.6 821.92 661.2C885.378 660.1 953.583 645.2 1007.05 597.5C1033.78 573.5 1053.39 545.2 1078.5 520.2C1131.09 468 1214.16 456 1292.73 473.5C1307.85 476.8 1322.46 481.1 1336.83 486.1C1380.17 501.1 1420.02 522.4 1461.74 540.3C1471.24 544.4 1480.98 548.3 1490.97 552C1538.82 569.6 1591.03 580 1642.62 574.2C1704.96 567.2 1764.42 530.4 1773.66 483.8" stroke="#00AAFF" stroke-miterlimit="10"/>
<path d="M304.266 900.9C322.628 838 377.467 785.9 448.17 745C456.289 740.3 464.534 735.8 473.028 731.4C538.235 697.5 611.061 672.1 677.642 663.5C708.746 659.4 737.976 658.7 766.707 658.5C788.942 658.3 811.053 657.8 833.662 656.2C894.747 651.9 960.203 634.9 1012.67 587.6C1039.03 563.7 1059.01 536 1084.37 511.6C1136.84 461 1218.78 448.7 1295.98 465.5C1310.84 468.7 1325.33 472.9 1339.57 477.8C1382.3 492.6 1421.4 513.7 1462.49 531.5C1471.86 535.6 1481.48 539.5 1491.22 543.1C1538.32 560.5 1589.78 570.6 1640.75 565C1702.21 558.2 1760.92 522.9 1772.04 477.6" stroke="#00AAFF" stroke-miterlimit="10"/>
<path d="M321.504 900.7C342.865 839.5 399.577 790.7 470.28 751.1C478.399 746.6 486.644 742.1 495.138 737.8C559.97 704.6 630.798 677.9 695.255 666.5C725.36 661.1 753.466 658.9 781.073 657C802.433 655.5 823.669 653.8 845.405 651.1C903.991 643.7 966.824 624.5 1018.41 577.7C1044.4 554 1064.63 526.8 1090.24 502.9C1142.58 453.9 1223.28 441.3 1299.35 457.5C1313.97 460.6 1328.33 464.6 1342.32 469.4C1384.54 483.9 1422.89 504.9 1463.37 522.6C1472.61 526.6 1482.1 530.5 1491.72 534.1C1538.07 551.3 1588.91 561.1 1639.13 555.7C1699.71 549.2 1757.67 515.3 1770.66 471.3" stroke="#00AAFF" stroke-miterlimit="10"/>
<path d="M338.868 900.6C363.102 841.1 421.812 795.6 492.515 757.2C500.635 752.8 508.879 748.5 517.249 744.3C581.706 711.7 650.535 683.7 712.743 669.6C741.724 663 768.956 659.1 795.438 655.7C815.924 653 836.286 650 857.147 646.1C913.235 635.6 973.444 614.2 1024.04 567.9C1049.64 544.3 1070.25 517.7 1095.99 494.4C1148.2 447 1227.65 434 1302.47 449.6C1316.97 452.6 1331.08 456.5 1344.95 461.2C1386.54 475.4 1424.27 496.3 1463.99 513.8C1473.11 517.8 1482.35 521.6 1491.85 525.2C1537.44 542.2 1587.66 551.7 1637.13 546.5C1696.84 540.2 1754.17 507.7 1768.91 465.2" stroke="#00AAFF" stroke-miterlimit="10"/>
<path d="M356.106 900.5C383.338 842.8 443.922 800.6 514.625 763.4C522.745 759.1 530.989 754.9 539.234 750.8C603.316 718.8 670.271 689.6 730.231 672.8C758.213 664.9 784.32 659.5 809.678 654.5C829.415 650.6 848.777 646.3 868.889 641.3C922.478 627.7 980.19 604.1 1029.78 558.2C1055.01 534.7 1075.88 508.7 1101.86 485.9C1153.95 440 1232.15 426.8 1305.85 441.7C1320.09 444.6 1334.08 448.4 1347.69 453C1388.79 466.9 1425.77 487.7 1464.87 505.1C1473.86 509.1 1482.98 512.9 1492.35 516.4C1537.32 533.2 1586.66 542.4 1635.5 537.5C1694.34 531.5 1750.93 500.4 1767.54 459.2" stroke="#00AAFF" stroke-miterlimit="10"/>
<path d="M373.345 900.4C403.45 844.4 466.033 805.5 536.736 769.6C544.855 765.5 553.1 761.4 561.344 757.3C625.052 725.9 690.008 695.5 747.72 675.9C774.702 666.7 799.81 659.7 824.044 653.2C842.906 648.1 861.519 642.6 880.631 636.3C931.722 619.6 986.81 593.9 1035.4 548.4C1060.26 525.1 1081.5 499.6 1107.6 477.4C1159.57 433.1 1236.52 419.5 1308.97 433.9C1323.09 436.7 1336.83 440.4 1350.19 444.9C1390.67 458.6 1427.02 479.3 1465.49 496.5C1474.36 500.4 1483.23 504.2 1492.47 507.7C1536.69 524.3 1585.41 533.2 1633.5 528.5C1691.47 522.8 1747.3 493.1 1765.79 453.3" stroke="#00AAFF" stroke-miterlimit="10"/>
<path d="M390.583 900.3C423.686 846 488.143 810.4 558.846 775.7C566.965 771.7 575.21 767.8 583.33 763.8C646.662 733.1 709.62 701.3 765.208 679.1C791.191 668.6 815.3 660.1 838.409 651.9C856.397 645.6 874.136 638.8 892.373 631.4C941.091 611.6 993.431 583.7 1041.02 538.7C1065.51 515.5 1086.99 490.6 1113.35 468.9C1165.19 426.1 1240.89 412.3 1312.22 426C1326.08 428.7 1339.7 432.2 1352.94 436.7C1392.91 450.1 1428.52 470.7 1466.24 487.7C1474.86 491.6 1483.73 495.3 1492.72 498.8C1536.19 515.3 1584.29 523.9 1631.63 519.3C1688.72 513.8 1743.81 485.6 1764.17 447.1" stroke="#00AAFF" stroke-miterlimit="10"/>
<path d="M407.822 900.2C443.798 847.7 510.253 815.4 580.956 781.9C589.076 778.1 597.195 774.2 605.44 770.3C668.523 740.2 729.357 707.2 782.696 682.2C807.68 670.5 830.664 660.3 852.65 650.6C869.888 643 886.627 635 904.116 626.4C950.335 603.6 1000.05 573.4 1046.77 528.9C1070.88 505.8 1092.74 481.5 1119.22 460.3C1170.94 419.1 1245.39 405 1315.47 418.1C1329.21 420.6 1342.57 424.1 1355.56 428.5C1394.91 441.6 1429.89 462.1 1466.99 479C1475.48 482.9 1484.23 486.6 1493.1 490C1535.82 506.3 1583.16 514.6 1629.88 510.2C1686.22 505 1740.43 478.2 1762.67 441" stroke="#00AAFF" stroke-miterlimit="10"/>
<path d="M425.06 900.1C464.034 849.3 532.363 820.3 603.066 788.1C611.186 784.4 619.305 780.7 627.425 776.8C690.133 747.3 748.969 713.1 800.185 685.3C824.044 672.3 846.154 660.6 867.015 649.3C883.379 640.5 899.244 631.2 915.858 621.4C959.579 595.5 1006.67 563.1 1052.39 519C1076.13 496 1098.24 472.3 1125.09 451.7C1176.68 412 1249.88 397.6 1318.71 410.1C1332.2 412.5 1345.45 415.9 1358.31 420.2C1397.16 433.1 1431.39 453.4 1467.86 470.1C1476.23 473.9 1484.73 477.6 1493.47 481C1535.44 497.1 1582.16 505.1 1628.13 500.9C1683.6 495.9 1737.06 470.6 1761.17 434.8" stroke="#00AAFF" stroke-miterlimit="10"/>
<path d="M442.299 899.9C484.271 850.8 554.474 825.1 625.177 794.1C633.296 790.5 641.416 786.9 649.535 783.2C711.869 754.3 768.706 718.8 817.673 688.4C840.533 674.1 861.519 660.8 881.381 648C896.87 638 911.985 627.5 927.6 616.5C968.947 587.6 1013.42 552.9 1058.14 509.3C1081.5 486.5 1103.86 463.3 1130.96 443.2C1182.43 405 1254.38 390.4 1322.09 402.2C1335.33 404.5 1348.44 407.8 1361.06 412C1399.29 424.6 1432.76 444.8 1468.61 461.4C1476.86 465.2 1485.23 468.8 1493.85 472.2C1535.07 488.1 1581.16 495.8 1626.38 491.9C1680.97 487.2 1733.69 463.3 1759.67 428.8" stroke="#00AAFF" stroke-miterlimit="10"/>
<path d="M459.537 899.8C504.382 852.5 576.584 830.1 647.412 800.3C655.531 796.9 663.651 793.4 671.646 789.7C733.604 761.5 788.443 724.7 835.161 691.5C857.022 675.9 877.009 661 895.621 646.6C910.236 635.3 924.477 623.6 939.342 611.4C978.191 579.4 1020.04 542.5 1063.76 499.4C1086.62 476.7 1109.35 454.1 1136.71 434.6C1187.93 397.9 1258.88 383 1325.21 394.3C1338.33 396.5 1351.19 399.6 1363.68 403.7C1401.28 416 1434.14 436.1 1469.36 452.6C1477.48 456.4 1485.6 460 1494.1 463.3C1534.57 479 1579.91 486.4 1624.51 482.7C1678.22 478.3 1730.19 455.8 1758.05 422.7" stroke="#00AAFF" stroke-miterlimit="10"/>
<path d="M476.776 899.7C524.619 854.1 598.569 835 669.522 806.4C677.642 803.1 685.761 799.7 693.756 796.1C755.34 768.5 808.305 730.5 852.775 694.5C873.636 677.6 892.498 661.2 910.111 645.2C923.852 632.7 937.343 619.7 951.209 606.4C987.685 571.4 1026.78 532.2 1069.63 489.5C1092.12 466.9 1115.1 444.9 1142.71 425.9C1193.8 390.8 1263.5 375.6 1328.71 386.2C1341.57 388.3 1354.32 391.3 1366.56 395.3C1403.66 407.4 1435.76 427.3 1470.24 443.6C1478.11 447.4 1486.23 450.9 1494.47 454.2C1534.32 469.7 1578.92 476.8 1622.76 473.3C1675.6 469.1 1726.82 448.1 1756.55 416.3" stroke="#00AAFF" stroke-miterlimit="10"/>
<path d="M494.014 899.6C544.73 855.8 620.68 840 691.632 812.6C699.752 809.5 707.871 806.2 715.741 802.7C776.95 775.7 827.916 736.4 870.138 697.8C890 679.7 907.738 661.6 924.352 644.1C937.218 630.4 949.835 616.1 962.826 601.6C996.929 563.5 1033.28 522.2 1075.13 479.9C1097.24 457.5 1120.6 435.9 1148.33 417.5C1199.17 383.8 1267.75 368.5 1331.71 378.5C1344.45 380.5 1356.94 383.4 1369.06 387.3C1405.53 399.1 1437.01 418.9 1470.86 435.1C1478.61 438.8 1486.6 442.4 1494.72 445.6C1533.82 461 1577.67 467.7 1620.89 464.4C1672.85 460.5 1723.32 440.9 1754.92 410.4" stroke="#00AAFF" stroke-miterlimit="10"/>
<path d="M511.253 899.5C564.967 857.4 642.79 844.9 713.743 818.8C721.862 815.8 729.857 812.6 737.727 809.2C798.561 782.8 847.528 742.3 887.626 700.9C906.364 681.5 923.228 661.8 938.593 642.8C950.709 627.8 962.452 612.4 974.444 596.7C1006.05 555.6 1039.77 512 1080.62 470.2C1102.36 447.9 1125.97 426.9 1153.95 409.1C1204.67 376.9 1272 361.3 1334.83 370.7C1347.32 372.6 1359.56 375.4 1371.55 379.2C1407.53 390.7 1438.26 410.4 1471.49 426.5C1479.11 430.2 1486.85 433.7 1494.85 436.8C1533.2 452 1576.42 458.4 1618.89 455.3C1669.98 451.6 1719.82 433.5 1753.17 404.4" stroke="#00AAFF" stroke-miterlimit="10"/>
<path d="M528.491 899.4C585.078 859 664.9 849.8 735.853 824.9C743.972 822 751.967 819 759.837 815.6C820.296 789.9 867.265 748.1 905.115 704C922.853 683.3 938.592 662.1 952.958 641.5C964.2 625.3 975.068 608.6 986.31 591.7C1015.67 547.5 1046.65 501.7 1086.49 460.4C1107.85 438.2 1131.71 417.8 1159.94 400.5C1210.41 369.8 1276.62 354 1338.2 362.8C1350.57 364.5 1362.56 367.3 1374.43 371C1409.78 382.3 1439.88 401.8 1472.36 417.7C1479.86 421.4 1487.48 424.8 1495.35 427.9C1532.95 442.9 1575.54 449 1617.26 446.2C1667.48 442.8 1716.57 426.1 1751.8 398.3" stroke="#00AAFF" stroke-miterlimit="10"/>
<path d="M545.73 899.3C612.185 856.2 706.123 853.8 781.822 822.2C870.013 785.3 925.851 709.7 967.198 640.2C1019.41 552.7 1063.76 451.2 1165.69 391.9C1226.03 356.8 1307.6 340.8 1377.05 362.7C1419.9 376.2 1454.5 402.5 1495.6 419C1576.79 451.6 1682.22 440.5 1750.18 392.2" stroke="#00AAFF" stroke-miterlimit="10"/>
</g>
</svg>
