<svg width="163" height="32" viewBox="0 0 163 32" fill="none" xmlns="http://www.w3.org/2000/svg">
<path d="M21.1023 7.55163C20.0319 9.02034 19.1476 10.3492 18.147 11.5848C17.7282 12.0976 17.3791 13.0301 16.4018 12.6571C15.9829 12.494 15.6804 12.051 15.3081 11.7479C13.9818 10.6989 12.4925 10.116 10.8171 10.5357C9.83974 10.7688 8.88568 11.2817 8.23413 12.0976C7.21026 13.3798 6.30274 14.7553 6.32601 16.5038C6.34928 17.5528 7.39642 19.4878 8.18759 20.1639C9.76993 21.516 11.678 21.3995 13.3069 20.77C15.0289 20.0939 16.5414 18.7884 17.5886 17.1099C18.403 15.8044 19.4269 14.6154 20.2878 13.3332C20.9394 12.3774 21.4979 11.3283 22.1262 10.3259C22.3356 9.97616 22.5916 9.6731 22.801 9.3234C24.011 7.41175 25.3839 5.63997 27.0593 4.12463C27.9436 3.30868 28.8278 2.46942 29.8052 1.83997C30.5731 1.3504 31.5504 1.14059 32.4346 0.814207C32.6906 0.720955 32.9931 0.767581 33.2258 0.627704C35.2968 -0.421375 37.4609 0.161446 39.6017 0.161446C40.9746 0.954084 42.557 1.18721 43.9764 2.00316C45.3261 2.7958 46.2103 3.91482 47.2575 4.91727C48.3511 5.96635 49.0027 7.34181 49.6775 8.71727C50.0731 9.50991 50.2127 10.2792 50.3756 11.0952C50.4221 11.3283 50.4222 11.6081 50.5618 11.7713C51.097 12.424 51.0737 13.2167 51.0737 13.986C51.0737 15.1516 51.097 16.3173 51.0504 17.4829C51.0272 17.9725 50.8177 18.4387 50.6781 18.905C50.6083 19.1614 50.4221 19.4179 50.4221 19.6743C50.4221 21.4461 49.6077 22.9614 48.7235 24.3369C47.6996 25.9455 46.5826 27.6007 44.7443 28.5332C43.7437 29.0461 42.8828 29.7921 41.952 30.3982C41.7658 30.5148 41.5098 30.5614 41.3004 30.5847C40.7652 30.6547 40.23 30.6314 39.8344 31.1443C39.7181 31.3074 39.3458 31.3074 39.0665 31.3074C36.7395 31.3074 34.4126 31.4007 32.0856 31.2608C31.2014 31.2142 30.2706 30.7712 29.4561 30.3516C28.2926 29.7222 27.1524 29.0228 26.1286 28.2068C25.4072 27.624 24.8254 26.8314 24.3368 26.062C23.8016 25.1995 22.8708 24.57 22.6614 23.451C22.5916 23.1246 22.1494 22.8216 21.8237 22.5884C21.7073 22.4952 21.335 22.5884 21.2419 22.705C19.9388 24.3602 18.2634 25.5958 16.4483 26.5283C15.5176 27.0179 14.4937 27.5774 13.3535 27.6007C11.9107 27.6007 10.4913 27.624 9.04857 27.6473C6.7216 27.6473 4.97637 26.435 3.32421 24.9897C2.53304 24.2903 1.78841 23.5443 1.4161 22.5651C1.09032 21.586 0.368959 20.7467 0.392229 19.5811C0.415499 18.7884 0.159532 17.9725 0.0431829 17.1798C0.0199132 16.9933 -0.0266263 16.8068 0.0199132 16.6203C0.136262 15.9443 0.29915 15.2682 0.415499 14.5921C0.531847 13.8694 0.392229 13.1234 1.02051 12.4473C1.39283 12.051 1.46264 11.305 1.76514 10.7222C2.76574 8.7639 4.16192 7.20193 5.90716 5.91972C8.5599 3.98476 11.5152 3.5185 14.7031 3.84488C15.5176 4.6142 16.681 4.45101 17.6118 4.98721C18.4961 5.50009 19.3338 5.98966 20.1017 6.64242C20.4507 6.9688 20.7765 7.27187 21.1023 7.55163ZM44.4884 15.5013C44.4884 14.8019 44.4186 14.1025 44.4884 13.4032C44.5814 12.2841 43.9532 11.3516 43.418 10.6056C42.3941 9.18353 41.1375 7.94794 39.4156 7.15531C37.903 6.45592 36.4138 6.47923 35.0409 6.82893C33.6447 7.20193 32.202 7.87801 31.1548 8.99702C30.3171 9.88291 29.4329 10.7455 28.8046 11.7713C28.1996 12.7504 27.3386 13.5197 26.8965 14.6387C26.7103 15.0817 26.5009 15.478 26.4311 15.9676C26.338 16.7136 26.7568 17.2498 27.1291 17.8326C27.6411 18.6719 27.9901 19.5811 28.6184 20.3737C29.9215 21.9823 31.2712 23.5209 33.1793 24.3835C34.0403 24.7798 35.0874 24.8731 36.0647 24.943C36.7395 24.9897 37.4144 24.7332 38.1125 24.64C38.508 24.57 40.3231 23.6841 40.7187 23.4277C41.952 22.5884 42.8828 21.4694 43.511 20.1639C43.9764 19.2081 44.7211 18.2989 44.5349 17.0866C44.4186 16.597 44.4884 16.0375 44.4884 15.5013Z" fill="#69D4FF"/>
<path d="M60.8007 23V5.54545H67.3461C68.6871 5.54545 69.8121 5.79545 70.7211 6.29545C71.6359 6.79545 72.3263 7.48295 72.7922 8.35795C73.2638 9.22727 73.4996 10.2159 73.4996 11.3239C73.4996 12.4432 73.2638 13.4375 72.7922 14.3068C72.3206 15.1761 71.6246 15.8608 70.7041 16.3608C69.7836 16.8551 68.6501 17.1023 67.3035 17.1023H62.9655V14.5028H66.8774C67.6615 14.5028 68.3035 14.3665 68.8035 14.0938C69.3035 13.821 69.6729 13.446 69.9115 12.9688C70.1558 12.4915 70.278 11.9432 70.278 11.3239C70.278 10.7045 70.1558 10.1591 69.9115 9.6875C69.6729 9.21591 69.3007 8.84943 68.795 8.58807C68.295 8.32102 67.6501 8.1875 66.8604 8.1875H63.9626V23H60.8007ZM76.1096 23V9.90909H79.1011V12.0909H79.2375C79.4761 11.3352 79.8852 10.7528 80.4648 10.3438C81.05 9.92898 81.7176 9.72159 82.4676 9.72159C82.6381 9.72159 82.8284 9.73011 83.0386 9.74716C83.2545 9.75852 83.4335 9.77841 83.5756 9.80682V12.6449C83.4449 12.5994 83.2375 12.5597 82.9534 12.5256C82.675 12.4858 82.4051 12.4659 82.1437 12.4659C81.5812 12.4659 81.0756 12.5881 80.6267 12.8324C80.1835 13.071 79.8341 13.4034 79.5784 13.8295C79.3227 14.2557 79.1949 14.7472 79.1949 15.304V23H76.1096ZM90.8817 23.2557C89.5692 23.2557 88.4356 22.983 87.4811 22.4375C86.5322 21.8864 85.8021 21.108 85.2907 20.1023C84.7794 19.0909 84.5237 17.9006 84.5237 16.5312C84.5237 15.1847 84.7794 14.0028 85.2907 12.9858C85.8078 11.9631 86.5294 11.1676 87.4555 10.5994C88.3817 10.0256 89.4697 9.73864 90.7197 9.73864C91.5265 9.73864 92.2879 9.86932 93.0038 10.1307C93.7254 10.3864 94.3618 10.7841 94.9129 11.3239C95.4697 11.8636 95.9072 12.5511 96.2254 13.3864C96.5436 14.2159 96.7027 15.2045 96.7027 16.3523V17.2983H85.9726V15.2188H93.7453C93.7396 14.6278 93.6118 14.1023 93.3618 13.642C93.1118 13.1761 92.7623 12.8097 92.3135 12.5426C91.8703 12.2756 91.3532 12.142 90.7623 12.142C90.1317 12.142 89.5777 12.2955 89.1004 12.6023C88.6231 12.9034 88.251 13.3011 87.9839 13.7955C87.7226 14.2841 87.589 14.821 87.5834 15.4062V17.2216C87.5834 17.983 87.7226 18.6364 88.001 19.1818C88.2794 19.7216 88.6686 20.1364 89.1686 20.4261C89.6686 20.7102 90.2538 20.8523 90.9243 20.8523C91.3731 20.8523 91.7794 20.7898 92.143 20.6648C92.5067 20.5341 92.822 20.3438 93.089 20.0938C93.3561 19.8438 93.5578 19.5341 93.6942 19.1648L96.5748 19.4886C96.393 20.25 96.0464 20.9148 95.5351 21.483C95.0294 22.0455 94.3817 22.483 93.5919 22.7955C92.8021 23.1023 91.8987 23.2557 90.8817 23.2557ZM99.3128 23V9.90909H102.262V12.1335H102.415C102.688 11.3835 103.139 10.7983 103.77 10.3778C104.401 9.9517 105.154 9.73864 106.029 9.73864C106.915 9.73864 107.662 9.95455 108.27 10.3864C108.884 10.8125 109.316 11.3949 109.566 12.1335H109.702C109.992 11.4062 110.48 10.8267 111.168 10.3949C111.861 9.95739 112.682 9.73864 113.631 9.73864C114.835 9.73864 115.818 10.1193 116.58 10.8807C117.341 11.642 117.722 12.7528 117.722 14.2131V23H114.628V14.6903C114.628 13.8778 114.412 13.2841 113.98 12.9091C113.549 12.5284 113.02 12.3381 112.395 12.3381C111.651 12.3381 111.068 12.571 110.648 13.0369C110.233 13.4972 110.026 14.0966 110.026 14.8352V23H107V14.5625C107 13.8864 106.796 13.3466 106.387 12.9432C105.983 12.5398 105.455 12.3381 104.801 12.3381C104.358 12.3381 103.955 12.4517 103.591 12.679C103.228 12.9006 102.938 13.2159 102.722 13.625C102.506 14.0284 102.398 14.5 102.398 15.0398V23H99.3128ZM120.852 23V9.90909H123.937V23H120.852ZM122.403 8.05114C121.914 8.05114 121.494 7.8892 121.142 7.56534C120.789 7.23579 120.613 6.84091 120.613 6.38068C120.613 5.91477 120.789 5.51989 121.142 5.19602C121.494 4.86648 121.914 4.7017 122.403 4.7017C122.897 4.7017 123.318 4.86648 123.664 5.19602C124.017 5.51989 124.193 5.91477 124.193 6.38068C124.193 6.84091 124.017 7.23579 123.664 7.56534C123.318 7.8892 122.897 8.05114 122.403 8.05114ZM135.453 17.4943V9.90909H138.539V23H135.547V20.6733H135.411C135.115 21.4062 134.63 22.0057 133.953 22.4716C133.283 22.9375 132.456 23.1705 131.473 23.1705C130.615 23.1705 129.857 22.9801 129.198 22.5994C128.544 22.2131 128.033 21.6534 127.664 20.9205C127.294 20.1818 127.11 19.2898 127.11 18.2443V9.90909H130.195V17.767C130.195 18.5966 130.422 19.2557 130.877 19.7443C131.331 20.233 131.928 20.4773 132.666 20.4773C133.121 20.4773 133.561 20.3665 133.987 20.1449C134.414 19.9233 134.763 19.5938 135.036 19.1562C135.314 18.7131 135.453 18.1591 135.453 17.4943ZM141.711 23V9.90909H144.66V12.1335H144.813C145.086 11.3835 145.538 10.7983 146.169 10.3778C146.799 9.9517 147.552 9.73864 148.427 9.73864C149.313 9.73864 150.061 9.95455 150.669 10.3864C151.282 10.8125 151.714 11.3949 151.964 12.1335H152.1C152.39 11.4062 152.879 10.8267 153.566 10.3949C154.259 9.95739 155.081 9.73864 156.029 9.73864C157.234 9.73864 158.217 10.1193 158.978 10.8807C159.74 11.642 160.12 12.7528 160.12 14.2131V23H157.027V14.6903C157.027 13.8778 156.811 13.2841 156.379 12.9091C155.947 12.5284 155.419 12.3381 154.794 12.3381C154.049 12.3381 153.467 12.571 153.046 13.0369C152.632 13.4972 152.424 14.0966 152.424 14.8352V23H149.399V14.5625C149.399 13.8864 149.194 13.3466 148.785 12.9432C148.382 12.5398 147.853 12.3381 147.2 12.3381C146.757 12.3381 146.353 12.4517 145.99 12.679C145.626 12.9006 145.336 13.2159 145.12 13.625C144.904 14.0284 144.796 14.5 144.796 15.0398V23H141.711Z" fill="#1B2C4B"/>
</svg>
