<svg width="167" height="32" viewBox="0 0 167 32" fill="none" xmlns="http://www.w3.org/2000/svg">
<path d="M21.1023 7.55163C20.0319 9.02034 19.1476 10.3492 18.147 11.5848C17.7282 12.0976 17.3791 13.0301 16.4018 12.6571C15.9829 12.494 15.6804 12.051 15.3081 11.7479C13.9818 10.6989 12.4925 10.116 10.8171 10.5357C9.83974 10.7688 8.88568 11.2817 8.23413 12.0976C7.21026 13.3798 6.30274 14.7553 6.32601 16.5038C6.34928 17.5528 7.39642 19.4878 8.18759 20.1639C9.76993 21.516 11.678 21.3995 13.3069 20.77C15.0289 20.0939 16.5414 18.7884 17.5886 17.1099C18.403 15.8044 19.4269 14.6154 20.2878 13.3332C20.9394 12.3774 21.4979 11.3283 22.1262 10.3259C22.3356 9.97616 22.5916 9.6731 22.801 9.3234C24.011 7.41175 25.3839 5.63997 27.0593 4.12463C27.9436 3.30868 28.8278 2.46942 29.8052 1.83997C30.5731 1.3504 31.5504 1.14059 32.4346 0.814207C32.6906 0.720955 32.9931 0.767581 33.2258 0.627704C35.2968 -0.421375 37.4609 0.161446 39.6017 0.161446C40.9746 0.954084 42.557 1.18721 43.9764 2.00316C45.3261 2.7958 46.2103 3.91482 47.2575 4.91727C48.3511 5.96635 49.0027 7.34181 49.6775 8.71727C50.0731 9.50991 50.2127 10.2792 50.3756 11.0952C50.4221 11.3283 50.4222 11.6081 50.5618 11.7713C51.097 12.424 51.0737 13.2167 51.0737 13.986C51.0737 15.1516 51.097 16.3173 51.0504 17.4829C51.0272 17.9725 50.8177 18.4387 50.6781 18.905C50.6083 19.1614 50.4221 19.4179 50.4221 19.6743C50.4221 21.4461 49.6077 22.9614 48.7235 24.3369C47.6996 25.9455 46.5826 27.6007 44.7443 28.5332C43.7437 29.0461 42.8828 29.7921 41.952 30.3982C41.7658 30.5148 41.5098 30.5614 41.3004 30.5847C40.7652 30.6547 40.23 30.6314 39.8344 31.1443C39.7181 31.3074 39.3458 31.3074 39.0665 31.3074C36.7395 31.3074 34.4126 31.4007 32.0856 31.2608C31.2014 31.2142 30.2706 30.7712 29.4561 30.3516C28.2926 29.7222 27.1524 29.0228 26.1286 28.2068C25.4072 27.624 24.8254 26.8314 24.3368 26.062C23.8016 25.1995 22.8708 24.57 22.6614 23.451C22.5916 23.1246 22.1494 22.8216 21.8237 22.5884C21.7073 22.4952 21.335 22.5884 21.2419 22.705C19.9388 24.3602 18.2634 25.5958 16.4483 26.5283C15.5176 27.0179 14.4937 27.5774 13.3535 27.6007C11.9107 27.6007 10.4913 27.624 9.04857 27.6473C6.7216 27.6473 4.97637 26.435 3.32421 24.9897C2.53304 24.2903 1.78841 23.5443 1.4161 22.5651C1.09032 21.586 0.368959 20.7467 0.392229 19.5811C0.415499 18.7884 0.159532 17.9725 0.0431829 17.1798C0.0199132 16.9933 -0.0266263 16.8068 0.0199132 16.6203C0.136262 15.9443 0.29915 15.2682 0.415499 14.5921C0.531847 13.8694 0.392229 13.1234 1.02051 12.4473C1.39283 12.051 1.46264 11.305 1.76514 10.7222C2.76574 8.7639 4.16192 7.20193 5.90716 5.91972C8.5599 3.98476 11.5152 3.5185 14.7031 3.84488C15.5176 4.6142 16.681 4.45101 17.6118 4.98721C18.4961 5.50009 19.3338 5.98966 20.1017 6.64242C20.4507 6.9688 20.7765 7.27187 21.1023 7.55163ZM44.4884 15.5013C44.4884 14.8019 44.4186 14.1025 44.4884 13.4032C44.5814 12.2841 43.9532 11.3516 43.418 10.6056C42.3941 9.18353 41.1375 7.94794 39.4156 7.15531C37.903 6.45592 36.4138 6.47923 35.0409 6.82893C33.6447 7.20193 32.202 7.87801 31.1548 8.99702C30.3171 9.88291 29.4329 10.7455 28.8046 11.7713C28.1996 12.7504 27.3386 13.5197 26.8965 14.6387C26.7103 15.0817 26.5009 15.478 26.4311 15.9676C26.338 16.7136 26.7568 17.2498 27.1291 17.8326C27.6411 18.6719 27.9901 19.5811 28.6184 20.3737C29.9215 21.9823 31.2712 23.5209 33.1793 24.3835C34.0403 24.7798 35.0874 24.8731 36.0647 24.943C36.7395 24.9897 37.4144 24.7332 38.1125 24.64C38.508 24.57 40.3231 23.6841 40.7187 23.4277C41.952 22.5884 42.8828 21.4694 43.511 20.1639C43.9764 19.2081 44.7211 18.2989 44.5349 17.0866C44.4186 16.597 44.4884 16.0375 44.4884 15.5013Z" fill="#69D4FF"/>
<path d="M70.2865 10.3438C70.2069 9.59943 69.8717 9.01989 69.2808 8.60511C68.6956 8.19034 67.9342 7.98295 66.9967 7.98295C66.3376 7.98295 65.7723 8.08239 65.3007 8.28125C64.8291 8.48011 64.4683 8.75 64.2183 9.09091C63.9683 9.43182 63.8405 9.82102 63.8348 10.2585C63.8348 10.6222 63.9172 10.9375 64.0819 11.2045C64.2524 11.4716 64.4825 11.6989 64.7723 11.8864C65.0621 12.0682 65.3831 12.2216 65.7354 12.3466C66.0876 12.4716 66.4427 12.5767 66.8007 12.6619L68.4371 13.071C69.0961 13.2244 69.7297 13.4318 70.3376 13.6932C70.9513 13.9545 71.4996 14.2841 71.9825 14.6818C72.4711 15.0795 72.8575 15.5597 73.1416 16.1222C73.4257 16.6847 73.5677 17.3437 73.5677 18.0994C73.5677 19.1222 73.3064 20.0227 72.7836 20.8011C72.2609 21.5739 71.5052 22.179 70.5166 22.6165C69.5336 23.0483 68.3433 23.2642 66.9456 23.2642C65.5876 23.2642 64.4086 23.054 63.4086 22.6335C62.4143 22.2131 61.6359 21.5994 61.0734 20.7926C60.5166 19.9858 60.2155 19.0028 60.17 17.8438H63.2808C63.3263 18.4517 63.5138 18.9574 63.8433 19.3608C64.1729 19.7642 64.6018 20.0653 65.1302 20.2642C65.6643 20.4631 66.2609 20.5625 66.92 20.5625C67.6075 20.5625 68.2098 20.4602 68.7268 20.2557C69.2496 20.0455 69.6586 19.7557 69.9541 19.3864C70.2496 19.0114 70.4001 18.5739 70.4058 18.0739C70.4001 17.6193 70.2666 17.2443 70.0052 16.9489C69.7439 16.6477 69.3774 16.3977 68.9058 16.1989C68.4399 15.9943 67.8944 15.8125 67.2694 15.6534L65.2836 15.142C63.8461 14.7727 62.7098 14.2131 61.8746 13.4631C61.045 12.7074 60.6302 11.7045 60.6302 10.4545C60.6302 9.42614 60.9086 8.52557 61.4655 7.75284C62.028 6.98011 62.7922 6.38068 63.7581 5.95454C64.724 5.52273 65.8177 5.30682 67.0393 5.30682C68.278 5.30682 69.3632 5.52273 70.295 5.95454C71.2325 6.38068 71.9683 6.97443 72.5024 7.73579C73.0365 8.49148 73.3121 9.3608 73.3291 10.3438H70.2865ZM82.7872 9.90909V12.2955H75.2616V9.90909H82.7872ZM77.1196 6.77273H80.2048V19.0625C80.2048 19.4773 80.2673 19.7955 80.3923 20.017C80.523 20.233 80.6934 20.3807 80.9037 20.4602C81.1139 20.5398 81.3469 20.5795 81.6025 20.5795C81.7957 20.5795 81.9719 20.5653 82.1309 20.5369C82.2957 20.5085 82.4207 20.483 82.5059 20.4602L83.0258 22.8722C82.8611 22.929 82.6253 22.9915 82.3184 23.0597C82.0173 23.1278 81.648 23.1676 81.2105 23.179C80.4378 23.2017 79.7417 23.0852 79.1224 22.8295C78.5031 22.5682 78.0116 22.1648 77.648 21.6193C77.29 21.0739 77.1139 20.392 77.1196 19.5739V6.77273ZM89.1345 23.2642C88.305 23.2642 87.5578 23.1165 86.893 22.821C86.2339 22.5199 85.7112 22.0767 85.3248 21.4915C84.9442 20.9062 84.7538 20.1847 84.7538 19.3267C84.7538 18.5881 84.8902 17.9773 85.1629 17.4943C85.4356 17.0114 85.8078 16.625 86.2794 16.3352C86.751 16.0455 87.2822 15.8267 87.8731 15.679C88.4697 15.5256 89.0862 15.4148 89.7226 15.3466C90.4896 15.267 91.1118 15.196 91.589 15.1335C92.0663 15.0653 92.4129 14.9631 92.6288 14.8267C92.8504 14.6847 92.9612 14.4659 92.9612 14.1705V14.1193C92.9612 13.4773 92.7709 12.9801 92.3902 12.6278C92.0095 12.2756 91.4612 12.0994 90.7453 12.0994C89.9896 12.0994 89.3902 12.2642 88.947 12.5938C88.5095 12.9233 88.214 13.3125 88.0606 13.7614L85.18 13.3523C85.4072 12.5568 85.7822 11.892 86.305 11.358C86.8277 10.8182 87.4669 10.4148 88.2226 10.1477C88.9782 9.875 89.8135 9.73864 90.7282 9.73864C91.3589 9.73864 91.9868 9.8125 92.6118 9.96023C93.2368 10.108 93.8078 10.3523 94.3248 10.6932C94.8419 11.0284 95.2567 11.4858 95.5692 12.0653C95.8873 12.6449 96.0464 13.3693 96.0464 14.2386V23H93.0805V21.2017H92.9782C92.7907 21.5653 92.5265 21.9062 92.1856 22.2244C91.8504 22.5369 91.4271 22.7898 90.9157 22.983C90.4101 23.1705 89.8163 23.2642 89.1345 23.2642ZM89.9356 20.9972C90.555 20.9972 91.0919 20.875 91.5464 20.6307C92.001 20.3807 92.3504 20.0511 92.5947 19.642C92.8447 19.233 92.9697 18.7869 92.9697 18.304V16.7614C92.8731 16.8409 92.7084 16.9148 92.4754 16.983C92.2481 17.0511 91.9925 17.1108 91.7084 17.1619C91.4243 17.2131 91.143 17.2585 90.8646 17.2983C90.5862 17.3381 90.3447 17.3722 90.1402 17.4006C89.68 17.4631 89.268 17.5653 88.9044 17.7074C88.5407 17.8494 88.2538 18.0483 88.0436 18.304C87.8334 18.554 87.7282 18.8778 87.7282 19.2756C87.7282 19.8438 87.9356 20.2727 88.3504 20.5625C88.7652 20.8523 89.2936 20.9972 89.9356 20.9972ZM102.234 15.3295V23H99.1487V9.90909H102.098V12.1335H102.251C102.552 11.4006 103.032 10.8182 103.691 10.3864C104.356 9.95455 105.177 9.73864 106.154 9.73864C107.058 9.73864 107.845 9.93182 108.515 10.3182C109.191 10.7045 109.714 11.2642 110.083 11.9972C110.458 12.7301 110.643 13.6193 110.637 14.6648V23H107.552V15.142C107.552 14.267 107.325 13.5824 106.87 13.0881C106.421 12.5937 105.799 12.3466 105.004 12.3466C104.464 12.3466 103.984 12.4659 103.563 12.7045C103.149 12.9375 102.822 13.2756 102.583 13.7188C102.35 14.1619 102.234 14.6989 102.234 15.3295ZM118.632 23.2301C117.603 23.2301 116.683 22.9659 115.87 22.4375C115.058 21.9091 114.416 21.142 113.944 20.1364C113.473 19.1307 113.237 17.9091 113.237 16.4716C113.237 15.017 113.475 13.7898 113.953 12.7898C114.436 11.7841 115.086 11.0256 115.904 10.5142C116.723 9.99716 117.634 9.73864 118.64 9.73864C119.407 9.73864 120.038 9.86932 120.532 10.1307C121.027 10.3864 121.419 10.696 121.708 11.0597C121.998 11.4176 122.223 11.7557 122.382 12.0739H122.509V5.54545H125.603V23H122.569V20.9375H122.382C122.223 21.2557 121.992 21.5937 121.691 21.9517C121.39 22.304 120.992 22.6051 120.498 22.8551C120.004 23.1051 119.382 23.2301 118.632 23.2301ZM119.492 20.6989C120.146 20.6989 120.703 20.5227 121.163 20.1705C121.623 19.8125 121.973 19.3153 122.211 18.679C122.45 18.0426 122.569 17.3011 122.569 16.4545C122.569 15.608 122.45 14.8722 122.211 14.2472C121.978 13.6222 121.632 13.1364 121.171 12.7898C120.717 12.4432 120.157 12.2699 119.492 12.2699C118.805 12.2699 118.231 12.4489 117.771 12.8068C117.311 13.1648 116.964 13.6591 116.731 14.2898C116.498 14.9205 116.382 15.642 116.382 16.4545C116.382 17.2727 116.498 18.0028 116.731 18.6449C116.97 19.2812 117.319 19.7841 117.779 20.1534C118.245 20.517 118.816 20.6989 119.492 20.6989ZM132.658 23.2642C131.828 23.2642 131.081 23.1165 130.416 22.821C129.757 22.5199 129.235 22.0767 128.848 21.4915C128.468 20.9062 128.277 20.1847 128.277 19.3267C128.277 18.5881 128.414 17.9773 128.686 17.4943C128.959 17.0114 129.331 16.625 129.803 16.3352C130.274 16.0455 130.806 15.8267 131.397 15.679C131.993 15.5256 132.61 15.4148 133.246 15.3466C134.013 15.267 134.635 15.196 135.112 15.1335C135.59 15.0653 135.936 14.9631 136.152 14.8267C136.374 14.6847 136.485 14.4659 136.485 14.1705V14.1193C136.485 13.4773 136.294 12.9801 135.914 12.6278C135.533 12.2756 134.985 12.0994 134.269 12.0994C133.513 12.0994 132.914 12.2642 132.47 12.5938C132.033 12.9233 131.737 13.3125 131.584 13.7614L128.703 13.3523C128.931 12.5568 129.306 11.892 129.828 11.358C130.351 10.8182 130.99 10.4148 131.746 10.1477C132.502 9.875 133.337 9.73864 134.252 9.73864C134.882 9.73864 135.51 9.8125 136.135 9.96023C136.76 10.108 137.331 10.3523 137.848 10.6932C138.365 11.0284 138.78 11.4858 139.093 12.0653C139.411 12.6449 139.57 13.3693 139.57 14.2386V23H136.604V21.2017H136.502C136.314 21.5653 136.05 21.9062 135.709 22.2244C135.374 22.5369 134.951 22.7898 134.439 22.983C133.934 23.1705 133.34 23.2642 132.658 23.2642ZM133.459 20.9972C134.078 20.9972 134.615 20.875 135.07 20.6307C135.524 20.3807 135.874 20.0511 136.118 19.642C136.368 19.233 136.493 18.7869 136.493 18.304V16.7614C136.397 16.8409 136.232 16.9148 135.999 16.983C135.772 17.0511 135.516 17.1108 135.232 17.1619C134.948 17.2131 134.666 17.2585 134.388 17.2983C134.11 17.3381 133.868 17.3722 133.664 17.4006C133.203 17.4631 132.791 17.5653 132.428 17.7074C132.064 17.8494 131.777 18.0483 131.567 18.304C131.357 18.554 131.252 18.8778 131.252 19.2756C131.252 19.8438 131.459 20.2727 131.874 20.5625C132.289 20.8523 132.817 20.9972 133.459 20.9972ZM142.672 23V9.90909H145.664V12.0909H145.8C146.039 11.3352 146.448 10.7528 147.027 10.3438C147.612 9.92898 148.28 9.72159 149.03 9.72159C149.201 9.72159 149.391 9.73011 149.601 9.74716C149.817 9.75852 149.996 9.77841 150.138 9.80682V12.6449C150.007 12.5994 149.8 12.5597 149.516 12.5256C149.237 12.4858 148.968 12.4659 148.706 12.4659C148.144 12.4659 147.638 12.5881 147.189 12.8324C146.746 13.071 146.397 13.4034 146.141 13.8295C145.885 14.2557 145.757 14.7472 145.757 15.304V23H142.672ZM156.507 23.2301C155.478 23.2301 154.558 22.9659 153.745 22.4375C152.933 21.9091 152.291 21.142 151.819 20.1364C151.348 19.1307 151.112 17.9091 151.112 16.4716C151.112 15.017 151.35 13.7898 151.828 12.7898C152.311 11.7841 152.961 11.0256 153.779 10.5142C154.598 9.99716 155.509 9.73864 156.515 9.73864C157.282 9.73864 157.913 9.86932 158.407 10.1307C158.902 10.3864 159.294 10.696 159.583 11.0597C159.873 11.4176 160.098 11.7557 160.257 12.0739H160.384V5.54545H163.478V23H160.444V20.9375H160.257C160.098 21.2557 159.867 21.5937 159.566 21.9517C159.265 22.304 158.867 22.6051 158.373 22.8551C157.879 23.1051 157.257 23.2301 156.507 23.2301ZM157.367 20.6989C158.021 20.6989 158.578 20.5227 159.038 20.1705C159.498 19.8125 159.848 19.3153 160.086 18.679C160.325 18.0426 160.444 17.3011 160.444 16.4545C160.444 15.608 160.325 14.8722 160.086 14.2472C159.853 13.6222 159.507 13.1364 159.046 12.7898C158.592 12.4432 158.032 12.2699 157.367 12.2699C156.68 12.2699 156.106 12.4489 155.646 12.8068C155.186 13.1648 154.839 13.6591 154.606 14.2898C154.373 14.9205 154.257 15.642 154.257 16.4545C154.257 17.2727 154.373 18.0028 154.606 18.6449C154.845 19.2812 155.194 19.7841 155.654 20.1534C156.12 20.517 156.691 20.6989 157.367 20.6989Z" fill="#1B2C4B"/>
</svg>
