<svg width="1440" height="777" viewBox="0 0 1440 777" fill="none" xmlns="http://www.w3.org/2000/svg">
<rect width="1440" height="777" fill="#F1F7FF"/>
<mask id="mask0_546_324" style="mask-type:alpha" maskUnits="userSpaceOnUse" x="0" y="0" width="1440" height="777">
<rect width="1440" height="777" fill="#0057BE"/>
</mask>
<g mask="url(#mask0_546_324)">
<g opacity="0.17">
<mask id="mask1_546_324" style="mask-type:luminance" maskUnits="userSpaceOnUse" x="-274" y="141" width="1733" height="659">
<path d="M-273.5 141.5V799.5H1458.5V141.5H-273.5Z" fill="white" stroke="white"/>
</mask>
<g mask="url(#mask1_546_324)">
<path d="M1770.94 988.557C1760.97 869.195 1644.29 756.753 1466.51 693.572C1376.39 661.528 1271.98 642.829 1166.12 638.71C1045.68 634.014 948.198 657.986 832.809 670.177C742.982 679.65 649.688 681.957 561.017 667.623C469.312 652.878 386.706 620.587 329.372 577.176C233.769 504.768 249.51 413.332 187.266 332.934C130.944 260.279 11.9445 204.429 -123.952 186.965C-259.848 169.502 -409.319 190.755 -514.888 242.651" stroke="black" stroke-miterlimit="10"/>
<path d="M1786.39 988.721C1777.15 870.513 1662.48 758.812 1487.16 695.713C1396.61 662.846 1291.19 643.735 1184.18 639.698C1152.4 638.463 1122.08 639.286 1092.61 641.263C1009.72 647.03 933.468 662.846 847.684 672.319C830.787 674.213 813.746 675.778 796.705 677.096C722.042 682.78 645.934 682.368 573.148 670.506C533.145 663.999 495.019 654.114 459.925 641.181C414.145 624.376 373.998 602.629 341.359 577.67C336.594 574.045 332.117 570.338 327.784 566.631C256.731 504.686 248.066 434.584 205.175 371.073C198.531 361.271 191.166 351.55 182.646 342.077C147.552 303.279 92.9629 270.246 26.8201 246.193C-21.9928 228.4 -77.4489 215.549 -135.793 208.795C-175.508 204.264 -216.522 202.616 -257.103 203.523C-356.895 205.911 -454.81 223.54 -526.007 255.336" stroke="black" stroke-miterlimit="10"/>
<path d="M1801.7 988.886C1793.04 871.831 1680.1 761.284 1507.67 697.855C1416.54 664.411 1310.25 644.641 1202.08 640.604C1170.02 639.451 1139.41 640.193 1109.51 642.334C1025.75 648.265 948.632 664.493 862.415 674.378C845.374 676.355 828.188 678.085 811.003 679.485C735.617 685.581 658.499 685.416 585.28 673.307C544.987 666.717 506.572 656.503 471.479 643.076C425.699 625.695 386.129 603.371 353.346 578.082C348.581 574.375 343.959 570.668 339.627 566.879C267.418 504.109 250.81 436.973 202.72 377.828C195.21 368.685 187.123 359.706 177.88 350.974C140.043 315.223 84.0092 285.321 16.8554 263.739C-32.8239 247.758 -88.8576 236.308 -147.78 230.377C-187.927 226.341 -229.375 224.858 -270.389 225.517C-371.192 227.247 -469.973 241.086 -537.416 267.858" stroke="black" stroke-miterlimit="10"/>
<path d="M1817.15 989.051C1809.21 873.149 1698.15 763.508 1528.32 699.997C1436.76 665.811 1329.31 645.547 1219.99 641.511C1187.64 640.357 1156.59 641.181 1126.41 643.323C1041.78 649.419 963.795 666.058 877.001 676.438C859.815 678.497 842.485 680.309 825.155 681.792C748.903 688.382 670.918 688.382 597.121 676.108C556.54 669.353 517.981 658.974 482.599 645.053C436.819 627.177 397.682 604.195 364.899 578.494C360.134 574.787 355.512 570.998 351.18 567.208C277.816 503.615 253.554 439.362 199.976 384.748C191.744 376.346 182.934 368.108 172.97 360.035C132.389 327.25 74.9109 300.561 6.6018 281.45C-43.7996 267.281 -100.411 257.314 -159.911 252.124C-200.492 248.582 -242.228 247.264 -283.82 247.676C-385.634 248.747 -485.137 258.879 -548.969 280.543" stroke="black" stroke-miterlimit="10"/>
<path d="M1832.61 989.133C1825.39 874.385 1716.21 765.65 1548.97 702.056C1456.98 667.129 1348.52 646.288 1238.04 642.417C1205.4 641.263 1174.07 642.087 1143.59 644.311C1058.1 650.572 979.248 667.623 892.021 678.414C874.691 680.556 857.216 682.533 839.597 684.098C762.623 691.1 683.772 691.347 609.253 678.826C568.383 671.989 529.535 661.28 494.153 646.947C448.373 628.495 409.813 604.936 376.886 578.905C372.121 575.116 367.499 571.327 363.022 567.455C288.503 503.038 256.443 441.751 197.521 391.585C188.423 383.842 178.891 376.345 168.349 369.014C125.024 339.277 66.1019 315.717 -3.21814 299.078C-54.3416 286.721 -111.675 278.237 -171.752 273.789C-212.911 270.741 -254.936 269.587 -296.962 269.752C-399.786 270.164 -500.156 276.507 -560.233 293.064" stroke="black" stroke-miterlimit="10"/>
<path d="M1847.91 989.298C1841.27 875.702 1734.11 767.874 1569.48 704.198C1477.05 668.529 1367.58 647.194 1255.95 643.323C1223.17 642.169 1191.4 642.993 1160.49 645.3C1074.13 651.725 994.412 669.188 906.606 680.474C889.132 682.698 871.513 684.757 853.75 686.487C776.054 693.983 696.191 694.395 621.239 681.709C580.08 674.708 541.088 663.834 505.561 648.924C459.781 629.978 421.8 605.76 388.728 579.4C383.962 575.528 379.197 571.739 374.72 567.785C299.045 502.544 259.186 444.14 194.921 398.504C184.956 391.502 174.703 384.665 163.438 378.075C117.369 351.386 57.0031 330.957 -13.3278 316.788C-65.1734 306.326 -123.229 299.242 -183.884 295.535C-225.476 292.982 -267.934 291.993 -310.393 291.911C-414.228 291.664 -515.32 294.217 -571.643 305.75" stroke="black" stroke-miterlimit="10"/>
<path d="M1863.37 989.462C1857.45 877.021 1752.17 770.015 1590.13 706.339C1497.27 669.93 1386.65 648.1 1274 644.311C1240.93 643.158 1208.87 644.064 1177.68 646.453C1090.45 653.043 1009.86 670.918 921.626 682.698C904.007 685.087 886.244 687.146 868.336 688.958C789.774 696.866 709.045 697.525 633.515 684.592C592.067 677.508 552.786 666.305 517.259 650.983C471.624 631.461 434.075 606.666 400.715 579.894C395.805 576.022 391.184 572.068 386.707 568.197C309.877 502.132 262.364 446.693 192.611 405.424C181.924 399.081 170.804 392.985 158.962 387.219C110.149 363.495 48.3385 346.278 -23.0034 334.581C-75.7155 325.932 -134.349 320.33 -195.581 317.365C-237.607 315.305 -280.498 314.482 -323.246 314.07C-428.092 313.081 -530.05 311.928 -582.618 318.436" stroke="black" stroke-miterlimit="10"/>
<path d="M1878.82 989.627C1873.48 878.339 1770.36 772.24 1610.78 708.482C1517.49 671.248 1405.85 649.007 1292.05 645.218C1258.69 644.147 1226.34 644.97 1194.72 647.442C1106.62 654.196 1025.32 672.484 936.501 684.675C918.737 687.146 900.83 689.371 882.777 691.265C803.493 699.585 721.753 700.491 645.645 687.311C603.909 680.062 564.483 668.612 528.668 652.878C483.032 632.779 446.061 607.407 412.557 580.306C407.647 576.352 403.025 572.398 398.404 568.444C320.419 501.638 265.252 449.083 190.011 412.261C178.458 406.66 166.76 401.223 154.195 396.198C102.639 375.522 39.3843 361.436 -33.1129 352.21C-86.5471 345.373 -145.758 341.254 -207.713 339.03C-250.171 337.547 -293.496 336.806 -336.677 336.147C-442.534 334.499 -545.359 329.639 -594.172 331.039" stroke="black" stroke-miterlimit="10"/>
<path d="M1894.13 989.71C1889.51 879.492 1788.27 774.299 1631.29 710.623C1537.71 672.648 1424.77 649.83 1309.82 646.124C1276.17 645.053 1243.53 645.959 1211.47 648.43C1122.51 655.35 1040.34 674.049 950.942 686.734C933.034 689.288 914.982 691.595 896.785 693.572C816.779 702.386 734.172 703.457 657.487 690.112C615.462 682.78 575.747 671.083 539.932 654.773C494.441 634.179 457.903 608.066 424.254 580.635C419.344 576.681 414.578 572.645 409.957 568.691C330.816 501.061 267.995 451.389 187.122 419.098C174.847 414.156 162.282 409.46 148.996 405.177C94.6953 387.466 29.9965 376.593 -43.5116 369.838C-97.6678 364.813 -157.601 362.177 -220.133 360.694C-263.025 359.706 -306.783 359.129 -350.397 358.223C-457.265 355.916 -560.812 347.267 -606.014 343.643" stroke="black" stroke-miterlimit="10"/>
<path d="M1909.58 989.874C1905.54 880.892 1806.47 776.441 1651.8 712.765C1557.78 673.966 1443.84 650.736 1327.73 647.112C1293.79 646.041 1260.86 646.947 1228.51 649.501C1138.68 656.585 1055.64 675.696 965.817 688.794C947.765 691.43 929.569 693.901 911.228 695.96C830.354 705.186 746.881 706.587 669.619 692.912C627.304 685.416 587.445 673.472 551.486 656.75C505.994 635.579 470.035 608.89 436.241 581.13C431.331 577.093 426.565 573.057 421.8 569.02C341.504 500.567 271.173 453.778 184.667 426.017C171.525 421.816 158.239 417.78 144.375 414.238C87.3304 399.575 21.1877 391.832 -53.3313 387.548C-108.21 384.336 -168.865 383.182 -231.975 382.441C-275.3 381.947 -319.491 381.535 -363.538 380.382C-471.418 377.416 -575.831 364.977 -617.134 356.328" stroke="black" stroke-miterlimit="10"/>
<path d="M1924.89 990.039C1921.57 882.128 1824.37 778.582 1672.45 714.907C1578 675.367 1463.04 651.643 1345.78 648.018C1311.69 646.947 1278.19 647.936 1245.55 650.489C1154.86 657.738 1070.95 677.261 980.547 690.853C962.351 693.654 944.01 696.125 925.524 698.349C843.929 707.987 759.445 709.635 681.605 695.713C639.002 688.135 598.854 675.943 562.75 658.727C517.259 637.062 481.732 609.714 447.939 581.624C443.028 577.505 438.263 573.469 433.497 569.432C352.046 500.155 274.061 456.331 182.067 433.019C168.203 429.477 154.051 426.182 139.465 423.381C79.6761 411.767 12.0891 407.154 -63.4409 405.424C-119.041 404.106 -180.418 404.353 -244.106 404.353C-287.864 404.353 -332.489 404.106 -376.97 402.705C-485.86 399.081 -590.995 382.935 -628.688 369.179" stroke="black" stroke-miterlimit="10"/>
<path d="M1940.34 990.204C1937.74 883.446 1842.57 780.642 1693.1 717.048C1598.22 676.685 1482.11 652.549 1363.83 648.924C1329.46 647.853 1295.66 648.842 1262.74 651.56C1171.18 658.974 1086.41 678.909 995.567 692.913C977.226 695.796 958.741 698.432 940.111 700.656C857.649 710.788 772.443 712.6 694.025 698.514C651.133 690.853 610.841 678.332 574.592 660.622C529.101 638.38 494.152 610.455 460.214 581.953C455.304 577.835 450.394 573.716 445.628 569.597C363.022 499.496 277.383 458.556 179.902 439.692C165.171 436.891 150.441 434.337 135.132 432.196C72.6001 423.546 3.5688 422.146 -73.1164 422.887C-129.583 423.382 -191.538 425.111 -255.804 425.77C-299.995 426.265 -345.053 426.265 -389.967 424.452C-499.868 420.169 -605.87 400.234 -639.807 381.453" stroke="black" stroke-miterlimit="10"/>
<path d="M1955.79 990.369C1953.77 884.764 1860.77 782.784 1713.75 719.19C1618.58 678.003 1501.31 653.372 1381.74 649.913C1347.08 648.924 1312.99 649.913 1279.63 652.631C1187.35 660.21 1101.57 680.474 1010.15 695.054C991.667 698.02 973.038 700.738 954.263 703.127C871.079 713.671 784.863 715.73 705.867 701.397C662.686 693.571 622.105 680.886 585.857 662.681C540.365 639.945 505.994 611.361 471.912 582.53C467.002 578.329 462.091 574.21 457.181 570.009C373.42 499.084 280.271 461.027 177.157 446.694C161.705 444.552 146.108 442.74 130.222 441.339C64.9456 435.738 -5.52981 437.468 -83.226 440.68C-140.415 442.987 -202.947 446.199 -267.79 447.6C-312.415 448.588 -357.906 448.753 -403.253 446.694C-514.165 441.751 -621.034 418.027 -651.217 394.221" stroke="black" stroke-miterlimit="10"/>
<path d="M1971.1 990.451C1969.8 885.999 1878.82 784.76 1734.11 721.249C1638.51 679.32 1520.23 654.196 1399.5 650.736C1364.55 649.748 1330.18 650.736 1296.39 653.537C1203.24 661.28 1116.59 681.956 1024.74 697.031C1006.11 700.079 987.335 702.88 968.417 705.351C884.511 716.307 797.283 718.613 717.709 704.033C674.24 696.125 633.514 683.11 596.977 664.493C551.63 641.181 517.692 612.02 483.466 582.777C478.555 578.576 473.645 574.375 468.591 570.174C383.674 498.425 282.871 463.168 174.269 453.448C157.95 451.965 141.631 450.895 125.023 450.236C57.0032 447.6 -14.9164 452.542 -93.6234 458.226C-151.535 462.345 -214.789 467.04 -280.21 469.182C-325.268 470.665 -371.192 470.994 -416.972 468.688C-528.895 463.086 -636.486 435.573 -662.914 406.659" stroke="black" stroke-miterlimit="10"/>
<path d="M1986.55 990.616C1985.83 887.317 1897.02 786.82 1754.77 723.391C1658.87 680.639 1539.3 655.102 1417.55 651.643C1382.32 650.654 1347.66 651.643 1313.57 654.526C1219.56 662.434 1132.04 683.522 1039.61 699.008C1020.84 702.138 1001.92 705.104 982.859 707.658C898.086 719.108 809.992 721.579 729.985 706.834C686.227 698.761 645.213 685.581 608.675 666.388C563.184 642.664 529.968 612.762 495.597 583.189C490.687 578.905 485.632 574.622 480.722 570.421C394.65 497.848 286.337 465.475 172.104 460.285C154.918 459.544 137.877 459.132 120.691 459.215C49.9272 459.626 -23.4365 467.699 -103.154 475.854C-161.788 481.785 -225.764 487.963 -291.763 490.847C-337.254 492.906 -383.612 493.318 -429.825 490.764C-542.903 484.504 -651.216 453.284 -673.889 419.263" stroke="black" stroke-miterlimit="10"/>
<path d="M2001.86 990.78C2001.86 888.635 1915.21 788.879 1775.27 725.533C1679.09 681.874 1558.36 656.008 1435.46 652.631C1400.08 651.643 1364.98 652.713 1330.47 655.679C1235.59 663.752 1147.2 685.252 1054.34 701.232C1035.43 704.527 1016.36 707.493 997.156 710.211C911.661 722.073 822.7 724.792 741.971 709.799C697.924 701.644 656.621 688.217 620.084 668.529C574.592 644.229 541.954 613.668 507.439 583.848C502.384 579.564 497.474 575.199 492.419 570.997C405.192 497.601 289.225 468.029 169.504 467.37C151.596 467.287 133.833 467.617 115.925 468.44C42.4169 471.818 -32.3909 483.103 -113.12 493.73C-172.619 501.473 -237.174 509.134 -303.75 512.758C-349.674 515.312 -396.465 515.889 -442.967 513.005C-557.057 506.086 -666.091 471.077 -685.154 432.031" stroke="black" stroke-miterlimit="10"/>
<path d="M2017.31 990.945C2018.04 889.953 1933.41 790.939 1795.92 727.675C1699.45 683.192 1577.42 656.914 1453.37 653.537C1417.7 652.549 1382.31 653.62 1347.51 656.667C1251.76 664.905 1162.66 686.817 1069.07 703.209C1050.01 706.587 1030.8 709.717 1011.45 712.435C925.236 724.709 835.264 727.675 753.958 712.518C709.622 704.198 668.03 690.523 631.348 670.424C585.857 645.629 553.652 614.409 519.136 584.177C514.082 579.812 509.171 575.446 503.972 571.162C415.589 496.942 291.969 470.17 166.76 474.124C147.985 474.701 129.5 475.772 110.87 477.337C34.6184 483.762 -41.6337 498.178 -123.518 511.276C-183.74 520.913 -249.016 529.975 -316.17 534.341C-362.527 537.388 -409.752 538.13 -456.687 535C-571.787 527.421 -681.688 488.622 -696.996 444.552" stroke="black" stroke-miterlimit="10"/>
<path d="M2032.77 991.028C2034.07 891.189 1951.75 792.916 1816.58 729.734C1719.67 684.428 1596.63 657.656 1471.42 654.443C1435.46 653.537 1399.65 654.608 1364.55 657.656C1267.94 666.058 1177.97 688.382 1083.95 705.269C1064.74 708.729 1045.39 711.941 1025.9 714.824C938.812 727.592 847.974 730.723 766.234 715.318C721.609 706.916 679.873 692.995 643.046 672.319C597.7 646.947 565.928 615.151 531.268 584.589C526.213 580.141 521.159 575.775 515.96 571.409C426.566 496.366 295.147 472.477 164.45 480.962C144.953 482.197 125.602 484.009 106.394 486.316C27.5426 495.789 -50.298 513.335 -133.193 528.904C-194.137 540.354 -259.991 550.898 -327.867 556.005C-374.658 559.547 -422.315 560.454 -469.684 557.076C-585.795 548.839 -696.563 506.251 -707.972 457.155" stroke="black" stroke-miterlimit="10"/>
<path d="M2048.08 991.192C2050.1 892.507 1969.8 794.975 1837.08 731.876C1739.89 685.746 1615.69 658.562 1489.33 655.349C1453.08 654.443 1416.98 655.514 1381.45 658.644C1283.97 667.211 1193.13 689.947 1098.68 707.328C1079.33 710.87 1059.83 714.247 1040.19 717.131C952.387 730.311 860.682 733.688 778.22 718.037C733.306 709.47 691.281 695.301 654.455 674.213C609.108 648.347 577.914 615.892 543.11 585.001C538.055 580.553 533.001 576.105 527.802 571.739C437.252 495.871 298.179 474.783 161.994 487.881C141.632 489.858 121.557 492.329 101.772 495.377C20.177 507.816 -59.1078 528.574 -143.014 546.614C-204.68 559.877 -271.256 571.903 -339.709 577.752C-386.934 581.788 -435.024 582.859 -482.826 579.235C-599.948 570.338 -711.438 524.044 -719.236 469.841" stroke="black" stroke-miterlimit="10"/>
<path d="M2063.53 991.357C2066.13 893.825 1988.14 797.034 1857.73 734.018C1760.4 686.981 1634.75 659.468 1507.38 656.256C1470.99 655.349 1434.45 656.503 1398.63 659.633C1300.29 668.365 1208.58 691.512 1113.55 709.305C1094.06 712.93 1074.42 716.389 1054.63 719.437C966.106 733.111 873.39 736.654 790.351 720.838C745.148 712.188 702.978 697.773 666.008 676.19C620.661 649.748 590.044 616.716 555.096 585.413C550.041 580.882 544.842 576.434 539.643 571.986C447.939 495.295 301.067 476.925 159.538 494.718C138.309 497.354 117.658 500.649 97.006 504.356C12.6667 519.843 -68.0622 543.731 -152.979 564.243C-215.367 579.317 -282.665 592.827 -351.697 599.417C-399.354 603.947 -447.878 605.183 -496.113 601.311C-614.246 591.756 -726.602 541.672 -730.646 482.444" stroke="black" stroke-miterlimit="10"/>
<path d="M2078.84 991.522C2082.16 895.143 2006.48 798.929 1878.24 736.16C1780.76 688.135 1653.82 660.375 1525.29 657.244C1488.61 656.338 1451.78 657.491 1415.53 660.786C1316.32 669.683 1223.75 693.242 1128.29 711.529C1108.65 715.319 1088.86 718.778 1068.93 721.991C979.537 736.077 885.955 739.949 802.482 723.803C756.991 715.072 714.532 700.326 677.417 678.25C632.07 651.313 602.032 617.622 566.938 585.99C561.884 581.459 556.685 576.929 551.341 572.48C458.481 494.966 303.956 479.479 156.939 501.72C134.988 505.015 113.47 509.052 92.2407 513.5C5.15747 531.952 -77.0155 559.053 -163.088 582.036C-226.342 598.923 -294.218 613.915 -363.683 621.246C-411.773 626.271 -460.731 627.672 -509.399 623.471C-628.543 613.174 -741.621 559.383 -741.91 495.13" stroke="black" stroke-miterlimit="10"/>
<path d="M2094.29 991.604C2098.19 896.379 2024.68 800.989 1898.89 738.301C1773.11 675.614 1597.5 646.783 1432.57 661.775C1311.84 672.731 1200.93 705.351 1083.23 724.298C944.01 746.704 794.395 744.232 688.826 680.145C636.98 648.677 605.786 608.314 563.039 572.728C469.024 494.471 306.844 481.786 154.34 508.557C38.0844 528.986 -64.8846 568.032 -173.053 599.747C-281.221 631.461 -402.531 656.585 -522.685 645.629C-642.84 634.674 -756.785 577.176 -753.319 507.734" stroke="black" stroke-miterlimit="10"/>
<path d="M2063.53 991.522C2062.23 898.438 1985.25 807.249 1859.47 746.127C1845.03 739.125 1830.01 732.535 1814.41 726.357C1694.25 678.661 1543.48 655.926 1401.38 665.811C1335.09 670.342 1271.98 681.462 1209.01 693.077C1160.49 702.056 1111.97 711.282 1062.29 718.037C927.402 736.571 782.553 731.217 678.717 667.788C627.593 636.485 595.822 596.781 552.641 561.936C458.77 485.574 298.901 472.559 148.563 498.59C119.969 503.532 92.2408 509.628 64.946 516.465C-17.227 537.224 -94.3454 564.984 -174.497 588.626C-192.838 594.062 -211.467 599.252 -230.53 604.112C-322.235 627.507 -421.305 642.828 -519.508 634.014C-638.074 623.388 -750.719 567.702 -750.575 499.99" stroke="black" stroke-miterlimit="10"/>
<path d="M2032.91 991.357C2026.41 900.497 1945.97 813.509 1820.19 753.87C1805.74 747.033 1790.73 740.607 1775.27 734.512C1655.84 687.558 1508.54 663.34 1370.33 669.683C1305.92 672.648 1244.54 681.709 1183.6 691.347C1136.52 698.761 1089.58 706.422 1041.49 711.694C911.083 726.274 770.855 718.201 668.752 655.349C618.351 624.212 585.857 585.331 542.388 551.063C448.372 476.843 291.103 463.251 142.787 488.54C114.625 493.318 87.1864 499.331 60.1805 506.086C-20.9817 526.515 -96.8005 554.11 -175.796 577.587C-193.848 582.942 -212.334 588.131 -231.108 592.909C-321.513 616.139 -419.283 630.966 -516.331 622.482C-633.453 612.185 -744.654 558.312 -747.831 492.329" stroke="black" stroke-miterlimit="10"/>
<path d="M2002.15 991.192C1990.45 902.557 1906.55 819.688 1780.76 761.696C1766.32 755.023 1751.44 748.763 1735.99 742.749C1617.14 696.619 1473.44 670.754 1339.13 673.637C1276.46 674.955 1217.1 682.039 1158.03 689.7C1112.4 695.549 1067.05 701.562 1020.55 705.434C894.33 715.895 759.012 705.269 658.498 642.911C608.674 611.938 575.603 573.798 531.989 540.189C438.118 467.946 283.159 454.025 137.009 478.49C109.137 483.103 81.9864 488.952 55.4137 495.624C-24.7375 515.724 -99.4009 543.155 -177.241 566.467C-195.005 571.821 -213.201 576.929 -231.686 581.706C-320.792 604.689 -417.406 619.105 -513.155 610.867C-628.688 600.9 -738.589 548.839 -745.088 484.586" stroke="black" stroke-miterlimit="10"/>
<path d="M1971.39 991.028C1954.35 904.616 1867.12 825.948 1741.19 769.439C1726.75 762.931 1711.87 756.753 1696.57 750.904C1578.43 705.598 1438.2 678.085 1307.8 677.508C1247 677.179 1189.37 682.286 1132.47 687.97C1088.43 692.253 1044.52 696.619 999.466 699.008C877.723 705.516 747.026 692.089 648.245 630.39C599.143 599.581 565.494 562.183 521.447 529.233C427.721 459.05 274.928 444.634 130.944 468.358C103.361 472.889 76.6437 478.573 50.3599 485.08C-28.7805 504.85 -102.144 532.116 -178.829 555.264C-196.304 560.536 -214.212 565.643 -232.552 570.338C-320.358 593.074 -415.673 607.16 -510.266 599.17C-624.355 589.532 -732.956 539.283 -742.632 476.76" stroke="black" stroke-miterlimit="10"/>
<path d="M1940.77 990.945C1918.53 906.676 1827.84 832.209 1701.91 777.264C1687.47 771.004 1672.59 764.908 1657.43 759.142C1540.02 714.577 1403.26 685.499 1276.89 681.462C1217.97 679.568 1162.22 682.616 1107.2 686.24C1064.6 688.958 1022.28 691.759 978.815 692.665C861.404 695.219 735.329 679.073 638.425 617.951C590.045 587.308 555.674 550.651 511.338 518.36C417.612 450.153 267.274 435.408 125.457 458.226C98.3067 462.592 71.8785 468.111 45.8835 474.536C-32.2459 493.894 -104.454 521.078 -179.84 543.978C-197.17 549.25 -214.789 554.275 -232.696 558.971C-319.202 581.459 -413.361 595.133 -506.51 587.473C-619.011 578.164 -726.312 529.728 -739.31 468.935" stroke="black" stroke-miterlimit="10"/>
<path d="M1910.01 990.78C1882.57 908.735 1788.41 838.469 1662.48 785.09C1648.04 778.994 1633.17 773.063 1618.15 767.379C1501.31 723.638 1368.16 692.995 1245.7 685.499C1188.51 681.956 1134.64 683.11 1081.64 684.675C1040.63 685.91 999.755 686.981 957.875 686.487C844.796 685.004 723.486 666.14 628.316 605.595C580.658 575.116 545.709 539.201 500.94 507.569C407.358 441.421 259.331 426.182 119.68 448.258C92.8187 452.46 66.6792 457.896 41.1175 464.157C-36.001 483.186 -106.909 510.205 -181.14 532.94C-198.181 538.13 -215.511 543.155 -233.13 547.768C-318.335 570.009 -411.195 583.354 -503.189 575.94C-614.101 566.961 -720.103 520.337 -736.422 461.191" stroke="black" stroke-miterlimit="10"/>
<path d="M1879.25 990.616C1846.47 910.794 1748.99 844.647 1623.06 792.833C1608.62 786.902 1593.88 781.136 1578.72 775.617C1462.61 732.7 1333.07 700.409 1214.5 689.453C1159.19 684.263 1107.06 683.439 1056.08 683.027C1016.51 682.698 977.225 682.204 936.933 680.144C828.187 674.708 711.643 653.125 618.206 593.156C571.27 562.842 535.744 527.668 490.686 496.695C397.248 432.525 251.532 416.874 113.903 438.209C87.4743 442.328 61.6238 447.517 36.3509 453.778C-39.7567 472.477 -109.365 499.331 -182.585 521.902C-199.337 527.092 -216.378 532.034 -233.853 536.565C-317.759 558.559 -409.463 571.492 -500.157 564.325C-609.625 555.676 -714.183 510.864 -733.823 453.448" stroke="black" stroke-miterlimit="10"/>
<path d="M1848.64 990.451C1810.66 912.771 1709.71 850.908 1583.78 800.659C1569.33 794.893 1554.6 789.291 1539.59 783.855C1424.05 741.679 1297.98 707.822 1183.31 693.407C1129.87 686.652 1079.62 683.769 1030.52 681.38C992.39 679.568 954.698 677.344 915.994 673.884C811.725 664.493 699.802 640.193 607.953 580.8C561.595 550.733 525.491 516.218 480.144 485.987C386.851 423.793 243.301 407.813 107.983 428.324C81.8432 432.278 56.4258 437.385 31.4417 443.481C-43.6549 461.851 -112.108 488.54 -184.028 510.946C-200.491 516.053 -217.388 520.996 -234.429 525.527C-317.036 547.356 -407.441 559.795 -496.979 552.957C-604.858 544.638 -708.116 501.638 -731.223 445.952" stroke="black" stroke-miterlimit="10"/>
<path d="M1817.88 990.369C1774.69 914.913 1670.28 857.168 1544.35 808.485C1529.91 802.883 1515.18 797.447 1500.3 792.092C1385.49 750.74 1262.88 715.236 1152.26 697.361C1100.56 688.959 1052.18 684.099 1005.1 679.733C968.561 676.355 932.312 672.566 895.197 667.624C795.261 654.279 688.103 627.177 597.987 568.362C552.352 538.46 515.67 504.686 469.89 475.113C376.885 414.897 235.502 398.504 102.205 418.274C76.4988 422.064 51.2259 427.006 26.675 433.02C-47.4107 451.06 -114.564 477.584 -185.329 499.743C-201.503 504.851 -218.111 509.711 -235.008 514.159C-316.314 535.741 -405.564 547.85 -493.803 541.26C-600.093 533.27 -702.051 492.082 -728.48 438.127" stroke="black" stroke-miterlimit="10"/>
<path d="M1787.12 990.204C1738.74 916.972 1630.86 863.429 1504.78 816.31C1490.34 810.873 1475.61 805.601 1460.88 800.329C1346.79 759.718 1227.79 722.65 1121.07 701.315C1071.24 691.265 1024.6 684.428 979.537 678.085C944.444 673.142 909.784 667.706 874.257 661.28C778.798 644.064 676.118 614.162 587.879 555.923C542.966 526.185 505.706 493.153 459.493 464.239C366.633 406.083 227.56 389.278 96.4293 408.224C71.0119 411.849 46.1723 416.709 21.9103 422.558C-51.1646 440.268 -117.163 466.628 -186.772 488.622C-202.658 493.647 -218.977 498.507 -235.585 502.956C-315.592 524.291 -403.541 535.988 -490.48 529.645C-595.327 521.984 -695.841 482.609 -725.59 430.383" stroke="black" stroke-miterlimit="10"/>
<path d="M1756.5 990.039C1702.78 919.032 1591.57 869.689 1465.5 824.054C1451.06 818.864 1436.47 813.674 1421.74 808.485C1308.23 768.698 1192.7 730.064 1089.87 705.269C1041.78 693.572 997.155 684.757 953.975 676.438C920.326 669.93 887.399 662.928 853.172 655.02C762.045 633.85 664.13 601.147 577.625 543.567C533.433 513.994 495.596 481.703 449.094 453.448C356.523 397.269 219.616 380.052 90.5074 398.257C65.3789 401.799 40.9725 406.495 16.9993 412.179C-55.0646 429.56 -119.763 455.755 -188.217 477.584C-203.958 482.609 -219.844 487.387 -236.308 491.753C-315.015 512.841 -401.809 524.126 -487.448 518.113C-590.706 510.781 -690.065 473.218 -722.992 422.64" stroke="black" stroke-miterlimit="10"/>
<path d="M1725.74 989.875C1666.82 921.009 1552.15 875.867 1426.07 831.879C1411.63 826.854 1397.05 821.829 1382.46 816.722C1269.53 777.759 1157.6 737.478 1058.68 709.223C1012.46 695.961 969.573 685.087 928.414 674.79C896.353 666.717 864.871 658.15 832.232 648.76C745.582 623.718 652.289 588.214 567.517 531.128C523.903 501.72 485.632 470.171 438.697 442.575C346.27 388.29 211.53 370.744 84.7318 388.207C60.0366 391.585 35.7745 396.115 12.2345 401.799C-58.8185 418.851 -122.362 444.881 -189.515 466.546C-204.968 471.489 -220.709 476.266 -236.74 480.55C-314.147 501.391 -399.642 512.347 -484.125 506.58C-585.939 499.661 -683.854 463.828 -720.102 414.979" stroke="black" stroke-miterlimit="10"/>
<path d="M1695.12 989.792C1631 923.151 1512.87 882.21 1386.79 839.705C1372.35 834.845 1357.76 829.985 1343.18 824.96C1230.97 786.738 1122.51 744.891 1027.63 713.177C983.291 698.267 942.133 685.417 902.996 673.143C872.379 663.505 842.485 653.373 811.435 642.417C729.118 613.503 640.591 575.199 557.551 518.69C514.659 489.446 475.811 458.556 428.443 431.702C336.305 379.393 203.73 361.518 79.0986 378.158C54.6922 381.37 30.8634 385.819 7.61235 391.338C-62.4297 407.978 -124.673 433.926 -190.816 455.343C-205.98 460.286 -221.432 464.981 -237.318 469.265C-313.426 489.941 -397.765 500.402 -480.949 494.883C-581.174 488.293 -677.789 454.272 -717.359 407.154" stroke="black" stroke-miterlimit="10"/>
<path d="M1664.36 989.627C1594.9 925.21 1473.44 888.388 1347.37 847.448C1332.93 842.752 1318.34 837.975 1303.9 833.197C1192.41 795.799 1087.42 752.305 996.434 717.13C953.831 700.573 914.694 685.746 877.435 671.495C848.407 660.292 819.957 648.594 790.496 636.156C712.656 603.288 628.749 562.183 547.298 506.25C505.129 477.172 465.703 447.023 417.901 420.828C326.052 370.496 195.644 352.209 73.0344 368.025C49.0612 371.073 25.5212 375.357 2.55896 380.793C-66.4722 397.104 -127.416 422.887 -192.404 444.14C-207.278 449 -222.442 453.695 -238.039 457.896C-312.847 478.325 -395.887 488.457 -477.915 483.185C-576.552 476.925 -671.867 444.799 -714.758 399.328" stroke="black" stroke-miterlimit="10"/>
<path d="M1633.6 989.462C1558.94 927.269 1434.02 894.649 1307.94 855.274C1293.5 850.743 1279.06 846.13 1264.62 841.435C1153.7 804.86 1052.32 759.801 965.24 721.085C924.514 702.962 887.11 686.075 851.873 669.765C824.289 656.997 797.428 643.734 769.555 629.813C696.047 593.074 616.907 549.168 537.189 493.812C495.741 464.898 455.738 435.491 407.647 409.954C316.087 361.518 187.845 342.983 67.4015 357.976C43.7172 360.941 20.6105 365.06 -2.06289 370.332C-70.0831 386.313 -129.872 411.931 -193.56 433.019C-208.146 437.879 -223.165 442.492 -238.329 446.694C-311.837 466.875 -393.721 476.596 -474.305 471.653C-571.498 465.722 -665.369 435.408 -711.582 391.667" stroke="black" stroke-miterlimit="10"/>
<path d="M1602.98 989.298C1523.12 929.246 1394.73 900.827 1268.51 863.017C1254.07 858.651 1239.63 854.203 1225.33 849.59C1115.14 813.756 1017.23 767.132 934.045 725.039C895.053 705.269 859.671 686.405 826.311 668.117C800.171 653.867 774.898 638.957 748.614 623.47C679.439 582.859 604.92 536.07 527.079 481.373C486.209 452.624 445.917 423.876 397.249 399.081C305.977 352.621 179.902 333.675 61.48 347.926C38.229 350.727 15.2665 354.681 -6.97366 359.953C-73.983 375.604 -132.472 401.058 -195.149 421.981C-209.59 426.759 -224.176 431.372 -239.196 435.49C-311.404 455.425 -391.988 464.734 -471.417 460.038C-567.021 454.437 -659.593 425.935 -709.127 383.841" stroke="black" stroke-miterlimit="10"/>
<path d="M1572.22 989.215C1487.16 931.388 1355.31 907.17 1229.09 870.925C1214.65 866.806 1200.21 862.44 1186.05 857.91C1076.44 822.9 982.136 774.628 902.996 729.075C865.881 707.658 832.232 686.817 800.893 666.552C776.342 650.736 752.514 634.179 727.818 617.292C662.975 572.81 593.222 523.22 517.114 469.017C476.967 440.433 436.097 412.426 386.995 388.372C296.012 343.807 171.959 324.531 55.8475 338.041C32.8853 340.677 10.3562 344.549 -11.5952 349.656C-77.5936 364.978 -134.927 390.267 -196.304 410.943C-210.457 415.721 -224.754 420.251 -239.485 424.37C-310.393 444.058 -389.822 453.036 -467.952 448.588C-561.967 443.316 -653.238 416.627 -706.095 376.263" stroke="black" stroke-miterlimit="10"/>
<path d="M1541.46 989.051C1451.06 933.448 1315.88 913.348 1189.66 878.668C1175.22 874.714 1160.92 870.513 1146.77 866.065C1037.88 831.797 947.043 781.96 871.802 732.947C836.564 709.964 804.793 686.982 775.332 664.823C752.369 647.359 729.985 629.319 706.734 610.95C646.079 562.595 581.235 510.205 506.861 456.579C467.435 428.159 425.988 400.811 376.453 377.499C285.903 334.829 163.871 315.306 49.9267 327.991C27.2533 330.463 5.15753 334.252 -16.505 339.194C-81.4925 354.187 -137.526 379.311 -197.748 399.822C-211.612 404.518 -225.62 409.048 -240.206 413.085C-309.815 432.525 -387.945 441.092 -464.919 436.974C-557.49 432.031 -647.461 407.154 -703.495 368.52" stroke="black" stroke-miterlimit="10"/>
<path d="M1510.85 988.886C1415.24 935.424 1276.6 919.608 1150.38 886.494C1135.94 882.704 1121.64 878.668 1107.63 874.302C999.322 840.858 912.094 789.456 840.752 736.901C807.248 712.271 777.498 687.311 749.914 663.175C728.396 644.146 707.456 624.541 685.938 604.606C629.615 552.381 569.538 497.107 496.752 444.14C458.048 415.885 416.167 389.196 366.199 366.625C275.939 325.849 156.073 305.997 44.1501 317.941C21.9099 320.33 -0.0414924 323.872 -21.2707 328.733C-85.2473 343.395 -139.981 368.355 -199.192 388.702C-212.767 393.397 -226.631 397.845 -240.784 401.799C-309.093 421.075 -386.067 429.148 -461.742 425.358C-552.724 420.745 -641.396 397.68 -700.751 360.776" stroke="black" stroke-miterlimit="10"/>
<path d="M1480.08 988.721C1379.28 937.484 1237.18 925.869 1110.96 894.237C1096.51 890.612 1082.22 886.741 1068.21 882.457C960.618 849.837 876.857 796.787 809.414 740.854C777.787 714.577 749.77 687.64 724.208 661.527C704.279 641.016 684.782 619.763 664.853 598.346C612.574 542.331 557.551 484.174 486.498 431.701C448.517 403.611 406.058 377.581 355.657 355.751C265.83 316.788 147.985 296.771 38.2288 307.891C16.2775 310.116 -5.24057 313.575 -26.181 318.271C-89.1467 332.522 -142.725 357.399 -200.636 377.581C-213.923 382.194 -227.498 386.642 -241.506 390.596C-308.516 409.625 -384.19 417.368 -458.565 413.743C-548.103 409.46 -635.33 388.207 -698.007 353.033" stroke="black" stroke-miterlimit="10"/>
<path d="M1449.32 988.639C1331.05 934.024 1163.81 930.976 1028.93 890.777C871.802 843.988 772.443 748.021 698.791 659.963C605.786 548.921 526.791 420.169 345.403 345.043C237.957 300.478 92.6741 280.214 -30.9466 307.974C-107.199 325.108 -168.72 358.47 -241.939 379.476C-386.501 420.828 -574.242 406.742 -695.119 345.455" stroke="black" stroke-miterlimit="10"/>
</g>
</g>
<g filter="url(#filter0_f_546_324)">
<ellipse cx="736" cy="244" rx="543" ry="411" fill="white"/>
</g>
</g>
<defs>
<filter id="filter0_f_546_324" x="-107" y="-467" width="1686" height="1422" filterUnits="userSpaceOnUse" color-interpolation-filters="sRGB">
<feFlood flood-opacity="0" result="BackgroundImageFix"/>
<feBlend mode="normal" in="SourceGraphic" in2="BackgroundImageFix" result="shape"/>
<feGaussianBlur stdDeviation="150" result="effect1_foregroundBlur_546_324"/>
</filter>
</defs>
</svg>
